<svg xmlns="http://www.w3.org/2000/svg" width="561.08" height="520.12" version="1.2" viewBox="0 0 420.81 390.09"><defs><filter id="a" width="1.028" height="1.026" x="-.014" y="-.013" style="color-interpolation-filters:sRGB"><feTurbulence baseFrequency="5.21605 5.36769" result="turbulence" type="fractalNoise"/><feDisplacementMap in="SourceGraphic" in2="turbulence" scale="50" xChannelSelector="R" yChannelSelector="G"/></filter></defs><path d="m73.46 113.29 1.618 3.276 3.613.524-2.613 2.55.617 3.602-3.234-1.699-3.234 1.7.617-3.602-2.617-2.551 3.617-.524 1.617-3.277" style="fill:#e6e6e3;fill-opacity:1;fill-rule:nonzero;stroke:none"/><path d="m397.11 267.527 1.617 3.274 3.617.527-2.617 2.55.617 3.602-3.235-1.703-3.234 1.703.617-3.601-2.613-2.55 3.613-.528 1.617-3.274M333.004 362.61l1.617 3.273 3.617.527-2.617 2.55.617 3.603-3.234-1.704-3.234 1.704.617-3.602-2.614-2.55 3.614-.528 1.617-3.274" style="fill:#f3f0f0;fill-opacity:1;fill-rule:nonzero;stroke:none"/><path d="m186.352 55.195.597 1.22 1.344.194a.407.407 0 0 1 .227.696l-.973.945.23 1.336a.41.41 0 0 1-.593.434l-1.2-.633-1.199.633a.41.41 0 0 1-.594-.434l.23-1.336-.972-.945a.407.407 0 0 1 .227-.696l1.344-.195.597-1.219c.153-.3.582-.3.735 0" style="fill:#e6e6e3;fill-opacity:1;fill-rule:nonzero;stroke:none"/><path d="m21.184 347.05.597 1.216 1.344.195c.336.05.469.46.227.695l-.973.95.23 1.335a.408.408 0 0 1-.593.43l-1.2-.629-1.199.63a.408.408 0 0 1-.594-.43l.23-1.337-.972-.949a.408.408 0 0 1 .227-.695l1.344-.195.597-1.215a.41.41 0 0 1 .735 0" style="fill:#f3f0f0;fill-opacity:1;fill-rule:nonzero;stroke:none"/><path d="m48.16 42.344.602 1.215 1.34.195c.336.05.468.46.226.695l-.969.95.227 1.335a.406.406 0 0 1-.59.43l-1.203-.629-1.2.63a.409.409 0 0 1-.593-.43l.23-1.337-.972-.949a.409.409 0 0 1 .226-.695l1.344-.195.602-1.215a.406.406 0 0 1 .73 0M46.535 283.363a1.325 1.325 0 1 1-2.65-.002 1.325 1.325 0 0 1 2.65.002M236.078 116.938a1.33 1.33 0 0 1-1.328 1.328 1.327 1.327 0 1 1 1.328-1.328" style="fill:#e6e6e3;fill-opacity:1;fill-rule:nonzero;stroke:none"/><path d="M167.113 43.441a1.327 1.327 0 1 1-2.654.003 1.327 1.327 0 0 1 2.654-.003" style="fill:#f3f0f0;fill-opacity:1;fill-rule:nonzero;stroke:none"/><path d="M174.895 360.418a7.35 7.35 0 0 0-7.348-7.348 7.35 7.35 0 0 0-7.348 7.348 7.347 7.347 0 0 0 7.348 7.348 7.347 7.347 0 0 0 7.348-7.348" style="fill:#ebebeb;fill-opacity:1;fill-rule:nonzero;stroke:none"/><path d="M165.004 356.133c-1.563 0-3.012.5-4.192 1.36-.39.898-.609 1.89-.609 2.929 0 4.058 3.29 7.34 7.352 7.34 1.367 0 2.66-.38 3.758-1.04v-.011c.55-1.02.859-2.18.859-3.418 0-3.95-3.207-7.16-7.168-7.16" style="fill:#999;fill-opacity:1;fill-rule:nonzero;stroke:none"/><path d="M113.313 212.621v-37.836l-32.157 37.836h32.156m0 25.918H52.458v-27.476l60.855-72.336h29.114v73.894h15.094v25.918h-15.094v22.473h-29.113v-22.473M195.84 194.633c0 15.308 1.355 25.765 4.062 31.37 2.707 5.606 6.63 8.407 11.766 8.407 3.39 0 6.328-1.187 8.816-3.566 2.489-2.38 4.32-6.14 5.496-11.278 1.176-5.14 1.766-13.152 1.766-24.03 0-15.966-1.355-26.696-4.062-32.192-2.707-5.496-6.766-8.242-12.176-8.242-5.524 0-9.516 2.804-11.977 8.406-2.46 5.605-3.691 15.98-3.691 31.125m-33.133-.082c0-22.856 4.113-38.848 12.344-47.977 8.226-9.133 20.762-13.699 37.601-13.699 8.094 0 14.739 1 19.934 2.992 5.191 2 9.43 4.594 12.71 7.793 3.278 3.2 5.864 6.563 7.75 10.086 1.888 3.527 3.403 7.645 4.552 12.348 2.242 8.965 3.363 18.316 3.363 28.047 0 21.816-3.691 37.78-11.07 47.898-7.383 10.113-20.094 15.172-38.137 15.172-10.117 0-18.293-1.613-24.524-4.84-6.234-3.226-11.347-7.957-15.335-14.187-2.903-4.43-5.157-10.485-6.766-18.168-1.617-7.68-2.422-16.168-2.422-25.465M332.148 206.77v-37.836l-32.156 37.836h32.156m0 25.917h-60.855v-27.476l60.855-72.336h29.118v73.895h15.09v25.917h-15.09v22.473h-29.118v-22.472" style="fill:#fff;fill-opacity:1;fill-rule:nonzero;stroke:none"/><path d="M159.492 92.527a1.864 1.864 0 0 1-1.863-1.867 1.86 1.86 0 0 1 1.863-1.863 1.86 1.86 0 0 1 1.863 1.863 1.864 1.864 0 0 1-1.863 1.867" style="fill:#ccc;fill-opacity:1;fill-rule:nonzero;stroke:none"/><path d="M33.371 162.496a1.325 1.325 0 0 1 0-2.648 1.325 1.325 0 0 1 0 2.648" style="fill:#0f0;fill-opacity:1;fill-rule:nonzero;stroke:none"/><path d="M251.46 355.27a1.894 1.894 0 1 1 0-3.788 1.894 1.894 0 0 1 0 3.788" style="fill:#f2f2f2;fill-opacity:1;fill-rule:nonzero;stroke:none"/><path d="M296.902 278.367c-.73 0-1.32-.594-1.32-1.324a1.322 1.322 0 1 1 2.645 0c0 .73-.59 1.324-1.325 1.324" style="fill:gray;fill-opacity:1;fill-rule:nonzero;stroke:none"/><path d="M383.258 41.984a1.323 1.323 0 1 1-.003-2.645 1.323 1.323 0 0 1 .003 2.645" style="fill:#ff7f2a;fill-opacity:1;fill-rule:nonzero;stroke:none"/><path d="M131.836 15.328a1.322 1.322 0 1 1 .003-2.644 1.322 1.322 0 0 1-.003 2.644" style="fill:#b3b3b3;fill-opacity:1;fill-rule:nonzero;stroke:none"/><path d="M238.102 83.309a1.322 1.322 0 1 1 0-2.645 1.322 1.322 0 1 1 0 2.645" style="fill:gray;fill-opacity:1;fill-rule:nonzero;stroke:none"/><path d="M123.55 61.402c0 12.102-9.812 21.91-21.91 21.91-12.1 0-21.91-9.808-21.91-21.91 0-12.101 9.81-21.91 21.91-21.91 12.098 0 21.91 9.809 21.91 21.91" style="fill:#3f6ebd;fill-opacity:1;fill-rule:nonzero;stroke:none"/><path d="M101.64 83.313c-12.1 0-21.91-9.81-21.91-21.91 0-12.102 9.81-21.91 21.91-21.91 12.098 0 21.91 9.808 21.91 21.91 0 9.019-5.448 16.761-13.234 20.124v-.007a21.858 21.858 0 0 0 5.688-14.735c0-12.105-9.809-21.914-21.914-21.914-3.074 0-5.988.637-8.64 1.77a21.848 21.848 0 0 0-5.72 14.765c0 12.094 9.81 21.903 21.907 21.903 2.836 0 5.55-.54 8.043-1.52a21.815 21.815 0 0 1-8.04 1.524M113.47 46.66a2 2 0 0 0-2.004 2.004 2 2 0 0 0 2.004 2c1.105 0 2-.894 2-2a2 2 0 0 0-2-2.004" style="fill:#fff;fill-opacity:1;fill-rule:nonzero;stroke:none"/><path d="M109.68 81.79" style="fill:#cfdef3;fill-opacity:1;fill-rule:nonzero;stroke:none"/><path d="M101.637 83.309c-12.098 0-21.907-9.809-21.907-21.903a21.848 21.848 0 0 1 5.72-14.765 21.928 21.928 0 0 1 8.64-1.77c12.105 0 21.914 9.809 21.914 21.914 0 5.676-2.156 10.84-5.688 14.735v.007a21.929 21.929 0 0 1-8.68 1.781m-4.968-15.402a4.381 4.381 0 1 0-.003 8.763 4.381 4.381 0 0 0 .003-8.763m11.52-8.242a3.28 3.28 0 1 0-.002 6.557 3.28 3.28 0 0 0 .001-6.557m-18.28-11c-1.106 0-2 .895-2 2a2.003 2.003 0 1 0 2-2" style="fill:#fff;fill-opacity:1;fill-rule:nonzero;stroke:#333;filter:url(#a)"/><path d="M89.906 52.668a2 2 0 0 1-2-2.004 2.002 2.002 0 1 1 2 2.004" style="fill:#000;fill-opacity:1;fill-rule:nonzero;stroke:none"/><path d="M113.469 50.664a2 2 0 0 1-2.004-2 2 2 0 0 1 2.004-2.004 2 2 0 0 1 2 2.004c0 1.106-.895 2-2 2" style="fill:#666;fill-opacity:1;fill-rule:nonzero;stroke:none"/><path d="M108.188 66.223a3.28 3.28 0 1 1-.003-6.56 3.28 3.28 0 0 1 .002 6.56" style="fill:#4d4d4d;fill-opacity:1;fill-rule:nonzero;stroke:none"/><path d="M96.668 76.668a4.38 4.38 0 1 1 0-8.762 4.38 4.38 0 0 1 0 8.762" style="fill:#f2f2f2;fill-opacity:1;fill-rule:nonzero;stroke:none"/><path d="M361.828 321.293c0 10.617-8.605 19.223-19.226 19.223-10.618 0-19.223-8.606-19.223-19.223 0-10.621 8.605-19.227 19.223-19.227 10.62 0 19.226 8.606 19.226 19.227" style="fill:#3f6ebd;fill-opacity:1;fill-rule:nonzero;stroke:none"/><path d="M337.063 339.707c-7.918-2.379-13.684-9.723-13.684-18.414 0-10.621 8.605-19.227 19.223-19.227a19.17 19.17 0 0 1 12.988 5.047c-.277-.25-.563-.496-.852-.73a19.056 19.056 0 0 0-5.539-.813c-10.617 0-19.226 8.61-19.226 19.227 0 6.02 2.757 11.379 7.09 14.91m11.285-.062c7.812-2.446 13.48-9.739 13.48-18.356a20.063 20.063 0 0 0 0 .004c0 8.617-5.668 15.91-13.48 18.352" style="fill:#e6e6e6;fill-opacity:1;fill-rule:nonzero;stroke:none"/><path d="M342.602 340.52c-1.926 0-3.79-.282-5.54-.813 1.754.527 3.614.809 5.54.809 2 0 3.93-.305 5.746-.871a19.272 19.272 0 0 1-5.746.875M361.785 320" style="fill:#a1c2e8;fill-opacity:1;fill-rule:nonzero;stroke:none"/><path d="M342.602 340.516c-1.926 0-3.786-.282-5.54-.809-4.332-3.531-7.09-8.89-7.09-14.91 0-10.617 8.61-19.227 19.227-19.227 1.926 0 3.79.282 5.54.813a19.161 19.161 0 0 1 7.09 14.906c0 8.617-5.669 15.91-13.481 18.356a19.27 19.27 0 0 1-5.746.87" style="fill:#1a1a1a;fill-opacity:1;fill-rule:nonzero;stroke:none"/><path d="M324.234 326.988c-20.53 9.664-5.214 17.11 23.715 6.715 26.781-9.625 36.965-21.77 13.051-18.008 1.234 5.11-32.313 18.18-36.766 11.293" style="fill:#4d4d4d;fill-opacity:1;fill-rule:nonzero;stroke:none"/><path d="M354.5 132.875h-3.57s.004 0 .004-.004h3.57l-.004.004" style="fill:#c2c5c2;fill-opacity:1;fill-rule:nonzero;stroke:none"/><path d="M215.426 313.309c-16.973 0-33.809-7.66-41.988-20.188-5.051-7.738-10.918-23.95 6.554-45.578l1.559 1.258c-12.363 15.3-14.649 30.652-6.438 43.226 9.992 15.309 33.598 23.008 53.73 17.532 20.63-5.614 33.153-23.559 34.36-49.23 4.137-87.806 50.785-114.856 84.848-134.606 21.164-12.27 36.453-21.133 33.09-39.836-.465-2.594-1.5-4.387-3.16-5.48-4.356-2.872-12.856-.887-22.696 1.406-19.305 4.496-45.746 10.656-61.496-16.133l1.723-1.016c15.008 25.524 39.578 19.8 59.32 15.2 10.29-2.395 19.176-4.466 24.246-1.13 2.145 1.41 3.465 3.637 4.031 6.797 3.61 20.082-13.011 29.723-34.054 41.922-33.664 19.52-79.77 46.254-83.852 132.969-1.254 26.598-14.312 45.207-35.836 51.066-4.535 1.235-9.246 1.82-13.941 1.82" style="fill:#3f6ebd;fill-opacity:1;fill-rule:nonzero;stroke:none"/><path d="M215.426 313.309a57.823 57.823 0 0 1-11.16-1.094c-12.844-2.535-24.461-9.34-30.828-19.094-.188-.289-.38-.59-.57-.902.39-.664.773-1.328 1.148-1.996.343.605.707 1.21 1.097 1.804 7.817 11.973 23.957 19.293 40.25 19.293 4.543 0 9.09-.57 13.48-1.761 20.63-5.614 33.153-23.559 34.36-49.23 4.137-87.806 50.785-114.856 84.848-134.606 19.187-11.125 33.55-19.453 33.554-34.852 0-1.582-.148-3.242-.464-4.984-.465-2.594-1.5-4.387-3.16-5.48-1.544-1.02-3.61-1.427-6.067-1.427-4.48 0-10.273 1.352-16.629 2.832-7.945 1.852-17.105 3.985-26.226 3.985-11.403 0-22.747-3.328-31.614-14.707.407-.653.758-1.309 1.032-1.938 8.457 11.352 19.285 14.707 30.418 14.707 8.793 0 17.777-2.093 25.937-3.996 6.438-1.5 12.324-2.87 17.074-2.87 2.84 0 5.274.491 7.172 1.741 2.145 1.41 3.465 3.637 4.031 6.797.336 1.864.496 3.637.496 5.332-.008 16.563-15.46 25.52-34.55 36.59-2.996 1.738-6.094 3.535-9.246 5.422-5.512 3.3-11.204 6.887-16.88 10.957-16.245 11.664-32.316 27.309-43.41 51.602-3.19 6.988-5.972 14.699-8.226 23.226-3.207 12.14-5.348 25.953-6.09 41.762-1.254 26.598-14.312 45.207-35.836 51.066-4.172 1.133-8.496 1.723-12.82 1.809-.082.004-.164.004-.25.004-.29.008-.582.008-.871.008" style="fill:#000;fill-opacity:1;fill-rule:nonzero;stroke:none"/><path d="M273.164 41.992c6.856-.125 13.582 2.133 13.582 2.133s10.965 18.77 12.3 23.066c-.46 4.243-7.612 11.192-7.612 11.192l-18.27-36.39" style="fill:#3f6ebd;fill-opacity:1;fill-rule:nonzero;stroke:none"/><path d="M295.363 74.012c-.304-.41-.625-.82-.957-1.235.078-.043.16-.09.239-.136.004-.047.004-.094.004-.141a1.87 1.87 0 0 0-.68-1.438s-.027.016-.078.04c-.38-2.774-2.16-7.747-4.551-13.59a289.351 289.351 0 0 0-1.254-3.016c1.38.785 2.723 1.57 3.988 2.36 1.032.585 2.215 1.656 3.426 2.89 1.715 3.234 3.121 6.074 3.547 7.445-.066.61-.27 1.27-.57 1.961a15.125 15.125 0 0 1-1.031 1.938 31.519 31.519 0 0 1-2.083 2.922" style="fill:#000;fill-opacity:1;fill-rule:nonzero;stroke:none"/><path d="M305.746 133.176c-4.137-5.25-8.2-10.594-11.559-16.387a84.232 84.232 0 0 1-2.39-4.414 81.543 81.543 0 0 1-1.242-2.566c-.352-.754-1.13-1.864-1.207-2.688-1.2-12.668 3.136-22-1.028-32.168l-16.468 6.438s1.398 18.12 4.597 28.96c1.985 6.727 6.473 12.551 10.805 17.938 1.351 1.688 2.656 3.41 4.008 5.098 1.277 1.597 2.71 3.066 3.996 4.652 1.945 2.414 2.594 4.719 1.113 7.563-.078.152-.16.304-.246.453-.422.742 1.547 1.582 2.781.02 2.04-2.579 1.719-2.419 3.461-4.622 1.059-1.336 2.27-2.777 3.32-4.031a3.37 3.37 0 0 0 .06-4.246" style="fill:#3f6ebd;fill-opacity:1;fill-rule:nonzero;stroke:none"/><path d="M297.215 146.957c-.64 0-1.149-.328-1.149-.691 0-.07.02-.141.059-.211.086-.149.168-.301.246-.453.555-1.067.813-2.055.813-3.004 0-1.582-.711-3.047-1.926-4.559-1.285-1.586-2.719-3.055-3.996-4.652-1.352-1.688-2.657-3.41-4.008-5.098-4.332-5.387-8.82-11.21-10.805-17.937-2.816-9.551-4.238-24.758-4.539-28.239.133.149.238.246.238.246s2.98-1.02 7.028-2.605c1.258 2.2 5.535 9.582 10.219 16.61a75.298 75.298 0 0 0-.262 5.984c-.004 1.539.058 3.129.215 4.773.078.824.855 1.934 1.207 2.688.398.859.812 1.718 1.242 2.566a84.232 84.232 0 0 0 2.39 4.414c2.258 3.89 4.829 7.578 7.532 11.172-2.207 2.664-6.692 6.121-8.664 7.523.43.477.855.97 1.28 1.457 4.067-2.656 7.282-6.101 8.505-7.503.957 1.253 1.93 2.5 2.906 3.738.48.61.723 1.344.723 2.082 0 .086 0 .172-.008.258a3.4 3.4 0 0 0-.719-2.34l-.117-.145c-.695.723-1.184 1.875-1.266 3.172-.066.89.086 1.711.38 2.348l.093-.11c-.82.985-1.684 2.028-2.465 3.012-1.742 2.203-1.422 2.043-3.461 4.621-.512.649-1.148.883-1.691.883" style="fill:#fff;fill-opacity:1;fill-rule:nonzero;stroke:none"/><path d="M302.84 129.438c-.38-.489-.75-.985-1.121-1.477.37.496.746.992 1.12 1.476" style="fill:#b8d1ee;fill-opacity:1;fill-rule:nonzero;stroke:none"/><path d="M294.336 136.941c-.426-.488-.852-.98-1.281-1.457 1.972-1.402 6.457-4.859 8.664-7.523.37.492.742.988 1.12 1.476-1.222 1.403-4.437 4.848-8.503 7.504" style="fill:#666;fill-opacity:1;fill-rule:nonzero;stroke:none"/><path d="m304.832 138.441.855-1.02c-.277.329-.558.673-.855 1.02" style="fill:#b8d1ee;fill-opacity:1;fill-rule:nonzero;stroke:none"/><path d="M304.738 138.55c-.293-.636-.445-1.456-.379-2.347.082-1.297.57-2.45 1.266-3.172l.117.145a3.4 3.4 0 0 1 .719 2.34 3.366 3.366 0 0 1-.774 1.906c-.277.328-.562.668-.855 1.02-.031.035-.062.074-.094.109" style="fill:#666;fill-opacity:1;fill-rule:nonzero;stroke:none"/><path d="M269.246 53.992c-1.723 2.508-3.754 4.977-6.375 7.196a24.062 24.062 0 0 1-4.414 2.98c-.824.418-1.687.781-2.586 1.082l-.672.219-.219.066a5.39 5.39 0 0 1-.476.13c-.305.07-.606.116-.875.136a7.483 7.483 0 0 1-2.512-.23c-1.277-.348-2.133-.817-2.937-1.266a23.158 23.158 0 0 1-2.157-1.414 40.32 40.32 0 0 1-3.578-3.047 53.214 53.214 0 0 1-5.988-6.739 2.51 2.51 0 0 1 3.352-3.625l.078.051c2.36 1.5 4.738 3.078 7.062 4.492 1.172.692 2.32 1.387 3.445 1.93a15.43 15.43 0 0 0 1.586.715c.48.187.954.293 1.079.27.05-.004-.008-.075-.38-.063a1.793 1.793 0 0 0-.34.047l-.218.055.035-.028.328-.168c.442-.222.864-.504 1.29-.789.859-.578 1.671-1.312 2.503-2.12 1.645-1.634 3.23-3.669 4.903-5.786l.023-.027a4.997 4.997 0 0 1 7.024-.825c2.078 1.637 2.492 4.61 1.02 6.758" style="fill:#3f6ebd;fill-opacity:1;fill-rule:nonzero;stroke:none"/><path d="M253.04 65.824a7.692 7.692 0 0 1-1.923-.254c-1.277-.347-2.133-.816-2.937-1.265a23.158 23.158 0 0 1-2.157-1.414 40.32 40.32 0 0 1-3.578-3.047 53.214 53.214 0 0 1-5.988-6.739 2.47 2.47 0 0 1-.39-.77c.152.08.312.142.484.188l4.851-1.57-.242-.41.008.004a2.204 2.204 0 0 1-.164-.3c1.992 1.276 3.988 2.585 5.945 3.776 1.172.692 2.32 1.387 3.446 1.93a15.43 15.43 0 0 0 1.586.715c.148.059.297.11.433.148l.07-.035c.442-.222.864-.504 1.29-.789.859-.578 1.671-1.312 2.504-2.12 1.644-1.634 3.23-3.669 4.902-5.786l.023-.027c.344-.438.75-.805 1.196-1.094a4.309 4.309 0 0 0-1.598 4.293c.601 2.96 1.445 6.234 2.469 9.586-.13.117-.262.23-.399.343a24.062 24.062 0 0 1-4.414 2.981c-.824.418-1.687.781-2.586 1.082l-.672.219-.218.066a5.39 5.39 0 0 1-.477.13c-.305.07-.605.116-.875.136a7.824 7.824 0 0 1-.59.023m-.402-8.945c.164.039.3.062.379.062.015 0 .03-.003.043-.003.011 0 .015-.004.015-.008 0-.02-.078-.055-.308-.055h-.086c-.012 0-.027.004-.043.004" style="fill:#fff;fill-opacity:1;fill-rule:nonzero;stroke:none"/><path d="m232.691 47.457 1.172 1.969s.895 2.613 2.688 3.097l4.851-1.57-.242-.41.008.004c-.62-.95-.555-2.774-.34-4.293.223-1.52-.566-1.574-1.148-1.195-.336.218-.574.91-.848 1.656a7.76 7.76 0 0 0-.785-.934l-1.48-1.476a1.71 1.71 0 0 0-2.34-.067l-1.203 1.07a1.7 1.7 0 0 0-.332 2.149" style="fill:#3f6ebd;fill-opacity:1;fill-rule:nonzero;stroke:none"/><path d="M236.55 52.523c-1.792-.484-2.687-3.097-2.687-3.097l-1.172-1.969a1.704 1.704 0 0 1 .332-2.148l1.204-1.07a1.716 1.716 0 0 1 2.34.066l1.48 1.476c.289.29.547.606.785.934.273-.746.512-1.438.848-1.656a1.08 1.08 0 0 1 .578-.196c.332 0 .61.242.61.914 0 .141-.013.297-.04.477-.09.629-.152 1.309-.152 1.96 0 .919.125 1.774.492 2.333l-.008-.004.242.41-4.851 1.57" style="fill:#fff;fill-opacity:1;fill-rule:nonzero;stroke:none"/><path d="M278.078 40.266c-4.648 1.129-11.035 3.78-15.348 6.468a4.306 4.306 0 0 0-1.93 4.524c1.923 9.441 6.313 22.086 11.052 30.129l22.113-9.145c.152-3.902-5.219-16.52-10.684-28.719-.984-2.191-2.867-3.824-5.203-3.257" style="fill:#3f6ebd;fill-opacity:1;fill-rule:nonzero;stroke:none"/><path d="M271.57 80.902c-3.148-5.484-6.125-12.937-8.3-20.058-1.024-3.352-1.868-6.625-2.47-9.586a4.306 4.306 0 0 1 1.93-4.523c.239-.145.481-.294.727-.442.05.062.102.121.149.18 4.449-.114 8.222-1.149 11.007-2.543-.004.043-.004.09-.004.136a5 5 0 0 0 2.578 4.375l.016.012 6.434 3.57c1.535 2.02 3.894 4.106 5.703 5.489 2.39 5.843 4.172 10.816 4.55 13.59-.953.496-10.886 5.586-22.32 9.8m-2.632-11.62a3.904 3.904 0 0 0 1.219-.098s9.761-3.637 12.714-4.973c-1.988-4.117-5.23-13.113-5.23-13.113l-1.22.101c-3.148.211-10.01 2.793-12.448 4.645.418 3.258 2.859 10.18 4.964 13.437" style="fill:#fff;fill-opacity:1;fill-rule:nonzero;stroke:none"/><path d="M289.344 57.516s-.004 0-.004-.004a409.37 409.37 0 0 0-1.258-3.016h.004c.434 1.027.855 2.035 1.258 3.02" style="fill:#5c87cf;fill-opacity:1;fill-rule:nonzero;stroke:none"/><path d="M289.34 57.512c-1.809-1.383-4.168-3.469-5.703-5.489l1.129.625c1.109.614 2.222 1.23 3.316 1.848a409.37 409.37 0 0 1 1.258 3.016" style="fill:gray;fill-opacity:1;fill-rule:nonzero;stroke:none"/><path d="M276.621 30.363c-1.824-3.48-5.773-5.234-10.516-4.84-3.996.336-7.543 4.418-7.12 6.625.417 2.204 3.785 3.137 4.394 3.907l-2.774 2.007a3.005 3.005 0 0 0-.597 4.29c1.168 1.48 2.707 3.027 3.597 4.12 7.665-.199 13.332-3.12 15.375-5.933-.734-3.582-.543-6.715-2.359-10.176" style="fill:#3f6ebd;fill-opacity:1;fill-rule:nonzero;stroke:none"/><path d="M263.605 46.473c-.89-1.094-2.43-2.641-3.597-4.121a3.005 3.005 0 0 1-.645-1.86c.004-.926.43-1.84 1.242-2.43l2.774-2.007c-.61-.77-3.977-1.703-4.395-3.907a2.014 2.014 0 0 1-.035-.378c.004-2.262 3.38-5.93 7.157-6.247.44-.035.875-.054 1.3-.054 4.157 0 7.563 1.738 9.215 4.894 1.578 3.008 1.64 5.766 2.113 8.785a5.003 5.003 0 0 0-3.496 2.493 4.975 4.975 0 0 0-.625 2.289c-2.785 1.394-6.558 2.43-11.007 2.543" style="fill:#fff;fill-opacity:1;fill-rule:nonzero;stroke:none"/><path d="M272.867 32.52a7.572 7.572 0 0 1-4.297 9.808 7.57 7.57 0 0 1-9.808-4.297c-1.524-3.894.398-8.289 4.293-9.808a7.572 7.572 0 0 1 9.812 4.297" style="fill:#17262e;fill-opacity:1;fill-rule:nonzero;stroke:none"/><path d="M337.793 122.64c-.11-3.288-.254-2.96-.348-5.765-.058-1.703-.066-3.59-.078-5.223a3.364 3.364 0 0 0-2.699-3.277c-1.324-.27-2.652-.523-3.977-.805-1.726-.37-3.43-.765-5.128-1.257a65.856 65.856 0 0 1-3.903-1.27 73.463 73.463 0 0 1-4.09-1.617 120.14 120.14 0 0 1-4.675-2.14 232.863 232.863 0 0 1-5.145-2.548c-6.582-10.898-6.723-18.074-13.785-26.496l-15.16 6.856s11.136 19.765 18.722 28.144c4.368 4.824 11.22 7 17.328 8.578 4.41 1.137 8.88 2.008 13.356 2.828 1.738.32 3.629.446 5.125 1.485 1.18.816 1.789 2.094 2.14 3.449.07.277.13.559.184.84.156.836 2.203.207 2.133-1.781" style="fill:#3f6ebd;fill-opacity:1;fill-rule:nonzero;stroke:none"/><path d="M336.172 124.781c-.266 0-.469-.117-.512-.36a15.32 15.32 0 0 0-.183-.839c-.352-1.355-.961-2.633-2.141-3.45-1.496-1.038-3.387-1.163-5.125-1.484a2.915 2.915 0 0 1-.176-.03c1.754-4.747 2.031-9.766 2.07-11.177a79.312 79.312 0 0 1-1.804-.406c.047 3.453-1.574 9.418-2.168 11.223l1.344.258c-4.23-.785-8.454-1.621-12.622-2.696-6.109-1.578-12.96-3.754-17.328-8.578-6.765-7.472-16.355-24-18.351-27.488 4.633-1.816 10.668-4.371 15.23-6.977 6.63 8.192 6.903 15.297 13.344 25.961 1.707.868 3.418 1.723 5.145 2.547a120.14 120.14 0 0 0 4.675 2.14 73.463 73.463 0 0 0 4.09 1.618c1.29.465 2.59.887 3.902 1.27 1.7.492 3.403.886 5.13 1.257 1.023.215 2.046.418 3.07.621a.138.138 0 0 1-.043-.008c.066.942.648 2.032 1.625 2.899.64.578 1.363.96 2.027 1.14.012 1.493.023 3.145.074 4.653.094 2.805.239 2.476.348 5.766a.766.766 0 0 1 .004.097c-.004 1.352-.992 2.043-1.625 2.043m1.2-12.703c-.005-.144-.005-.285-.005-.426.004.14.004.282.004.426" style="fill:#fff;fill-opacity:1;fill-rule:nonzero;stroke:none"/><path d="m328.035 118.621-.558-.105c.187.035.37.07.558.101v.004" style="fill:#b8d1ee;fill-opacity:1;fill-rule:nonzero;stroke:none"/><path d="M328.035 118.617c-.187-.031-.37-.066-.558-.101l-1.344-.258c.594-1.805 2.215-7.77 2.168-11.223.601.145 1.207.277 1.804.406-.039 1.41-.316 6.43-2.07 11.176" style="fill:#1a1a1a;fill-opacity:1;fill-rule:nonzero;stroke:none"/><path d="M337.379 112.227c-.004 0-.004-.004-.008-.004v-.145c0 .047.004.098.008.148m-.52-2.332a3.364 3.364 0 0 0-2.191-1.52c-.3-.062-.605-.12-.906-.183.3.055.61.117.91.18.933.191 1.71.758 2.187 1.523" style="fill:#b8d1ee;fill-opacity:1;fill-rule:nonzero;stroke:none"/><path d="M337.371 112.223c-.664-.18-1.387-.563-2.027-1.141-.977-.867-1.559-1.957-1.625-2.898a.137.137 0 0 0 .043.008c.3.062.605.12.906.183a3.364 3.364 0 0 1 2.7 3.278c0 .14 0 .28.003.425v.145" style="fill:#4d4d4d;fill-opacity:1;fill-rule:nonzero;stroke:none"/><path d="M271.45 32.582c.405 1.516-1.29 3.11-2.65 1.8-1.1-1.066-2.76-2.847-4.116-3.694-1.391-.872.464-2.387 2.652-1.797 2.039.547 3.71 2.175 4.113 3.691" style="fill:#fff;fill-opacity:1;fill-rule:nonzero;stroke:none"/><path d="M271.566 80.902c-.703.258.582 1.457.582 1.457s13.973-4.789 22.497-9.718c.074-1.028-.676-1.579-.676-1.579s-10.375 5.407-22.403 9.84" style="fill:#3f6ebd;fill-opacity:1;fill-rule:nonzero;stroke:none"/><path d="M272.148 82.36s-.793-.739-.793-1.18c0-.121.06-.223.211-.278 12.028-4.433 22.403-9.84 22.403-9.84s.68.5.68 1.438c0 .047 0 .094-.005.14-.078.047-.16.094-.238.137-4.562 2.606-10.598 5.16-15.23 6.977-4.047 1.586-7.028 2.605-7.028 2.605" style="fill:#333;fill-opacity:1;fill-rule:nonzero;stroke:none"/><path d="M281.867 39.605a95.37 95.37 0 0 1 7.945 4.5 81.719 81.719 0 0 1 3.844 2.547 54.618 54.618 0 0 1 3.797 2.864l.477.386.59.535c.417.372.726.711 1.035 1.051.324.352.593.692.855 1.028.274.336.531.675.766 1.007.988 1.329 1.793 2.676 2.586 4.02 1.535 2.715 2.867 5.43 3.965 8.348a2.517 2.517 0 0 1-4.188 2.617l-.05-.055c-2.009-2.125-3.938-4.371-5.876-6.457-1.898-2.078-3.914-4.21-5.539-5.14-2.27-1.415-4.797-2.82-7.308-4.208l-7.563-4.195-.015-.012a5 5 0 0 1-1.95-6.8c1.309-2.352 4.242-3.235 6.63-2.036" style="fill:#3f6ebd;fill-opacity:1;fill-rule:nonzero;stroke:none"/><path d="M302.465 67.352c-1.649-1.79-3.246-3.625-4.852-5.356-1.898-2.078-3.914-4.21-5.539-5.14a111.359 111.359 0 0 0-3.992-2.36 435.946 435.946 0 0 0-3.316-1.848l-1.13-.625-6.433-3.57-.015-.012a5 5 0 0 1-1.95-6.8 5.004 5.004 0 0 1 4.383-2.57 4.97 4.97 0 0 1 2.246.534 95.37 95.37 0 0 1 7.946 4.5 81.719 81.719 0 0 1 3.843 2.547 54.618 54.618 0 0 1 3.797 2.864l.477.386.59.535c.418.372.726.711 1.035 1.051.324.352.593.692.855 1.028.274.336.531.675.766 1.007.988 1.329 1.793 2.676 2.586 4.02 1.453 2.566 2.722 5.133 3.785 7.875a2.195 2.195 0 0 0-.426-.246l-5.039.793.176.441-.004-.004c.12.274.187.594.21.95" style="fill:#fff;fill-opacity:1;fill-rule:nonzero;stroke:none"/><path d="m310.14 70.781-.85-2.125s-.474-2.726-2.169-3.484l-5.039.793.176.441-.004-.004c.465 1.036.11 2.828-.344 4.293-.453 1.465.316 1.645.953 1.36.363-.16.707-.809 1.094-1.504.184.363.387.715.629 1.047l1.234 1.691c.531.727 1.54.918 2.301.43l1.352-.867a1.704 1.704 0 0 0 .668-2.07" style="fill:#3f6ebd;fill-opacity:1;fill-rule:nonzero;stroke:none"/><path d="M307.2 73.988a1.71 1.71 0 0 1-1.38-.699l-1.234-1.691a7.508 7.508 0 0 1-.629-1.047c-.387.695-.73 1.344-1.094 1.504-.16.074-.328.113-.48.113-.332 0-.606-.191-.61-.711 0-.2.043-.453.137-.762.305-.98.563-2.105.563-3.05 0-.473-.067-.899-.22-1.243l.005.004-.176-.441 5.04-.793c1.695.758 2.167 3.484 2.167 3.484l.852 2.125c.082.207.12.422.12.637 0 .566-.284 1.113-.788 1.434l-1.352.867c-.285.183-.605.27-.922.27" style="fill:#fff;fill-opacity:1;fill-rule:nonzero;stroke:none"/><path d="M269.23 69.293c-.093 0-.195-.004-.292-.012 3.656-1.258 9.761-3.636 12.714-4.969-1.988-4.12-4.082-9.796-5.23-13.113l1.219-.101s3.242 8.996 5.23 13.113c-2.953 1.336-12.715 4.973-12.715 4.973-.289.07-.597.109-.926.109" style="fill:#000;fill-opacity:1;fill-rule:nonzero;stroke:none"/><path d="M263.973 55.844c.418 3.258 2.859 10.18 4.965 13.437 3.656-1.258 9.761-3.636 12.714-4.969-1.988-4.12-4.082-9.796-5.23-13.113-3.149.211-10.012 2.793-12.45 4.645" style="fill:#fff;fill-opacity:1;fill-rule:nonzero;stroke:none"/><path d="M268.938 61.594c-.247 0-.497-.035-.743-.106a2.58 2.58 0 0 1 1.48-4.941 2.578 2.578 0 0 1-.738 5.047M272.512 56.914a.85.85 0 0 1-.813-1.09.847.847 0 0 1 1.055-.566.846.846 0 0 1-.242 1.656" style="fill:#f2f2f2;fill-opacity:1;fill-rule:nonzero;stroke:none"/><path d="M274.742 56.043a.845.845 0 1 1-.002-1.69.845.845 0 0 1 .002 1.69" style="fill:#e6e6e6;fill-opacity:1;fill-rule:nonzero;stroke:none"/><path d="m269.45 66.883-.56-1.817 9.247-3.656.558 1.82-9.246 3.653" style="fill:#333;fill-opacity:1;fill-rule:nonzero;stroke:none"/><path d="M216.547 257.086c.008-.004.02-.004.027-.004-.008 0-.02 0-.027.004m-12.281-.2c-2.696-.25-5.22-.64-7.57-1.167 2.35.527 4.874.918 7.57 1.164v.004m-16.348-4.172c-.23-.11-.461-.227-.684-.344-.062-.031-.12-.062-.18-.094l.176.094c.227.117.454.23.688.344m31.652-21.07c.313-.25.617-.516.914-.801 2.41-2.305 4.203-5.906 5.383-10.797-1.18 4.894-2.972 8.492-5.383 10.797-.297.285-.601.55-.914.8" style="fill:#c2c5c2;fill-opacity:1;fill-rule:nonzero;stroke:none"/><path d="M204.516 256.906c-.086-.008-.168-.011-.25-.02v-.003l.25.023M216.297 257.098l.25-.012-.25.012" style="fill:#b0b3b0;fill-opacity:1;fill-rule:nonzero;stroke:none"/><path d="m93.793 255 17.504 17.504 49.008-46.168C143.44 219.922 110.562 238.23 93.793 255M154.828 316.035l-17.504-17.504 46.168-49.008c6.414 16.864-11.894 49.743-28.664 66.512" style="fill:#000;fill-opacity:1;fill-rule:nonzero;stroke:none"/><path d="m221.805 205.742 19.09-36.808-36.81 19.09a144.234 144.234 0 0 0-32.44 23.007l-62.75 59.07 30.832 30.833 59.07-62.747a144.221 144.221 0 0 0 23.008-32.445" style="fill:#000;fill-opacity:1;fill-rule:nonzero;stroke:none"/><path d="m139.727 300.934 10.425-11.075-10.425 11.075" style="fill:#99a6a6;fill-opacity:1;fill-rule:nonzero;stroke:none"/><path d="m139.727 300.934-30.832-30.832 33.53-31.563-22.456 21.137 30.183 30.183-10.425 11.075" style="fill:#b3b3b3;fill-opacity:1;fill-rule:nonzero;stroke:none"/><path d="m152.71 287.14 20.704-21.992-28.734-28.734 26.965-25.383a144.234 144.234 0 0 1 32.44-23.008l36.81-19.09-13.153 25.36-5.937 11.45a145.21 145.21 0 0 1-5.258 9.277c-.082.132-.164.27-.25.406a144.561 144.561 0 0 1-17.5 22.761l-12.75 13.543-33.336 35.41" style="fill:#f9f9f9;fill-opacity:1;fill-rule:nonzero;stroke:none"/><path d="M191.723 236.348c-5.036 5.035-13.203 5.035-18.243 0-5.035-5.04-5.035-13.207 0-18.243 5.04-5.039 13.208-5.039 18.243 0 5.039 5.036 5.039 13.204 0 18.243" style="fill:#fff;fill-opacity:1;fill-rule:nonzero;stroke:none"/><path d="M188.46 233.082a8.278 8.278 0 0 1-11.714 0 8.278 8.278 0 0 1 0-11.715 8.285 8.285 0 0 1 11.715 11.715" style="fill:#000;fill-opacity:1;fill-rule:nonzero;stroke:none"/><path d="M100.625 282.66c-22.605 1.836-30.094 16.305-32.645 35.54-1.304 9.808-1.882 19.73-10.117 25.472-2.285 1.594-1.152 5.148 1.633 5.058 30.34-.945 44.492-15.8 46.27-22.023-.614 3.934-1.504 7.035-2.493 9.477-1.015 2.504 1.735 4.824 4.028 3.39 8.515-5.336 19.199-15.156 19.91-31.078-6.3-8.851-26.586-25.836-26.586-25.836" style="fill:#3f6ebd;fill-opacity:1;fill-rule:nonzero;stroke:none"/><path d="M59.398 348.734c-1.703 0-2.761-1.37-2.757-2.78.004-.84.379-1.692 1.222-2.282 8.235-5.742 8.813-15.664 10.117-25.473 2.551-19.234 10.04-33.703 32.645-35.539 0 0 20.285 16.985 26.586 25.836-.711 15.922-11.395 25.742-19.91 31.078a2.787 2.787 0 0 1-1.485.442c-1.472 0-2.765-1.235-2.761-2.758 0-.348.07-.711.218-1.074.989-2.442 1.88-5.543 2.493-9.477-1.778 6.223-15.93 21.078-46.27 22.023-.031.004-.066.004-.098.004" style="fill:#fff;fill-opacity:1;fill-rule:nonzero;stroke:#000;stroke-width:.1"/><path d="m130.684 315.344-36.2-36.196 19.286-4.171 21.082 21.082-4.168 19.285" style="fill:#999;fill-opacity:1;fill-rule:nonzero;stroke:none"/></svg>