<?xml version="1.0" encoding="UTF-8"?>
<!-- Created with Inkscape (http://www.inkscape.org/) -->
<svg width="241.03" height="58.625" version="1.1" viewBox="0 0 63.771 15.511" xmlns="http://www.w3.org/2000/svg">
 <defs>
  <marker id="Tail9761" overflow="visible" orient="auto">
   <g transform="scale(-1.2)">
    <path d="M -3.8049,-3.9585 0.5435,0" fill="none" stroke="context-stroke" stroke-linecap="round" stroke-width=".8"/>
    <path d="M -1.2867,-3.9585 3.0617,0" fill="none" stroke="context-stroke" stroke-linecap="round" stroke-width=".8"/>
    <path d="M 1.3054,-3.9585 5.6538,0" fill="none" stroke="context-stroke" stroke-linecap="round" stroke-width=".8"/>
    <path d="m-3.8049 4.1776 4.3484-3.9578" fill="none" stroke="context-stroke" stroke-linecap="round" stroke-width=".8"/>
    <path d="m-1.2867 4.1776 4.3484-3.9578" fill="none" stroke="context-stroke" stroke-linecap="round" stroke-width=".8"/>
    <path d="m1.3054 4.1776 4.3484-3.9578" fill="none" stroke="context-stroke" stroke-linecap="round" stroke-width=".8"/>
   </g>
  </marker>
 </defs>
 <path d="m1.077 9.5224c4.3379-7.7136 11.765-10.276 21.944-6.5352" fill="none" marker-start="url(#Tail9761)" stroke="#1a1a1a" stroke-width=".19177px"/>
 <g transform="rotate(4.4787 1708.5 -2039)" stroke-width=".26458" aria-label="I post weekly about arts &amp; tech">
  <path d="m189.66 129.66h-0.23495v-4.4323h0.23495z"/>
  <path d="m192.11 131.24h-0.23495v-4.7625h0.23495v0.381q0.4191-0.45085 0.89535-0.45085 0.26035 0 0.52705 0.19685 0.5588 0.4064 0.5588 1.3652 0 1.1303-0.84455 1.4796-0.4318 0.1778-1.1366 0.2032zm1.6129-2.559q0.13335-0.2921 0.13335-0.762 0-0.47625-0.26035-0.8763-0.254-0.40005-0.62865-0.40005-0.2413 0-0.4445 0.14605-0.19685 0.1397-0.41275 0.38735v2.2416q1.2764 0 1.6129-0.7366z"/>
  <path d="m196.95 127.95q0 0.4318-0.0825 0.762-0.0825 0.32385-0.20955 0.50165-0.12065 0.1778-0.2921 0.28575-0.4318 0.2794-0.94615 0.1143-0.1778-0.0572-0.37465-0.2032-0.19685-0.1524-0.3175-0.47625t-0.12065-0.79375q0-0.762 0.3048-1.2382 0.3048-0.4826 0.8763-0.4826 0.57785 0 0.8636 0.45085 0.2921 0.45085 0.29845 1.0795zm-1.2446 1.4859 0.0762 6e-3 0.0699-6e-3q0.8636-0.0825 0.8636-1.4542 0-0.56515-0.2286-0.94615t-0.73025-0.381q-0.32385 0-0.53975 0.22225-0.37465 0.3937-0.37465 1.2256v0.0508q0 0.52705 0.2159 0.889 0.2159 0.3556 0.6477 0.3937z"/>
  <path d="m198.7 129.33q0.38735-0.1016 0.5334-0.26035 0.1524-0.15875 0.1524-0.42545 0-0.27305-0.2032-0.42545t-0.4953-0.19685q-0.28575-0.0444-0.57785-0.0952-0.28575-0.0572-0.48895-0.2413-0.2032-0.18415-0.2032-0.5334 0-0.7366 1.143-0.7366 0.4191 0 0.97155 0.0889v0.24765q-0.5715-0.1016-0.95885-0.1016t-0.6604 0.1143q-0.2667 0.10795-0.2667 0.37465 0 0.26035 0.2032 0.4064 0.2032 0.1397 0.48895 0.19685 0.2921 0.0508 0.5842 0.12065 0.2921 0.0699 0.4953 0.2794 0.2032 0.2032 0.2032 0.57785 0 0.46355-0.36195 0.66675-0.1778 0.1016-0.3429 0.1651-0.1651 0.0572-0.43815 0.0762-0.4318 0.0381-0.8255 0.0381h-0.15875v-0.23495q0.8255 0 1.2065-0.1016z"/>
  <path d="m200.63 126.72h-0.73025v-0.23495h0.73025v-1.0478h0.23495v1.0478h0.7366v0.23495h-0.7366v2.94h-0.23495z"/>
  <path d="m204.01 129.66-0.9779-3.175h0.23495l0.85725 2.794 0.81915-2.794h0.23495l0.85725 2.794 0.81915-2.794h0.23495l-0.93345 3.175h-0.23495l-0.85725-2.7813-0.81915 2.7813z"/>
  <path d="m209.65 129.43v0.23495q-0.381 0-0.6731-0.0318-0.28575-0.0317-0.5969-0.13335-0.31115-0.10795-0.51435-0.28575-0.19685-0.1778-0.3302-0.48895-0.127-0.3175-0.127-0.7493 0-0.43815 0.1143-0.762 0.12065-0.32385 0.3048-0.48895 0.3429-0.3048 0.66675-0.3048 0.53975 0 0.8382 0.3175 0.3048 0.3175 0.3048 0.8382 0 0.34925-6e-3 0.4064h-1.9876q0 0.81915 0.48895 1.1366 0.48895 0.31115 1.5176 0.31115zm-0.24765-1.6828v-0.1397q0-0.4191-0.2413-0.6858-0.23495-0.2667-0.62865-0.2667-0.38735 0-0.61595 0.31115-0.22225 0.3048-0.2667 0.78105z"/>
  <path d="m212.4 129.43v0.23495q-0.381 0-0.6731-0.0318-0.28575-0.0317-0.5969-0.13335-0.31115-0.10795-0.51435-0.28575-0.19685-0.1778-0.3302-0.48895-0.127-0.3175-0.127-0.7493 0-0.43815 0.1143-0.762 0.12065-0.32385 0.3048-0.48895 0.3429-0.3048 0.66675-0.3048 0.53975 0 0.8382 0.3175 0.3048 0.3175 0.3048 0.8382 0 0.34925-6e-3 0.4064h-1.9876q0 0.81915 0.48895 1.1366 0.48895 0.31115 1.5176 0.31115zm-0.24765-1.6828v-0.1397q0-0.4191-0.2413-0.6858-0.23495-0.2667-0.62865-0.2667-0.38735 0-0.61595 0.31115-0.22225 0.3048-0.2667 0.78105z"/>
  <path d="m215.38 129.66h-0.23495v-0.4318q0-0.52705-0.23495-0.9017-0.2286-0.381-0.56515-0.381-0.3302 0-0.64135 0.2794l-0.3683 0.38735v1.0478h-0.23495v-4.7625h0.23495v3.3718l1.7208-1.7907h0.32385l-1.1938 1.251q0.0762-0.0191 0.1905-0.0191 0.12065 0 0.2794 0.0762 0.1651 0.0699 0.3302 0.2286 0.17145 0.1524 0.2794 0.45085 0.1143 0.29845 0.1143 0.6858z"/>
  <path d="m216.28 129.66h-0.23495v-4.7562h0.23495z"/>
  <path d="m219.07 126.48h0.23495v3.2576q0 0.43815-0.10795 0.762-0.10795 0.3302-0.2794 0.48895-0.3175 0.31115-0.635 0.31115-0.4191 0-0.8001-0.3556v-0.3048q0.40005 0.42545 0.762 0.42545 0.3683 0 0.5969-0.3937t0.2286-0.9398v-0.1016q-1.1366-0.0444-1.5875-0.4953-0.3937-0.4064-0.3937-1.1874 0-1.4034 6e-3 -1.4668h0.23495q-6e-3 0.0572-6e-3 1.4732 0 0.83185 0.51435 1.1557 0.4572 0.28575 1.2319 0.28575z"/>
  <path d="m191.18 134.51h0.23495v3.1814q-0.381 0-0.66675-0.0317-0.28575-0.0318-0.5969-0.13335-0.3048-0.10795-0.50165-0.28575t-0.32385-0.48895q-0.127-0.3175-0.127-0.7112t0.0762-0.6731q0.0825-0.28575 0.2032-0.45085 0.127-0.17145 0.2794-0.2794 0.2667-0.19685 0.52705-0.19685 0.47625 0 0.89535 0.45085zm-1.7462 1.4986q0 0.83185 0.51435 1.1557 0.4572 0.28575 1.2319 0.28575v-2.2416q-0.2159-0.24765-0.4191-0.38735-0.19685-0.14605-0.43815-0.14605-0.40005 0-0.6477 0.3556-0.2413 0.34925-0.2413 0.9779z"/>
  <path d="m192.31 132.92h0.23495v1.9685q0.4064-0.45085 0.8636-0.45085 0.34925 0 0.6985 0.31115 0.18415 0.15875 0.29845 0.4826 0.12065 0.32385 0.12065 0.762 0 0.4318-0.127 0.7493t-0.32385 0.4953-0.508 0.28575q-0.3048 0.1016-0.59055 0.13335-0.28575 0.0317-0.66675 0.0317zm1.9812 3.1242q0-0.6477-0.24765-1.0096t-0.64135-0.36195-0.85725 0.5334v2.2416q1.7462 0 1.7462-1.4034z"/>
  <path d="m197.39 135.98q0 0.4318-0.0825 0.762-0.0825 0.32385-0.20955 0.50165-0.12065 0.1778-0.2921 0.28575-0.4318 0.2794-0.94615 0.1143-0.1778-0.0572-0.37465-0.2032-0.19685-0.1524-0.3175-0.47625t-0.12065-0.79375q0-0.762 0.3048-1.2382 0.3048-0.4826 0.8763-0.4826 0.57785 0 0.8636 0.45085 0.2921 0.45085 0.29845 1.0795zm-1.2446 1.4859 0.0762 6e-3 0.0699-6e-3q0.8636-0.0825 0.8636-1.4542 0-0.56515-0.2286-0.94615t-0.73025-0.381q-0.32385 0-0.53975 0.22225-0.37465 0.3937-0.37465 1.2256v0.0508q0 0.52705 0.2159 0.889 0.2159 0.3556 0.6477 0.3937z"/>
  <path d="m198.28 134.51-6e-3 1.6764q0 0.5334 0.254 0.93345 0.26035 0.3937 0.64135 0.3937 0.38735 0 0.8509-0.52705v-2.4765h0.23495v3.175h-0.23495v-0.381q-0.41275 0.4445-0.89535 0.4445-0.32385 0-0.66675-0.3048-0.18415-0.1651-0.3048-0.48895-0.1143-0.32385-0.1143-0.762l6e-3 -1.6828z"/>
  <path d="m201.49 134.74h-0.73025v-0.23495h0.73025v-1.0478h0.23495v1.0478h0.7366v0.23495h-0.7366v2.94h-0.23495z"/>
  <path d="m206.05 134.51h0.23495v3.1814q-0.381 0-0.66675-0.0317-0.28575-0.0318-0.5969-0.13335-0.3048-0.10795-0.50165-0.28575t-0.32385-0.48895q-0.127-0.3175-0.127-0.7112t0.0762-0.6731q0.0825-0.28575 0.2032-0.45085 0.127-0.17145 0.2794-0.2794 0.2667-0.19685 0.52705-0.19685 0.47625 0 0.89535 0.45085zm-1.7462 1.4986q0 0.83185 0.51435 1.1557 0.4572 0.28575 1.2319 0.28575v-2.2416q-0.2159-0.24765-0.4191-0.38735-0.19685-0.14605-0.43815-0.14605-0.40005 0-0.6477 0.3556-0.2413 0.34925-0.2413 0.9779z"/>
  <path d="m207.41 137.68h-0.23495v-3.175h0.23495v0.46355q0.13335-0.15875 0.4064-0.33655 0.2794-0.18415 0.52705-0.18415 0.254 0 0.43815 0.14605 0.1905 0.1397 0.19685 0.46355h-0.23495q0-0.1778-0.1143-0.2794t-0.31115-0.1016-0.4826 0.1905q-0.2794 0.1905-0.42545 0.4191z"/>
  <path d="m209.86 134.74h-0.73025v-0.23495h0.73025v-1.0478h0.23495v1.0478h0.7366v0.23495h-0.7366v2.94h-0.23495z"/>
  <path d="m212.37 137.36q0.38735-0.1016 0.5334-0.26035 0.1524-0.15875 0.1524-0.42545 0-0.27305-0.2032-0.42545t-0.4953-0.19685q-0.28575-0.0445-0.57785-0.0953-0.28575-0.0571-0.48895-0.2413-0.2032-0.18415-0.2032-0.5334 0-0.7366 1.143-0.7366 0.4191 0 0.97155 0.0889v0.24765q-0.5715-0.1016-0.95885-0.1016t-0.6604 0.1143q-0.2667 0.10795-0.2667 0.37465 0 0.26035 0.2032 0.4064 0.2032 0.1397 0.48895 0.19685 0.2921 0.0508 0.5842 0.12065 0.2921 0.0699 0.4953 0.2794 0.2032 0.2032 0.2032 0.57785 0 0.46355-0.36195 0.66675-0.1778 0.1016-0.3429 0.1651-0.1651 0.0572-0.43815 0.0762-0.4318 0.0381-0.8255 0.0381h-0.15875v-0.23495q0.8255 0 1.2065-0.1016z"/>
  <path d="m217.64 135.79h0.23495q-0.31115 0.762-0.55245 1.1557l0.4826 0.74295h-0.2667l-0.3556-0.53975q-0.38735 0.53975-0.8636 0.53975-0.59055 0-0.9398-0.4064-0.3429-0.4064-0.3429-0.88265 0-0.4826 0.2413-0.83185 0.24765-0.3556 0.5969-0.43815-0.32385-0.52705-0.32385-0.9144t0.2413-0.64135q0.24765-0.26035 0.635-0.26035 0.2794 0 0.48895 0.20955 0.20955 0.2032 0.2159 0.55245h-0.23495q-0.0127-0.24765-0.1651-0.37465-0.14605-0.127-0.3556-0.127-0.2032 0-0.38735 0.1524-0.18415 0.14605-0.18415 0.4191 0 0.4191 0.46355 1.1494l0.92075 1.4414q0.1905-0.3175 0.45085-0.94615zm-1.6192-0.4318q-0.29845 0.0317-0.52705 0.3175-0.2286 0.2794-0.2286 0.67945 0 0.3937 0.3048 0.7493 0.3048 0.34925 0.7112 0.34925 0.41275 0 0.7747-0.508z"/>
  <path d="m220.09 134.74h-0.73025v-0.23495h0.73025v-1.0478h0.23495v1.0478h0.7366v0.23495h-0.7366v2.94h-0.23495z"/>
  <path d="m223.54 137.46v0.23495q-0.381 0-0.6731-0.0317-0.28575-0.0318-0.5969-0.13335-0.31115-0.10795-0.51435-0.28575-0.19685-0.1778-0.3302-0.48895-0.127-0.3175-0.127-0.7493 0-0.43815 0.1143-0.762 0.12065-0.32385 0.3048-0.48895 0.3429-0.3048 0.66675-0.3048 0.53975 0 0.8382 0.3175 0.3048 0.3175 0.3048 0.8382 0 0.34925-6e-3 0.4064h-1.9876q0 0.81915 0.48895 1.1366 0.48895 0.31115 1.5176 0.31115zm-0.24765-1.6828v-0.1397q0-0.4191-0.2413-0.6858-0.23495-0.2667-0.62865-0.2667-0.38735 0-0.61595 0.31115-0.22225 0.3048-0.2667 0.78105z"/>
  <path d="m226.27 135.15-0.2413-6e-3q-0.1016-0.20955-0.3429-0.33655t-0.508-0.127q-0.4318 0-0.6604 0.38735-0.2286 0.381-0.2286 0.9398 0 0.81915 0.4826 1.1366 0.4826 0.31115 1.505 0.31115v0.23495q-0.381 0-0.66675-0.0317-0.28575-0.0318-0.5969-0.13335-0.31115-0.10795-0.508-0.28575t-0.32385-0.48895q-0.127-0.3175-0.127-0.7493 0-0.43815 0.1143-0.762 0.12065-0.32385 0.29845-0.48895 0.34925-0.3048 0.71755-0.3048t0.6731 0.1905 0.41275 0.51435z"/>
  <path d="m228.85 137.68 6e-3 -1.6764q0-0.5334-0.26035-0.93345-0.254-0.40005-0.62865-0.40005-0.2413 0-0.4445 0.14605-0.19685 0.1397-0.41275 0.38735v2.4765h-0.23495v-4.7625h0.23495v1.9685q0.4191-0.45085 0.89535-0.45085 0.26035 0 0.52705 0.19685 0.5588 0.4064 0.5588 1.3652l-6e-3 1.6828z"/>
 </g>
</svg>
