<?xml version="1.0" encoding="UTF-8" standalone="no"?>
<!-- Created with Inkscape (http://www.inkscape.org/) -->

<svg
   width="241.02522"
   height="58.624737"
   version="1.1"
   viewBox="0 0 63.771279 15.511258"
   id="svg73"
   sodipodi:docname="curve_arrow_text.svg"
   inkscape:version="1.1.2 (0a00cf5339, 2022-02-04)"
   xmlns:inkscape="http://www.inkscape.org/namespaces/inkscape"
   xmlns:sodipodi="http://sodipodi.sourceforge.net/DTD/sodipodi-0.dtd"
   xmlns="http://www.w3.org/2000/svg"
   xmlns:svg="http://www.w3.org/2000/svg">
  <sodipodi:namedview
     id="namedview75"
     pagecolor="#ffffff"
     bordercolor="#666666"
     borderopacity="1.0"
     inkscape:pageshadow="2"
     inkscape:pageopacity="0.0"
     inkscape:pagecheckerboard="0"
     showgrid="false"
     inkscape:zoom="2.4630139"
     inkscape:cx="87.088426"
     inkscape:cy="95.208559"
     inkscape:window-width="1920"
     inkscape:window-height="1029"
     inkscape:window-x="0"
     inkscape:window-y="27"
     inkscape:window-maximized="1"
     inkscape:current-layer="svg73"
     fit-margin-top="0"
     fit-margin-left="0"
     fit-margin-right="0"
     fit-margin-bottom="0" />
  <defs
     id="defs17">
    <marker
       style="overflow:visible"
       id="Arrow1Lstart"
       refX="0"
       refY="0"
       orient="auto"
       inkscape:stockid="Arrow1Lstart"
       inkscape:isstock="true">
      <path
         transform="matrix(0.8,0,0,0.8,10,0)"
         style="fill:context-stroke;fill-rule:evenodd;stroke:context-stroke;stroke-width:1pt"
         d="M 0,0 5,-5 -12.5,0 5,5 Z"
         id="path1463" />
    </marker>
    <marker
       id="Tail9761"
       overflow="visible"
       orient="auto"
       inkscape:stockid="Tail9761">
      <g
         transform="scale(-1.2)"
         id="g14"
         style="fill:#000000;fill-opacity:1;stroke:#000000;stroke-opacity:1">
        <path
           d="M -3.8049,-3.9585 0.5435,0"
           fill="none"
           stroke="context-stroke"
           stroke-linecap="round"
           stroke-width="0.8"
           id="path2" />
        <path
           d="M -1.2867,-3.9585 3.0617,0"
           fill="none"
           stroke="context-stroke"
           stroke-linecap="round"
           stroke-width="0.8"
           id="path4" />
        <path
           d="M 1.3054,-3.9585 5.6538,0"
           fill="none"
           stroke="context-stroke"
           stroke-linecap="round"
           stroke-width="0.8"
           id="path6" />
        <path
           d="M -3.8049,4.1776 0.5435,0.2198"
           fill="none"
           stroke="context-stroke"
           stroke-linecap="round"
           stroke-width="0.8"
           id="path8" />
        <path
           d="M -1.2867,4.1776 3.0617,0.2198"
           fill="none"
           stroke="context-stroke"
           stroke-linecap="round"
           stroke-width="0.8"
           id="path10" />
        <path
           d="M 1.3054,4.1776 5.6538,0.2198"
           fill="none"
           stroke="context-stroke"
           stroke-linecap="round"
           stroke-width="0.8"
           id="path12" />
      </g>
    </marker>
  </defs>
  <path
     d="m 1.0769918,9.5224109 c 4.3379,-7.7136 11.7650002,-10.27600004 21.9440002,-6.5352"
     fill="none"
     marker-start="url(#Tail9761)"
     stroke="#1a1a1a"
     stroke-width="0.19177px"
     id="path19"
     style="marker-start:url(#Tail9761)" />
  <g
     transform="rotate(4.4787,1708.4574,-2039.0497)"
     stroke-width="0.26458"
     aria-label="I post weekly about arts &amp; tech"
     id="g71">
    <path
       d="m 189.66,129.66 h -0.23495 v -4.4323 H 189.66 Z"
       id="path21" />
    <path
       d="m 192.11,131.24 h -0.23495 v -4.7625 H 192.11 v 0.381 q 0.4191,-0.45085 0.89535,-0.45085 0.26035,0 0.52705,0.19685 0.5588,0.4064 0.5588,1.3652 0,1.1303 -0.84455,1.4796 -0.4318,0.1778 -1.1366,0.2032 z m 1.6129,-2.559 q 0.13335,-0.2921 0.13335,-0.762 0,-0.47625 -0.26035,-0.8763 -0.254,-0.40005 -0.62865,-0.40005 -0.2413,0 -0.4445,0.14605 -0.19685,0.1397 -0.41275,0.38735 v 2.2416 q 1.2764,0 1.6129,-0.7366 z"
       id="path23" />
    <path
       d="m 196.95,127.95 q 0,0.4318 -0.0825,0.762 -0.0825,0.32385 -0.20955,0.50165 -0.12065,0.1778 -0.2921,0.28575 -0.4318,0.2794 -0.94615,0.1143 -0.1778,-0.0572 -0.37465,-0.2032 -0.19685,-0.1524 -0.3175,-0.47625 -0.12065,-0.32385 -0.12065,-0.79375 0,-0.762 0.3048,-1.2382 0.3048,-0.4826 0.8763,-0.4826 0.57785,0 0.8636,0.45085 0.2921,0.45085 0.29845,1.0795 z m -1.2446,1.4859 0.0762,0.006 0.0699,-0.006 q 0.8636,-0.0825 0.8636,-1.4542 0,-0.56515 -0.2286,-0.94615 -0.2286,-0.381 -0.73025,-0.381 -0.32385,0 -0.53975,0.22225 -0.37465,0.3937 -0.37465,1.2256 v 0.0508 q 0,0.52705 0.2159,0.889 0.2159,0.3556 0.6477,0.3937 z"
       id="path25" />
    <path
       d="m 198.7,129.33 q 0.38735,-0.1016 0.5334,-0.26035 0.1524,-0.15875 0.1524,-0.42545 0,-0.27305 -0.2032,-0.42545 -0.2032,-0.1524 -0.4953,-0.19685 -0.28575,-0.0444 -0.57785,-0.0952 -0.28575,-0.0572 -0.48895,-0.2413 -0.2032,-0.18415 -0.2032,-0.5334 0,-0.7366 1.143,-0.7366 0.4191,0 0.97155,0.0889 v 0.24765 q -0.5715,-0.1016 -0.95885,-0.1016 -0.38735,0 -0.6604,0.1143 -0.2667,0.10795 -0.2667,0.37465 0,0.26035 0.2032,0.4064 0.2032,0.1397 0.48895,0.19685 0.2921,0.0508 0.5842,0.12065 0.2921,0.0699 0.4953,0.2794 0.2032,0.2032 0.2032,0.57785 0,0.46355 -0.36195,0.66675 -0.1778,0.1016 -0.3429,0.1651 -0.1651,0.0572 -0.43815,0.0762 -0.4318,0.0381 -0.8255,0.0381 h -0.15875 v -0.23495 q 0.8255,0 1.2065,-0.1016 z"
       id="path27" />
    <path
       d="m 200.63,126.72 h -0.73025 v -0.23495 H 200.63 v -1.0478 h 0.23495 v 1.0478 h 0.7366 V 126.72 h -0.7366 v 2.94 H 200.63 Z"
       id="path29" />
    <path
       d="m 204.01,129.66 -0.9779,-3.175 h 0.23495 l 0.85725,2.794 0.81915,-2.794 h 0.23495 l 0.85725,2.794 0.81915,-2.794 h 0.23495 l -0.93345,3.175 h -0.23495 l -0.85725,-2.7813 -0.81915,2.7813 z"
       id="path31" />
    <path
       d="m 209.65,129.43 v 0.23495 q -0.381,0 -0.6731,-0.0318 -0.28575,-0.0317 -0.5969,-0.13335 -0.31115,-0.10795 -0.51435,-0.28575 -0.19685,-0.1778 -0.3302,-0.48895 -0.127,-0.3175 -0.127,-0.7493 0,-0.43815 0.1143,-0.762 0.12065,-0.32385 0.3048,-0.48895 0.3429,-0.3048 0.66675,-0.3048 0.53975,0 0.8382,0.3175 0.3048,0.3175 0.3048,0.8382 0,0.34925 -0.006,0.4064 h -1.9876 q 0,0.81915 0.48895,1.1366 0.48895,0.31115 1.5176,0.31115 z m -0.24765,-1.6828 v -0.1397 q 0,-0.4191 -0.2413,-0.6858 -0.23495,-0.2667 -0.62865,-0.2667 -0.38735,0 -0.61595,0.31115 -0.22225,0.3048 -0.2667,0.78105 z"
       id="path33" />
    <path
       d="m 212.4,129.43 v 0.23495 q -0.381,0 -0.6731,-0.0318 -0.28575,-0.0317 -0.5969,-0.13335 -0.31115,-0.10795 -0.51435,-0.28575 -0.19685,-0.1778 -0.3302,-0.48895 -0.127,-0.3175 -0.127,-0.7493 0,-0.43815 0.1143,-0.762 0.12065,-0.32385 0.3048,-0.48895 0.3429,-0.3048 0.66675,-0.3048 0.53975,0 0.8382,0.3175 0.3048,0.3175 0.3048,0.8382 0,0.34925 -0.006,0.4064 h -1.9876 q 0,0.81915 0.48895,1.1366 0.48895,0.31115 1.5176,0.31115 z m -0.24765,-1.6828 v -0.1397 q 0,-0.4191 -0.2413,-0.6858 -0.23495,-0.2667 -0.62865,-0.2667 -0.38735,0 -0.61595,0.31115 -0.22225,0.3048 -0.2667,0.78105 z"
       id="path35" />
    <path
       d="m 215.38,129.66 h -0.23495 v -0.4318 q 0,-0.52705 -0.23495,-0.9017 -0.2286,-0.381 -0.56515,-0.381 -0.3302,0 -0.64135,0.2794 l -0.3683,0.38735 v 1.0478 h -0.23495 v -4.7625 h 0.23495 v 3.3718 l 1.7208,-1.7907 h 0.32385 l -1.1938,1.251 q 0.0762,-0.0191 0.1905,-0.0191 0.12065,0 0.2794,0.0762 0.1651,0.0699 0.3302,0.2286 0.17145,0.1524 0.2794,0.45085 0.1143,0.29845 0.1143,0.6858 z"
       id="path37" />
    <path
       d="m 216.28,129.66 h -0.23495 v -4.7562 H 216.28 Z"
       id="path39" />
    <path
       d="m 219.07,126.48 h 0.23495 v 3.2576 q 0,0.43815 -0.10795,0.762 -0.10795,0.3302 -0.2794,0.48895 -0.3175,0.31115 -0.635,0.31115 -0.4191,0 -0.8001,-0.3556 v -0.3048 q 0.40005,0.42545 0.762,0.42545 0.3683,0 0.5969,-0.3937 0.2286,-0.3937 0.2286,-0.9398 v -0.1016 q -1.1366,-0.0444 -1.5875,-0.4953 -0.3937,-0.4064 -0.3937,-1.1874 0,-1.4034 0.006,-1.4668 h 0.23495 q -0.006,0.0572 -0.006,1.4732 0,0.83185 0.51435,1.1557 0.4572,0.28575 1.2319,0.28575 z"
       id="path41" />
    <path
       d="m 191.18,134.51 h 0.23495 v 3.1814 q -0.381,0 -0.66675,-0.0317 -0.28575,-0.0318 -0.5969,-0.13335 -0.3048,-0.10795 -0.50165,-0.28575 -0.19685,-0.1778 -0.32385,-0.48895 -0.127,-0.3175 -0.127,-0.7112 0,-0.3937 0.0762,-0.6731 0.0825,-0.28575 0.2032,-0.45085 0.127,-0.17145 0.2794,-0.2794 0.2667,-0.19685 0.52705,-0.19685 0.47625,0 0.89535,0.45085 z m -1.7462,1.4986 q 0,0.83185 0.51435,1.1557 0.4572,0.28575 1.2319,0.28575 v -2.2416 q -0.2159,-0.24765 -0.4191,-0.38735 -0.19685,-0.14605 -0.43815,-0.14605 -0.40005,0 -0.6477,0.3556 -0.2413,0.34925 -0.2413,0.9779 z"
       id="path43" />
    <path
       d="m 192.31,132.92 h 0.23495 v 1.9685 q 0.4064,-0.45085 0.8636,-0.45085 0.34925,0 0.6985,0.31115 0.18415,0.15875 0.29845,0.4826 0.12065,0.32385 0.12065,0.762 0,0.4318 -0.127,0.7493 -0.127,0.3175 -0.32385,0.4953 -0.19685,0.1778 -0.508,0.28575 -0.3048,0.1016 -0.59055,0.13335 -0.28575,0.0317 -0.66675,0.0317 z m 1.9812,3.1242 q 0,-0.6477 -0.24765,-1.0096 -0.24765,-0.3619 -0.64135,-0.36195 -0.3937,-5e-5 -0.85725,0.5334 v 2.2416 q 1.7462,0 1.7462,-1.4034 z"
       id="path45" />
    <path
       d="m 197.39,135.98 q 0,0.4318 -0.0825,0.762 -0.0825,0.32385 -0.20955,0.50165 -0.12065,0.1778 -0.2921,0.28575 -0.4318,0.2794 -0.94615,0.1143 -0.1778,-0.0572 -0.37465,-0.2032 -0.19685,-0.1524 -0.3175,-0.47625 -0.12065,-0.32385 -0.12065,-0.79375 0,-0.762 0.3048,-1.2382 0.3048,-0.4826 0.8763,-0.4826 0.57785,0 0.8636,0.45085 0.2921,0.45085 0.29845,1.0795 z m -1.2446,1.4859 0.0762,0.006 0.0699,-0.006 q 0.8636,-0.0825 0.8636,-1.4542 0,-0.56515 -0.2286,-0.94615 -0.2286,-0.381 -0.73025,-0.381 -0.32385,0 -0.53975,0.22225 -0.37465,0.3937 -0.37465,1.2256 v 0.0508 q 0,0.52705 0.2159,0.889 0.2159,0.3556 0.6477,0.3937 z"
       id="path47" />
    <path
       d="m 198.28,134.51 -0.006,1.6764 q 0,0.5334 0.254,0.93345 0.26035,0.3937 0.64135,0.3937 0.38735,0 0.8509,-0.52705 V 134.51 h 0.23495 v 3.175 h -0.23495 v -0.381 q -0.41275,0.4445 -0.89535,0.4445 -0.32385,0 -0.66675,-0.3048 -0.18415,-0.1651 -0.3048,-0.48895 -0.1143,-0.32385 -0.1143,-0.762 l 0.006,-1.6828 z"
       id="path49" />
    <path
       d="m 201.49,134.74 h -0.73025 v -0.23495 H 201.49 v -1.0478 h 0.23495 v 1.0478 h 0.7366 V 134.74 h -0.7366 v 2.94 H 201.49 Z"
       id="path51" />
    <path
       d="m 206.05,134.51 h 0.23495 v 3.1814 q -0.381,0 -0.66675,-0.0317 -0.28575,-0.0318 -0.5969,-0.13335 -0.3048,-0.10795 -0.50165,-0.28575 -0.19685,-0.1778 -0.32385,-0.48895 -0.127,-0.3175 -0.127,-0.7112 0,-0.3937 0.0762,-0.6731 0.0825,-0.28575 0.2032,-0.45085 0.127,-0.17145 0.2794,-0.2794 0.2667,-0.19685 0.52705,-0.19685 0.47625,0 0.89535,0.45085 z m -1.7462,1.4986 q 0,0.83185 0.51435,1.1557 0.4572,0.28575 1.2319,0.28575 v -2.2416 q -0.2159,-0.24765 -0.4191,-0.38735 -0.19685,-0.14605 -0.43815,-0.14605 -0.40005,0 -0.6477,0.3556 -0.2413,0.34925 -0.2413,0.9779 z"
       id="path53" />
    <path
       d="m 207.41,137.68 h -0.23495 v -3.175 H 207.41 v 0.46355 q 0.13335,-0.15875 0.4064,-0.33655 0.2794,-0.18415 0.52705,-0.18415 0.254,0 0.43815,0.14605 0.1905,0.1397 0.19685,0.46355 h -0.23495 q 0,-0.1778 -0.1143,-0.2794 -0.1143,-0.1016 -0.31115,-0.1016 -0.19685,0 -0.4826,0.1905 -0.2794,0.1905 -0.42545,0.4191 z"
       id="path55" />
    <path
       d="m 209.86,134.74 h -0.73025 v -0.23495 H 209.86 v -1.0478 h 0.23495 v 1.0478 h 0.7366 V 134.74 h -0.7366 v 2.94 H 209.86 Z"
       id="path57" />
    <path
       d="m 212.37,137.36 q 0.38735,-0.1016 0.5334,-0.26035 0.1524,-0.15875 0.1524,-0.42545 0,-0.27305 -0.2032,-0.42545 -0.2032,-0.1524 -0.4953,-0.19685 -0.28575,-0.0445 -0.57785,-0.0953 -0.28575,-0.0571 -0.48895,-0.2413 -0.2032,-0.18415 -0.2032,-0.5334 0,-0.7366 1.143,-0.7366 0.4191,0 0.97155,0.0889 v 0.24765 q -0.5715,-0.1016 -0.95885,-0.1016 -0.38735,0 -0.6604,0.1143 -0.2667,0.10795 -0.2667,0.37465 0,0.26035 0.2032,0.4064 0.2032,0.1397 0.48895,0.19685 0.2921,0.0508 0.5842,0.12065 0.2921,0.0699 0.4953,0.2794 0.2032,0.2032 0.2032,0.57785 0,0.46355 -0.36195,0.66675 -0.1778,0.1016 -0.3429,0.1651 -0.1651,0.0572 -0.43815,0.0762 -0.4318,0.0381 -0.8255,0.0381 h -0.15875 v -0.23495 q 0.8255,0 1.2065,-0.1016 z"
       id="path59" />
    <path
       d="m 217.64,135.79 h 0.23495 q -0.31115,0.762 -0.55245,1.1557 l 0.4826,0.74295 h -0.2667 l -0.3556,-0.53975 q -0.38735,0.53975 -0.8636,0.53975 -0.59055,0 -0.9398,-0.4064 -0.3429,-0.4064 -0.3429,-0.88265 0,-0.4826 0.2413,-0.83185 0.24765,-0.3556 0.5969,-0.43815 -0.32385,-0.52705 -0.32385,-0.9144 0,-0.38735 0.2413,-0.64135 0.24765,-0.26035 0.635,-0.26035 0.2794,0 0.48895,0.20955 0.20955,0.2032 0.2159,0.55245 h -0.23495 q -0.0127,-0.24765 -0.1651,-0.37465 -0.14605,-0.127 -0.3556,-0.127 -0.2032,0 -0.38735,0.1524 -0.18415,0.14605 -0.18415,0.4191 0,0.4191 0.46355,1.1494 l 0.92075,1.4414 q 0.1905,-0.3175 0.45085,-0.94615 z m -1.6192,-0.4318 q -0.29845,0.0317 -0.52705,0.3175 -0.2286,0.2794 -0.2286,0.67945 0,0.3937 0.3048,0.7493 0.3048,0.34925 0.7112,0.34925 0.41275,0 0.7747,-0.508 z"
       id="path61" />
    <path
       d="m 220.09,134.74 h -0.73025 v -0.23495 H 220.09 v -1.0478 h 0.23495 v 1.0478 h 0.7366 V 134.74 h -0.7366 v 2.94 H 220.09 Z"
       id="path63" />
    <path
       d="m 223.54,137.46 v 0.23495 q -0.381,0 -0.6731,-0.0317 -0.28575,-0.0318 -0.5969,-0.13335 -0.31115,-0.10795 -0.51435,-0.28575 -0.19685,-0.1778 -0.3302,-0.48895 -0.127,-0.3175 -0.127,-0.7493 0,-0.43815 0.1143,-0.762 0.12065,-0.32385 0.3048,-0.48895 0.3429,-0.3048 0.66675,-0.3048 0.53975,0 0.8382,0.3175 0.3048,0.3175 0.3048,0.8382 0,0.34925 -0.006,0.4064 h -1.9876 q 0,0.81915 0.48895,1.1366 0.48895,0.31115 1.5176,0.31115 z m -0.24765,-1.6828 v -0.1397 q 0,-0.4191 -0.2413,-0.6858 -0.23495,-0.2667 -0.62865,-0.2667 -0.38735,0 -0.61595,0.31115 -0.22225,0.3048 -0.2667,0.78105 z"
       id="path65" />
    <path
       d="m 226.27,135.15 -0.2413,-0.006 q -0.1016,-0.20955 -0.3429,-0.33655 -0.2413,-0.127 -0.508,-0.127 -0.4318,0 -0.6604,0.38735 -0.2286,0.381 -0.2286,0.9398 0,0.81915 0.4826,1.1366 0.4826,0.31115 1.505,0.31115 v 0.23495 q -0.381,0 -0.66675,-0.0317 -0.28575,-0.0318 -0.5969,-0.13335 -0.31115,-0.10795 -0.508,-0.28575 -0.19685,-0.1778 -0.32385,-0.48895 -0.127,-0.3175 -0.127,-0.7493 0,-0.43815 0.1143,-0.762 0.12065,-0.32385 0.29845,-0.48895 0.34925,-0.3048 0.71755,-0.3048 0.3683,0 0.6731,0.1905 0.3048,0.1905 0.41275,0.51435 z"
       id="path67" />
    <path
       d="m 228.85,137.68 0.006,-1.6764 q 0,-0.5334 -0.26035,-0.93345 -0.254,-0.40005 -0.62865,-0.40005 -0.2413,0 -0.4445,0.14605 -0.19685,0.1397 -0.41275,0.38735 v 2.4765 h -0.23495 v -4.7625 h 0.23495 v 1.9685 q 0.4191,-0.45085 0.89535,-0.45085 0.26035,0 0.52705,0.19685 0.5588,0.4064 0.5588,1.3652 l -0.006,1.6828 z"
       id="path69" />
  </g>
</svg>
