<svg xmlns="http://www.w3.org/2000/svg" xmlns:xlink="http://www.w3.org/1999/xlink" width="300" height="750" viewBox="0 0 79.375 198.438"><defs><linearGradient id="a"><stop offset="0" style="stop-color:#fff;stop-opacity:0"/><stop offset="1" style="stop-color:#fff;stop-opacity:1"/></linearGradient><linearGradient xlink:href="#a" id="b" x1="520.554" x2="598.648" y1="371.974" y2="373.932" gradientTransform="matrix(.26458 0 0 .26458 -531.358 -228.717)" gradientUnits="userSpaceOnUse"/><filter id="c" width="1.052" height="1.065" x="-.022" y="-.028" filterUnits="objectBoundingBox"><feOffset dx="1" dy="1" in="SourceAlpha" result="shadowOffsetOuter1"/><feGaussianBlur in="shadowOffsetOuter1" result="shadowBlurOuter1" stdDeviation="2"/><feColorMatrix in="shadowBlurOuter1" values="0 0 0 0 0 0 0 0 0 0 0 0 0 0 0 0 0 0 0.36 0"/></filter></defs><g class="reveal fade-left" transform="translate(391.54 228.517)"><path d="M-391.341-39c34.66-15.604 58.431-50.416 58.44-90.39-.002-39.978-23.776-74.798-58.44-90.403" style="fill:none;stroke:url(#b);stroke-width:.396875;stroke-linecap:round;stroke-miterlimit:4;stroke-dasharray:.79375,2.38125;stroke-dashoffset:0;stroke-opacity:1;paint-order:fill markers stroke;stop-color:#000"/><path d="M214.861 365.93v19.484l-12.84-9.765z" style="fill:#1e1f28;stroke-width:1.5;stroke-linecap:round;stroke-dasharray:3,9;paint-order:fill markers stroke;stop-color:#000;fill-opacity:1" transform="matrix(.26458 0 0 .26458 -388.417 -228.506)"/><use width="100%" height="100%" fill="#3068b7" href="#logosZod1" transform="matrix(.06192 0 0 .06192 -383.851 -12.051)"/><circle cx="-361.758" cy="30.768" r="16.726" style="display:inline;fill:none;stroke:#fff;stroke-width:.264304;stroke-linecap:square;stroke-linejoin:round;stroke-miterlimit:4;stroke-dasharray:.673443,2.02033;stroke-dashoffset:0;paint-order:fill markers stroke;stop-color:#000" transform="rotate(15)"/><path d="M-354.76-69.643a1.372 1.372 0 0 0-.165.008 1.99 1.99 0 0 0-.442.091 2.81 2.81 0 0 0-.378.146 3.806 3.806 0 0 0-.497.27 5.511 5.511 0 0 0-.617.441 7.497 7.497 0 0 0-.53.47 7.908 7.908 0 0 0-.65-.557 6.538 6.538 0 0 0-.432-.301 5.143 5.143 0 0 0-.523-.288 3.81 3.81 0 0 0-.399-.158 2.723 2.723 0 0 0-.376-.089 2.016 2.016 0 0 0-.264-.02 1.435 1.435 0 0 0-.397.058 1.078 1.078 0 0 0-.33.174 1.076 1.076 0 0 0-.208.215 1.383 1.383 0 0 0-.163.278 1.78 1.78 0 0 0-.093.247 2.276 2.276 0 0 0-.048.182l-.02.096a2.89 2.89 0 0 0-.031.2c-.004.035-.01.07-.012.105a4.02 4.02 0 0 0-.014.564 6.142 6.142 0 0 0 .122 1.024c.029.144.06.286.096.428a9.289 9.289 0 0 0-.478.15 7.268 7.268 0 0 0-.714.295 5.291 5.291 0 0 0-.411.223 4.12 4.12 0 0 0-.433.305 2.997 2.997 0 0 0-.213.195l-.062.066a2.183 2.183 0 0 0-.163.203 1.672 1.672 0 0 0-.154.28c-.01.024-.02.047-.028.07-.008.024-.014.049-.021.073a.932.932 0 0 0-.039.216.874.874 0 0 0 0 .147.804.804 0 0 0 .04.225 1.056 1.056 0 0 0 .053.148 1.465 1.465 0 0 0 .165.293 1.918 1.918 0 0 0 .24.284 2.658 2.658 0 0 0 .225.204 3.353 3.353 0 0 0 .357.26 4.595 4.595 0 0 0 .531.295 6.098 6.098 0 0 0 .485.21 7.21 7.21 0 0 0 .61.204 8.425 8.425 0 0 0-.146.724 5.957 5.957 0 0 0-.067.97 5.225 5.225 0 0 0 .032.428l.015.1c.005.033.012.065.018.096l.02.094.024.09.026.088a1.887 1.887 0 0 0 .215.453 1.363 1.363 0 0 0 .197.228 1.06 1.06 0 0 0 .613.269 1.515 1.515 0 0 0 .425-.006 2.248 2.248 0 0 0 .372-.083 2.974 2.974 0 0 0 .394-.148 3.842 3.842 0 0 0 .307-.153 4.952 4.952 0 0 0 .418-.257 6.085 6.085 0 0 0 .637-.495 7.27 7.27 0 0 0 .27-.248 8.482 8.482 0 0 0 .554.489 6.568 6.568 0 0 0 .608.429 4.722 4.722 0 0 0 .49.259 3.575 3.575 0 0 0 .373.139 2.49 2.49 0 0 0 .437.084 1.462 1.462 0 0 0 .538-.055 1.115 1.115 0 0 0 .263-.13 1.075 1.075 0 0 0 .276-.267 1.46 1.46 0 0 0 .17-.29 1.9 1.9 0 0 0 .07-.167l.03-.09c.01-.03.017-.06.026-.092.01-.031.017-.064.025-.096.008-.033.014-.066.021-.1l.019-.102.016-.105.012-.109.01-.11a4.104 4.104 0 0 0 .01-.472 5.59 5.59 0 0 0-.037-.509 6.655 6.655 0 0 0-.163-.885 7.674 7.674 0 0 0 1.015-.381 5.812 5.812 0 0 0 .55-.296 4.362 4.362 0 0 0 .37-.258 3.159 3.159 0 0 0 .301-.274 2.246 2.246 0 0 0 .228-.287 1.587 1.587 0 0 0 .15-.295 1.073 1.073 0 0 0 .066-.45l-.008-.073a1.996 1.996 0 0 0-.031-.145 1.923 1.923 0 0 0-.023-.072c-.009-.024-.017-.047-.028-.071a1.35 1.35 0 0 0-.112-.211 1.632 1.632 0 0 0-.154-.207 2.28 2.28 0 0 0-.343-.33 3.3 3.3 0 0 0-.444-.306 4.908 4.908 0 0 0-.42-.225 6.204 6.204 0 0 0-.73-.297 8.643 8.643 0 0 0-.416-.131 7.921 7.921 0 0 0 .158-.841 7.57 7.57 0 0 0 .045-.524 5.18 5.18 0 0 0-.022-.708c-.004-.037-.01-.072-.015-.108a3.255 3.255 0 0 0-.017-.105l-.02-.1c-.007-.034-.016-.067-.024-.099l-.026-.094a2.01 2.01 0 0 0-.218-.488 1.39 1.39 0 0 0-.15-.19 1.181 1.181 0 0 0-.175-.148 1.013 1.013 0 0 0-.41-.166 1.199 1.199 0 0 0-.233-.021z" style="fill:#1e1f28;fill-opacity:1;stroke-width:.396875;stroke-linecap:round;stroke-dasharray:.79375,2.38125;paint-order:fill markers stroke;stop-color:#000"/><path fill="#00d8ff" d="M-353.236-65.92a8.648 8.648 0 0 0-.415-.131c.023-.096.045-.19.064-.284.315-1.527.109-2.757-.593-3.162-.674-.388-1.775.017-2.888.985a8.635 8.635 0 0 0-.321.295 7.86 7.86 0 0 0-.214-.198c-1.166-1.035-2.334-1.471-3.036-1.065-.673.39-.872 1.546-.589 2.993a8.622 8.622 0 0 0 .096.428 8.647 8.647 0 0 0-.478.15c-1.367.477-2.24 1.223-2.24 1.998 0 .8.937 1.602 2.36 2.09a7.338 7.338 0 0 0 .35.108 8.445 8.445 0 0 0-.101.461c-.27 1.422-.06 2.551.611 2.938.694.4 1.857-.01 2.99-1a7.34 7.34 0 0 0 .269-.25 8.475 8.475 0 0 0 .349.32c1.097.943 2.18 1.325 2.851.936.692-.4.918-1.613.625-3.09a7.313 7.313 0 0 0-.077-.344c.082-.024.162-.05.24-.075 1.48-.49 2.443-1.283 2.443-2.094 0-.778-.901-1.53-2.295-2.01zm-.32 3.58c-.071.023-.144.045-.217.067a12.934 12.934 0 0 0-.654-1.635c.257-.555.47-1.098.628-1.612.132.038.26.079.384.121 1.195.411 1.923 1.02 1.923 1.488 0 .499-.787 1.147-2.065 1.57zm-.53 1.05c.128.652.147 1.242.061 1.704-.076.414-.231.69-.422.801-.407.236-1.277-.07-2.216-.878a7.903 7.903 0 0 1-.324-.296c.364-.398.727-.86 1.082-1.374a12.885 12.885 0 0 0 1.748-.27 6.766 6.766 0 0 1 .07.313zm-5.363 2.464c-.397.14-.714.145-.905.035-.407-.235-.577-1.142-.346-2.358a7.913 7.913 0 0 1 .095-.429c.528.117 1.114.201 1.74.252.356.503.73.965 1.107 1.37a6.791 6.791 0 0 1-.245.226c-.501.438-1.003.748-1.446.904zm-1.862-3.518c-.63-.215-1.15-.495-1.506-.8-.32-.274-.481-.546-.481-.767 0-.47.7-1.07 1.87-1.477.141-.05.29-.096.444-.14.161.525.373 1.075.629 1.63a13.437 13.437 0 0 0-.637 1.654 6.794 6.794 0 0 1-.319-.1zm.624-4.249c-.242-1.24-.081-2.175.324-2.41.432-.25 1.387.107 2.394 1a7.278 7.278 0 0 1 .194.18c-.376.402-.746.86-1.1 1.36-.607.056-1.189.147-1.723.268a8.086 8.086 0 0 1-.089-.398zm5.569 1.375a17.539 17.539 0 0 0-.393-.645c.412.052.807.12 1.178.205-.112.357-.25.73-.414 1.112a19.22 19.22 0 0 0-.371-.672zm-2.27-2.212c.253.276.508.584.759.917a16.24 16.24 0 0 0-1.526 0c.25-.33.508-.638.766-.917zm-2.286 2.216a16.297 16.297 0 0 0-.365.668c-.16-.381-.298-.756-.41-1.118.368-.082.761-.15 1.17-.2a16.214 16.214 0 0 0-.395.65zm.407 3.296a11.758 11.758 0 0 1-1.19-.192c.114-.368.255-.75.419-1.14a16.197 16.197 0 0 0 .366.669c.13.226.266.447.405.663zm1.893 1.564a12.368 12.368 0 0 1-.776-.93 19.67 19.67 0 0 0 1.534-.002c-.251.342-.505.654-.758.932zm2.633-2.915c.172.393.318.774.433 1.135-.374.086-.778.155-1.204.206a19.285 19.285 0 0 0 .396-.657 17.519 17.519 0 0 0 .375-.684zm-.853.408a18.081 18.081 0 0 1-.619 1 16.611 16.611 0 0 1-1.182.041c-.402 0-.793-.012-1.169-.037a15.643 15.643 0 0 1-.63-1 15.502 15.502 0 0 1-.552-1.04 15.647 15.647 0 0 1 .55-1.042 15.497 15.497 0 0 1 .625-.996 15.556 15.556 0 0 1 2.353 0 16.609 16.609 0 0 1 .623.994 18.078 18.078 0 0 1 .556 1.035 16.615 16.615 0 0 1-.555 1.045zm1.138-6.158c.432.25.6 1.254.329 2.573-.017.084-.037.17-.058.257a13.214 13.214 0 0 0-1.726-.273 12.951 12.951 0 0 0-1.091-1.362 8.108 8.108 0 0 1 .296-.272c.954-.83 1.844-1.157 2.25-.923zm-2.94 3.955a1.153 1.153 0 1 1 0 2.306 1.153 1.153 0 0 1 0-2.306z" style="fill:#fff;stroke-width:.050428"/><path fill="#18253f" d="M-380.21-20h8.438l2.473 2.582-6.996 7.836-6.506-7.836z" style="fill:#fff;stroke-width:.0619166" transform="matrix(.54983 0 0 .54983 -133.99 -59.72)"/><path fill="#274d82" d="M-374.6-11.433h-3.306l-1.494-1.829h4.233v-.26h2.42z" style="fill:#ccc;stroke-width:.0619166" transform="matrix(.54983 0 0 .54983 -133.99 -59.72)"/><path fill="#274d82" d="m-370.01-18.154-9.125 5.268-1.19-1.489 7.065-4.079-.13-.225 1.882-1.086zm-4.888-1.843-6.852 3.956-1.066-1.33 4.588-2.649z" style="fill:#ccc;stroke-width:.0619166" transform="matrix(.54983 0 0 .54983 -133.99 -59.72)"/><use width="100%" height="100%" filter="url(#logosZod0)" href="#logosZod1" style="filter:url(#c)" transform="translate(-344.475 -71.17) scale(.03162)"/><path fill="#99425b" d="M-349.51 75.862c0-.78-.615-1.411-1.375-1.411-.05 0-.098.002-.145.007l1.89-5.718h-8.033l1.888 5.713a1.379 1.414 0 0 0-.084-.004c-.76 0-1.376.631-1.376 1.411 0 .63.402 1.164.958 1.345a6.144 6.144 0 0 1-1.082 1.397c-.57.552-1.223.97-1.929 1.228-.84-.443-1.237-1.428-.88-2.29.041-.099.083-.197.122-.296a1.405 1.405 0 0 0 1.063-1.374c0-.78-.617-1.411-1.377-1.411s-1.376.632-1.376 1.411c0 .478.232.9.586 1.156-.34.795-.841 1.628-.997 2.592-.187 1.157 0 2.384.974 3.077 2.272 1.615 4.737-1 7.336-1.658.942-.238 1.976-.2 2.806-.693a2.41 2.41 0 0 0 1.15-1.672 2.561 2.561 0 0 0-.438-1.907 1.37 1.405 0 0 0 .32-.905" style="fill:#1e1f28;fill-opacity:1;stroke:none;stroke-width:.0530564" transform="matrix(.44304 0 0 .44304 -186.734 -87.652)"/><path fill="#fff" d="M-349.58 78.546a1.986 1.986 0 0 1-.972 1.376c-.483.28-1.062.363-1.675.451-.328.048-.668.097-1 .178-.877.217-1.726.639-2.548 1.047-1.644.817-3.064 1.522-4.403.594-.981-.68-.936-1.937-.821-2.627.106-.638.392-1.226.669-1.795a41.074 41.074 0 0 0 .14-.29 1.673 1.673 0 0 0 .435.109c-.282.93.162 1.941 1.092 2.42l.127.065.135-.048a5.732 5.732 0 0 0 2.014-1.25 6.28 6.28 0 0 0 .997-1.205 1.691 1.691 0 0 0 .252.019c.854 0 1.561-.638 1.67-1.463.35-.012.721-.012 1.073 0 .109.825.816 1.463 1.67 1.463.357 0 .688-.112.96-.302.19.388.26.824.185 1.258zm-9.987-3.655c.565 0 1.024.459 1.024 1.023a1.017 1.017 0 0 1-.162.551 1.024 1.024 0 0 1-1.22.409 1.03 1.03 0 0 1-.53-.453 1.017 1.017 0 0 1-.135-.506c0-.565.459-1.024 1.023-1.024zm3.406 1.014a1.025 1.025 0 0 1 1.831-.629 1.025 1.025 0 0 1 .12.195 1.017 1.017 0 0 1 .096.433 1.026 1.026 0 0 1-1.024 1.024 1.017 1.017 0 0 1-.554-.165 1.024 1.024 0 0 1-.47-.86zm4.272-1.218a1.687 1.687 0 0 0-.463.78 15.715 15.715 0 0 0-1.158 0 1.69 1.69 0 0 0-.508-.82l1.06-2.142 1.07 2.182zm-4.563-5.286h6.984l-1.65 4.865a1.675 1.675 0 0 0-.209.065l-1.629-3.324-1.634 3.304a1.676 1.676 0 0 0-.218-.059zm6.75 6.504c0 .102-.015.201-.043.295a1.028 1.028 0 0 1-.394.544 1.018 1.018 0 0 1-.586.184c-.473 0-.871-.322-.989-.758a1.021 1.021 0 0 1-.035-.265c0-.14.029-.274.08-.395a1.023 1.023 0 0 1 .096-.178 1.023 1.023 0 0 1 1.872.573zm.662 0c0-.823-.593-1.51-1.373-1.656l1.867-5.51h-8.828l1.87 5.52a1.685 1.685 0 0 0-.522 3.076c-.23.343-.503.665-.815.96a5.11 5.11 0 0 1-1.642 1.055c-.6-.376-.853-1.086-.59-1.705l.021-.048.039-.091a1.688 1.688 0 0 0 1.132-1.592c0-.929-.756-1.685-1.686-1.685-.929 0-1.685.756-1.685 1.685 0 .47.193.894.503 1.2a28.499 28.499 0 0 1-.176.367c-.284.582-.605 1.243-.727 1.976-.242 1.457.148 2.621 1.097 3.279.576.399 1.16.556 1.75.556 1.107 0 2.228-.557 3.324-1.102.79-.392 1.606-.797 2.413-.996.3-.074.609-.119.936-.166.648-.093 1.318-.19 1.912-.534a2.646 2.646 0 0 0 1.292-1.834 2.731 2.731 0 0 0-.358-1.878 1.675 1.675 0 0 0 .246-.877z" style="fill:#fff;stroke:none;stroke-width:.0515603" transform="matrix(.44304 0 0 .44304 -186.734 -87.652)"/><path d="M322.777 651.524h12.4l-2.197 10.969-6.62 2.197-5.735-2.197z" style="fill:#1e1f28;fill-opacity:1;stroke:none;stroke-width:.264583px;stroke-linecap:butt;stroke-linejoin:miter;stroke-opacity:1" transform="translate(-510.707 -342.535) scale(.41786)"/><path fill="#444" d="m326.36 664.69 6.62-2.197 2.197-10.97h-12.4l-.472 2.448h9.937l-.309 1.563h-9.952l-.487 2.447h9.938l-.546 2.802-4.01 1.312-3.465-1.312.236-1.224H321.2l-.575 2.934 5.735 2.197" style="fill:#fff;stroke-width:.0568441" transform="translate(-510.707 -342.535) scale(.41786)"/><g transform="matrix(.51072 0 0 .51072 -96.532 -2.45)"><circle cx="-449.692" cy="308.139" r="7.938" style="fill:#1e1f28;fill-opacity:1;stroke:none;stroke-width:.0634999;stroke-linecap:square;stroke-linejoin:round;stroke-miterlimit:4;stroke-dasharray:.126999,.381;stroke-dashoffset:0;stroke-opacity:1;paint-order:fill markers stroke;stop-color:#000" transform="rotate(45)"/><path fill="url(#logosTailwindcssIcon0)" d="M-535.867-104.46c-1.94 0-3.153.971-3.638 2.911.727-.97 1.576-1.334 2.546-1.091.554.138.95.54 1.387.984.714.725 1.54 1.563 3.343 1.563 1.94 0 3.153-.97 3.638-2.91-.728.97-1.577 1.333-2.547 1.09-.553-.138-.95-.54-1.387-.984-.713-.724-1.539-1.562-3.342-1.562zm-3.638 4.367c-1.94 0-3.153.97-3.638 2.91.727-.97 1.576-1.334 2.546-1.091.554.138.95.54 1.387.984.714.724 1.54 1.562 3.343 1.562 1.94 0 3.153-.97 3.638-2.91-.728.97-1.577 1.334-2.547 1.091-.553-.138-.95-.54-1.387-.984-.713-.724-1.539-1.562-3.342-1.562z" style="fill:#fff;stroke-width:.0568441"/></g><g transform="matrix(.51072 0 0 .51072 -208.763 -146.136)"><circle cx="-290.071" cy="193.301" r="7.938" style="display:inline;fill:#1e1f28;fill-opacity:1;stroke:none;stroke-width:.348736;stroke-miterlimit:4;stroke-dasharray:none;stroke-dashoffset:0;paint-order:fill markers stroke;stop-color:#000"/><g style="fill:#fff"><path fill="url(#logosCypressIcon0)" d="m141.651 223.943-4.335 10.526c-.861 2.084-2.83 3.495-5.046 3.59-1.464.056-2.94.097-4.431.097-51.024-.027-96.169-36.113-107.355-85.836l-17.369 3.933c6.277 27.89 22.032 53.204 44.365 71.295 22.592 18.296 51.052 28.397 80.167 28.452h.26c1.71 0 3.406-.041 5.101-.11 9.136-.383 17.3-6.126 20.788-14.637l5.661-13.76z" style="fill:#fff" transform="translate(-298.008 185.364) scale(.06201)"/><path fill="url(#logosCypressIcon1)" d="M4.54 161.914A128.496 128.496 0 0 1 0 128.007C0 75.516 32.863 27.52 81.782 8.593l6.414 16.652c-42.108 16.295-70.39 57.59-70.39 102.762a110.66 110.66 0 0 0 3.898 29.178z" style="fill:#fff" transform="translate(-298.008 185.364) scale(.06201)"/><path fill="url(#logosCypressIcon2)" d="M225.693 77.298c-19.037-36.662-56.509-59.44-97.769-59.44-14.62 0-28.828 2.823-42.204 8.374L78.897 9.744C94.446 3.29 110.939 0 127.924 0c47.934 0 91.45 26.451 113.564 69.047l-15.795 8.25z" style="fill:#fff" transform="translate(-298.008 185.364) scale(.06201)"/><path fill="#09293f" d="M89.727 101.597c10.326 0 18.737 5.523 23.058 15.158l.342.754 17.34-5.907-.369-.891c-6.715-16.405-22.182-26.602-40.37-26.602-12.787 0-23.181 4.112-31.77 12.554-8.533 8.388-12.855 18.94-12.855 31.371 0 12.321 4.322 22.82 12.855 31.207 8.589 8.443 18.983 12.554 31.77 12.554 18.188 0 33.655-10.197 40.37-26.588l.37-.89-17.368-5.922-.329.782c-3.87 9.47-12.486 15.13-23.044 15.13-7.193 0-13.265-2.521-18.08-7.483-4.867-5.03-7.329-11.348-7.329-18.776 0-7.483 2.407-13.678 7.33-18.94 4.8-4.99 10.886-7.511 18.08-7.511z" style="fill:#fff" transform="translate(-298.008 185.364) scale(.06201)"/><path fill="#09293f" d="m198.341 85.726-24.712 62.729-24.877-62.729h-20.35l34.888 85.617-24.822 60.385 17.792 3.55 61.309-149.552z" style="fill:#fff" transform="translate(-298.008 185.364) scale(.06201)"/><path fill="url(#logosCypressIcon3)" d="M241.488 69.047C250.491 86.585 256 107.185 256 128.27c0 49.2-27.671 91.916-68.253 113.343l-8.768-15.548c35.19-18.352 59.227-55.258 59.227-97.795 0-18.46-4.513-35.691-12.513-50.973l15.795-8.251z" style="fill:#fff" transform="translate(-298.008 185.364) scale(.06201)"/></g></g><g transform="translate(-237.09 -126.656) scale(.41786)"><rect width="14.552" height="14.552" x="-312.732" y="105.8" rx="3.166" ry="3.166" style="fill:#fff;fill-opacity:1;stroke:none;stroke-width:.799034;stroke-linecap:square;stroke-linejoin:round;stroke-miterlimit:4;stroke-dasharray:1.99757,5.99273;stroke-dashoffset:0;stroke-opacity:1;paint-order:fill markers stroke;stop-color:#000"/><path d="m-308.906 117.96 1.113-.674c.215.381.41.704.88.704.449 0 .732-.176.732-.86v-4.65h1.368v4.67c0 1.416-.83 2.06-2.042 2.06-1.094 0-1.729-.566-2.051-1.25m4.836-.146 1.113-.645c.293.479.674.83 1.348.83.567 0 .928-.283.928-.674 0-.468-.371-.635-.996-.908l-.342-.147c-.987-.42-1.641-.947-1.641-2.06 0-1.026.781-1.808 2.002-1.808.87 0 1.495.303 1.944 1.094l-1.065.684c-.234-.42-.488-.586-.879-.586-.4 0-.654.254-.654.586 0 .41.254.577.84.83l.342.147c1.162.498 1.817 1.006 1.817 2.149 0 1.23-.967 1.905-2.267 1.905-1.27 0-2.09-.606-2.49-1.397" style="fill:#1e1f28;fill-opacity:1;stroke-width:.0568441"/></g><g transform="translate(-234.106 -128.146) scale(.41786)"><rect width="14.552" height="14.552" x="-284.8" y="108.827" rx="3.166" ry="3.166" style="fill:#fff;fill-opacity:1;stroke:none;stroke-width:.799034;stroke-linecap:square;stroke-linejoin:round;stroke-miterlimit:4;stroke-dasharray:1.99757,5.99273;stroke-dashoffset:0;stroke-opacity:1;paint-order:fill markers stroke;stop-color:#000"/><path fill="#fff" d="M-276.244 120.223v1.57c.255.13.557.229.906.294.349.066.716.099 1.102.099.377 0 .735-.036 1.073-.108.34-.072.636-.19.892-.356.255-.165.457-.381.606-.648.149-.266.223-.596.223-.988a2.02 2.02 0 0 0-.127-.749 1.748 1.748 0 0 0-.369-.571 2.696 2.696 0 0 0-.576-.45 6.184 6.184 0 0 0-.76-.374 9.58 9.58 0 0 1-.554-.248 2.815 2.815 0 0 1-.417-.245 1.069 1.069 0 0 1-.266-.265.557.557 0 0 1-.093-.317.53.53 0 0 1 .084-.292.72.72 0 0 1 .235-.223 1.26 1.26 0 0 1 .373-.145c.148-.034.311-.051.491-.051a3.15 3.15 0 0 1 .855.12 3.05 3.05 0 0 1 .43.154 2.37 2.37 0 0 1 .385.216v-1.467c-.239-.091-.5-.16-.783-.203a6.38 6.38 0 0 0-.975-.066c-.373 0-.727.04-1.06.12-.334.08-.628.205-.882.375s-.454.387-.601.65c-.148.263-.221.578-.221.945 0 .467.135.866.405 1.197.27.33.68.61 1.23.839a16.568 16.568 0 0 1 .604.26c.186.085.348.173.483.265.136.091.243.191.322.299a.61.61 0 0 1 .118.368.563.563 0 0 1-.074.282.654.654 0 0 1-.223.226c-.1.064-.225.113-.373.15a2.244 2.244 0 0 1-.523.053 3.018 3.018 0 0 1-1.94-.716zm-2.617-3.907h2.02v-1.293h-5.628v1.293h2.009v5.756h1.6z" style="fill:#000;stroke-width:.0568441"/></g><g transform="matrix(.6688 0 0 .6688 -125.085 -63.27)"><circle cx="-348" cy="-197.42" r="29.481" style="display:inline;fill:none;stroke:#fff;stroke-width:.396875;stroke-linecap:square;stroke-linejoin:round;stroke-miterlimit:4;stroke-dasharray:1.187,3.56098;stroke-dashoffset:0;paint-order:fill markers stroke;stop-color:#000"/><g style="display:inline"><path fill="#6c31e3" d="M379.313 389.344c-.09.656-.732 1.168-1.375.993-.908-.251-1.96-.643-2.911-.715l-1.454-.11a.959.959 0 0 1-.62-.289l-2.508-2.578a.959.959 0 0 1-.186-1.065s1.55-3.403 1.609-3.582c.058-.175.268-1.718.392-2.55a.962.962 0 0 1 .309-.57l2.963-2.665a.962.962 0 0 1 1.395.12l2.492 3.163a1.02 1.02 0 0 1 .213.629c0 .598.052 1.829.382 2.623a10.415 10.415 0 0 0 1.224 2.01.481.481 0 0 1 .037.54c-.22.371-.65 1.08-1.261 1.99a4.926 4.926 0 0 0-.701 2.056z" style="fill:#fff;stroke:#1e1f28;stroke-width:.250093;stroke-opacity:1" transform="matrix(1.62453 0 0 1.62453 -958.428 -819.893)"/><path fill="url(#logosObsidianIcon1)" d="M376.391 384.624a3.763 3.763 0 0 1 .921.21c.956.357 1.825 1.162 2.544 2.712.051-.09.103-.175.158-.258a42.002 42.002 0 0 0 1.261-1.99.481.481 0 0 0-.034-.54 10.415 10.415 0 0 1-1.227-2.01c-.33-.791-.378-2.025-.382-2.623 0-.227-.072-.45-.213-.629l-2.492-3.162-.041-.052c.182.602.172 1.083.058 1.52-.103.405-.295.773-.498 1.161-.069.13-.138.265-.203.402a4.812 4.812 0 0 0-.543 1.994c-.034.832.134 1.873.688 3.265h.003z" style="fill:#fff;stroke:#1e1f28;stroke-width:.264583;stroke-opacity:1" transform="matrix(1.62453 0 0 1.62453 -958.428 -819.893)"/><path fill="url(#logosObsidianIcon2)" d="M376.388 384.624c-.554-1.392-.722-2.433-.688-3.265.035-.825.275-1.444.543-1.994l.207-.402c.199-.388.388-.756.494-1.162a2.698 2.698 0 0 0-.058-1.519.962.962 0 0 0-1.354-.069l-2.963 2.664a.962.962 0 0 0-.31.57l-.36 2.393c0 .024-.007.045-.01.069.666.433 1.512 1.134 1.969 2.244.09.22.165.45.22.702a6.874 6.874 0 0 1 2.31-.234v.003z" style="fill:#fff;stroke:#1e1f28;stroke-width:.264583;stroke-opacity:1" transform="matrix(1.62453 0 0 1.62453 -958.428 -819.893)"/><path fill="url(#logosObsidianIcon6)" d="M373.226 389.402c.763-1.58 1.161-3.142.852-4.547" style="fill:#fff;stroke:#1e1f28;stroke-width:.264583;stroke-opacity:1" transform="matrix(1.62453 0 0 1.62453 -958.428 -819.893)"/></g><path d="M-206.005-150.498a2.147 2.147 0 0 0-2.146-2.145h-8.138a2.147 2.147 0 0 0-2.146 2.145v8.14c0 1.183.962 2.145 2.146 2.145h8.138a2.147 2.147 0 0 0 2.146-2.146z" style="clip-rule:evenodd;fill:#fff;fill-rule:evenodd;stroke-width:.025359;stroke-linejoin:round;stroke-miterlimit:2" transform="matrix(.86225 0 0 .86225 -186.045 -50.105)"/><path d="M-208.102-149.824a4.199 4.199 0 0 0-4.118 2.76 4.199 4.199 0 0 0-4.118-2.76 4.201 4.201 0 0 0 1.827 3.643c.613.42.98 1.119.977 1.862v1.29h2.628v-1.29a2.254 2.254 0 0 1 .977-1.862 4.199 4.199 0 0 0 1.827-3.643z" style="clip-rule:evenodd;fill:#1e1f28;fill-opacity:1;fill-rule:nonzero;stroke-width:.025359;stroke-linejoin:round;stroke-miterlimit:2" transform="matrix(.86225 0 0 .86225 -186.045 -50.105)"/><g transform="translate(-394.74 -282.377) scale(.90018)"><rect width="13.904" height="8.327" x="68.366" y="113.594" rx="1.318" ry="1.318" style="fill:#1e1f28;fill-opacity:1;stroke:#fff;stroke-width:.648347;stroke-miterlimit:4;stroke-dasharray:none;stroke-opacity:1;paint-order:fill markers stroke;stop-color:#000"/><path d="M69.894 120.153v-4.792h1.394l1.394 1.743 1.394-1.743h1.395v4.792h-1.395v-2.744l-1.394 1.742-1.394-1.742v2.744zm8.757 0-2.091-2.309h1.394v-2.483h1.394v2.44h1.395l-2.092 2.352z" style="fill:#fff;stroke-width:.056844"/></g><g style="display:inline"><path d="m-1660.22-171.144-134.34 137.47c-45.39 56.21 30.89 49.67 63.59 65.86 11.73 11.99-44.96 20.84-33.23 32.84 11.73 11.99 70.93 23.1 82.68 35.09 11.73 11.99-24.01 24.71-12.28 36.7 11.73 11.99 38.86.63 43.94 28.31 3.62 19.78 48.89 8.5 71.03-7.7 11.73-12-22.44-10.87-10.71-22.86 29.17-29.83 56.33-10.84 66.31-40.73 4.93-14.77-42.94-22.77-31.19-34.76 33.75-19.71 150.4-32.54 95.05-87.89l-139.25-142.33c-17.03-16.35-45.45-16.53-61.6 0zm154.31 264.98c0 6.82 50.25 11.29 50.25-1.61-7.16-20.72-44.31-19.32-50.25 1.61zm-226.36 36.24c11.9 10.29 30.28-2.56 35.79-16.92-11.53-15.32-54.69.55-35.79 16.92zm220.06-22.23c-15.34 13.76 1.72 27.72 16.84 18.83 3.37-3.42-.09-15.41-16.84-18.83z" style="fill:#fff" transform="matrix(.03648 0 0 .03648 -267.606 -218.335)"/><path fill="#fff" d="M-1692.37 39.626c3.59 2.23 57.89 13.26 71.16 15.46 4.6.97 1.34 5.71-5 8.91-14.3 3.8-83.66-24.37-66.16-24.37zM-1606.74-161.504l53.15 53.98c5.04 5.15 4.97 15.13 2.15 18l-26.39-21.11-5.19 31.26-22.05-11.64-35.31 22.31-11.69-47.03-18.97 32.82h-29c-11.82 0-13.21-15-2.47-25.74 18.76-20.25 40.29-40.89 51.99-52.85 11.76-12.02 32.25-11.68 43.78 0z" style="fill:#1e1f28;fill-opacity:1" transform="matrix(.03648 0 0 .03648 -267.606 -218.335)"/></g><g style="display:inline;stroke:#1e1f28;stroke-width:.5;stroke-opacity:1"><path fill="#0acf83" d="M359.218 429.859a2.426 2.426 0 0 0 2.426-2.426v-2.425h-2.426a2.426 2.426 0 0 0 0 4.85z" style="fill:#fff;stroke:#1e1f28;stroke-width:.5;stroke-opacity:1" transform="matrix(.87028 0 0 .87028 -683.774 -586.242)"/><path fill="#a259ff" d="M356.793 422.583a2.426 2.426 0 0 1 2.425-2.426h2.426v4.85h-2.426a2.426 2.426 0 0 1-2.425-2.424z" style="fill:#fff;stroke:#1e1f28;stroke-width:.5;stroke-opacity:1" transform="matrix(.87028 0 0 .87028 -683.774 -586.242)"/><path fill="#f24e1e" d="M356.793 417.732a2.426 2.426 0 0 1 2.425-2.426h2.426v4.851h-2.426a2.426 2.426 0 0 1-2.425-2.425z" style="fill:#fff;stroke:#1e1f28;stroke-width:.5;stroke-opacity:1" transform="matrix(.87028 0 0 .87028 -683.774 -586.242)"/><path fill="#ff7262" d="M361.644 415.306h2.425a2.426 2.426 0 0 1 0 4.851h-2.425z" style="fill:#fff;stroke:#1e1f28;stroke-width:.5;stroke-opacity:1" transform="matrix(.87028 0 0 .87028 -683.774 -586.242)"/><path fill="#1abcfe" d="M366.494 422.583a2.426 2.426 0 0 1-4.85 0 2.426 2.426 0 0 1 4.85 0z" style="fill:#fff;stroke:#1e1f28;stroke-width:.5;stroke-opacity:1" transform="matrix(.87028 0 0 .87028 -683.774 -586.242)"/></g></g><g transform="matrix(.83333 0 0 .83333 -63.016 -34.551)"><circle cx="-343.999" cy="-25.36" r="19.773" style="display:inline;fill:none;stroke:#fff;stroke-width:.316207;stroke-linecap:square;stroke-linejoin:round;stroke-miterlimit:4;stroke-dasharray:.796116,2.38834;stroke-dashoffset:0;paint-order:fill markers stroke;stop-color:#000" transform="rotate(15)"/><g style="fill:#fff"><path fill="#0065a9" d="M246.135 26.873 193.593 1.575a15.885 15.885 0 0 0-18.123 3.08L3.466 161.482c-4.626 4.219-4.62 11.502.012 15.714l14.05 12.772a10.625 10.625 0 0 0 13.569.604L238.229 33.436c6.949-5.271 16.93-.315 16.93 8.407v-.61a15.938 15.938 0 0 0-9.024-14.36z" mask="url(#logosVisualStudioCode2)" style="fill:#fff" transform="matrix(.05321 0 0 .05321 -332.44 -120.225)"/><path fill="#007acc" d="m246.135 226.816-52.542 25.298a15.887 15.887 0 0 1-18.123-3.08L3.466 92.207c-4.626-4.218-4.62-11.502.012-15.713l14.05-12.773a10.625 10.625 0 0 1 13.569-.603l207.132 157.135c6.949 5.271 16.93.315 16.93-8.408v.611a15.939 15.939 0 0 1-9.024 14.36z" mask="url(#logosVisualStudioCode2)" style="fill:#fff" transform="matrix(.05321 0 0 .05321 -332.44 -120.225)"/><path fill="#1f9cf0" d="M193.428 252.134a15.892 15.892 0 0 1-18.125-3.083c5.881 5.88 15.938 1.715 15.938-6.603V11.273c0-8.318-10.057-12.483-15.938-6.602a15.892 15.892 0 0 1 18.125-3.084l52.533 25.263a15.937 15.937 0 0 1 9.03 14.363V212.51c0 6.125-3.51 11.709-9.03 14.363l-52.533 25.262z" mask="url(#logosVisualStudioCode2)" style="fill:#fff" transform="matrix(.05321 0 0 .05321 -332.44 -120.225)"/></g><path fill="#dd4814" d="M-395.827-2.937a7.937 7.937 0 1 1-15.875 0 7.937 7.937 0 0 1 15.875 0z" style="fill:#fff;stroke-width:.0621659" transform="matrix(.60375 0 0 .60375 -97.993 -123.22)"/><path fill="#fff" d="M-409.162-3.997a1.06 1.06 0 1 0 0 2.12 1.06 1.06 0 0 0 0-2.12zm7.567 4.817a1.06 1.06 0 1 0 1.058 1.835A1.06 1.06 0 0 0-401.595.82zm-5.265-3.757c0-1.047.52-1.972 1.316-2.532l-.775-1.298a4.614 4.614 0 0 0-1.903 2.676 1.486 1.486 0 0 1 0 2.308A4.61 4.61 0 0 0-406.32.894l.775-1.298a3.09 3.09 0 0 1-1.316-2.533zm3.095-3.095a3.096 3.096 0 0 1 3.083 2.82l1.51-.021a4.59 4.59 0 0 0-1.367-2.986 1.486 1.486 0 0 1-1.996-1.154 4.616 4.616 0 0 0-1.23-.167 4.587 4.587 0 0 0-2.04.476l.736 1.32a3.083 3.083 0 0 1 1.304-.288zm0 6.19a3.083 3.084 0 0 1-1.303-.287l-.737 1.32a4.582 4.582 0 0 0 2.04.476 4.603 4.603 0 0 0 1.23-.167 1.485 1.485 0 0 1 1.996-1.154 4.59 4.59 0 0 0 1.368-2.986l-1.51-.022a3.095 3.095 0 0 1-3.084 2.82zm2.17-6.852a1.059 1.059 0 1 0 1.06-1.833 1.059 1.059 0 0 0-1.06 1.833z" style="fill:#1e1f28;fill-opacity:1;stroke:none;stroke-width:.0621659" transform="matrix(.60375 0 0 .60375 -97.993 -123.22)"/><g transform="matrix(.60375 0 0 .60375 -117.056 -114.857)"><circle cx="-346.332" cy="-29.24" r="7.938" style="fill:#1e1f28;fill-opacity:1;stroke:none;stroke-width:.811079;stroke-miterlimit:4;stroke-dasharray:.811079,1.62216;stroke-dashoffset:0;paint-order:fill markers stroke;stop-color:#000"/><path fill="#161614" d="M-346.332-37.178c-4.383 0-7.938 3.644-7.938 8.138 0 3.596 2.275 6.647 5.429 7.723.397.075.542-.177.542-.391 0-.195-.007-.836-.01-1.516-2.209.493-2.675-.96-2.675-.96-.36-.94-.881-1.19-.881-1.19-.72-.506.054-.495.054-.495.797.057 1.217.838 1.217.838.708 1.244 1.857.885 2.31.677.071-.526.277-.885.504-1.089-1.763-.205-3.616-.903-3.616-4.022 0-.888.31-1.614.817-2.184-.082-.205-.354-1.033.077-2.154 0 0 .667-.219 2.184.834a7.437 7.437 0 0 1 1.987-.273 7.504 7.504 0 0 1 1.988.273c1.515-1.052 2.18-.834 2.18-.834.433 1.121.161 1.949.079 2.154.509.57.817 1.296.817 2.184 0 3.126-1.857 3.815-3.625 4.016.285.253.538.748.538 1.507 0 1.09-.01 1.965-.01 2.234 0 .216.143.47.546.39 3.152-1.077 5.423-4.127 5.423-7.721 0-4.495-3.554-8.139-7.937-8.139zm-4.964 11.593c-.019.04-.08.053-.137.025-.057-.026-.09-.081-.07-.122.016-.042.079-.053.136-.025.058.026.09.082.07.122zm.39.358c-.038.036-.112.019-.162-.038-.052-.057-.062-.132-.023-.17.039-.035.11-.018.162.038.052.058.062.133.023.17zm.268.457c-.049.034-.128 0-.178-.07-.048-.073-.048-.16.001-.194.05-.035.128-.005.178.068.048.074.048.16-.001.196zm.453.529c-.044.05-.136.036-.204-.031-.07-.066-.089-.159-.045-.208.044-.05.137-.036.205.031.069.065.09.16.044.208zm.585.179c-.019.064-.108.092-.198.065-.09-.027-.149-.102-.13-.166.018-.065.108-.095.198-.066.09.028.149.102.13.167zm.667.076c0 .067-.074.122-.169.123-.095.002-.171-.052-.172-.118 0-.068.074-.123.17-.124.094-.001.17.052.17.119zm.654-.026c.01.065-.054.133-.148.15-.092.018-.177-.023-.189-.087-.01-.068.055-.135.147-.152.094-.017.178.023.19.09z" style="fill:#fff;stroke-width:.0627928"/></g><path d="m1380.07 2154.788-22.447 12.959-22.446-12.96v-25.918l22.446-12.96 22.447 12.96z" style="fill:#1e1f28;fill-opacity:1;stroke:none;stroke-width:3;stroke-miterlimit:4;stroke-dasharray:3,6;stroke-dashoffset:0;paint-order:fill markers stroke;stop-color:#000" transform="matrix(.17368 0 0 .16949 -581.414 -471.111)"/><path fill="#539e43" d="M372.627 581.527c-.2 0-.387-.054-.561-.147l-1.778-1.056c-.268-.147-.134-.2-.054-.228.361-.12.428-.147.802-.36.04-.027.094-.014.134.013l1.364.816c.053.026.12.026.16 0l5.334-3.089c.054-.026.08-.08.08-.147v-6.163c0-.066-.026-.12-.08-.147l-5.334-3.075c-.053-.026-.12-.026-.16 0l-5.335 3.075c-.053.027-.08.094-.08.147v6.163c0 .054.027.12.08.148l1.458.842c.788.4 1.283-.067 1.283-.535v-6.083c0-.08.067-.16.16-.16h.682c.08 0 .16.066.16.16v6.083c0 1.056-.574 1.671-1.577 1.671-.307 0-.548 0-1.23-.334l-1.403-.802a1.128 1.128 0 0 1-.562-.976v-6.163c0-.401.214-.776.562-.976l5.334-3.088a1.193 1.193 0 0 1 1.123 0l5.334 3.088c.348.2.561.575.561.976v6.163c0 .4-.213.775-.561.976l-5.334 3.088c-.174.08-.375.12-.562.12zm1.645-4.238c-2.34 0-2.821-1.07-2.821-1.979 0-.08.067-.16.16-.16h.696c.08 0 .147.053.147.133.107.709.414 1.057 1.831 1.057 1.123 0 1.604-.254 1.604-.856 0-.348-.133-.602-1.885-.775-1.457-.148-2.366-.468-2.366-1.631 0-1.083.91-1.725 2.433-1.725 1.711 0 2.554.588 2.66 1.872a.22.22 0 0 1-.04.12c-.026.027-.066.053-.106.053h-.696a.157.157 0 0 1-.147-.12c-.16-.735-.574-.976-1.67-.976-1.23 0-1.378.428-1.378.749 0 .387.174.508 1.832.722 1.644.214 2.42.521 2.42 1.67-.014 1.177-.976 1.846-2.674 1.846z" style="fill:#fff;stroke-width:.0504465" transform="matrix(.60375 0 0 .60375 -570.595 -454.803)"/><g transform="matrix(.60375 0 0 .60375 -548.41 -463.393)"><circle cx="382.477" cy="610.917" r="7.938" style="fill:#1e1f28;fill-opacity:1;stroke:none;stroke-width:.432955;stroke-miterlimit:4;stroke-dasharray:.432955,.865912;stroke-dashoffset:0;paint-order:fill markers stroke;stop-color:#000"/><g style="fill:#fff"><path d="M182.022 9.147c2.982 3.702 4.502 8.697 7.543 18.687L256 246.074a276.467 276.467 0 0 0-79.426-26.891L133.318 73.008a5.63 5.63 0 0 0-10.802.017L79.784 219.11A276.453 276.453 0 0 0 0 246.04L66.76 27.783c3.051-9.972 4.577-14.959 7.559-18.654a24.541 24.541 0 0 1 9.946-7.358C88.67 0 93.885 0 104.314 0h47.683c10.443 0 15.664 0 20.074 1.774a24.545 24.545 0 0 1 9.95 7.373z" style="fill:#fff" transform="translate(377.374 603.64) scale(.03986)"/><path fill="#ff5d01" d="M189.972 256.46c-10.952 9.364-32.812 15.751-57.992 15.751-30.904 0-56.807-9.621-63.68-22.56-2.458 7.415-3.009 15.903-3.009 21.324 0 0-1.619 26.623 16.898 45.14 0-9.615 7.795-17.41 17.41-17.41 16.48 0 16.46 14.378 16.446 26.043l-.001 1.041c0 17.705 10.82 32.883 26.21 39.28a35.685 35.685 0 0 1-3.588-15.647c0-16.886 9.913-23.173 21.435-30.48 9.167-5.814 19.353-12.274 26.372-25.232a47.588 47.588 0 0 0 5.742-22.735c0-5.06-.786-9.938-2.243-14.516z" style="fill:#fff" transform="translate(377.374 603.64) scale(.03986)"/></g></g><g transform="translate(-538.737 -419.549) scale(.51116)"><circle cx="446.423" cy="576.25" r="9.375" style="display:inline;fill:#1e1f28;fill-opacity:1;stroke:none;stroke-width:.511378;stroke-miterlimit:4;stroke-dasharray:.511378,1.02276;stroke-dashoffset:0;paint-order:fill markers stroke;stop-color:#000"/><path fill="#000020" d="M446.043 573.267c.12-.175.25-.197.355-.197a.46.46 0 0 1 .4.197c.939 1.289 2.487 3.855 3.63 5.749.744 1.234 1.316 2.183 1.434 2.303.44.453 1.045.171 1.396-.343.345-.506.441-.861.441-1.24 0-.258-5.008-9.572-5.512-10.348-.485-.745-.643-.934-1.473-.934h-.622c-.827 0-.947.189-1.432.934-.504.776-5.513 10.09-5.513 10.348 0 .379.096.734.442 1.24.351.514.956.796 1.396.343.118-.12.69-1.069 1.434-2.303 1.143-1.894 2.686-4.46 3.624-5.749z" style="fill:#fff;stroke-width:.0568438"/></g><g transform="matrix(.60375 0 0 .60375 -578.32 -428.47)"><circle cx="449.911" cy="530.636" r="7.938" style="fill:#1e1f28;fill-opacity:1;stroke:none;stroke-width:.216137;stroke-miterlimit:4;stroke-dasharray:none;stroke-dashoffset:0;paint-order:fill markers stroke;stop-color:#000"/><g style="fill:#fff;stroke:none"><path fill="#012f55" d="m39.37 0 55.965 94.22.049-42.649 32.473 50.76-33.412 52.51-55.387-89.885-.128 94.102H0V0Zm94.895 44.468 16.203 25.438.205.353a57.217 57.217 0 0 1 47.854-25.79c31.247 0 56.655 26.446 57.274 57.582l.01 1.052h-.029v.396a7.535 7.535 0 0 1-15.058.224l-.009-.277-.004-.358c-.125-4.924-2.833-6.922-6.39-8.395l-.526-.213-.537-.206-.547-.202-2.838-1.007-.58-.213-.58-.22-.581-.229-.29-.119-.58-.246-.575-.26c-2.295-1.067-4.49-2.496-6.235-4.77l-.204-.273-.204-.285-.304-.447-.408-.63-1.29-2.064-.47-.728-.37-.553-.258-.371-.403-.558-.28-.372-.292-.372-.15-.185-.309-.368c-3.04-3.553-7.799-6.745-17.003-6.745a28.687 28.687 0 0 0-28.696 28.696 7.475 7.475 0 0 0 .751 3.126l.149.289 34.244 53.89h-37.767l-16.72-25.233-16.428 25.233H96.284l36.044-56.747-36.934-57.843Zm121.586 66.756a14.422 14.422 0 0 1-1.096 7.896c-1.322 3.058-3.186 3.61-4.428 3.582l-.206-.01-.193-.02-.179-.026-.237-.048-.196-.053-.253-.087-.092-.042-.111-.063-.167-.104-.135-.093-.148-.11-.157-.13a4.012 4.012 0 0 1-.08-.071l-.161-.156c-.698-.716-1.323-1.94-.213-3.645.82-1.268 1.957-1.98 3.147-2.618l1.201-.635c1.439-.776 2.827-1.683 3.704-3.567zM134.363 0v40.437l-.088.45H95.394l-.01-.45L95.433 0Z" style="fill:#fff;stroke:none" transform="matrix(.0498 0 0 .0498 443.722 526.675)"/><path fill="#96d8e9" d="M194.368 84.984a21.994 21.994 0 0 0-21.006 14.255 20.947 20.947 0 0 1 24.988-7.886c4.227 1.722 9.784 4.5 14.187 3.013a22.356 22.356 0 0 0-18.169-9.382z" style="fill:#fff;stroke:none" transform="matrix(.0498 0 0 .0498 443.722 526.675)"/><path fill="#48c4e5" d="M238.484 104.121c0-4.765-2.592-5.87-7.974-7.827-3.992-1.39-8.522-2.955-11.819-7.26-.645-.851-1.242-1.81-1.878-2.827a22.718 22.718 0 0 0-5.685-6.85c-3.14-2.308-7.26-3.433-12.601-3.433a26.475 26.475 0 0 0-24.46 16.388 24.822 24.822 0 0 1 42.687 4.138 7.974 7.974 0 0 0 8.913 3.562c5.254-1.125 4.892 3.845 12.827 5.528z" style="fill:#fff;stroke:none" transform="matrix(.0498 0 0 .0498 443.722 526.675)"/></g></g><path fill="url(#logosVitejs0)" d="m-136.103 185.826-6.732 12.038a.366.366 0 0 1-.637.003l-6.865-12.04a.366.366 0 0 1 .382-.54l6.739 1.204a.366.366 0 0 0 .13 0l6.598-1.203a.366.366 0 0 1 .385.539z" style="fill:#fff;stroke-width:.0559773" transform="matrix(.60099 0 0 .60099 -248.744 -209.185)"/><path fill="url(#logosVitejs1)" d="m-140.006 183.706-4.982.976a.183.183 0 0 0-.147.17l-.306 5.175a.183.183 0 0 0 .223.189l1.387-.32c.13-.03.247.084.22.215l-.412 2.017c-.027.136.1.252.233.212l.857-.26c.132-.04.26.076.232.212l-.655 3.17c-.04.197.223.306.333.136l.073-.114 4.06-8.1a.183.183 0 0 0-.199-.262l-1.427.275a.183.183 0 0 1-.21-.23l.931-3.23a.183.183 0 0 0-.21-.23z" style="fill:#fff;stroke:#1e1f28;stroke-width:.529167;stroke-opacity:1" transform="matrix(.60099 0 0 .60099 -248.744 -209.185)"/></g></g></svg>