<?xml version="1.0" encoding="UTF-8" standalone="no"?>
<!-- Created with Inkscape (http://www.inkscape.org/) -->

<svg
   width="150"
   height="150"
   viewBox="0 0 39.6875 39.6875"
   version="1.1"
   id="svg3903"
   inkscape:version="1.1.2 (0a00cf5339, 2022-02-04)"
   sodipodi:docname="skills_env.svg"
   xmlns:inkscape="http://www.inkscape.org/namespaces/inkscape"
   xmlns:sodipodi="http://sodipodi.sourceforge.net/DTD/sodipodi-0.dtd"
   xmlns="http://www.w3.org/2000/svg"
   xmlns:svg="http://www.w3.org/2000/svg">
  <sodipodi:namedview
     id="namedview3905"
     pagecolor="#272727"
     bordercolor="#666666"
     borderopacity="1.0"
     inkscape:pageshadow="2"
     inkscape:pageopacity="0"
     inkscape:pagecheckerboard="false"
     inkscape:document-units="px"
     showgrid="false"
     fit-margin-top="0"
     fit-margin-left="0"
     fit-margin-right="0"
     fit-margin-bottom="0"
     units="px"
     inkscape:showpageshadow="false"
     inkscape:zoom="2.075672"
     inkscape:cx="-79.733214"
     inkscape:cy="48.418054"
     inkscape:window-width="1920"
     inkscape:window-height="1029"
     inkscape:window-x="0"
     inkscape:window-y="27"
     inkscape:window-maximized="1"
     inkscape:current-layer="layer1" />
  <defs
     id="defs3900">
    <filter
       id="logosZod0-5"
       width="1.0519999"
       height="1.0650001"
       x="-0.022"
       y="-0.027999999"
       filterUnits="objectBoundingBox">
      <feOffset
         dx="1"
         dy="1"
         in="SourceAlpha"
         result="shadowOffsetOuter1"
         id="feOffset152625-6" />
      <feGaussianBlur
         in="shadowOffsetOuter1"
         result="shadowBlurOuter1"
         stdDeviation="2"
         id="feGaussianBlur152627-6" />
      <feColorMatrix
         in="shadowBlurOuter1"
         values="0 0 0 0 0 0 0 0 0 0 0 0 0 0 0 0 0 0 0.36 0"
         id="feColorMatrix152629-4" />
    </filter>
  </defs>
  <g
     inkscape:label="Calque 1"
     inkscape:groupmode="layer"
     id="layer1"
     transform="translate(-138.93975,-45.77466)">
    <g
       id="g5966"
       transform="translate(2.6354666,22.393126)">
      <path
         id="path1561"
         style="fill:#1e1f28;fill-opacity:1;stroke-width:0.396875;stroke-linecap:round;stroke-dasharray:0.79375, 2.38125;paint-order:fill markers stroke;stop-color:#000000"
         inkscape:transform-center-x="0.77684967"
         d="m 159.01843,40.699578 v 5.155213 L 155.6209,43.27119 Z"
         sodipodi:nodetypes="cccc" />
      <g
         id="g1391"
         transform="matrix(0.83333338,0,0,0.83333338,427.57074,137.83487)">
        <ellipse
           style="display:inline;fill:none;stroke:#ffffff;stroke-width:0.316207;stroke-linecap:square;stroke-linejoin:round;stroke-miterlimit:4;stroke-dasharray:0.796116, 2.38834;stroke-dashoffset:0;paint-order:fill markers stroke;stop-color:#000000"
           id="ellipse49968"
           cx="-343.99854"
           cy="-25.359928"
           rx="19.772795"
           ry="19.77253"
           transform="rotate(15)" />
        <g
           id="g3491"
           transform="matrix(0.05321421,0,0,0.05321421,-332.43948,-120.22543)"
           style="fill:#ffffff">
          <path
             fill="#0065a9"
             d="M 246.135,26.873 193.593,1.575 A 15.885,15.885 0 0 0 175.47,4.655 L 3.466,161.482 c -4.626,4.219 -4.62,11.502 0.012,15.714 l 14.05,12.772 a 10.625,10.625 0 0 0 13.569,0.604 L 238.229,33.436 c 6.949,-5.271 16.93,-0.315 16.93,8.407 v -0.61 a 15.938,15.938 0 0 0 -9.024,-14.36 z"
             mask="url(#logosVisualStudioCode2)"
             id="path3485"
             style="fill:#ffffff" />
          <path
             fill="#007acc"
             d="m 246.135,226.816 -52.542,25.298 a 15.887,15.887 0 0 1 -18.123,-3.08 L 3.466,92.207 C -1.16,87.989 -1.154,80.705 3.478,76.494 l 14.05,-12.773 a 10.625,10.625 0 0 1 13.569,-0.603 l 207.132,157.135 c 6.949,5.271 16.93,0.315 16.93,-8.408 v 0.611 a 15.939,15.939 0 0 1 -9.024,14.36 z"
             mask="url(#logosVisualStudioCode2)"
             id="path3487"
             style="fill:#ffffff" />
          <path
             fill="#1f9cf0"
             d="m 193.428,252.134 a 15.892,15.892 0 0 1 -18.125,-3.083 c 5.881,5.88 15.938,1.715 15.938,-6.603 V 11.273 c 0,-8.318 -10.057,-12.483 -15.938,-6.602 a 15.892,15.892 0 0 1 18.125,-3.084 l 52.533,25.263 a 15.937,15.937 0 0 1 9.03,14.363 V 212.51 c 0,6.125 -3.51,11.709 -9.03,14.363 l -52.533,25.262 z"
             mask="url(#logosVisualStudioCode2)"
             id="path3489"
             style="fill:#ffffff" />
        </g>
        <g
           id="g51122"
           transform="matrix(0.60374937,0,0,0.60374937,-97.992867,-123.21945)">
          <path
             fill="#dd4814"
             d="m -395.82716,-2.9365932 c 0,4.3835948 -3.55368,7.9374061 -7.93747,7.9374061 -4.3839,0 -7.93753,-3.5538113 -7.93753,-7.9374061 0,-4.3838579 3.55376,-7.9375938 7.93753,-7.9375938 4.38385,0 7.93747,3.5537359 7.93747,7.9375938 z"
             id="path3495"
             style="fill:#ffffff;stroke-width:0.0621659" />
          <path
             fill="#ffffff"
             d="m -409.16189,-3.9965242 c -0.58555,0 -1.05991,0.4743928 -1.05991,1.059931 0,0.5852375 0.47436,1.0596867 1.05991,1.0596867 0.58529,0 1.05967,-0.4744492 1.05967,-1.0596867 0,-0.5855382 -0.47438,-1.059931 -1.05967,-1.059931 z m 7.56647,4.8165219 c -0.50683,0.2927973 -0.68071,0.9405716 -0.38792,1.4471633 0.29249,0.5069113 0.94025,0.6806687 1.44716,0.3879278 0.50683,-0.2924966 0.68064,-0.9402709 0.3879,-1.4472386 -0.29247,-0.50653531 -0.94061,-0.68027385 -1.44714,-0.3878525 z m -5.26454,-3.7565909 c 0,-1.047262 0.5202,-1.972533 1.31609,-2.5327895 l -0.77477,-1.2976539 c -0.92712,0.6198047 -1.61704,1.5668424 -1.90374,2.6760774 0.33457,0.2729103 0.54867,0.6884881 0.54867,1.1543096 0,0.4655584 -0.2141,0.8811362 -0.54867,1.1541217 0.28632,1.10947936 0.97625,2.0566486 1.90374,2.6764345 l 0.77477,-1.29802975 c -0.79589,-0.55993698 -1.31609,-1.48515155 -1.31609,-2.53247005 z m 3.09533,-3.0956964 c 1.61712,0 2.94385,1.2398349 3.08309,2.8211132 l 1.51002,-0.02218 c -0.0743,-1.1673734 -0.58423,-2.2153685 -1.36778,-2.9859797 -0.40294,0.1522539 -0.86844,0.1289459 -1.27066,-0.1030063 -0.40302,-0.2325724 -0.65572,-0.6248986 -0.72478,-1.0507394 a 4.6164063,4.6164773 0 0 0 -1.22994,-0.1672913 4.5870021,4.5870726 0 0 0 -2.04021,0.4763854 l 0.73635,1.3196084 a 3.0831576,3.083205 0 0 1 1.30391,-0.2879477 z m 0,6.19114851 a 3.0834685,3.0835159 0 0 1 -1.30385,-0.28794772 l -0.73636,1.31947681 a 4.5823398,4.5824102 0 0 0 2.04029,0.4768741 4.60273,4.6028008 0 0 0 1.22987,-0.1676672 c 0.069,-0.4258408 0.32183,-0.81779106 0.72472,-1.05073943 0.40258,-0.23230928 0.86777,-0.25518495 1.27066,-0.1030063 0.7836,-0.77062997 1.29355,-1.81862507 1.36789,-2.98597967 l -1.51043,-0.02218 c -0.1389,1.5816918 -1.46561,2.82111321 -3.08279,2.82111321 z m 2.16883,-6.85266321 c 0.50691,0.2926845 1.15473,0.1193594 1.44715,-0.3875519 0.29281,-0.5068924 0.11935,-1.1547419 -0.38753,-1.4475392 -0.50691,-0.2924402 -1.15467,-0.1187956 -1.44752,0.3881721 -0.29238,0.5066481 -0.1186,1.1544224 0.3879,1.446919 z"
             id="path3497"
             style="fill:#1e1f28;fill-opacity:1;stroke:none;stroke-width:0.0621659" />
        </g>
        <g
           id="g50366"
           transform="matrix(0.60374937,0,0,0.60374937,-117.05636,-114.8566)">
          <circle
             style="fill:#1e1f28;fill-opacity:1;stroke:none;stroke-width:0.811079;stroke-miterlimit:4;stroke-dasharray:0.811079, 1.62216;stroke-dashoffset:0;paint-order:fill markers stroke;stop-color:#000000"
             id="ellipse3501"
             cx="-346.33203"
             cy="-29.24049"
             r="7.9375" />
          <path
             fill="#161614"
             d="m -346.33167,-37.17799 c -4.3834,0 -7.93786,3.643648 -7.93786,8.138466 0,3.595789 2.27443,6.646495 5.42839,7.722601 0.39671,0.07527 0.54238,-0.176673 0.54238,-0.391538 0,-0.194051 -0.007,-0.835146 -0.0106,-1.515132 -2.20833,0.49223 -2.67431,-0.960272 -2.67431,-0.960272 -0.36109,-0.940702 -0.8814,-1.19088 -0.8814,-1.19088 -0.72016,-0.505091 0.0544,-0.494673 0.0544,-0.494673 0.79706,0.05727 1.21677,0.838636 1.21677,0.838636 0.70803,1.244171 1.85702,0.884477 2.30998,0.676517 0.0713,-0.52596 0.27694,-0.885066 0.50397,-1.08827 -1.76311,-0.205756 -3.61653,-0.903621 -3.61653,-4.022018 0,-0.888556 0.31007,-1.614578 0.81784,-2.184546 -0.0824,-0.204971 -0.3541,-1.032676 0.0769,-2.153727 0,0 0.66658,-0.218738 2.18351,0.83424 0.63317,-0.180229 1.31221,-0.270731 1.98681,-0.27384 0.67458,0.0044 1.35419,0.09349 1.98854,0.27384 1.51506,-1.052913 2.18071,-0.834186 2.18071,-0.834186 0.43204,1.120931 0.16023,1.948757 0.0778,2.153673 0.50896,0.569968 0.81691,1.29599 0.81691,2.184546 0,3.125837 -1.85693,3.814113 -3.62452,4.015593 0.28471,0.252546 0.53841,0.747851 0.53841,1.507146 0,1.088891 -0.01,1.965294 -0.01,2.233353 0,0.216621 0.14283,0.470367 0.54522,0.390381 3.15224,-1.077251 5.42379,-4.1268 5.42379,-7.721368 0,-4.494894 -3.55394,-8.138542 -7.93773,-8.138542 z m -4.96483,11.59343 c -0.0183,0.04036 -0.0795,0.05247 -0.13607,0.02476 -0.0578,-0.0264 -0.0899,-0.0816 -0.0713,-0.122248 0.0166,-0.04167 0.0794,-0.05335 0.13679,-0.02542 0.0578,0.0264 0.0906,0.08215 0.0707,0.122782 z m 0.39043,0.357186 c -0.0379,0.03611 -0.11194,0.01942 -0.16207,-0.03753 -0.0518,-0.05662 -0.0616,-0.132545 -0.0232,-0.169167 0.0389,-0.03611 0.11077,-0.01909 0.1628,0.03753 0.052,0.05749 0.062,0.132666 0.0226,0.169146 z m 0.2679,0.457014 c -0.0487,0.03469 -0.12822,0.0011 -0.17743,-0.07015 -0.0487,-0.07233 -0.0487,-0.159208 0.001,-0.193909 0.0493,-0.0348 0.12757,-0.0044 0.17743,0.06829 0.0485,0.07364 0.0485,0.160331 -10e-4,0.19584 z m 0.45294,0.52932 c -0.0434,0.0492 -0.13622,0.03611 -0.20401,-0.03109 -0.0695,-0.06545 -0.0886,-0.158629 -0.0451,-0.207927 0.0439,-0.04942 0.13734,-0.03556 0.20558,0.03109 0.0688,0.06545 0.0899,0.159207 0.0434,0.207894 z m 0.58556,0.178724 c -0.0193,0.06393 -0.10856,0.09273 -0.19839,0.06578 -0.0897,-0.02793 -0.1485,-0.102437 -0.13038,-0.166899 0.0186,-0.06414 0.10842,-0.09447 0.19889,-0.06534 0.0897,0.02782 0.14851,0.101891 0.13006,0.166713 z m 0.66626,0.07593 c 10e-4,0.06709 -0.074,0.122793 -0.16827,0.123851 -0.0949,0.0011 -0.17177,-0.05225 -0.17269,-0.118244 0,-0.06774 0.0746,-0.122782 0.16957,-0.124516 0.0944,-0.0011 0.17157,0.05193 0.17157,0.118909 z m 0.65456,-0.02564 c 0.0106,0.06545 -0.0543,0.132818 -0.14796,0.150752 -0.0921,0.01702 -0.17744,-0.02324 -0.18913,-0.08804 -0.0106,-0.0672 0.0552,-0.134422 0.14739,-0.151702 0.094,-0.0168 0.17781,0.02269 0.18982,0.08924 z"
             id="path3503"
             style="fill:#ffffff;stroke-width:0.0627928" />
        </g>
        <g
           id="g3511"
           transform="matrix(0.60374937,0,0,0.60374937,-537.29913,-377.63459)">
          <g
             id="g51565"
             transform="translate(-55.148062,-127.81599)">
            <path
               sodipodi:type="star"
               style="fill:#1e1f28;fill-opacity:1;stroke:none;stroke-width:3;stroke-miterlimit:4;stroke-dasharray:3, 6;stroke-dashoffset:0;paint-order:fill markers stroke;stop-color:#000000"
               id="path3507"
               inkscape:flatsided="true"
               sodipodi:sides="6"
               sodipodi:cx="1357.6234"
               sodipodi:cy="2141.8281"
               sodipodi:r1="25.918867"
               sodipodi:r2="22.446398"
               sodipodi:arg1="0.52359878"
               sodipodi:arg2="1.0471976"
               inkscape:rounded="0"
               inkscape:randomized="0"
               transform="matrix(0.28767005,0,0,0.28072375,-17.920265,-27.010708)"
               inkscape:transform-center-x="-2.3748711e-06"
               inkscape:transform-center-y="1.5125428e-06"
               d="m 1380.0698,2154.7876 -22.4464,12.9594 -22.4464,-12.9594 0,-25.9189 22.4464,-12.9594 22.4464,12.9594 z" />
            <path
               fill="#539e43"
               d="m 372.62742,581.52683 c -0.20054,0 -0.38769,-0.0536 -0.56148,-0.14706 l -1.77809,-1.05614 c -0.26736,-0.14705 -0.13362,-0.20054 -0.0536,-0.22726 0.36095,-0.12037 0.42779,-0.14705 0.80212,-0.36101 0.0401,-0.0267 0.0937,-0.0138 0.13361,0.0138 l 1.36367,0.81553 c 0.0536,0.0267 0.12037,0.0267 0.16049,0 l 5.33422,-3.08819 c 0.0534,-0.0267 0.0802,-0.0802 0.0802,-0.14705 v -6.16311 c 0,-0.0668 -0.0267,-0.12036 -0.0802,-0.14706 l -5.33422,-3.07486 c -0.0535,-0.0267 -0.12037,-0.0267 -0.16049,0 l -5.33421,3.07492 c -0.0535,0.0267 -0.0802,0.0935 -0.0802,0.14705 v 6.16306 c 0,0.0536 0.0267,0.12036 0.0802,0.14705 l 1.45726,0.84221 c 0.78877,0.40106 1.28336,-0.0668 1.28336,-0.53474 v -6.0829 c 0,-0.0802 0.0668,-0.16048 0.16048,-0.16048 h 0.68183 c 0.0802,0 0.16049,0.0668 0.16049,0.16048 v 6.08286 c 0,1.05616 -0.57488,1.67109 -1.57757,1.67109 -0.30747,0 -0.54809,0 -1.22987,-0.33421 l -1.4038,-0.8021 c -0.34757,-0.20057 -0.56145,-0.57489 -0.56145,-0.97594 v -6.16302 c 0,-0.40103 0.21388,-0.77535 0.56145,-0.97594 l 5.33424,-3.08817 c 0.33421,-0.18716 0.78873,-0.18716 1.12294,0 l 5.33422,3.08817 c 0.34757,0.20054 0.56147,0.57485 0.56147,0.97594 v 6.16308 c 0,0.40103 -0.2139,0.77536 -0.56147,0.97588 l -5.33422,3.08829 c -0.1738,0.0802 -0.37431,0.12036 -0.56147,0.12036 z m 1.64434,-4.23798 c -2.33956,0 -2.82081,-1.06946 -2.82081,-1.97855 0,-0.0802 0.0668,-0.16049 0.16049,-0.16049 h 0.69514 c 0.0802,0 0.14706,0.0536 0.14706,0.13362 0.10693,0.70853 0.41442,1.05615 1.83152,1.05615 1.12299,0 1.60429,-0.254 1.60429,-0.85558 0,-0.34763 -0.13362,-0.60163 -1.88504,-0.77546 -1.45718,-0.14705 -2.36629,-0.46788 -2.36629,-1.63093 0,-1.08294 0.90905,-1.72463 2.43313,-1.72463 1.71122,0 2.55347,0.58822 2.66042,1.87163 0,0.0401 -0.0138,0.0802 -0.0401,0.12036 -0.0267,0.0267 -0.0668,0.0534 -0.10693,0.0534 h -0.69517 c -0.0668,0 -0.13362,-0.0534 -0.14705,-0.12037 -0.16049,-0.73526 -0.57483,-0.97589 -1.67109,-0.97589 -1.2299,0 -1.37699,0.42779 -1.37699,0.74863 0,0.38773 0.17379,0.50799 1.83151,0.72189 1.64442,0.2139 2.41977,0.52142 2.41977,1.67114 -0.0138,1.17648 -0.97589,1.84488 -2.67377,1.84488 z"
               id="path3509"
               style="fill:#ffffff;stroke-width:0.0504465" />
          </g>
        </g>
        <g
           id="g3521"
           transform="matrix(0.60374937,0,0,0.60374937,-437.51705,-379.97005)">
          <g
             id="g52017"
             transform="translate(-183.67445,-138.17467)">
            <circle
               style="fill:#1e1f28;fill-opacity:1;stroke:none;stroke-width:0.432955;stroke-miterlimit:4;stroke-dasharray:0.432955, 0.865912;stroke-dashoffset:0;paint-order:fill markers stroke;stop-color:#000000"
               id="circle3513"
               cx="382.47653"
               cy="610.9165"
               r="7.9375" />
            <g
               id="g3519"
               transform="matrix(0.03986119,0,0,0.03986119,377.3743,603.64046)"
               style="fill:#ffffff">
              <path
                 d="m 182.022,9.147 c 2.982,3.702 4.502,8.697 7.543,18.687 L 256,246.074 A 276.467,276.467 0 0 0 176.574,219.183 L 133.318,73.008 a 5.63,5.63 0 0 0 -10.802,0.017 L 79.784,219.11 A 276.453,276.453 0 0 0 0,246.04 L 66.76,27.783 C 69.811,17.811 71.337,12.824 74.319,9.129 A 24.541,24.541 0 0 1 84.265,1.771 C 88.67,0 93.885,0 104.314,0 h 47.683 c 10.443,0 15.664,0 20.074,1.774 a 24.545,24.545 0 0 1 9.95,7.373 z"
                 id="path3515"
                 style="fill:#ffffff" />
              <path
                 fill="#ff5d01"
                 d="m 189.972,256.46 c -10.952,9.364 -32.812,15.751 -57.992,15.751 -30.904,0 -56.807,-9.621 -63.68,-22.56 -2.458,7.415 -3.009,15.903 -3.009,21.324 0,0 -1.619,26.623 16.898,45.14 0,-9.615 7.795,-17.41 17.41,-17.41 16.48,0 16.46,14.378 16.446,26.043 l -0.001,1.041 c 0,17.705 10.82,32.883 26.21,39.28 a 35.685,35.685 0 0 1 -3.588,-15.647 c 0,-16.886 9.913,-23.173 21.435,-30.48 9.167,-5.814 19.353,-12.274 26.372,-25.232 a 47.588,47.588 0 0 0 5.742,-22.735 c 0,-5.06 -0.786,-9.938 -2.243,-14.516 z"
                 id="path3517"
                 style="fill:#ffffff" />
            </g>
          </g>
        </g>
        <g
           id="g3527"
           transform="matrix(0.51116029,0,0,0.51116029,-471.88952,-379.16585)">
          <g
             id="g51383"
             transform="translate(-130.77521,-79.002413)">
            <circle
               style="display:inline;fill:#1e1f28;fill-opacity:1;stroke:none;stroke-width:0.511378;stroke-miterlimit:4;stroke-dasharray:0.511378, 1.02276;stroke-dashoffset:0;paint-order:fill markers stroke;stop-color:#000000"
               id="circle3523"
               cx="446.42343"
               cy="576.25031"
               r="9.3752604" />
            <path
               fill="#000020"
               d="m 446.04307,573.2673 c 0.11911,-0.17542 0.24926,-0.19771 0.35493,-0.19771 0.10578,0 0.28177,0.0223 0.4008,0.19771 0.93805,1.28847 2.48646,3.85508 3.62864,5.74838 0.74488,1.23466 1.31696,2.18298 1.43433,2.30366 0.44059,0.45305 1.0449,0.17069 1.39602,-0.34317 0.34568,-0.50592 0.44168,-0.86118 0.44168,-1.24016 0,-0.25807 -5.00828,-9.57251 -5.51264,-10.3478 -0.485,-0.74567 -0.64302,-0.93406 -1.47317,-0.93406 h -0.62131 c -0.82765,0 -0.9473,0.18839 -1.43236,0.93406 -0.5043,0.77535 -5.5126,10.08967 -5.5126,10.34785 0,0.37893 0.096,0.73419 0.44168,1.24011 0.35112,0.51386 0.95543,0.79622 1.39602,0.34317 0.11741,-0.12066 0.68953,-1.069 1.43435,-2.30366 1.14216,-1.8933 2.68558,-4.45997 3.62363,-5.74838 z"
               id="path3525"
               style="fill:#ffffff;stroke-width:0.0568438" />
          </g>
        </g>
        <g
           id="g52168"
           transform="matrix(0.60374937,0,0,0.60374937,-578.32061,-428.47047)">
          <circle
             style="fill:#1e1f28;fill-opacity:1;stroke:none;stroke-width:0.216137;stroke-miterlimit:4;stroke-dasharray:none;stroke-dashoffset:0;paint-order:fill markers stroke;stop-color:#000000"
             id="circle3529"
             cx="449.91122"
             cy="530.63562"
             r="7.9375" />
          <g
             id="g3537"
             transform="matrix(0.04979719,0,0,0.04979719,443.72247,526.6753)"
             style="fill:#ffffff;stroke:none">
            <path
               fill="#012f55"
               d="m 39.37,0 55.965,94.22 0.049,-42.649 32.473,50.76 -33.412,52.51 L 39.058,64.956 38.93,159.058 H 0 V 0 Z m 94.895,44.468 16.203,25.438 0.205,0.353 a 57.217,57.217 0 0 1 47.854,-25.79 c 31.247,0 56.655,26.446 57.274,57.582 l 0.01,1.052 h -0.029 v 0.396 a 7.535,7.535 0 0 1 -15.058,0.224 l -0.009,-0.277 -0.004,-0.358 c -0.125,-4.924 -2.833,-6.922 -6.39,-8.395 l -0.526,-0.213 -0.537,-0.206 -0.547,-0.202 -2.838,-1.007 -0.58,-0.213 -0.58,-0.22 -0.581,-0.229 -0.29,-0.119 -0.58,-0.246 -0.575,-0.26 c -2.295,-1.067 -4.49,-2.496 -6.235,-4.77 l -0.204,-0.273 -0.204,-0.285 -0.304,-0.447 -0.408,-0.63 -1.29,-2.064 -0.47,-0.728 -0.37,-0.553 -0.258,-0.371 -0.403,-0.558 -0.28,-0.372 -0.292,-0.372 -0.15,-0.185 -0.309,-0.368 c -3.04,-3.553 -7.799,-6.745 -17.003,-6.745 a 28.687,28.687 0 0 0 -28.696,28.696 7.475,7.475 0 0 0 0.751,3.126 l 0.149,0.289 34.244,53.89 h -37.767 l -16.72,-25.233 -16.428,25.233 H 96.284 L 132.328,102.311 95.394,44.468 Z m 121.586,66.756 a 14.422,14.422 0 0 1 -1.096,7.896 c -1.322,3.058 -3.186,3.61 -4.428,3.582 l -0.206,-0.01 -0.193,-0.02 -0.179,-0.026 -0.237,-0.048 -0.196,-0.053 -0.253,-0.087 -0.092,-0.042 -0.111,-0.063 -0.167,-0.104 -0.135,-0.093 -0.148,-0.11 -0.157,-0.13 a 4.012,4.012 0 0 1 -0.08,-0.071 l -0.161,-0.156 c -0.698,-0.716 -1.323,-1.94 -0.213,-3.645 0.82,-1.268 1.957,-1.98 3.147,-2.618 l 1.201,-0.635 c 1.439,-0.776 2.827,-1.683 3.704,-3.567 z M 134.363,0 v 40.437 l -0.088,0.45 H 95.394 L 95.384,40.437 95.433,0 Z"
               id="path3531"
               style="fill:#ffffff;stroke:none" />
            <path
               fill="#96d8e9"
               d="m 194.368,84.984 a 21.994,21.994 0 0 0 -21.006,14.255 20.947,20.947 0 0 1 24.988,-7.886 c 4.227,1.722 9.784,4.5 14.187,3.013 a 22.356,22.356 0 0 0 -18.169,-9.382 z"
               id="path3533"
               style="fill:#ffffff;stroke:none" />
            <path
               fill="#48c4e5"
               d="m 238.484,104.121 c 0,-4.765 -2.592,-5.87 -7.974,-7.827 -3.992,-1.39 -8.522,-2.955 -11.819,-7.26 -0.645,-0.851 -1.242,-1.81 -1.878,-2.827 a 22.718,22.718 0 0 0 -5.685,-6.85 c -3.14,-2.308 -7.26,-3.433 -12.601,-3.433 a 26.475,26.475 0 0 0 -24.46,16.388 24.822,24.822 0 0 1 42.687,4.138 7.974,7.974 0 0 0 8.913,3.562 c 5.254,-1.125 4.892,3.845 12.827,5.528 z"
               id="path3535"
               style="fill:#ffffff;stroke:none" />
          </g>
        </g>
        <g
           id="g51852"
           transform="matrix(0.60098504,0,0,0.60098504,-248.74418,-209.18529)">
          <path
             fill="url(#logosVitejs0)"
             d="m -136.10321,185.82648 -6.73161,12.03727 c -0.13899,0.24853 -0.49607,0.24999 -0.63714,0.003 l -6.86506,-12.03882 c -0.15378,-0.26949 0.0768,-0.59595 0.38216,-0.5413 l 6.73883,1.20446 a 0.36592415,0.36592415 0 0 0 0.12999,-2.2e-4 l 6.59789,-1.20258 c 0.3044,-0.0554 0.53593,0.26849 0.38496,0.53852 z"
             id="path3545"
             style="fill:#ffffff;stroke-width:0.0559773" />
          <path
             fill="url(#logosVitejs1)"
             d="m -140.00602,183.70635 -4.98153,0.97613 a 0.18293408,0.18293408 0 0 0 -0.14749,0.16872 l -0.30643,5.17544 a 0.18293408,0.18293408 0 0 0 0.22375,0.1891 l 1.38695,-0.32008 c 0.12982,-0.0299 0.24703,0.0844 0.22033,0.21484 l -0.41206,2.01781 c -0.0277,0.13577 0.0997,0.2519 0.23236,0.2116 l 0.85668,-0.26023 c 0.1327,-0.0403 0.26041,0.0761 0.23231,0.21204 l -0.65482,3.16949 c -0.0409,0.19827 0.22274,0.30637 0.33268,0.13644 l 0.0736,-0.1135 4.05927,-8.10105 c 0.068,-0.13559 -0.0493,-0.2903 -0.19818,-0.26154 l -1.4277,0.27552 c -0.13406,0.0258 -0.24826,-0.0991 -0.21042,-0.23028 l 0.9318,-3.23017 c 0.0379,-0.13151 -0.0766,-0.25655 -0.21097,-0.23023 z"
             id="path3547"
             style="fill:#ffffff;stroke:#1e1f28;stroke-width:0.529167;stroke-opacity:1" />
        </g>
      </g>
    </g>
  </g>
</svg>
