<?xml version="1.0" encoding="UTF-8" standalone="no"?>
<!-- Created with Inkscape (http://www.inkscape.org/) -->

<svg
   width="150"
   height="150"
   viewBox="0 0 39.6875 39.6875"
   version="1.1"
   id="svg3903"
   inkscape:version="1.1.2 (0a00cf5339, 2022-02-04)"
   sodipodi:docname="skills_front.svg"
   xmlns:inkscape="http://www.inkscape.org/namespaces/inkscape"
   xmlns:sodipodi="http://sodipodi.sourceforge.net/DTD/sodipodi-0.dtd"
   xmlns="http://www.w3.org/2000/svg"
   xmlns:svg="http://www.w3.org/2000/svg">
  <sodipodi:namedview
     id="namedview3905"
     pagecolor="#272727"
     bordercolor="#666666"
     borderopacity="1.0"
     inkscape:pageshadow="2"
     inkscape:pageopacity="0"
     inkscape:pagecheckerboard="false"
     inkscape:document-units="px"
     showgrid="false"
     fit-margin-top="0"
     fit-margin-left="0"
     fit-margin-right="0"
     fit-margin-bottom="0"
     units="px"
     inkscape:showpageshadow="false"
     inkscape:zoom="2.075672"
     inkscape:cx="89.368647"
     inkscape:cy="48.418054"
     inkscape:window-width="1920"
     inkscape:window-height="1029"
     inkscape:window-x="0"
     inkscape:window-y="27"
     inkscape:window-maximized="1"
     inkscape:current-layer="layer1" />
  <defs
     id="defs3900">
    <filter
       id="logosZod0-5"
       width="1.0519999"
       height="1.0650001"
       x="-0.022"
       y="-0.027999999"
       filterUnits="objectBoundingBox">
      <feOffset
         dx="1"
         dy="1"
         in="SourceAlpha"
         result="shadowOffsetOuter1"
         id="feOffset152625-6" />
      <feGaussianBlur
         in="shadowOffsetOuter1"
         result="shadowBlurOuter1"
         stdDeviation="2"
         id="feGaussianBlur152627-6" />
      <feColorMatrix
         in="shadowBlurOuter1"
         values="0 0 0 0 0 0 0 0 0 0 0 0 0 0 0 0 0 0 0.36 0"
         id="feColorMatrix152629-4" />
    </filter>
  </defs>
  <g
     inkscape:label="Calque 1"
     inkscape:groupmode="layer"
     id="layer1"
     transform="translate(-138.93975,-45.77466)">
    <g
       id="g4793"
       transform="translate(0,0.18779322)">
      <ellipse
         style="display:inline;fill:none;stroke:#ffffff;stroke-width:0.264304;stroke-linecap:square;stroke-linejoin:round;stroke-miterlimit:4;stroke-dasharray:0.673443, 2.02033;stroke-dashoffset:0;paint-order:fill markers stroke;stop-color:#000000"
         id="ellipse52672"
         cx="169.58553"
         cy="21.372061"
         rx="16.726061"
         ry="16.725838"
         transform="rotate(15)" />
      <g
         id="g3351"
         transform="translate(515.6702,128.44577)">
        <path
           id="rect3127"
           style="fill:#1e1f28;fill-opacity:1;stroke-width:0.396875;stroke-linecap:round;stroke-dasharray:0.79375, 2.38125;paint-order:fill markers stroke;stop-color:#000000"
           d="m -354.75927,-69.643067 c -0.027,-2.59e-4 -0.0541,2.3e-4 -0.0816,0.0016 -0.0275,0.0012 -0.0556,0.0035 -0.0837,0.0062 -0.0282,0.0027 -0.0566,0.0058 -0.0853,0.0098 -0.0287,0.004 -0.0576,0.009 -0.0868,0.01447 -0.0293,0.0055 -0.0586,0.01126 -0.0884,0.01809 -0.0297,0.0068 -0.0601,0.01456 -0.0904,0.02274 -0.0303,0.0082 -0.0608,0.01682 -0.0915,0.02635 -0.0307,0.0095 -0.0613,0.01964 -0.0925,0.03049 -0.0312,0.01086 -0.0624,0.02245 -0.094,0.03462 -0.0316,0.01217 -0.0636,0.02529 -0.0956,0.03876 -0.0319,0.01348 -0.0638,0.02761 -0.0961,0.04238 -0.0324,0.01476 -0.065,0.02996 -0.0977,0.04599 -0.0654,0.03208 -0.13142,0.06677 -0.19792,0.103868 -0.0666,0.0371 -0.13352,0.07685 -0.20102,0.118856 -0.0675,0.042 -0.13582,0.08601 -0.20412,0.13281 -0.0684,0.0468 -0.13719,0.09631 -0.20619,0.147794 -0.0689,0.05148 -0.13792,0.105182 -0.20722,0.161229 -0.0693,0.05605 -0.13876,0.114162 -0.20826,0.174667 -0.10961,0.09563 -0.21678,0.194024 -0.32142,0.295074 -0.0701,-0.06712 -0.14145,-0.132932 -0.21395,-0.197406 -0.0729,-0.06469 -0.14579,-0.127113 -0.21859,-0.187068 -0.0728,-0.05996 -0.14557,-0.117499 -0.21807,-0.172598 -0.0725,-0.0551 -0.14463,-0.108008 -0.21653,-0.158131 -0.0719,-0.05012 -0.14335,-0.0976 -0.21445,-0.142626 -0.0711,-0.04503 -0.14178,-0.08731 -0.21188,-0.127125 -0.035,-0.01991 -0.0701,-0.0393 -0.1049,-0.05788 -0.0348,-0.01858 -0.069,-0.03649 -0.10335,-0.05375 -0.0344,-0.01724 -0.0687,-0.03374 -0.10284,-0.04961 -0.0341,-0.01589 -0.0681,-0.03095 -0.1018,-0.04547 -0.0337,-0.01452 -0.0675,-0.02874 -0.10077,-0.04186 -0.0333,-0.01313 -0.0664,-0.02549 -0.0992,-0.03721 -0.0329,-0.01172 -0.0653,-0.02275 -0.0977,-0.03307 -0.0324,-0.01032 -0.0642,-0.01953 -0.0961,-0.02842 -0.0319,-0.0089 -0.0637,-0.01738 -0.0951,-0.02481 -0.0313,-0.0074 -0.0622,-0.01417 -0.093,-0.02015 -0.0308,-0.006 -0.0618,-0.011 -0.092,-0.01551 -0.0302,-0.0045 -0.0598,-0.0083 -0.0894,-0.01137 -0.0297,-0.003 -0.0589,-0.0051 -0.0879,-0.0067 -0.029,-0.0016 -0.058,-0.0026 -0.0863,-0.0026 -0.0283,0 -0.0561,9.92e-4 -0.0837,0.0026 -0.0276,0.0015 -0.0548,0.0036 -0.0817,0.0067 -0.0269,0.0031 -0.0535,0.0072 -0.0796,0.01188 -0.0261,0.0047 -0.0517,0.0098 -0.077,0.01602 -0.0253,0.0062 -0.0504,0.01336 -0.0749,0.02119 -0.0245,0.0078 -0.0486,0.01639 -0.0723,0.02584 -0.0237,0.0094 -0.047,0.01994 -0.0698,0.03101 -0.0228,0.01105 -0.0453,0.02295 -0.0672,0.03566 -0.021,0.01217 -0.0419,0.02511 -0.062,0.03876 -0.0201,0.01365 -0.0397,0.02778 -0.0589,0.04289 -0.0192,0.01511 -0.0375,0.03101 -0.0558,0.04754 -0.0182,0.01653 -0.0359,0.03374 -0.0532,0.05168 -0.0174,0.01793 -0.0342,0.03652 -0.0506,0.05581 -0.0164,0.0193 -0.0326,0.03931 -0.0481,0.05994 -0.0154,0.02064 -0.0305,0.04215 -0.045,0.06408 -0.0146,0.02194 -0.0288,0.04446 -0.0424,0.0677 -0.0136,0.02323 -0.0266,0.04684 -0.0393,0.07131 -0.0127,0.02448 -0.025,0.04976 -0.0367,0.07545 -0.0118,0.0257 -0.0228,0.05218 -0.0336,0.07906 -0.0108,0.02689 -0.021,0.05411 -0.031,0.08216 -0.01,0.02806 -0.0194,0.05659 -0.0284,0.08578 -0.009,0.02919 -0.0173,0.0591 -0.0253,0.0894 -0.008,0.0303 -0.0157,0.06113 -0.0227,0.0925 -0.007,0.03137 -0.0142,0.06318 -0.0202,0.0956 -0.006,0.03242 -0.012,0.06527 -0.017,0.0987 -0.005,0.03344 -0.01,0.06737 -0.014,0.101801 -0.004,0.03443 -0.009,0.06952 -0.0119,0.104904 -0.003,0.03539 -0.006,0.07117 -0.008,0.107487 -0.005,0.07264 -0.008,0.147056 -0.009,0.223243 -0.001,0.07618 -4.2e-4,0.154072 0.003,0.233576 0.003,0.0795 0.007,0.160806 0.0134,0.243396 0.006,0.08259 0.0146,0.166743 0.0248,0.252182 0.0102,0.08544 0.0223,0.171868 0.0362,0.259932 0.014,0.08806 0.0304,0.17775 0.0481,0.2682 0.0282,0.14324 0.0601,0.285745 0.0956,0.427366 -0.0827,0.02351 -0.1637,0.04783 -0.2434,0.07286 -0.0797,0.02504 -0.15769,0.05092 -0.23409,0.07751 -0.0854,0.02978 -0.16913,0.06067 -0.25063,0.0925 -0.0815,0.03184 -0.16093,0.06442 -0.23823,0.09819 -0.0773,0.03377 -0.15283,0.0688 -0.22583,0.104386 -0.073,0.03558 -0.14337,0.07175 -0.21187,0.109037 -0.0685,0.03728 -0.13515,0.07534 -0.19895,0.114205 -0.0638,0.03886 -0.12507,0.07854 -0.18397,0.118856 -0.0295,0.02016 -0.0586,0.04047 -0.0868,0.06098 -0.0282,0.0205 -0.0558,0.04119 -0.0827,0.06201 -0.027,0.02083 -0.0535,0.0419 -0.0791,0.06304 -0.0256,0.02115 -0.0506,0.04262 -0.0749,0.06408 -0.0243,0.02144 -0.0478,0.04287 -0.0708,0.0646 -0.023,0.02173 -0.0456,0.04364 -0.0672,0.06563 -0.0216,0.022 -0.0418,0.04441 -0.062,0.06666 -0.0202,0.02225 -0.0401,0.04417 -0.0589,0.06666 -0.0188,0.02249 -0.0374,0.04551 -0.0548,0.06821 -0.0173,0.02271 -0.0337,0.0453 -0.0496,0.06821 -0.0159,0.02292 -0.0311,0.04612 -0.0455,0.06925 -0.0144,0.02312 -0.0279,0.04645 -0.0408,0.06976 -0.0129,0.0233 -0.0253,0.04629 -0.0367,0.06976 -0.0113,0.02346 -0.0215,0.04717 -0.0315,0.0708 -0.01,0.02361 -0.0194,0.04704 -0.0274,0.0708 -0.008,0.02375 -0.0147,0.04796 -0.0217,0.07183 -0.007,0.02387 -0.0131,0.04786 -0.0181,0.07183 -0.005,0.02398 -0.009,0.04775 -0.0124,0.07183 -0.004,0.02407 -0.006,0.04819 -0.008,0.07235 -0.002,0.02414 -0.003,0.04814 -0.003,0.07235 0,0.025 10e-4,0.04993 0.003,0.07493 0.002,0.02499 0.004,0.05047 0.008,0.07545 0.003,0.02497 0.008,0.04949 0.0134,0.07441 0.005,0.02493 0.0116,0.05006 0.0186,0.07493 0.007,0.02486 0.0148,0.04962 0.0238,0.07441 0.009,0.02478 0.0184,0.04973 0.0289,0.07441 0.0105,0.02468 0.022,0.04935 0.0341,0.0739 0.0122,0.02456 0.025,0.04896 0.0388,0.07338 0.0138,0.02442 0.028,0.0486 0.0434,0.07286 0.0154,0.02426 0.0317,0.04827 0.0486,0.07235 0.0169,0.02408 0.0347,0.04845 0.0532,0.07234 0.0185,0.02388 0.0379,0.04766 0.0579,0.07132 0.02,0.02366 0.0405,0.04686 0.062,0.07028 0.0215,0.02342 0.0438,0.04661 0.0667,0.06976 0.0229,0.02316 0.0469,0.04636 0.0713,0.06925 0.0243,0.02289 0.0491,0.04562 0.0749,0.06821 0.0258,0.02259 0.052,0.0449 0.0791,0.06718 0.0271,0.02227 0.0552,0.04473 0.0837,0.06666 0.0284,0.02194 0.0575,0.04352 0.0873,0.06511 0.0299,0.02158 0.0604,0.04286 0.0915,0.06408 0.0311,0.02121 0.0627,0.04222 0.0951,0.06305 0.0324,0.02081 0.0651,0.04161 0.0987,0.06201 0.0672,0.04081 0.13729,0.08085 0.20929,0.11989 0.072,0.03904 0.14613,0.07709 0.22273,0.114205 0.0766,0.03712 0.15526,0.07297 0.23616,0.108003 0.0809,0.03504 0.16398,0.069 0.24908,0.101804 0.0851,0.0328 0.17248,0.06467 0.26148,0.09508 0.11535,0.03923 0.23166,0.07559 0.34882,0.109037 -0.0381,0.152678 -0.0718,0.30639 -0.10129,0.460955 -0.0169,0.08888 -0.0319,0.176551 -0.045,0.263033 -0.0131,0.08648 -0.0246,0.171931 -0.0336,0.255796 -0.009,0.08387 -0.0167,0.165986 -0.0227,0.247015 -0.005,0.08103 -0.009,0.160771 -0.0114,0.238744 -0.002,0.07797 -0.002,0.154234 0,0.228928 0.002,0.0747 0.006,0.147905 0.0109,0.219107 0.002,0.0356 0.005,0.07073 0.009,0.105421 0.003,0.03468 0.007,0.06909 0.0124,0.102835 0.005,0.03374 0.01,0.06696 0.0155,0.09973 0.005,0.03277 0.0116,0.06486 0.0176,0.09664 0.006,0.03178 0.0137,0.0633 0.0207,0.09405 0.007,0.03075 0.0152,0.06073 0.0232,0.09043 0.008,0.0297 0.0174,0.05871 0.0264,0.08733 0.009,0.02862 0.0188,0.05672 0.0289,0.08423 0.0101,0.02751 0.0205,0.05475 0.0315,0.08113 0.011,0.02638 0.0227,0.05178 0.0346,0.077 0.0119,0.02522 0.0244,0.04987 0.0372,0.0739 0.0128,0.02403 0.0261,0.04747 0.0398,0.07028 0.0138,0.02281 0.0278,0.0451 0.0424,0.06666 0.0147,0.02157 0.0299,0.04275 0.0455,0.06304 0.0156,0.0203 0.0316,0.03992 0.0481,0.05891 0.0164,0.019 0.0332,0.0371 0.0506,0.05478 0.0173,0.01767 0.0349,0.03484 0.0532,0.05116 0.0182,0.01632 0.0371,0.03208 0.0563,0.04703 0.0192,0.01494 0.0388,0.02885 0.0589,0.04237 0.0201,0.01354 0.0405,0.02667 0.0615,0.03876 0.0217,0.01249 0.0435,0.02421 0.0661,0.03514 0.0225,0.01091 0.0458,0.02115 0.0692,0.03049 0.0234,0.0094 0.047,0.01751 0.0713,0.02532 0.0243,0.0078 0.0493,0.01492 0.0744,0.02119 0.0251,0.0063 0.0506,0.01178 0.0765,0.01654 0.0259,0.0048 0.0519,0.0086 0.0786,0.01189 0.0266,0.0033 0.0538,0.0059 0.0811,0.0078 0.0274,0.0018 0.0547,0.0028 0.0827,0.0031 0.0281,2.59e-4 0.0566,-4.89e-4 0.0853,-0.0015 0.0287,-0.0012 0.0575,-0.003 0.0868,-0.0057 0.0293,-0.0026 0.059,-0.0057 0.0889,-0.0098 0.0299,-0.0041 0.0605,-0.009 0.091,-0.01447 0.0305,-0.0055 0.061,-0.01172 0.092,-0.0186 0.0311,-0.0069 0.0625,-0.01446 0.094,-0.02274 0.0315,-0.0083 0.0631,-0.01721 0.0951,-0.02687 0.032,-0.0097 0.0642,-0.01997 0.0966,-0.03101 0.0324,-0.01104 0.0653,-0.02276 0.0982,-0.03514 0.0328,-0.01238 0.066,-0.02557 0.0992,-0.03927 0.0333,-0.01372 0.0666,-0.02786 0.10025,-0.04289 0.0336,-0.01504 0.0669,-0.03067 0.10077,-0.04702 0.0339,-0.01635 0.0681,-0.03351 0.10232,-0.05116 0.0342,-0.01764 0.0688,-0.03586 0.10335,-0.05478 0.0689,-0.03784 0.13794,-0.07856 0.20774,-0.121441 0.0698,-0.04288 0.13992,-0.08811 0.21032,-0.135908 0.0704,-0.0478 0.14108,-0.09776 0.21188,-0.150379 0.0708,-0.05262 0.142,-0.108051 0.2129,-0.165365 0.0709,-0.05732 0.14159,-0.116898 0.21239,-0.1788 0.092,-0.08042 0.18196,-0.163131 0.26975,-0.248047 0.1133,0.109329 0.22962,0.21548 0.34882,0.318326 0.0686,0.05901 0.13676,0.115977 0.20516,0.170534 0.0684,0.05456 0.13664,0.106567 0.20464,0.156578 0.068,0.05001 0.13568,0.09778 0.20308,0.143145 0.0674,0.04536 0.13442,0.08858 0.20102,0.129191 0.0666,0.04061 0.13284,0.07844 0.19844,0.114205 0.0656,0.03576 0.13094,0.06945 0.19534,0.100253 0.0322,0.0154 0.0642,0.03029 0.0961,0.04444 0.0319,0.01414 0.0636,0.02742 0.0951,0.04031 0.0316,0.01288 0.063,0.0251 0.094,0.03669 0.0311,0.01159 0.0618,0.02278 0.0925,0.03307 0.0308,0.01031 0.0612,0.01994 0.0915,0.02894 0.0303,0.009 0.0605,0.01714 0.0904,0.02481 0.0299,0.0077 0.0595,0.01484 0.0889,0.02119 0.0293,0.0063 0.0584,0.01205 0.0873,0.01705 0.0289,0.005 0.0574,0.0093 0.0858,0.01292 0.0283,0.0036 0.0564,0.0064 0.0842,0.0088 0.0278,0.0023 0.0555,0.0039 0.0827,0.0046 0.0272,7.94e-4 0.054,10e-4 0.0806,5.16e-4 0.0267,-5e-4 0.0531,-0.0018 0.0791,-0.0036 0.026,-0.0019 0.0516,-0.0044 0.077,-0.0078 0.0253,-0.0033 0.0502,-0.0076 0.0749,-0.0124 0.0247,-0.0048 0.0494,-0.01032 0.0734,-0.01654 0.024,-0.0062 0.0475,-0.013 0.0708,-0.02067 0.0232,-0.0077 0.0462,-0.01617 0.0687,-0.02532 0.0225,-0.0092 0.0444,-0.01882 0.0661,-0.02946 0.0218,-0.01064 0.0432,-0.02199 0.0641,-0.03411 0.0217,-0.01253 0.0429,-0.0262 0.0636,-0.04031 0.0207,-0.0141 0.0412,-0.02881 0.061,-0.04444 0.0198,-0.01563 0.039,-0.03195 0.0579,-0.04909 0.0189,-0.01713 0.0373,-0.03514 0.0553,-0.05374 0.018,-0.0186 0.0357,-0.03785 0.0527,-0.05788 0.017,-0.02004 0.0335,-0.04058 0.0496,-0.06201 0.0161,-0.02144 0.0318,-0.04386 0.047,-0.06666 0.0151,-0.02281 0.0297,-0.04612 0.0439,-0.07028 0.0142,-0.02414 0.028,-0.04896 0.0413,-0.07441 0.0133,-0.02544 0.0258,-0.05132 0.0382,-0.07803 0.0124,-0.02671 0.0243,-0.05422 0.0357,-0.08216 0.0114,-0.02795 0.0226,-0.05664 0.0331,-0.08578 0.0105,-0.02915 0.02,-0.05909 0.03,-0.0894 0.01,-0.03032 0.0179,-0.06106 0.0269,-0.0925 0.009,-0.03145 0.0163,-0.06357 0.0243,-0.09612 0.008,-0.03255 0.0147,-0.0656 0.0217,-0.09922 0.007,-0.03361 0.0126,-0.06767 0.0186,-0.10232 0.005,-0.03465 0.0105,-0.06977 0.0155,-0.10542 0.004,-0.03565 0.008,-0.07191 0.0124,-0.108519 0.004,-0.03661 0.007,-0.07356 0.0103,-0.111107 0.003,-0.03754 0.005,-0.07524 0.007,-0.113686 0.002,-0.03844 0.003,-0.07748 0.004,-0.11679 0.002,-0.07862 9.7e-4,-0.158935 -10e-4,-0.240813 -0.002,-0.08188 -0.007,-0.165243 -0.0129,-0.250113 -0.006,-0.08487 -0.0141,-0.171305 -0.0243,-0.258898 -0.0102,-0.0876 -0.0225,-0.176604 -0.0367,-0.266652 -0.0142,-0.09005 -0.0308,-0.181131 -0.0491,-0.273367 -0.023,-0.115676 -0.0489,-0.230775 -0.0775,-0.3452 0.0818,-0.02422 0.16209,-0.04895 0.24029,-0.07493 0.0925,-0.03065 0.183,-0.06266 0.2713,-0.0956 0.0883,-0.03294 0.17439,-0.06671 0.25839,-0.101801 0.084,-0.03509 0.16606,-0.07141 0.24546,-0.108521 0.0794,-0.03711 0.15639,-0.07522 0.23099,-0.114205 0.0746,-0.03899 0.14641,-0.07865 0.21601,-0.119372 0.0348,-0.02036 0.0693,-0.04124 0.10284,-0.06201 0.0335,-0.02077 0.066,-0.04136 0.0982,-0.06253 0.0322,-0.02116 0.0638,-0.04254 0.0946,-0.06408 0.0308,-0.02153 0.0609,-0.04323 0.0904,-0.06511 0.0294,-0.02189 0.0583,-0.04444 0.0863,-0.06666 0.0281,-0.02223 0.0556,-0.04464 0.0822,-0.06718 0.0266,-0.02255 0.0524,-0.04484 0.0775,-0.0677 0.0252,-0.02285 0.0497,-0.0461 0.0734,-0.06925 0.0236,-0.02314 0.0465,-0.04635 0.0687,-0.06976 0.0222,-0.02341 0.0435,-0.04714 0.0641,-0.0708 0.0206,-0.02366 0.0404,-0.04742 0.0594,-0.07131 0.0191,-0.0239 0.0374,-0.04773 0.0548,-0.07183 0.0174,-0.02412 0.0338,-0.04855 0.0496,-0.07286 0.0159,-0.02432 0.0308,-0.04836 0.045,-0.07286 0.0142,-0.0245 0.0278,-0.04924 0.0403,-0.0739 0.0125,-0.02466 0.0238,-0.0496 0.0346,-0.07441 0.0108,-0.02481 0.021,-0.04946 0.03,-0.07441 0.009,-0.02494 0.0178,-0.04987 0.0248,-0.07493 0.007,-0.02506 0.0131,-0.05029 0.0191,-0.07545 0.006,-0.02515 0.01,-0.05021 0.014,-0.07545 0.003,-0.02523 0.006,-0.05067 0.008,-0.07596 0.002,-0.02529 0.003,-0.05062 0.003,-0.07596 0,-0.02429 -5.9e-4,-0.04863 -0.003,-0.07286 -0.002,-0.02424 -0.005,-0.04819 -0.008,-0.07235 -0.004,-0.02417 -0.008,-0.04827 -0.0129,-0.07235 -0.005,-0.02408 -0.0111,-0.04838 -0.0181,-0.07235 -0.007,-0.02397 -0.0147,-0.04796 -0.0227,-0.07183 -0.009,-0.02386 -0.0178,-0.04758 -0.0279,-0.07131 -0.0101,-0.02372 -0.0214,-0.04722 -0.0331,-0.0708 -0.0117,-0.02358 -0.0239,-0.04686 -0.0372,-0.07028 -0.0133,-0.02341 -0.0276,-0.04705 -0.0424,-0.07028 -0.0148,-0.02324 -0.0306,-0.0462 -0.047,-0.06925 -0.0164,-0.02305 -0.0333,-0.0459 -0.0512,-0.06873 -0.0178,-0.02284 -0.0365,-0.04559 -0.0558,-0.06822 -0.0193,-0.02261 -0.0392,-0.04531 -0.0599,-0.0677 -0.0208,-0.02238 -0.0424,-0.04454 -0.0646,-0.06666 -0.0222,-0.02212 -0.0451,-0.04429 -0.0687,-0.06615 -0.0236,-0.02185 -0.0479,-0.04355 -0.0729,-0.06511 -0.025,-0.02157 -0.0507,-0.04281 -0.077,-0.06408 -0.0263,-0.02128 -0.053,-0.04261 -0.0806,-0.06356 -0.0277,-0.02096 -0.0564,-0.04189 -0.0853,-0.06253 -0.029,-0.02064 -0.0582,-0.04068 -0.0884,-0.06098 -0.0604,-0.04058 -0.12374,-0.08077 -0.18914,-0.11989 -0.0654,-0.03912 -0.13299,-0.07719 -0.20309,-0.114721 -0.0701,-0.03753 -0.14286,-0.07424 -0.21756,-0.110072 -0.0747,-0.03583 -0.15147,-0.0709 -0.23047,-0.104902 -0.079,-0.03401 -0.1602,-0.06716 -0.2434,-0.09922 -0.0832,-0.03206 -0.1687,-0.06302 -0.2558,-0.09302 -0.13737,-0.04706 -0.27591,-0.09066 -0.41548,-0.130741 0.0235,-0.09587 0.0449,-0.190714 0.0641,-0.283705 0.0196,-0.09544 0.0376,-0.189679 0.0532,-0.28267 0.0156,-0.09299 0.0293,-0.184631 0.0408,-0.274918 0.0115,-0.09028 0.0204,-0.179332 0.0284,-0.26665 0.007,-0.08732 0.0135,-0.172735 0.0165,-0.256833 0.003,-0.0841 0.005,-0.16691 0.004,-0.247529 0,-0.04031 -0.001,-0.07998 -0.002,-0.119374 -10e-4,-0.03939 -0.003,-0.07835 -0.005,-0.116787 -0.002,-0.03844 -0.005,-0.07623 -0.008,-0.113689 -0.003,-0.03746 -0.007,-0.07466 -0.0114,-0.111104 -0.004,-0.03644 -0.01,-0.07209 -0.015,-0.107487 -0.005,-0.03539 -0.0105,-0.07059 -0.0165,-0.104905 -0.006,-0.03431 -0.0137,-0.06808 -0.0207,-0.101285 -0.007,-0.0332 -0.0153,-0.06561 -0.0233,-0.09767 -0.008,-0.03206 -0.0174,-0.06369 -0.0263,-0.09457 -0.009,-0.03088 -0.0187,-0.06128 -0.0289,-0.09095 -0.0102,-0.02968 -0.0208,-0.05838 -0.032,-0.08682 -0.0111,-0.02843 -0.0224,-0.05655 -0.0346,-0.08371 -0.0122,-0.02716 -0.0245,-0.05373 -0.0377,-0.07958 -0.0131,-0.02585 -0.0272,-0.05092 -0.0413,-0.07545 -0.0141,-0.02452 -0.0288,-0.04816 -0.0439,-0.07131 -0.0151,-0.02315 -0.0304,-0.04595 -0.0465,-0.0677 -0.0161,-0.02175 -0.033,-0.04272 -0.0501,-0.06304 -0.0171,-0.02032 -0.0346,-0.03956 -0.0527,-0.05839 -0.0181,-0.01885 -0.0363,-0.0369 -0.0553,-0.05426 -0.019,-0.01735 -0.0389,-0.03431 -0.0589,-0.05013 -0.02,-0.01582 -0.0405,-0.0307 -0.0615,-0.04496 -0.021,-0.01425 -0.0421,-0.02766 -0.0641,-0.04031 -0.0211,-0.01212 -0.0427,-0.02352 -0.0646,-0.03411 -0.0219,-0.01059 -0.044,-0.02038 -0.0667,-0.02946 -0.0227,-0.009 -0.0458,-0.01726 -0.0692,-0.0248 -0.0234,-0.0075 -0.0471,-0.01461 -0.0713,-0.02067 -0.0242,-0.0061 -0.049,-0.01147 -0.0739,-0.01602 -0.0249,-0.0046 -0.0498,-0.0083 -0.0754,-0.01137 -0.0256,-0.0031 -0.0517,-0.0056 -0.078,-0.0072 -0.0263,-0.0016 -0.0527,-0.0024 -0.0796,-0.0026 z" />
        <path
           fill="#00d8ff"
           d="m -353.23561,-65.920319 a 8.6479298,8.6479298 0 0 0 -0.41552,-0.130902 c 0.0235,-0.09587 0.045,-0.190477 0.0642,-0.283466 0.31456,-1.527018 0.10891,-2.757208 -0.59349,-3.16226 -0.67347,-0.388279 -1.77487,0.0166 -2.88722,0.984668 a 8.6348189,8.6348189 0 0 0 -0.32148,0.294903 7.8600399,7.8600399 0 0 0 -0.21387,-0.197522 c -1.16579,-1.035098 -2.33431,-1.47135 -3.03598,-1.065149 -0.67286,0.389505 -0.8721,1.545987 -0.58889,2.993171 a 8.6219086,8.6219086 0 0 0 0.0955,0.427627 c -0.1654,0.04702 -0.32501,0.09709 -0.47776,0.150268 -1.3668,0.476553 -2.23967,1.223351 -2.23967,1.997973 0,0.800043 0.93707,1.602503 2.36064,2.089085 a 7.3383098,7.3383098 0 0 0 0.34902,0.10918 8.4450572,8.4450572 0 0 0 -0.1013,0.460807 c -0.27,1.422087 -0.0591,2.551226 0.6119,2.938254 0.69309,0.399697 1.85637,-0.01082 2.98902,-1.00125 a 7.34068,7.34068 0 0 0 0.2694,-0.248261 8.4751634,8.4751634 0 0 0 0.34896,0.318407 c 1.09721,0.94411 2.18082,1.325358 2.85121,0.937248 0.69243,-0.400849 0.9175,-1.613837 0.6253,-3.089623 a 7.3128946,7.3128946 0 0 0 -0.0774,-0.34503 c 0.0818,-0.02422 0.16188,-0.04915 0.24005,-0.07514 1.47996,-0.490317 2.44287,-1.283054 2.44287,-2.093788 0,-0.777439 -0.90104,-1.52928 -2.29533,-2.009266 z m -0.32097,3.579603 c -0.0706,0.02329 -0.14302,0.04586 -0.21686,0.06777 -0.16337,-0.517241 -0.38384,-1.067213 -0.65369,-1.635492 0.2575,-0.554709 0.4695,-1.097669 0.62829,-1.611535 0.13215,0.03815 0.2602,0.07851 0.38376,0.120997 1.19465,0.411278 1.92333,1.019308 1.92333,1.487824 0,0.499033 -0.78698,1.146888 -2.06483,1.570337 z m -0.5302,1.050624 c 0.12915,0.652539 0.1476,1.242539 0.0621,1.703811 -0.0768,0.414475 -0.23148,0.69077 -0.4227,0.801458 -0.4068,0.2355 -1.27685,-0.07061 -2.21516,-0.878053 a 7.9034081,7.9034081 0 0 1 -0.32461,-0.296007 c 0.36379,-0.397838 0.72733,-0.860316 1.08213,-1.373978 0.62412,-0.05545 1.21372,-0.145943 1.74841,-0.26953 a 6.7659498,6.7659498 0 0 1 0.0699,0.312299 z m -5.36193,2.464567 c -0.39747,0.140345 -0.71406,0.144381 -0.90545,0.03406 -0.4072,-0.234839 -0.57648,-1.141499 -0.34558,-2.357618 a 7.913343,7.913343 0 0 1 0.0943,-0.428594 c 0.52881,0.116924 1.11412,0.201104 1.73968,0.251841 0.35723,0.502612 0.73126,0.964589 1.10821,1.369124 a 6.7910633,6.7910633 0 0 1 -0.24594,0.226522 c -0.5009,0.43782 -1.00281,0.748456 -1.44517,0.904681 z m -1.86212,-3.518269 c -0.62949,-0.21518 -1.14936,-0.494802 -1.50568,-0.799942 -0.32022,-0.274179 -0.48185,-0.546441 -0.48185,-0.767316 0,-0.470095 0.70082,-1.069681 1.86969,-1.477188 0.14185,-0.04942 0.2903,-0.09602 0.44437,-0.139831 0.16157,0.525462 0.37347,1.074871 0.62919,1.63044 -0.25903,0.563782 -0.47397,1.121969 -0.63711,1.65363 a 6.7935847,6.7935847 0 0 1 -0.31861,-0.09981 z m 0.6242,-4.249082 c -0.24261,-1.239864 -0.0815,-2.175165 0.324,-2.409906 0.43187,-0.250021 1.38688,0.106465 2.39348,1.000231 a 7.2776951,7.2776951 0 0 1 0.19369,0.178789 c -0.37508,0.402765 -0.74568,0.8613 -1.09973,1.36094 -0.60716,0.05625 -1.18835,0.146653 -1.72268,0.26773 a 8.0857564,8.0857564 0 0 1 -0.0888,-0.397726 z m 5.56865,1.375091 a 17.538923,17.538923 0 0 0 -0.3926,-0.645641 c 0.41191,0.05217 0.80655,0.121262 1.17716,0.205744 -0.11121,0.356638 -0.24992,0.729446 -0.41317,1.111692 a 19.220754,19.220754 0 0 0 -0.37139,-0.671795 z m -2.27088,-2.211839 c 0.25435,0.275594 0.50912,0.583253 0.75969,0.917092 a 16.239893,16.239893 0 0 0 -1.52581,-3.11e-4 c 0.25084,-0.330751 0.50777,-0.638007 0.76612,-0.916781 z m -2.28547,2.215609 a 16.296727,16.296727 0 0 0 -0.36445,0.66758 c -0.16055,-0.380896 -0.29798,-0.755424 -0.41017,-1.117101 0.36832,-0.08242 0.7611,-0.149768 1.17038,-0.200902 a 16.213873,16.213873 0 0 0 -0.39576,0.65037 z m 0.40752,3.295585 c -0.42286,-0.04728 -0.82153,-0.111092 -1.18977,-0.191276 0.11395,-0.368126 0.25442,-0.750616 0.41846,-1.139674 a 16.196879,16.196879 0 0 0 0.36596,0.667974 c 0.13078,0.225919 0.26626,0.447202 0.40535,0.662976 z m 1.89317,1.564792 c -0.26141,-0.281998 -0.52213,-0.594 -0.77674,-0.929543 0.2472,0.0095 0.49918,0.01464 0.75531,0.01464 0.26314,0 0.52324,-0.0053 0.77926,-0.01721 -0.25138,0.341598 -0.50519,0.654048 -0.75783,0.932219 z m 2.63225,-2.915614 c 0.17256,0.393343 0.31799,0.773814 0.43349,1.135647 -0.37429,0.08543 -0.77842,0.154206 -1.20423,0.205297 a 19.284596,19.284596 0 0 0 0.3963,-0.656886 17.518905,17.518905 0 0 0 0.37444,-0.684058 z m -0.85213,0.408522 a 18.081381,18.081381 0 0 1 -0.61931,0.999237 16.611045,16.611045 0 0 1 -1.18224,0.04152 c -0.40176,0 -0.79253,-0.01224 -1.16884,-0.03691 a 15.642925,15.642925 0 0 1 -0.631,-1.000792 h 6e-5 a 15.50213,15.50213 0 0 1 -0.55083,-1.040197 15.646757,15.646757 0 0 1 0.54916,-1.040679 l -5e-5,5.3e-5 a 15.49749,15.49749 0 0 1 0.62597,-0.996522 c 0.3839,-0.0291 0.77759,-0.04418 1.17547,-0.04418 h 6e-5 c 0.3997,0 0.79389,0.01534 1.17769,0.04453 a 16.608878,16.608878 0 0 1 0.62204,0.993196 18.077951,18.077951 0 0 1 0.55653,1.035791 16.614676,16.614676 0 0 1 -0.55471,1.044964 z m 1.13765,-6.1585 c 0.43228,0.249331 0.60041,1.25472 0.3288,2.573158 -0.0174,0.08401 -0.0368,0.16979 -0.058,0.256667 -0.53565,-0.123579 -1.11724,-0.215571 -1.72616,-0.272702 -0.3547,-0.505146 -0.72229,-0.96439 -1.09126,-1.361966 a 8.1082979,8.1082979 0 0 1 0.29692,-0.272307 c 0.95309,-0.82939 1.84385,-1.156893 2.2497,-0.92285 z m -2.9392,3.955394 c 0.63665,0 1.15278,0.516129 1.15278,1.152784 0,0.63665 -0.51613,1.152796 -1.15278,1.152796 -0.63665,0 -1.1528,-0.516146 -1.1528,-1.152796 0,-0.636655 0.51615,-1.152784 1.1528,-1.152784 z"
           id="path3411"
           style="fill:#ffffff;stroke-width:0.050428" />
      </g>
      <g
         id="g1114"
         transform="matrix(0.5498325,0,0,0.5498325,381.67993,68.726108)">
        <path
           fill="#18253f"
           d="m -380.20954,-19.999407 h 8.43788 l 2.47251,2.581367 -6.9959,7.8357382 -6.50626,-7.8357382 z"
           id="path3415"
           style="fill:#ffffff;stroke-width:0.0619166" />
        <path
           fill="#274d82"
           d="m -374.59921,-11.433052 h -3.30722 l -1.49367,-1.828647 4.23287,-1.24e-4 1.2e-4,-0.25943 h 2.41958 z"
           id="path3417"
           style="fill:#cccccc;stroke-width:0.0619166" />
        <path
           fill="#274d82"
           d="m -370.00914,-18.154229 -9.1254,5.26855 -1.19041,-1.489219 7.06462,-4.078883 -0.12977,-0.22482 1.88171,-1.086389 z m -4.88919,-1.842577 -6.85207,3.95604 -1.06565,-1.330279 4.58772,-2.648732 z"
           id="path3419"
           style="fill:#cccccc;stroke-width:0.0619166" />
      </g>
      <use
         filter="url(#logosZod0)"
         href="#logosZod1"
         id="use3421"
         x="0"
         y="0"
         width="100%"
         height="100%"
         style="filter:url(#logosZod0-5)"
         transform="matrix(0.03162203,0,0,0.03162203,171.19523,57.275277)" />
      <g
         id="g2259"
         transform="matrix(0.44303855,0,0,0.44303855,328.93658,40.793718)">
        <path
           fill="#99425b"
           d="m -349.50907,75.862054 c 0,-0.779503 -0.61623,-1.411473 -1.37635,-1.411473 -0.0489,0 -0.0972,0.002 -0.14465,0.007 l 1.89042,-5.717903 h -8.03358 l 1.88778,5.7129 a 1.3788535,1.4140548 0 0 0 -0.0837,-0.004 c -0.76011,0 -1.37634,0.63185 -1.37634,1.411463 0,0.6301 0.40267,1.163581 0.95841,1.345071 -0.29351,0.521397 -0.66287,0.991042 -1.08221,1.396813 -0.57024,0.551643 -1.22282,0.969985 -1.92866,1.227714 -0.84036,-0.442731 -1.23719,-1.427327 -0.87913,-2.290589 0.0405,-0.09757 0.0817,-0.19633 0.12118,-0.294709 0.60879,-0.145654 1.06252,-0.705424 1.06252,-1.374185 0,-0.779573 -0.61624,-1.411492 -1.37641,-1.411492 -0.76015,0 -1.37634,0.631919 -1.37634,1.411492 0,0.478021 0.23188,0.900292 0.58643,1.155604 -0.34066,0.795408 -0.84142,1.627905 -0.99743,2.592729 -0.187,1.15625 -6.3e-4,2.383656 0.97453,3.076816 2.2711,1.614258 4.73635,-1.00071 7.33562,-1.658092 0.94201,-0.238185 1.97607,-0.199832 2.80602,-0.692732 0.62325,-0.370202 1.03416,-0.983741 1.15073,-1.672495 0.11523,-0.680438 -0.0527,-1.357912 -0.43894,-1.907247 a 1.3704707,1.405458 0 0 0 0.32011,-0.904748"
           id="path3427"
           style="fill:#1e1f28;fill-opacity:1;stroke:none;stroke-width:0.0530564" />
        <path
           fill="#ffffff"
           d="m -349.57948,78.54632 c -0.0996,0.57386 -0.45403,1.07508 -0.97232,1.37532 -0.48317,0.27981 -1.06214,0.36335 -1.67519,0.45172 -0.3284,0.0474 -0.66798,0.0963 -0.9997,0.17813 -0.87715,0.21631 -1.72676,0.63832 -2.54833,1.04643 -1.64426,0.81671 -3.06423,1.52194 -4.40315,0.59397 -0.98078,-0.67971 -0.9355,-1.93737 -0.82126,-2.62653 0.10599,-0.63853 0.39223,-1.22658 0.66905,-1.79523 a 41.074056,41.074056 0 0 0 0.14028,-0.2905 1.673288,1.673288 0 0 0 0.43532,0.10926 c -0.28183,0.93009 0.16148,1.94139 1.09159,2.41926 l 0.12736,0.0655 0.13478,-0.0481 c 0.73539,-0.26193 1.41306,-0.68215 2.0141,-1.24925 0.38851,-0.36654 0.72256,-0.77206 0.99711,-1.20538 a 1.6911794,1.6911794 0 0 0 0.25219,0.019 c 0.8538,0 1.5608,-0.63826 1.6702,-1.46261 0.34947,-0.0121 0.72066,-0.0121 1.07215,-10e-5 0.10927,0.82445 0.8164,1.46276 1.67018,1.46276 0.35701,0 0.68812,-0.11185 0.96094,-0.30194 0.18939,0.38768 0.26006,0.82388 0.18463,1.25839 z m -9.98724,-3.6558 c 0.56449,0 1.02369,0.45926 1.02369,1.02375 a 1.0172857,1.0172857 0 0 1 -0.16166,0.55102 c -0.1701,0.26538 -0.45941,0.44728 -0.79172,0.46996 -0.0233,0.002 -0.0467,0.003 -0.0703,0.003 -0.12581,0 -0.24629,-0.0229 -0.35771,-0.0646 a 1.0295055,1.0295055 0 0 1 -0.53133,-0.45253 1.0170278,1.0170278 0 0 1 -0.1346,-0.50653 c 0,-0.56449 0.45926,-1.02374 1.02373,-1.02374 z m 3.40552,1.01399 c 0,-0.51287 0.37912,-0.93871 0.87172,-1.01233 0.0496,-0.007 0.1003,-0.0121 0.152,-0.0121 0.32819,0 0.62038,0.15545 0.80775,0.39635 a 1.0250197,1.0250197 0 0 1 0.11943,0.19412 1.0172857,1.0172857 0 0 1 0.0963,0.4332 c 0,0.0819 -0.0103,0.16131 -0.0281,0.23769 -0.0998,0.41764 -0.45589,0.7369 -0.8923,0.78083 -0.0339,0.003 -0.0684,0.005 -0.10323,0.005 a 1.0174919,1.0174919 0 0 1 -0.55478,-0.16407 c -0.28183,-0.18258 -0.46889,-0.49962 -0.46889,-0.85967 z m 4.27255,-1.21733 a 1.6871061,1.6871061 0 0 0 -0.46358,0.77943 15.715181,15.715181 0 0 0 -1.15795,0 c -0.0867,-0.32131 -0.26616,-0.6048 -0.50771,-0.82012 l 1.05931,-2.14191 1.06993,2.18265 z m -4.563,-5.28582 h 6.98319 l -1.64937,4.86446 a 1.6746285,1.6746285 0 0 0 -0.20887,0.0648 l -1.62931,-3.32374 -1.63394,3.30389 a 1.6758144,1.6758144 0 0 0 -0.21791,-0.0588 z m 6.75029,6.5032 c 0,0.10255 -0.0155,0.20171 -0.0434,0.29529 a 1.0277524,1.0277524 0 0 1 -0.39459,0.54371 1.0178013,1.0178013 0 0 1 -0.58558,0.1847 c -0.47265,0 -0.87136,-0.32211 -0.98861,-0.75831 a 1.0210496,1.0210496 0 0 1 -0.0352,-0.26539 c 0,-0.13994 0.0283,-0.27336 0.0793,-0.39495 a 1.0233698,1.0233698 0 0 1 0.0969,-0.17746 c 0.18423,-0.27194 0.49508,-0.45126 0.84754,-0.45126 0.0324,0 0.0643,0.002 0.0958,0.005 0.51973,0.0484 0.92794,0.48683 0.92794,1.01904 z m 0.66167,0 c 0,-0.82279 -0.59284,-1.50931 -1.37366,-1.65596 l 1.86782,-5.50896 h -8.82894 l 1.87072,5.5201 c -0.75372,0.16769 -1.31907,0.84127 -1.31907,1.64477 0,0.60337 0.31885,1.1333 0.7967,1.43111 -0.22985,0.34248 -0.50239,0.66472 -0.81476,0.95944 -0.49538,0.46729 -1.04723,0.82173 -1.64219,1.05492 -0.59928,-0.37644 -0.85261,-1.08637 -0.58955,-1.70478 l 0.0207,-0.0484 0.0386,-0.091 c 0.65822,-0.22959 1.1319,-0.85605 1.1319,-1.5915 0,-0.92934 -0.75603,-1.68536 -1.68531,-1.68536 -0.92931,0 -1.68534,0.75602 -1.68534,1.68536 0,0.46904 0.19283,0.89379 0.50311,1.19965 a 28.49895,28.49895 0 0 1 -0.17621,0.36659 c -0.28375,0.58268 -0.60529,1.24311 -0.72691,1.97656 -0.24152,1.45658 0.14804,2.62097 1.09704,3.27863 0.57583,0.39907 1.16064,0.55602 1.7491,0.55602 1.10803,0 2.22894,-0.55669 3.32527,-1.10128 0.78955,-0.39211 1.606,-0.79763 2.41246,-0.99656 0.30008,-0.0739 0.60883,-0.11857 0.93572,-0.16562 0.64827,-0.0936 1.31856,-0.19021 1.91232,-0.53407 0.68828,-0.39866 1.15938,-1.0674 1.29262,-1.83461 0.11443,-0.65869 -0.0233,-1.31839 -0.35892,-1.87794 a 1.6750926,1.6750926 0 0 0 0.24683,-0.87709 z"
           id="path3429"
           style="fill:#ffffff;stroke:none;stroke-width:0.0515603"
           inkscape:transform-center-x="-4.837984"
           inkscape:transform-center-y="3.1045344" />
      </g>
      <g
         id="g3437"
         transform="matrix(0.41786111,0,0,0.41786111,4.96322,-214.08915)">
        <path
           style="fill:#1e1f28;fill-opacity:1;stroke:none;stroke-width:0.264583px;stroke-linecap:butt;stroke-linejoin:miter;stroke-opacity:1"
           d="m 322.7771,651.5237 h 12.39954 l -2.19655,10.96893 -6.61985,2.19718 -5.73569,-2.19718 z"
           id="path3433" />
        <path
           fill="#444444"
           d="m 326.36025,664.68981 6.61983,-2.19719 2.19656,-10.96893 h -12.39956 l -0.47163,2.44748 h 9.93702 l -0.30941,1.56265 h -9.95208 l -0.48669,2.44747 h 9.93764 l -0.54582,2.80151 -4.01018,1.31174 -3.46492,-1.31174 0.23646,-1.22374 h -2.44746 l -0.57545,2.93356 5.73569,2.19719"
           id="path3435"
           style="fill:#ffffff;stroke-width:0.0568441" />
      </g>
      <g
         id="g1547"
         transform="matrix(0.51071937,0,0,0.51071937,419.13807,125.9958)">
        <circle
           style="fill:#1e1f28;fill-opacity:1;stroke:none;stroke-width:0.0634999;stroke-linecap:square;stroke-linejoin:round;stroke-miterlimit:4;stroke-dasharray:0.126999, 0.381;stroke-dashoffset:0;stroke-opacity:1;paint-order:fill markers stroke;stop-color:#000000"
           id="path47974"
           cx="-449.69223"
           cy="308.13873"
           r="7.9375"
           transform="rotate(45)" />
        <path
           fill="url(#logosTailwindcssIcon0)"
           d="m -535.86741,-104.45906 c -1.94026,0 -3.15297,0.97016 -3.63802,2.91041 0.72761,-0.97015 1.57646,-1.33396 2.54661,-1.0914 0.5535,0.13835 0.94913,0.53997 1.38706,0.98442 0.71339,0.72414 1.53899,1.5622 3.34237,1.5622 1.94026,0 3.15297,-0.97017 3.63802,-2.91042 -0.72761,0.97015 -1.57646,1.33396 -2.54661,1.0914 -0.5535,-0.13836 -0.94913,-0.53996 -1.38706,-0.98443 -0.71339,-0.72412 -1.53899,-1.56218 -3.34237,-1.56218 z m -3.63802,4.36563 c -1.94026,0 -3.15297,0.970147 -3.63802,2.910407 0.7276,-0.97016 1.57645,-1.33396 2.54661,-1.09141 0.55349,0.13836 0.94913,0.53996 1.38706,0.98443 0.71338,0.72414 1.53899,1.56219 3.34237,1.56219 1.94025,0 3.15297,-0.97016 3.63802,-2.91042 -0.7276,0.97016 -1.57645,1.33396 -2.54662,1.09141 -0.55348,-0.13836 -0.94912,-0.53996 -1.38704,-0.98443 -0.7134,-0.72414 -1.539,-1.562177 -3.34238,-1.562177 z"
           id="path3441"
           style="fill:#ffffff;stroke-width:0.0568441" />
      </g>
      <g
         id="g1923"
         transform="matrix(0.51071937,0,0,0.51071937,306.9068,-17.68998)">
        <circle
           style="display:inline;fill:#1e1f28;fill-opacity:1;stroke:none;stroke-width:0.348736;stroke-miterlimit:4;stroke-dasharray:none;stroke-dashoffset:0;paint-order:fill markers stroke;stop-color:#000000"
           id="circle3445"
           cx="-290.07092"
           cy="193.3013"
           r="7.9375" />
        <g
           id="g3459"
           transform="matrix(0.06201172,0,0,0.06201172,-298.00842,185.3638)"
           style="fill:#ffffff">
          <path
             fill="url(#logosCypressIcon0)"
             d="m 141.651,223.943 -4.335,10.526 c -0.861,2.084 -2.83,3.495 -5.046,3.59 -1.464,0.056 -2.94,0.097 -4.431,0.097 C 76.815,238.129 31.67,202.043 20.484,152.32 l -17.369,3.933 c 6.277,27.89 22.032,53.204 44.365,71.295 22.592,18.296 51.052,28.397 80.167,28.452 h 0.26 c 1.71,0 3.406,-0.041 5.101,-0.11 9.136,-0.383 17.3,-6.126 20.788,-14.637 l 5.661,-13.76 z"
             id="path3447"
             style="fill:#ffffff" />
          <path
             fill="url(#logosCypressIcon1)"
             d="M 4.54,161.914 A 128.496,128.496 0 0 1 0,128.007 C 0,75.516 32.863,27.52 81.782,8.593 l 6.414,16.652 C 46.088,41.54 17.806,82.835 17.806,128.007 a 110.66,110.66 0 0 0 3.898,29.178 z"
             id="path3449"
             style="fill:#ffffff" />
          <path
             fill="url(#logosCypressIcon2)"
             d="m 225.693,77.298 c -19.037,-36.662 -56.509,-59.44 -97.769,-59.44 -14.62,0 -28.828,2.823 -42.204,8.374 L 78.897,9.744 C 94.446,3.29 110.939,0 127.924,0 c 47.934,0 91.45,26.451 113.564,69.047 l -15.795,8.25 z"
             id="path3451"
             style="fill:#ffffff" />
          <path
             fill="#09293f"
             d="m 89.727,101.597 c 10.326,0 18.737,5.523 23.058,15.158 l 0.342,0.754 17.34,-5.907 -0.369,-0.891 c -6.715,-16.405 -22.182,-26.602 -40.37,-26.602 -12.787,0 -23.181,4.112 -31.77,12.554 -8.533,8.388 -12.855,18.94 -12.855,31.371 0,12.321 4.322,22.82 12.855,31.207 8.589,8.443 18.983,12.554 31.77,12.554 18.188,0 33.655,-10.197 40.37,-26.588 l 0.37,-0.89 -17.368,-5.922 -0.329,0.782 c -3.87,9.47 -12.486,15.13 -23.044,15.13 -7.193,0 -13.265,-2.521 -18.08,-7.483 -4.867,-5.03 -7.329,-11.348 -7.329,-18.776 0,-7.483 2.407,-13.678 7.33,-18.94 4.8,-4.99 10.886,-7.511 18.08,-7.511 z"
             id="path3453"
             style="fill:#ffffff" />
          <path
             fill="#09293f"
             d="m 198.341,85.726 -24.712,62.729 -24.877,-62.729 h -20.35 l 34.888,85.617 -24.822,60.385 17.792,3.55 61.309,-149.552 z"
             id="path3455"
             style="fill:#ffffff" />
          <path
             fill="url(#logosCypressIcon3)"
             d="M 241.488,69.047 C 250.491,86.585 256,107.185 256,128.27 c 0,49.2 -27.671,91.916 -68.253,113.343 l -8.768,-15.548 c 35.19,-18.352 59.227,-55.258 59.227,-97.795 0,-18.46 -4.513,-35.691 -12.513,-50.973 l 15.795,-8.251 z"
             id="path3457"
             style="fill:#ffffff" />
        </g>
      </g>
      <g
         id="g53165"
         transform="matrix(0.41786128,0,0,0.41786128,278.58066,1.78959)">
        <rect
           style="fill:#ffffff;fill-opacity:1;stroke:none;stroke-width:0.799034;stroke-linecap:square;stroke-linejoin:round;stroke-miterlimit:4;stroke-dasharray:1.99757, 5.99273;stroke-dashoffset:0;stroke-opacity:1;paint-order:fill markers stroke;stop-color:#000000"
           id="rect52972"
           width="14.552084"
           height="14.552084"
           x="-312.73236"
           y="105.79962"
           rx="3.1659226"
           ry="3.1659226" />
        <path
           d="m -308.90608,117.96039 1.11357,-0.67395 c 0.21487,0.38092 0.4103,0.70322 0.8791,0.70322 0.44935,0 0.73272,-0.17576 0.73272,-0.85948 v -4.64973 h 1.3675 v 4.66906 c 0,1.41638 -0.83027,2.06111 -2.04162,2.06111 -1.09396,0 -1.72897,-0.56657 -2.05133,-1.25035 m 4.83573,-0.14643 1.11346,-0.64467 c 0.29314,0.47869 0.67411,0.83033 1.34806,0.83033 0.56668,0 0.92798,-0.28331 0.92798,-0.67406 0,-0.46885 -0.3712,-0.63495 -0.99637,-0.90837 l -0.3418,-0.14666 c -0.98664,-0.4199 -1.64109,-0.94742 -1.64109,-2.06099 0,-1.0257 0.78144,-1.80719 2.0025,-1.80719 0.86938,0 1.49455,0.30287 1.94384,1.09408 l -1.0648,0.68383 c -0.23448,-0.42002 -0.48835,-0.58606 -0.87909,-0.58606 -0.40053,0 -0.6545,0.25398 -0.6545,0.58606 0,0.41025 0.25397,0.5764 0.84004,0.83038 l 0.34186,0.14649 c 1.16246,0.49824 1.8169,1.00614 1.8169,2.14893 0,1.2309 -0.96703,1.90485 -2.2662,1.90485 -1.26984,0 -2.09038,-0.60562 -2.49085,-1.39689"
           id="path3467"
           style="fill:#1e1f28;fill-opacity:1;stroke-width:0.0568441" />
      </g>
      <g
         id="g53519"
         transform="matrix(0.41786128,0,0,0.41786128,281.56452,0.29998)">
        <rect
           style="fill:#ffffff;fill-opacity:1;stroke:none;stroke-width:0.799034;stroke-linecap:square;stroke-linejoin:round;stroke-miterlimit:4;stroke-dasharray:1.99757, 5.99273;stroke-dashoffset:0;stroke-opacity:1;paint-order:fill markers stroke;stop-color:#000000"
           id="rect53515"
           width="14.552084"
           height="14.552084"
           x="-284.79996"
           y="108.82722"
           rx="3.1659234"
           ry="3.1659234" />
        <path
           fill="#ffffff"
           d="m -276.24389,120.22305 v 1.57003 c 0.25534,0.13086 0.55735,0.22897 0.90598,0.2944 0.34862,0.0654 0.71606,0.0981 1.10238,0.0981 0.37642,0 0.73408,-0.036 1.07287,-0.10795 0.33879,-0.072 0.63592,-0.19054 0.8912,-0.35567 0.25535,-0.16519 0.45748,-0.38108 0.60647,-0.64768 0.14893,-0.26654 0.2234,-0.59607 0.2234,-0.98858 0,-0.28456 -0.0426,-0.53399 -0.12767,-0.74824 a 1.7478418,1.7478418 0 0 0 -0.3683,-0.57156 c -0.16035,-0.16684 -0.35271,-0.31646 -0.57691,-0.44896 -0.22425,-0.13245 -0.47715,-0.25756 -0.75869,-0.37528 -0.20623,-0.0851 -0.39115,-0.16764 -0.55486,-0.24779 -0.16365,-0.0802 -0.30281,-0.16189 -0.41735,-0.24534 -0.1146,-0.0834 -0.20299,-0.17172 -0.26518,-0.26495 -0.0622,-0.0932 -0.0933,-0.19867 -0.0933,-0.31645 0,-0.10794 0.0278,-0.2052 0.0834,-0.29189 0.0557,-0.0867 0.13427,-0.1611 0.23573,-0.22323 0.10147,-0.0622 0.22584,-0.11039 0.37318,-0.14478 0.14729,-0.0343 0.311,-0.0515 0.49102,-0.0515 0.13097,0 0.26927,0.01 0.41491,0.0294 0.14569,0.0196 0.29218,0.0499 0.43952,0.0908 a 3.0507649,3.0507649 0 0 1 0.42962,0.15456 2.3703981,2.3703981 0 0 1 0.38546,0.21584 v -1.46697 c -0.23897,-0.0916 -0.50005,-0.15945 -0.78319,-0.20362 -0.28314,-0.0442 -0.60807,-0.0662 -0.97471,-0.0662 -0.37318,0 -0.72669,0.0401 -1.0606,0.12022 -0.3339,0.0801 -0.62773,0.20521 -0.88142,0.37529 -0.2537,0.17013 -0.45419,0.38682 -0.60153,0.65012 -0.14728,0.2633 -0.22095,0.57811 -0.22095,0.94447 0,0.46771 0.13501,0.86676 0.40513,1.19713 0.27007,0.33032 0.68003,0.61 1.22999,0.83896 a 16.567662,16.567662 0 0 1 0.60397,0.26007 c 0.18662,0.085 0.34783,0.17331 0.48369,0.26489 0.13585,0.0916 0.24306,0.19134 0.32162,0.29928 0.0786,0.10795 0.11784,0.23062 0.11784,0.36801 a 0.56281324,0.56281324 0 0 1 -0.0737,0.28212 c -0.0491,0.0866 -0.12358,0.16189 -0.2234,0.22567 -0.0998,0.0638 -0.22425,0.11363 -0.37318,0.14961 -0.14893,0.036 -0.32327,0.054 -0.52297,0.054 -0.34044,0 -0.67758,-0.0597 -1.01148,-0.17912 -0.33396,-0.11937 -0.6433,-0.29843 -0.92809,-0.53723 z m -2.61688,-3.90707 h 2.01899 v -1.29275 h -5.62756 v 1.29275 h 2.00915 v 5.75592 h 1.59942 z"
           id="path3477"
           style="fill:#000000;stroke-width:0.0568441" />
      </g>
    </g>
  </g>
</svg>
