<?xml version="1.0" encoding="UTF-8" standalone="no"?>
<!-- Created with Inkscape (http://www.inkscape.org/) -->

<svg
   width="150"
   height="150.00154"
   viewBox="0 0 39.6875 39.687908"
   version="1.1"
   id="svg3903"
   inkscape:version="1.1.2 (0a00cf5339, 2022-02-04)"
   sodipodi:docname="skills_design.svg"
   xmlns:inkscape="http://www.inkscape.org/namespaces/inkscape"
   xmlns:sodipodi="http://sodipodi.sourceforge.net/DTD/sodipodi-0.dtd"
   xmlns="http://www.w3.org/2000/svg"
   xmlns:svg="http://www.w3.org/2000/svg">
  <sodipodi:namedview
     id="namedview3905"
     pagecolor="#272727"
     bordercolor="#666666"
     borderopacity="1.0"
     inkscape:pageshadow="2"
     inkscape:pageopacity="0"
     inkscape:pagecheckerboard="false"
     inkscape:document-units="px"
     showgrid="false"
     fit-margin-top="0"
     fit-margin-left="0"
     fit-margin-right="0"
     fit-margin-bottom="0"
     units="px"
     inkscape:showpageshadow="false"
     inkscape:zoom="2.075672"
     inkscape:cx="19.993525"
     inkscape:cy="152.96251"
     inkscape:window-width="1920"
     inkscape:window-height="1029"
     inkscape:window-x="0"
     inkscape:window-y="27"
     inkscape:window-maximized="1"
     inkscape:current-layer="layer1" />
  <defs
     id="defs3900" />
  <g
     inkscape:label="Calque 1"
     inkscape:groupmode="layer"
     id="layer1"
     transform="translate(-112.47097,-18.191469)">
    <g
       id="g1322"
       transform="matrix(0.66878421,0,0,0.66878421,365.04497,170.07175)">
      <ellipse
         style="display:inline;fill:none;stroke:#ffffff;stroke-width:0.396875;stroke-linecap:square;stroke-linejoin:round;stroke-miterlimit:4;stroke-dasharray:1.187, 3.56098;stroke-dashoffset:0;paint-order:fill markers stroke;stop-color:#000000"
         id="circle3563"
         cx="-347.9996"
         cy="-197.41988"
         rx="29.480944"
         ry="29.480549" />
      <g
         id="g3561"
         transform="matrix(1.6245338,0,0,1.6245338,-958.42848,-819.89269)"
         style="display:inline">
        <path
           fill="#6c31e3"
           d="m 379.31273,389.34353 c -0.0894,0.65653 -0.73211,1.16866 -1.3749,0.99339 -0.90739,-0.25095 -1.95922,-0.64279 -2.91127,-0.71497 l -1.45394,-0.11001 a 0.95896069,0.95896069 0 0 1 -0.61869,-0.2887 l -2.50915,-2.5779 a 0.95896069,0.95896069 0 0 1 -0.18559,-1.06556 c 0,0 1.55013,-3.4028 1.60857,-3.58153 0.0584,-0.17527 0.26814,-1.71859 0.39184,-2.55039 a 0.96241632,0.96241632 0 0 1 0.30935,-0.57057 l 2.96288,-2.66381 a 0.96241632,0.96241632 0 0 1 1.39546,0.12029 l 2.492,3.16221 a 1.0208559,1.0208559 0 0 1 0.21307,0.62901 c 0,0.59809 0.0516,1.8286 0.38156,2.62257 a 10.414673,10.414673 0 0 0 1.22364,2.01078 0.48120816,0.48120816 0 0 1 0.0378,0.53961 c -0.22003,0.37124 -0.64962,1.07929 -1.26144,1.99014 a 4.9255052,4.9255052 0 0 0 -0.70119,2.05544 z"
           id="path3553"
           style="fill:#ffffff;stroke:#1e1f28;stroke-width:0.250093;stroke-opacity:1" />
        <path
           fill="url(#logosObsidianIcon1)"
           d="m 376.3911,384.62427 a 3.7629245,3.7629245 0 0 1 0.92121,0.20966 c 0.95551,0.35746 1.8251,1.16179 2.54348,2.71197 0.0516,-0.0894 0.1031,-0.17532 0.15813,-0.25781 a 42.002417,42.002417 0 0 0 1.26144,-1.99014 0.48120816,0.48120816 0 0 0 -0.0344,-0.53961 10.414673,10.414673 0 0 1 -1.22706,-2.01078 c -0.32999,-0.79056 -0.37811,-2.02448 -0.38156,-2.62257 0,-0.22685 -0.0722,-0.45028 -0.21307,-0.62901 l -2.492,-3.16221 -0.0413,-0.0515 c 0.18219,0.60145 0.17191,1.08271 0.0584,1.51921 -0.1031,0.40558 -0.29556,0.77336 -0.49839,1.16179 -0.0687,0.13062 -0.13749,0.26464 -0.20279,0.40212 a 4.8120816,4.8120816 0 0 0 -0.54306,1.9936 c -0.0344,0.8318 0.13402,1.87326 0.68745,3.26536 h 0.003 z"
           id="path3555"
           style="fill:#ffffff;stroke:#1e1f28;stroke-width:0.264583;stroke-opacity:1" />
        <path
           fill="url(#logosObsidianIcon2)"
           d="m 376.38769,384.62427 c -0.55343,-1.39205 -0.72183,-2.43351 -0.68745,-3.26535 0.0344,-0.82489 0.27496,-1.44358 0.54306,-1.99356 l 0.20624,-0.40212 c 0.19938,-0.38843 0.38843,-0.75621 0.49494,-1.16179 0.12655,-0.50153 0.10628,-1.02887 -0.0584,-1.51921 -0.35588,-0.39106 -0.96057,-0.42176 -1.35425,-0.0688 l -2.9628,2.66381 c -0.16607,0.14864 -0.2754,0.3503 -0.30934,0.57057 l -0.36087,2.39226 c 0,0.0241 -0.007,0.0447 -0.0103,0.0688 0.66681,0.43309 1.51235,1.13428 1.9695,2.2445 0.0894,0.21998 0.16499,0.45028 0.21998,0.70119 0.75112,-0.20829 1.53218,-0.28733 2.3098,-0.23372 1.1e-4,10e-4 -7e-5,0.002 -1.1e-4,0.003 z"
           id="path3557"
           style="fill:#ffffff;stroke:#1e1f28;stroke-width:0.264583;stroke-opacity:1"
           sodipodi:nodetypes="ccccccccccccccc" />
        <path
           fill="url(#logosObsidianIcon6)"
           d="m 373.22589,389.40237 c 0.76308,-1.58111 1.16146,-3.14201 0.85211,-4.5478"
           id="path3559"
           style="fill:#ffffff;stroke:#1e1f28;stroke-width:0.264583;stroke-opacity:1"
           sodipodi:nodetypes="cc" />
      </g>
      <g
         id="g54292"
         transform="matrix(0.86225482,0,0,0.86225482,-186.04504,-50.104713)">
        <path
           d="m -206.00492,-150.49761 c 0,-1.18421 -0.96141,-2.14562 -2.14562,-2.14562 h -8.13871 c -1.18421,0 -2.14562,0.96141 -2.14562,2.14562 v 8.13871 c 0,1.18421 0.96141,2.14562 2.14562,2.14562 h 8.13871 c 1.18421,0 2.14562,-0.96141 2.14562,-2.14562 z"
           style="clip-rule:evenodd;fill:#ffffff;fill-rule:evenodd;stroke-width:0.025359;stroke-linejoin:round;stroke-miterlimit:2"
           id="path3565" />
        <path
           d="m -208.1016,-149.82382 c -1.82313,-0.078 -3.49718,1.04372 -4.1183,2.75956 -0.62111,-1.71584 -2.29516,-2.83759 -4.11829,-2.75956 -0.0607,1.4467 0.63136,2.82631 1.82737,3.64256 0.61287,0.42093 0.9791,1.11912 0.97708,1.86262 v 1.28975 h 2.62795 v -1.28975 c -0.002,-0.74345 0.36402,-1.44166 0.97682,-1.86262 1.19634,-0.81595 1.88853,-2.19576 1.82737,-3.64256 z"
           style="clip-rule:evenodd;fill:#1e1f28;fill-opacity:1;fill-rule:nonzero;stroke-width:0.025359;stroke-linejoin:round;stroke-miterlimit:2"
           id="path3567" />
      </g>
      <g
         id="g40951"
         transform="matrix(0.90018136,0,0,0.90018136,-394.7399,-282.37663)">
        <rect
           style="fill:#1e1f28;fill-opacity:1;stroke:#ffffff;stroke-width:0.648347;stroke-miterlimit:4;stroke-dasharray:none;stroke-opacity:1;paint-order:fill markers stroke;stop-color:#000000"
           id="rect40565"
           width="13.903736"
           height="8.326849"
           x="68.366257"
           y="113.5937"
           rx="1.3184624"
           ry="1.3184624" />
        <path
           d="m 69.89375,120.15344 v -4.79263 h 1.39421 l 1.39423,1.74285 1.39421,-1.74285 h 1.39421 v 4.79263 H 74.0764 v -2.74488 l -1.39421,1.74285 -1.39423,-1.74285 v 2.74488 z m 8.75739,0 -2.09129,-2.30917 h 1.39422 v -2.48346 h 1.39421 v 2.43992 h 1.39422 l -2.0913,2.35271 z"
           id="path3573"
           style="fill:#ffffff;stroke-width:0.056844"
           sodipodi:nodetypes="cccccccccccccccccccccc" />
      </g>
      <g
         id="g3595"
         transform="matrix(0.03647583,0,0,0.03647583,-267.60636,-218.33468)"
         style="display:inline">
        <path
           d="m -1660.2207,-171.14423 -134.34,137.469995 c -45.39,56.21 30.89,49.67 63.59,65.86 11.73,11.99 -44.96,20.84 -33.23,32.84 11.73,11.99 70.93,23.1 82.68,35.090005 11.73,11.99 -24.01,24.71 -12.28,36.7 11.73,11.99 38.86,0.63 43.94,28.31 3.62,19.78 48.89,8.5 71.03,-7.7 11.73,-12 -22.44,-10.87 -10.71,-22.86 29.17,-29.83 56.33,-10.84 66.31,-40.730005 4.93,-14.77 -42.94,-22.77 -31.19,-34.76 33.75,-19.71 150.4,-32.54 95.05,-87.89 l -139.25,-142.329995 c -17.03,-16.35 -45.45,-16.53 -61.6,0 z m 154.31,264.979995 c 0,6.820005 50.25,11.290005 50.25,-1.61 -7.16,-20.72 -44.31,-19.32 -50.25,1.61 z m -226.36,36.240005 c 11.9,10.29 30.28,-2.56 35.79,-16.92 -11.53,-15.320005 -54.69,0.55 -35.79,16.92 z m 220.06,-22.23 c -15.34,13.76 1.72,27.72 16.84,18.83 3.37,-3.42 -0.09,-15.41 -16.84,-18.83 z"
           id="path3589"
           style="fill:#ffffff" />
        <path
           fill="#ffffff"
           d="m -1692.3707,39.625765 c 3.59,2.23 57.89,13.26 71.16,15.46 4.6,0.97 1.34,5.71 -5,8.91 -14.3,3.8 -83.66,-24.37 -66.16,-24.37 z"
           id="path3591"
           style="fill:#1e1f28;fill-opacity:1" />
        <path
           fill="#ffffff"
           d="m -1606.7407,-161.50423 53.15,53.98 c 5.04,5.15 4.97,15.129995 2.15,17.999995 l -26.39,-21.109995 -5.19,31.259995 -22.05,-11.64 -35.31,22.31 -11.69,-47.029995 -18.97,32.819995 h -29 c -11.82,0 -13.21,-15 -2.47,-25.739995 18.76,-20.25 40.29,-40.89 51.99,-52.85 11.76,-12.02 32.25,-11.68 43.78,0 z"
           id="path3593"
           style="fill:#1e1f28;fill-opacity:1" />
      </g>
      <g
         id="g3587"
         transform="matrix(0.87027933,0,0,0.87027933,-683.77431,-586.24214)"
         style="display:inline;stroke:#1e1f28;stroke-width:0.5;stroke-opacity:1">
        <path
           fill="#0acf83"
           d="m 359.21825,429.85855 c 1.33879,0 2.42534,-1.08655 2.42534,-2.42534 v -2.42535 h -2.42534 c -1.33879,0 -2.42535,1.08655 -2.42535,2.42535 0,1.33879 1.08656,2.42534 2.42535,2.42534 z"
           id="path3577"
           style="fill:#ffffff;stroke:#1e1f28;stroke-width:0.5;stroke-opacity:1" />
        <path
           fill="#a259ff"
           d="m 356.7929,422.58251 c 0,-1.33879 1.08656,-2.42535 2.42535,-2.42535 h 2.42534 v 4.8507 h -2.42534 c -1.33879,0 -2.42535,-1.08656 -2.42535,-2.42535 z"
           id="path3579"
           style="fill:#ffffff;stroke:#1e1f28;stroke-width:0.5;stroke-opacity:1" />
        <path
           fill="#f24e1e"
           d="m 356.7929,417.73182 c 0,-1.33879 1.08656,-2.42535 2.42535,-2.42535 h 2.42534 v 4.85069 h -2.42534 c -1.33879,0 -2.42535,-1.08655 -2.42535,-2.42534 z"
           id="path3581"
           style="fill:#ffffff;stroke:#1e1f28;stroke-width:0.5;stroke-opacity:1" />
        <path
           fill="#ff7262"
           d="m 361.64359,415.30647 h 2.42535 c 1.33879,0 2.42535,1.08656 2.42535,2.42535 0,1.33879 -1.08656,2.42534 -2.42535,2.42534 h -2.42535 z"
           id="path3583"
           style="fill:#ffffff;stroke:#1e1f28;stroke-width:0.5;stroke-opacity:1" />
        <path
           fill="#1abcfe"
           d="m 366.49429,422.58251 c 0,1.33879 -1.08656,2.42535 -2.42535,2.42535 -1.33879,0 -2.42535,-1.08656 -2.42535,-2.42535 0,-1.33879 1.08656,-2.42535 2.42535,-2.42535 1.33879,0 2.42535,1.08656 2.42535,2.42535 z"
           id="path3585"
           style="fill:#ffffff;stroke:#1e1f28;stroke-width:0.5;stroke-opacity:1" />
      </g>
    </g>
  </g>
</svg>
