<?xml version="1.0" encoding="UTF-8" standalone="no"?>
<!-- Created with Inkscape (http://www.inkscape.org/) -->

<svg
   width="290.81464"
   height="684.06055"
   viewBox="0 0 76.944703 180.99102"
   version="1.1"
   id="svg24899"
   inkscape:version="1.1.2 (0a00cf5339, 2022-02-04)"
   sodipodi:docname="skills.svg"
   xmlns:inkscape="http://www.inkscape.org/namespaces/inkscape"
   xmlns:sodipodi="http://sodipodi.sourceforge.net/DTD/sodipodi-0.dtd"
   xmlns:xlink="http://www.w3.org/1999/xlink"
   xmlns="http://www.w3.org/2000/svg"
   xmlns:svg="http://www.w3.org/2000/svg">
  <sodipodi:namedview
     id="namedview24901"
     pagecolor="#b2b2b2"
     bordercolor="#666666"
     borderopacity="1.0"
     inkscape:pageshadow="2"
     inkscape:pageopacity="1"
     inkscape:pagecheckerboard="true"
     inkscape:document-units="px"
     showgrid="false"
     units="px"
     inkscape:zoom="0.92473456"
     inkscape:cx="303.33029"
     inkscape:cy="356.31847"
     inkscape:window-width="1920"
     inkscape:window-height="1029"
     inkscape:window-x="0"
     inkscape:window-y="27"
     inkscape:window-maximized="1"
     inkscape:current-layer="layer1"
     inkscape:snap-bbox="false"
     inkscape:snap-global="true"
     inkscape:snap-nodes="false"
     inkscape:snap-others="true"
     inkscape:snap-bbox-midpoints="true"
     inkscape:bbox-nodes="true"
     inkscape:snap-bbox-edge-midpoints="true"
     inkscape:bbox-paths="true"
     inkscape:snap-midpoints="true"
     inkscape:snap-object-midpoints="true"
     inkscape:showpageshadow="false"
     fit-margin-top="0"
     fit-margin-left="0"
     fit-margin-right="0"
     fit-margin-bottom="0" />
  <defs
     id="defs24896">
    <linearGradient
       inkscape:collect="always"
       id="linearGradient1313">
      <stop
         style="stop-color:#ffffff;stop-opacity:0"
         offset="0"
         id="stop1309" />
      <stop
         style="stop-color:#ffffff;stop-opacity:1"
         offset="1"
         id="stop1311" />
    </linearGradient>
    <inkscape:path-effect
       effect="copy_rotate"
       starting_point="-401.49755,-7.1529608"
       origin="-409.43505,-7.1529608"
       id="path-effect50716"
       is_visible="true"
       lpeversion="1"
       method="normal"
       num_copies="7"
       starting_angle="0"
       rotation_angle="51.428571"
       gap="-0.01"
       copies_to_360="true"
       mirror_copies="false"
       split_items="true" />
    <inkscape:path-effect
       effect="copy_rotate"
       starting_point="-345.18704,-19.759403"
       origin="-353.12454,-19.759403"
       id="path-effect50157"
       is_visible="true"
       lpeversion="1"
       method="normal"
       num_copies="7"
       starting_angle="0"
       rotation_angle="51.428571"
       gap="-0.01"
       copies_to_360="true"
       mirror_copies="false"
       split_items="true" />
    <inkscape:path-effect
       effect="copy_rotate"
       starting_point="-4.844571,-7.5309248"
       origin="-29.71704,-7.5309248"
       id="path-effect43004"
       is_visible="true"
       lpeversion="1"
       method="normal"
       num_copies="4"
       starting_angle="0"
       rotation_angle="90"
       gap="0"
       copies_to_360="true"
       mirror_copies="false"
       split_items="true" />
    <inkscape:path-effect
       effect="copy_rotate"
       starting_point="99.2,0"
       origin="-0.8,0"
       id="path-effect42788"
       is_visible="true"
       lpeversion="1"
       method="fuse_paths"
       num_copies="4"
       starting_angle="0"
       rotation_angle="90"
       gap="-0.01"
       copies_to_360="true"
       mirror_copies="false"
       split_items="true" />
    <filter
       id="logosZod0-5"
       width="1.0519999"
       height="1.0650001"
       x="-0.022"
       y="-0.027999999"
       filterUnits="objectBoundingBox">
      <feOffset
         dx="1"
         dy="1"
         in="SourceAlpha"
         result="shadowOffsetOuter1"
         id="feOffset152625-6" />
      <feGaussianBlur
         in="shadowOffsetOuter1"
         result="shadowBlurOuter1"
         stdDeviation="2"
         id="feGaussianBlur152627-6" />
      <feColorMatrix
         in="shadowBlurOuter1"
         values="0 0 0 0 0 0 0 0 0 0 0 0 0 0 0 0 0 0 0.36 0"
         id="feColorMatrix152629-4" />
    </filter>
    <inkscape:path-effect
       effect="copy_rotate"
       starting_point="-345.18704,-19.759403"
       origin="-353.12454,-19.759403"
       id="path-effect50157-8"
       is_visible="true"
       lpeversion="1"
       method="normal"
       num_copies="7"
       starting_angle="0"
       rotation_angle="51.428571"
       gap="-0.01"
       copies_to_360="true"
       mirror_copies="false"
       split_items="true" />
    <linearGradient
       inkscape:collect="always"
       xlink:href="#linearGradient1313"
       id="linearGradient5030"
       x1="520.55426"
       y1="371.97406"
       x2="598.64777"
       y2="373.93185"
       gradientUnits="userSpaceOnUse"
       gradientTransform="translate(-407.68166,-1.6669229)" />
  </defs>
  <g
     inkscape:label="Calque 1"
     inkscape:groupmode="layer"
     id="layer1"
     transform="translate(391.53943,228.51667)">
    <path
       id="path1022"
       style="fill:none;stroke:url(#linearGradient5030);stroke-width:1.5;stroke-linecap:round;stroke-miterlimit:4;stroke-dasharray:3, 9;stroke-dashoffset:0;stroke-opacity:1;paint-order:fill markers stroke;stop-color:#000000"
       d="m 121.51758,715.37109 c 130.99636,-58.97168 220.84211,-190.5469 220.875,-341.625 -0.009,-151.10081 -89.85973,-282.705882 -220.875,-341.685543"
       transform="matrix(0.26458333,0,0,0.26458333,-423.49252,-236.99936)"
       sodipodi:nodetypes="ccc" />
    <use
       fill="#3068b7"
       href="#logosZod1"
       id="use3423"
       x="0"
       y="0"
       width="100%"
       height="100%"
       transform="matrix(0.06191665,0,0,0.06191665,-383.85123,-20.774727)" />
    <g
       id="g1355"
       transform="matrix(0.66596387,0,0,0.66596387,-125.84158,-60.078147)">
      <ellipse
         style="display:inline;fill:none;stroke:#ffffff;stroke-width:0.396875;stroke-linecap:square;stroke-linejoin:round;stroke-miterlimit:4;stroke-dasharray:1.01123, 3.03369;stroke-dashoffset:0;paint-order:fill markers stroke;stop-color:#000000"
         id="ellipse52672"
         cx="-340.72806"
         cy="71.780281"
         rx="25.115568"
         ry="25.115232"
         transform="rotate(15)" />
      <path
         fill="#00d8ff"
         d="m -341.451,-21.87118 a 12.985584,12.985584 0 0 0 -0.62394,-0.19656 c 0.0353,-0.14396 0.0676,-0.286017 0.0964,-0.425649 0.47234,-2.292944 0.16354,-4.140176 -0.89117,-4.748395 -1.01128,-0.583034 -2.66511,0.02492 -4.3354,1.478561 a 12.965897,12.965897 0 0 0 -0.48273,0.442821 11.802502,11.802502 0 0 0 -0.32114,-0.296596 c -1.75053,-1.554286 -3.50517,-2.209354 -4.55878,-1.59941 -1.01036,0.584874 -1.30953,2.321429 -0.88427,4.494495 a 12.946511,12.946511 0 0 0 0.14335,0.642118 c -0.24837,0.0706 -0.48803,0.145793 -0.7174,0.22564 -2.05237,0.715583 -3.36305,1.836962 -3.36305,3.000122 0,1.201331 1.40709,2.406291 3.5447,3.136934 a 11.019081,11.019081 0 0 0 0.52408,0.163943 12.680954,12.680954 0 0 0 -0.15211,0.69194 c -0.40543,2.135381 -0.0888,3.830878 0.91881,4.412032 1.04073,0.6001775 2.7875,-0.01625 4.48826,-1.50346 a 11.02264,11.02264 0 0 0 0.40453,-0.372785 12.726161,12.726161 0 0 0 0.52399,0.478115 c 1.64756,1.417659 3.27468,1.9901345 4.28133,1.407355 1.03975,-0.601908 1.3777,-2.42331 0.93895,-4.639324 a 10.980918,10.980918 0 0 0 -0.11617,-0.518092 c 0.12282,-0.03637 0.24308,-0.0738 0.36045,-0.112836 2.22229,-0.736252 3.66818,-1.926612 3.66818,-3.143996 0,-1.167389 -1.35299,-2.296341 -3.44663,-3.01708 z m -0.48197,5.37507 c -0.10603,0.03497 -0.21475,0.06887 -0.32562,0.101766 -0.24532,-0.77668 -0.57637,-1.602509 -0.98157,-2.455827 0.38665,-0.832942 0.70498,-1.648241 0.94342,-2.419854 0.19843,0.05728 0.39072,0.117892 0.57625,0.181687 1.79387,0.617568 2.88804,1.530576 2.88804,2.234091 0,0.74934 -1.18172,1.722148 -3.10052,2.357991 z m -0.79614,1.5776 c 0.19393,0.979841 0.22164,1.865775 0.0933,2.558413 -0.11537,0.622369 -0.34758,1.037249 -0.63472,1.203455 -0.61084,0.353623 -1.91729,-0.106028 -3.32624,-1.318469 a 11.867623,11.867623 0 0 1 -0.48743,-0.444479 c 0.54625,-0.597386 1.09214,-1.291835 1.62491,-2.063141 0.93716,-0.08326 1.8225,-0.219146 2.62538,-0.404723 a 10.159635,10.159635 0 0 1 0.10496,0.468944 z m -8.05138,3.700752 c -0.59683,0.210739 -1.07222,0.2168 -1.3596,0.05115 -0.61145,-0.352629 -0.86564,-1.714054 -0.51892,-3.540159 a 11.882541,11.882541 0 0 1 0.14152,-0.643569 c 0.79405,0.175572 1.67294,0.301975 2.61228,0.37816 0.53641,0.754714 1.09804,1.448411 1.66406,2.055853 a 10.197345,10.197345 0 0 1 -0.3693,0.340142 c -0.75213,0.657423 -1.5058,1.123869 -2.17004,1.358454 z m -2.79612,-5.282974 c -0.94523,-0.32311 -1.72586,-0.742985 -2.26091,-1.201179 -0.48084,-0.411702 -0.72353,-0.820526 -0.72353,-1.152189 0,-0.705886 1.05233,-1.606214 2.80749,-2.21812 0.213,-0.0742 0.43591,-0.144175 0.66726,-0.209967 0.24261,0.789024 0.5608,1.614007 0.94478,2.448241 -0.38896,0.846565 -0.71171,1.684729 -0.95668,2.483062 a 10.201131,10.201131 0 0 1 -0.47841,-0.149881 z m 0.93729,-6.380348 c -0.3643,-1.861759 -0.12243,-3.266192 0.4865,-3.618675 0.64849,-0.375426 2.08253,0.159867 3.59402,1.50193 a 10.928063,10.928063 0 0 1 0.29084,0.268467 c -0.56321,0.604785 -1.1197,1.293313 -1.65134,2.043565 -0.9117,0.08446 -1.7844,0.220211 -2.58675,0.402018 a 12.141434,12.141434 0 0 1 -0.13336,-0.597219 z m 8.36178,2.064812 a 26.336148,26.336148 0 0 0 -0.58951,-0.969483 c 0.61851,0.07833 1.21109,0.182085 1.76759,0.308942 -0.16699,0.535522 -0.37527,1.095323 -0.62041,1.669297 a 28.861557,28.861557 0 0 0 -0.55767,-1.008756 z m -3.40991,-3.321259 c 0.38192,0.413827 0.76448,0.875803 1.14074,1.377089 a 24.385547,24.385547 0 0 0 -2.29113,-4.66e-4 c 0.37666,-0.496651 0.76246,-0.958021 1.15039,-1.376623 z m -3.43182,3.32692 a 24.470887,24.470887 0 0 0 -0.54725,1.002428 c -0.24108,-0.571948 -0.44745,-1.134333 -0.61591,-1.677421 0.55307,-0.123754 1.14286,-0.224888 1.75742,-0.30167 a 24.346475,24.346475 0 0 0 -0.59426,0.976584 z m 0.61192,4.948595 c -0.63495,-0.071 -1.2336,-0.166814 -1.78653,-0.287217 0.1711,-0.552772 0.38203,-1.127112 0.62834,-1.711315 a 24.320957,24.320957 0 0 0 0.54953,1.003019 c 0.19637,0.339235 0.39981,0.67151 0.60866,0.995513 z m 2.84275,2.349665 c -0.39253,-0.423444 -0.78402,-0.891941 -1.16634,-1.395786 0.37119,0.01426 0.74956,0.02198 1.13416,0.02198 0.39513,0 0.7857,-0.008 1.17013,-0.02584 -0.37747,0.512937 -0.75859,0.982106 -1.13795,1.399803 z m 3.95255,-4.378037 c 0.25911,0.590638 0.47749,1.161947 0.65091,1.705268 -0.56202,0.128282 -1.16885,0.231554 -1.80825,0.308271 a 28.957421,28.957421 0 0 0 0.59509,-0.986368 26.306089,26.306089 0 0 0 0.56225,-1.027171 z m -1.27955,0.61343 a 27.150693,27.150693 0 0 1 -0.92995,1.500437 24.942862,24.942862 0 0 1 -1.77523,0.06234 c -0.60327,0 -1.19005,-0.01838 -1.7551,-0.05542 a 23.489149,23.489149 0 0 1 -0.9475,-1.502773 h 8e-5 a 23.277735,23.277735 0 0 1 -0.82711,-1.561942 23.494904,23.494904 0 0 1 0.82461,-1.562666 l -7e-5,8e-5 a 23.270767,23.270767 0 0 1 0.93994,-1.496361 c 0.57646,-0.04369 1.16762,-0.06634 1.76507,-0.06634 h 8e-5 c 0.60018,0 1.1921,0.02304 1.76841,0.06687 a 24.939608,24.939608 0 0 1 0.93404,1.491365 27.145543,27.145543 0 0 1 0.83567,1.555326 24.948314,24.948314 0 0 1 -0.83294,1.569101 z m 1.70828,-9.247498 c 0.6491,0.37439 0.90156,1.884066 0.49372,3.86381 -0.0261,0.126151 -0.0553,0.254953 -0.0871,0.385407 -0.80431,-0.185564 -1.67762,-0.323698 -2.59197,-0.409485 -0.53261,-0.758518 -1.08457,-1.448112 -1.63862,-2.045105 a 12.175282,12.175282 0 0 1 0.44586,-0.408891 c 1.43114,-1.245398 2.76869,-1.737171 3.3781,-1.385736 z m -4.41346,5.939352 c 0.95599,0 1.731,0.77501 1.731,1.731 0,0.955983 -0.77501,1.731019 -1.731,1.731019 -0.95598,0 -1.73102,-0.775036 -1.73102,-1.731019 0,-0.95599 0.77504,-1.731 1.73102,-1.731 z"
         id="path3411"
         style="fill:#ffffff;stroke-width:0.0757219" />
      <g
         id="g1114"
         transform="matrix(0.82561912,0,0,0.82561912,-12.235933,-12.560379)">
        <path
           fill="#18253f"
           d="m -380.20954,-19.999407 h 8.43788 l 2.47251,2.581367 -6.9959,7.8357382 -6.50626,-7.8357382 z"
           id="path3415"
           style="fill:#ffffff;stroke-width:0.0619166" />
        <path
           fill="#274d82"
           d="m -374.59921,-11.433052 h -3.30722 l -1.49367,-1.828647 4.23287,-1.24e-4 1.2e-4,-0.25943 h 2.41958 z"
           id="path3417"
           style="fill:#cccccc;stroke-width:0.0619166" />
        <path
           fill="#274d82"
           d="m -370.00914,-18.154229 -9.1254,5.26855 -1.19041,-1.489219 7.06462,-4.078883 -0.12977,-0.22482 1.88171,-1.086389 z m -4.88919,-1.842577 -6.85207,3.95604 -1.06565,-1.330279 4.58772,-2.648732 z"
           id="path3419"
           style="fill:#cccccc;stroke-width:0.0619166" />
      </g>
      <use
         filter="url(#logosZod0)"
         href="#logosZod1"
         id="use3421"
         x="0"
         y="0"
         width="100%"
         height="100%"
         style="filter:url(#logosZod0-5)"
         transform="matrix(0.0474831,0,0,0.0474831,-328.29618,-29.754753)" />
      <g
         id="g2259"
         transform="matrix(0.66525914,0,0,0.66525914,-91.434451,-54.50318)">
        <path
           fill="#99425b"
           d="m -349.50907,75.862054 c 0,-0.779503 -0.61623,-1.411473 -1.37635,-1.411473 -0.0489,0 -0.0972,0.002 -0.14465,0.007 l 1.89042,-5.717903 h -8.03358 l 1.88778,5.7129 a 1.3788535,1.4140548 0 0 0 -0.0837,-0.004 c -0.76011,0 -1.37634,0.63185 -1.37634,1.411463 0,0.6301 0.40267,1.163581 0.95841,1.345071 -0.29351,0.521397 -0.66287,0.991042 -1.08221,1.396813 -0.57024,0.551643 -1.22282,0.969985 -1.92866,1.227714 -0.84036,-0.442731 -1.23719,-1.427327 -0.87913,-2.290589 0.0405,-0.09757 0.0817,-0.19633 0.12118,-0.294709 0.60879,-0.145654 1.06252,-0.705424 1.06252,-1.374185 0,-0.779573 -0.61624,-1.411492 -1.37641,-1.411492 -0.76015,0 -1.37634,0.631919 -1.37634,1.411492 0,0.478021 0.23188,0.900292 0.58643,1.155604 -0.34066,0.795408 -0.84142,1.627905 -0.99743,2.592729 -0.187,1.15625 -6.3e-4,2.383656 0.97453,3.076816 2.2711,1.614258 4.73635,-1.00071 7.33562,-1.658092 0.94201,-0.238185 1.97607,-0.199832 2.80602,-0.692732 0.62325,-0.370202 1.03416,-0.983741 1.15073,-1.672495 0.11523,-0.680438 -0.0527,-1.357912 -0.43894,-1.907247 a 1.3704707,1.405458 0 0 0 0.32011,-0.904748"
           id="path3427"
           style="fill:#1e1f28;fill-opacity:1;stroke:none;stroke-width:0.0530564" />
        <path
           fill="#ffffff"
           d="m -349.57948,78.54632 c -0.0996,0.57386 -0.45403,1.07508 -0.97232,1.37532 -0.48317,0.27981 -1.06214,0.36335 -1.67519,0.45172 -0.3284,0.0474 -0.66798,0.0963 -0.9997,0.17813 -0.87715,0.21631 -1.72676,0.63832 -2.54833,1.04643 -1.64426,0.81671 -3.06423,1.52194 -4.40315,0.59397 -0.98078,-0.67971 -0.9355,-1.93737 -0.82126,-2.62653 0.10599,-0.63853 0.39223,-1.22658 0.66905,-1.79523 a 41.074056,41.074056 0 0 0 0.14028,-0.2905 1.673288,1.673288 0 0 0 0.43532,0.10926 c -0.28183,0.93009 0.16148,1.94139 1.09159,2.41926 l 0.12736,0.0655 0.13478,-0.0481 c 0.73539,-0.26193 1.41306,-0.68215 2.0141,-1.24925 0.38851,-0.36654 0.72256,-0.77206 0.99711,-1.20538 a 1.6911794,1.6911794 0 0 0 0.25219,0.019 c 0.8538,0 1.5608,-0.63826 1.6702,-1.46261 0.34947,-0.0121 0.72066,-0.0121 1.07215,-10e-5 0.10927,0.82445 0.8164,1.46276 1.67018,1.46276 0.35701,0 0.68812,-0.11185 0.96094,-0.30194 0.18939,0.38768 0.26006,0.82388 0.18463,1.25839 z m -9.98724,-3.6558 c 0.56449,0 1.02369,0.45926 1.02369,1.02375 a 1.0172857,1.0172857 0 0 1 -0.16166,0.55102 c -0.1701,0.26538 -0.45941,0.44728 -0.79172,0.46996 -0.0233,0.002 -0.0467,0.003 -0.0703,0.003 -0.12581,0 -0.24629,-0.0229 -0.35771,-0.0646 a 1.0295055,1.0295055 0 0 1 -0.53133,-0.45253 1.0170278,1.0170278 0 0 1 -0.1346,-0.50653 c 0,-0.56449 0.45926,-1.02374 1.02373,-1.02374 z m 3.40552,1.01399 c 0,-0.51287 0.37912,-0.93871 0.87172,-1.01233 0.0496,-0.007 0.1003,-0.0121 0.152,-0.0121 0.32819,0 0.62038,0.15545 0.80775,0.39635 a 1.0250197,1.0250197 0 0 1 0.11943,0.19412 1.0172857,1.0172857 0 0 1 0.0963,0.4332 c 0,0.0819 -0.0103,0.16131 -0.0281,0.23769 -0.0998,0.41764 -0.45589,0.7369 -0.8923,0.78083 -0.0339,0.003 -0.0684,0.005 -0.10323,0.005 a 1.0174919,1.0174919 0 0 1 -0.55478,-0.16407 c -0.28183,-0.18258 -0.46889,-0.49962 -0.46889,-0.85967 z m 4.27255,-1.21733 a 1.6871061,1.6871061 0 0 0 -0.46358,0.77943 15.715181,15.715181 0 0 0 -1.15795,0 c -0.0867,-0.32131 -0.26616,-0.6048 -0.50771,-0.82012 l 1.05931,-2.14191 1.06993,2.18265 z m -4.563,-5.28582 h 6.98319 l -1.64937,4.86446 a 1.6746285,1.6746285 0 0 0 -0.20887,0.0648 l -1.62931,-3.32374 -1.63394,3.30389 a 1.6758144,1.6758144 0 0 0 -0.21791,-0.0588 z m 6.75029,6.5032 c 0,0.10255 -0.0155,0.20171 -0.0434,0.29529 a 1.0277524,1.0277524 0 0 1 -0.39459,0.54371 1.0178013,1.0178013 0 0 1 -0.58558,0.1847 c -0.47265,0 -0.87136,-0.32211 -0.98861,-0.75831 a 1.0210496,1.0210496 0 0 1 -0.0352,-0.26539 c 0,-0.13994 0.0283,-0.27336 0.0793,-0.39495 a 1.0233698,1.0233698 0 0 1 0.0969,-0.17746 c 0.18423,-0.27194 0.49508,-0.45126 0.84754,-0.45126 0.0324,0 0.0643,0.002 0.0958,0.005 0.51973,0.0484 0.92794,0.48683 0.92794,1.01904 z m 0.66167,0 c 0,-0.82279 -0.59284,-1.50931 -1.37366,-1.65596 l 1.86782,-5.50896 h -8.82894 l 1.87072,5.5201 c -0.75372,0.16769 -1.31907,0.84127 -1.31907,1.64477 0,0.60337 0.31885,1.1333 0.7967,1.43111 -0.22985,0.34248 -0.50239,0.66472 -0.81476,0.95944 -0.49538,0.46729 -1.04723,0.82173 -1.64219,1.05492 -0.59928,-0.37644 -0.85261,-1.08637 -0.58955,-1.70478 l 0.0207,-0.0484 0.0386,-0.091 c 0.65822,-0.22959 1.1319,-0.85605 1.1319,-1.5915 0,-0.92934 -0.75603,-1.68536 -1.68531,-1.68536 -0.92931,0 -1.68534,0.75602 -1.68534,1.68536 0,0.46904 0.19283,0.89379 0.50311,1.19965 a 28.49895,28.49895 0 0 1 -0.17621,0.36659 c -0.28375,0.58268 -0.60529,1.24311 -0.72691,1.97656 -0.24152,1.45658 0.14804,2.62097 1.09704,3.27863 0.57583,0.39907 1.16064,0.55602 1.7491,0.55602 1.10803,0 2.22894,-0.55669 3.32527,-1.10128 0.78955,-0.39211 1.606,-0.79763 2.41246,-0.99656 0.30008,-0.0739 0.60883,-0.11857 0.93572,-0.16562 0.64827,-0.0936 1.31856,-0.19021 1.91232,-0.53407 0.68828,-0.39866 1.15938,-1.0674 1.29262,-1.83461 0.11443,-0.65869 -0.0233,-1.31839 -0.35892,-1.87794 a 1.6750926,1.6750926 0 0 0 0.24683,-0.87709 z"
           id="path3429"
           style="fill:#ffffff;stroke:none;stroke-width:0.0515603"
           inkscape:transform-center-x="-4.837984"
           inkscape:transform-center-y="3.1045344" />
      </g>
      <g
         id="g3437"
         transform="matrix(0.62745312,0,0,0.62745312,-577.90732,-437.23095)">
        <path
           style="fill:#1e1f28;fill-opacity:1;stroke:none;stroke-width:0.264583px;stroke-linecap:butt;stroke-linejoin:miter;stroke-opacity:1"
           d="m 322.7771,651.5237 h 12.39954 l -2.19655,10.96893 -6.61985,2.19718 -5.73569,-2.19718 z"
           id="path3433" />
        <path
           fill="#444444"
           d="m 326.36025,664.68981 6.61983,-2.19719 2.19656,-10.96893 h -12.39956 l -0.47163,2.44748 h 9.93702 l -0.30941,1.56265 h -9.95208 l -0.48669,2.44747 h 9.93764 l -0.54582,2.80151 -4.01018,1.31174 -3.46492,-1.31174 0.23646,-1.22374 h -2.44746 l -0.57545,2.93356 5.73569,2.19719"
           id="path3435"
           style="fill:#ffffff;stroke-width:0.0568441" />
      </g>
      <g
         id="g1547"
         transform="matrix(0.7668875,0,0,0.7668875,44.010569,73.434808)">
        <circle
           style="fill:#1e1f28;fill-opacity:1;stroke:none;stroke-width:0.0634999;stroke-linecap:square;stroke-linejoin:round;stroke-miterlimit:4;stroke-dasharray:0.126999, 0.381;stroke-dashoffset:0;stroke-opacity:1;paint-order:fill markers stroke;stop-color:#000000"
           id="path47974"
           cx="-449.69223"
           cy="308.13873"
           r="7.9375"
           transform="rotate(45)" />
        <path
           fill="url(#logosTailwindcssIcon0)"
           d="m -535.86741,-104.45906 c -1.94026,0 -3.15297,0.97016 -3.63802,2.91041 0.72761,-0.97015 1.57646,-1.33396 2.54661,-1.0914 0.5535,0.13835 0.94913,0.53997 1.38706,0.98442 0.71339,0.72414 1.53899,1.5622 3.34237,1.5622 1.94026,0 3.15297,-0.97017 3.63802,-2.91042 -0.72761,0.97015 -1.57646,1.33396 -2.54661,1.0914 -0.5535,-0.13836 -0.94913,-0.53996 -1.38706,-0.98443 -0.71339,-0.72412 -1.53899,-1.56218 -3.34237,-1.56218 z m -3.63802,4.36563 c -1.94026,0 -3.15297,0.970147 -3.63802,2.910407 0.7276,-0.97016 1.57645,-1.33396 2.54661,-1.09141 0.55349,0.13836 0.94913,0.53996 1.38706,0.98443 0.71338,0.72414 1.53899,1.56219 3.34237,1.56219 1.94025,0 3.15297,-0.97016 3.63802,-2.91042 -0.7276,0.97016 -1.57645,1.33396 -2.54662,1.09141 -0.55348,-0.13836 -0.94912,-0.53996 -1.38704,-0.98443 -0.7134,-0.72414 -1.539,-1.562177 -3.34238,-1.562177 z"
           id="path3441"
           style="fill:#ffffff;stroke-width:0.0568441" />
      </g>
      <g
         id="g1923"
         transform="matrix(0.7668875,0,0,0.7668875,-124.51399,-142.32131)">
        <circle
           style="display:inline;fill:#1e1f28;fill-opacity:1;stroke:none;stroke-width:0.348736;stroke-miterlimit:4;stroke-dasharray:none;stroke-dashoffset:0;paint-order:fill markers stroke;stop-color:#000000"
           id="circle3445"
           cx="-290.07092"
           cy="193.3013"
           r="7.9375" />
        <g
           id="g3459"
           transform="matrix(0.06201172,0,0,0.06201172,-298.00842,185.3638)"
           style="fill:#ffffff">
          <path
             fill="url(#logosCypressIcon0)"
             d="m 141.651,223.943 -4.335,10.526 c -0.861,2.084 -2.83,3.495 -5.046,3.59 -1.464,0.056 -2.94,0.097 -4.431,0.097 C 76.815,238.129 31.67,202.043 20.484,152.32 l -17.369,3.933 c 6.277,27.89 22.032,53.204 44.365,71.295 22.592,18.296 51.052,28.397 80.167,28.452 h 0.26 c 1.71,0 3.406,-0.041 5.101,-0.11 9.136,-0.383 17.3,-6.126 20.788,-14.637 l 5.661,-13.76 z"
             id="path3447"
             style="fill:#ffffff" />
          <path
             fill="url(#logosCypressIcon1)"
             d="M 4.54,161.914 A 128.496,128.496 0 0 1 0,128.007 C 0,75.516 32.863,27.52 81.782,8.593 l 6.414,16.652 C 46.088,41.54 17.806,82.835 17.806,128.007 a 110.66,110.66 0 0 0 3.898,29.178 z"
             id="path3449"
             style="fill:#ffffff" />
          <path
             fill="url(#logosCypressIcon2)"
             d="m 225.693,77.298 c -19.037,-36.662 -56.509,-59.44 -97.769,-59.44 -14.62,0 -28.828,2.823 -42.204,8.374 L 78.897,9.744 C 94.446,3.29 110.939,0 127.924,0 c 47.934,0 91.45,26.451 113.564,69.047 l -15.795,8.25 z"
             id="path3451"
             style="fill:#ffffff" />
          <path
             fill="#09293f"
             d="m 89.727,101.597 c 10.326,0 18.737,5.523 23.058,15.158 l 0.342,0.754 17.34,-5.907 -0.369,-0.891 c -6.715,-16.405 -22.182,-26.602 -40.37,-26.602 -12.787,0 -23.181,4.112 -31.77,12.554 -8.533,8.388 -12.855,18.94 -12.855,31.371 0,12.321 4.322,22.82 12.855,31.207 8.589,8.443 18.983,12.554 31.77,12.554 18.188,0 33.655,-10.197 40.37,-26.588 l 0.37,-0.89 -17.368,-5.922 -0.329,0.782 c -3.87,9.47 -12.486,15.13 -23.044,15.13 -7.193,0 -13.265,-2.521 -18.08,-7.483 -4.867,-5.03 -7.329,-11.348 -7.329,-18.776 0,-7.483 2.407,-13.678 7.33,-18.94 4.8,-4.99 10.886,-7.511 18.08,-7.511 z"
             id="path3453"
             style="fill:#ffffff" />
          <path
             fill="#09293f"
             d="m 198.341,85.726 -24.712,62.729 -24.877,-62.729 h -20.35 l 34.888,85.617 -24.822,60.385 17.792,3.55 61.309,-149.552 z"
             id="path3455"
             style="fill:#ffffff" />
          <path
             fill="url(#logosCypressIcon3)"
             d="M 241.488,69.047 C 250.491,86.585 256,107.185 256,128.27 c 0,49.2 -27.671,91.916 -68.253,113.343 l -8.768,-15.548 c 35.19,-18.352 59.227,-55.258 59.227,-97.795 0,-18.46 -4.513,-35.691 -12.513,-50.973 l 15.795,-8.251 z"
             id="path3457"
             style="fill:#ffffff" />
        </g>
      </g>
      <g
         id="g53165"
         transform="matrix(0.62745338,0,0,0.62745338,-167.04804,-113.07111)">
        <rect
           style="fill:#ffffff;fill-opacity:1;stroke:none;stroke-width:0.799034;stroke-linecap:square;stroke-linejoin:round;stroke-miterlimit:4;stroke-dasharray:1.99757, 5.99273;stroke-dashoffset:0;stroke-opacity:1;paint-order:fill markers stroke;stop-color:#000000"
           id="rect52972"
           width="14.552084"
           height="14.552084"
           x="-312.73236"
           y="105.79962"
           rx="3.1659226"
           ry="3.1659226" />
        <path
           d="m -308.90608,117.96039 1.11357,-0.67395 c 0.21487,0.38092 0.4103,0.70322 0.8791,0.70322 0.44935,0 0.73272,-0.17576 0.73272,-0.85948 v -4.64973 h 1.3675 v 4.66906 c 0,1.41638 -0.83027,2.06111 -2.04162,2.06111 -1.09396,0 -1.72897,-0.56657 -2.05133,-1.25035 m 4.83573,-0.14643 1.11346,-0.64467 c 0.29314,0.47869 0.67411,0.83033 1.34806,0.83033 0.56668,0 0.92798,-0.28331 0.92798,-0.67406 0,-0.46885 -0.3712,-0.63495 -0.99637,-0.90837 l -0.3418,-0.14666 c -0.98664,-0.4199 -1.64109,-0.94742 -1.64109,-2.06099 0,-1.0257 0.78144,-1.80719 2.0025,-1.80719 0.86938,0 1.49455,0.30287 1.94384,1.09408 l -1.0648,0.68383 c -0.23448,-0.42002 -0.48835,-0.58606 -0.87909,-0.58606 -0.40053,0 -0.6545,0.25398 -0.6545,0.58606 0,0.41025 0.25397,0.5764 0.84004,0.83038 l 0.34186,0.14649 c 1.16246,0.49824 1.8169,1.00614 1.8169,2.14893 0,1.2309 -0.96703,1.90485 -2.2662,1.90485 -1.26984,0 -2.09038,-0.60562 -2.49085,-1.39689"
           id="path3467"
           style="fill:#1e1f28;fill-opacity:1;stroke-width:0.0568441" />
      </g>
      <g
         id="g53519"
         transform="matrix(0.62745338,0,0,0.62745338,-162.56753,-115.30789)">
        <rect
           style="fill:#ffffff;fill-opacity:1;stroke:none;stroke-width:0.799034;stroke-linecap:square;stroke-linejoin:round;stroke-miterlimit:4;stroke-dasharray:1.99757, 5.99273;stroke-dashoffset:0;stroke-opacity:1;paint-order:fill markers stroke;stop-color:#000000"
           id="rect53515"
           width="14.552084"
           height="14.552084"
           x="-284.79996"
           y="108.82722"
           rx="3.1659234"
           ry="3.1659234" />
        <path
           fill="#ffffff"
           d="m -276.24389,120.22305 v 1.57003 c 0.25534,0.13086 0.55735,0.22897 0.90598,0.2944 0.34862,0.0654 0.71606,0.0981 1.10238,0.0981 0.37642,0 0.73408,-0.036 1.07287,-0.10795 0.33879,-0.072 0.63592,-0.19054 0.8912,-0.35567 0.25535,-0.16519 0.45748,-0.38108 0.60647,-0.64768 0.14893,-0.26654 0.2234,-0.59607 0.2234,-0.98858 0,-0.28456 -0.0426,-0.53399 -0.12767,-0.74824 a 1.7478418,1.7478418 0 0 0 -0.3683,-0.57156 c -0.16035,-0.16684 -0.35271,-0.31646 -0.57691,-0.44896 -0.22425,-0.13245 -0.47715,-0.25756 -0.75869,-0.37528 -0.20623,-0.0851 -0.39115,-0.16764 -0.55486,-0.24779 -0.16365,-0.0802 -0.30281,-0.16189 -0.41735,-0.24534 -0.1146,-0.0834 -0.20299,-0.17172 -0.26518,-0.26495 -0.0622,-0.0932 -0.0933,-0.19867 -0.0933,-0.31645 0,-0.10794 0.0278,-0.2052 0.0834,-0.29189 0.0557,-0.0867 0.13427,-0.1611 0.23573,-0.22323 0.10147,-0.0622 0.22584,-0.11039 0.37318,-0.14478 0.14729,-0.0343 0.311,-0.0515 0.49102,-0.0515 0.13097,0 0.26927,0.01 0.41491,0.0294 0.14569,0.0196 0.29218,0.0499 0.43952,0.0908 a 3.0507649,3.0507649 0 0 1 0.42962,0.15456 2.3703981,2.3703981 0 0 1 0.38546,0.21584 v -1.46697 c -0.23897,-0.0916 -0.50005,-0.15945 -0.78319,-0.20362 -0.28314,-0.0442 -0.60807,-0.0662 -0.97471,-0.0662 -0.37318,0 -0.72669,0.0401 -1.0606,0.12022 -0.3339,0.0801 -0.62773,0.20521 -0.88142,0.37529 -0.2537,0.17013 -0.45419,0.38682 -0.60153,0.65012 -0.14728,0.2633 -0.22095,0.57811 -0.22095,0.94447 0,0.46771 0.13501,0.86676 0.40513,1.19713 0.27007,0.33032 0.68003,0.61 1.22999,0.83896 a 16.567662,16.567662 0 0 1 0.60397,0.26007 c 0.18662,0.085 0.34783,0.17331 0.48369,0.26489 0.13585,0.0916 0.24306,0.19134 0.32162,0.29928 0.0786,0.10795 0.11784,0.23062 0.11784,0.36801 a 0.56281324,0.56281324 0 0 1 -0.0737,0.28212 c -0.0491,0.0866 -0.12358,0.16189 -0.2234,0.22567 -0.0998,0.0638 -0.22425,0.11363 -0.37318,0.14961 -0.14893,0.036 -0.32327,0.054 -0.52297,0.054 -0.34044,0 -0.67758,-0.0597 -1.01148,-0.17912 -0.33396,-0.11937 -0.6433,-0.29843 -0.92809,-0.53723 z m -2.61688,-3.90707 h 2.01899 v -1.29275 h -5.62756 v 1.29275 h 2.00915 v 5.75592 h 1.59942 z"
           id="path3477"
           style="fill:#000000;stroke-width:0.0568441" />
      </g>
    </g>
    <g
       id="g3539"
       transform="translate(-794.52372,-484.41596)" />
    <g
       id="g1322"
       transform="matrix(0.66879106,0,0,0.66879106,-125.08474,-71.992386)">
      <ellipse
         style="display:inline;fill:none;stroke:#ffffff;stroke-width:0.396875;stroke-linecap:square;stroke-linejoin:round;stroke-miterlimit:4;stroke-dasharray:1.187, 3.56098;stroke-dashoffset:0;paint-order:fill markers stroke;stop-color:#000000"
         id="circle3563"
         cx="-347.9996"
         cy="-197.41988"
         rx="29.480944"
         ry="29.480549" />
      <g
         id="g3561"
         transform="matrix(1.6245338,0,0,1.6245338,-958.42848,-819.89269)"
         style="display:inline">
        <path
           fill="#6c31e3"
           d="m 379.31273,389.34353 c -0.0894,0.65653 -0.73211,1.16866 -1.3749,0.99339 -0.90739,-0.25095 -1.95922,-0.64279 -2.91127,-0.71497 l -1.45394,-0.11001 a 0.95896069,0.95896069 0 0 1 -0.61869,-0.2887 l -2.50915,-2.5779 a 0.95896069,0.95896069 0 0 1 -0.18559,-1.06556 c 0,0 1.55013,-3.4028 1.60857,-3.58153 0.0584,-0.17527 0.26814,-1.71859 0.39184,-2.55039 a 0.96241632,0.96241632 0 0 1 0.30935,-0.57057 l 2.96288,-2.66381 a 0.96241632,0.96241632 0 0 1 1.39546,0.12029 l 2.492,3.16221 a 1.0208559,1.0208559 0 0 1 0.21307,0.62901 c 0,0.59809 0.0516,1.8286 0.38156,2.62257 a 10.414673,10.414673 0 0 0 1.22364,2.01078 0.48120816,0.48120816 0 0 1 0.0378,0.53961 c -0.22003,0.37124 -0.64962,1.07929 -1.26144,1.99014 a 4.9255052,4.9255052 0 0 0 -0.70119,2.05544 z"
           id="path3553"
           style="fill:#ffffff;stroke:#1e1f28;stroke-width:0.250093;stroke-opacity:1" />
        <path
           fill="url(#logosObsidianIcon1)"
           d="m 376.3911,384.62427 a 3.7629245,3.7629245 0 0 1 0.92121,0.20966 c 0.95551,0.35746 1.8251,1.16179 2.54348,2.71197 0.0516,-0.0894 0.1031,-0.17532 0.15813,-0.25781 a 42.002417,42.002417 0 0 0 1.26144,-1.99014 0.48120816,0.48120816 0 0 0 -0.0344,-0.53961 10.414673,10.414673 0 0 1 -1.22706,-2.01078 c -0.32999,-0.79056 -0.37811,-2.02448 -0.38156,-2.62257 0,-0.22685 -0.0722,-0.45028 -0.21307,-0.62901 l -2.492,-3.16221 -0.0413,-0.0515 c 0.18219,0.60145 0.17191,1.08271 0.0584,1.51921 -0.1031,0.40558 -0.29556,0.77336 -0.49839,1.16179 -0.0687,0.13062 -0.13749,0.26464 -0.20279,0.40212 a 4.8120816,4.8120816 0 0 0 -0.54306,1.9936 c -0.0344,0.8318 0.13402,1.87326 0.68745,3.26536 h 0.003 z"
           id="path3555"
           style="fill:#ffffff;stroke:#1e1f28;stroke-width:0.264583;stroke-opacity:1" />
        <path
           fill="url(#logosObsidianIcon2)"
           d="m 376.38769,384.62427 c -0.55343,-1.39205 -0.72183,-2.43351 -0.68745,-3.26535 0.0344,-0.82489 0.27496,-1.44358 0.54306,-1.99356 l 0.20624,-0.40212 c 0.19938,-0.38843 0.38843,-0.75621 0.49494,-1.16179 0.12655,-0.50153 0.10628,-1.02887 -0.0584,-1.51921 -0.35588,-0.39106 -0.96057,-0.42176 -1.35425,-0.0688 l -2.9628,2.66381 c -0.16607,0.14864 -0.2754,0.3503 -0.30934,0.57057 l -0.36087,2.39226 c 0,0.0241 -0.007,0.0447 -0.0103,0.0688 0.66681,0.43309 1.51235,1.13428 1.9695,2.2445 0.0894,0.21998 0.16499,0.45028 0.21998,0.70119 0.75112,-0.20829 1.53218,-0.28733 2.3098,-0.23372 1.1e-4,10e-4 -7e-5,0.002 -1.1e-4,0.003 z"
           id="path3557"
           style="fill:#ffffff;stroke:#1e1f28;stroke-width:0.264583;stroke-opacity:1"
           sodipodi:nodetypes="ccccccccccccccc" />
        <path
           fill="url(#logosObsidianIcon6)"
           d="m 373.22589,389.40237 c 0.76308,-1.58111 1.16146,-3.14201 0.85211,-4.5478"
           id="path3559"
           style="fill:#ffffff;stroke:#1e1f28;stroke-width:0.264583;stroke-opacity:1"
           sodipodi:nodetypes="cc" />
      </g>
      <g
         id="g54292"
         transform="matrix(0.86225482,0,0,0.86225482,-186.04504,-50.104713)">
        <path
           d="m -206.00492,-150.49761 c 0,-1.18421 -0.96141,-2.14562 -2.14562,-2.14562 h -8.13871 c -1.18421,0 -2.14562,0.96141 -2.14562,2.14562 v 8.13871 c 0,1.18421 0.96141,2.14562 2.14562,2.14562 h 8.13871 c 1.18421,0 2.14562,-0.96141 2.14562,-2.14562 z"
           style="clip-rule:evenodd;fill:#ffffff;fill-rule:evenodd;stroke-width:0.025359;stroke-linejoin:round;stroke-miterlimit:2"
           id="path3565" />
        <path
           d="m -208.1016,-149.82382 c -1.82313,-0.078 -3.49718,1.04372 -4.1183,2.75956 -0.62111,-1.71584 -2.29516,-2.83759 -4.11829,-2.75956 -0.0607,1.4467 0.63136,2.82631 1.82737,3.64256 0.61287,0.42093 0.9791,1.11912 0.97708,1.86262 v 1.28975 h 2.62795 v -1.28975 c -0.002,-0.74345 0.36402,-1.44166 0.97682,-1.86262 1.19634,-0.81595 1.88853,-2.19576 1.82737,-3.64256 z"
           style="clip-rule:evenodd;fill:#1e1f28;fill-opacity:1;fill-rule:nonzero;stroke-width:0.025359;stroke-linejoin:round;stroke-miterlimit:2"
           id="path3567" />
      </g>
      <g
         id="g40951"
         transform="matrix(0.90018136,0,0,0.90018136,-394.7399,-282.37663)">
        <rect
           style="fill:#1e1f28;fill-opacity:1;stroke:#ffffff;stroke-width:0.648347;stroke-miterlimit:4;stroke-dasharray:none;stroke-opacity:1;paint-order:fill markers stroke;stop-color:#000000"
           id="rect40565"
           width="13.903736"
           height="8.326849"
           x="68.366257"
           y="113.5937"
           rx="1.3184489"
           ry="1.3184489" />
        <path
           d="m 69.89375,120.15344 v -4.79263 h 1.39421 l 1.39423,1.74285 1.39421,-1.74285 h 1.39421 v 4.79263 H 74.0764 v -2.74488 l -1.39421,1.74285 -1.39423,-1.74285 v 2.74488 z m 8.75739,0 -2.09129,-2.30917 h 1.39422 v -2.48346 h 1.39421 v 2.43992 h 1.39422 l -2.0913,2.35271 z"
           id="path3573"
           style="fill:#ffffff;stroke-width:0.056844"
           sodipodi:nodetypes="cccccccccccccccccccccc" />
      </g>
      <g
         id="g3595"
         transform="matrix(0.03647583,0,0,0.03647583,-267.60636,-218.33468)"
         style="display:inline">
        <path
           d="m -1660.2207,-171.14423 -134.34,137.469995 c -45.39,56.21 30.89,49.67 63.59,65.86 11.73,11.99 -44.96,20.84 -33.23,32.84 11.73,11.99 70.93,23.1 82.68,35.090005 11.73,11.99 -24.01,24.71 -12.28,36.7 11.73,11.99 38.86,0.63 43.94,28.31 3.62,19.78 48.89,8.5 71.03,-7.7 11.73,-12 -22.44,-10.87 -10.71,-22.86 29.17,-29.83 56.33,-10.84 66.31,-40.730005 4.93,-14.77 -42.94,-22.77 -31.19,-34.76 33.75,-19.71 150.4,-32.54 95.05,-87.89 l -139.25,-142.329995 c -17.03,-16.35 -45.45,-16.53 -61.6,0 z m 154.31,264.979995 c 0,6.820005 50.25,11.290005 50.25,-1.61 -7.16,-20.72 -44.31,-19.32 -50.25,1.61 z m -226.36,36.240005 c 11.9,10.29 30.28,-2.56 35.79,-16.92 -11.53,-15.320005 -54.69,0.55 -35.79,16.92 z m 220.06,-22.23 c -15.34,13.76 1.72,27.72 16.84,18.83 3.37,-3.42 -0.09,-15.41 -16.84,-18.83 z"
           id="path3589"
           style="fill:#ffffff" />
        <path
           fill="#ffffff"
           d="m -1692.3707,39.625765 c 3.59,2.23 57.89,13.26 71.16,15.46 4.6,0.97 1.34,5.71 -5,8.91 -14.3,3.8 -83.66,-24.37 -66.16,-24.37 z"
           id="path3591"
           style="fill:#1e1f28;fill-opacity:1" />
        <path
           fill="#ffffff"
           d="m -1606.7407,-161.50423 53.15,53.98 c 5.04,5.15 4.97,15.129995 2.15,17.999995 l -26.39,-21.109995 -5.19,31.259995 -22.05,-11.64 -35.31,22.31 -11.69,-47.029995 -18.97,32.819995 h -29 c -11.82,0 -13.21,-15 -2.47,-25.739995 18.76,-20.25 40.29,-40.89 51.99,-52.85 11.76,-12.02 32.25,-11.68 43.78,0 z"
           id="path3593"
           style="fill:#1e1f28;fill-opacity:1" />
      </g>
      <g
         id="g3587"
         transform="matrix(0.87027933,0,0,0.87027933,-683.77431,-586.24214)"
         style="display:inline;stroke:#1e1f28;stroke-width:0.5;stroke-opacity:1">
        <path
           fill="#0acf83"
           d="m 359.21825,429.85855 c 1.33879,0 2.42534,-1.08655 2.42534,-2.42534 v -2.42535 h -2.42534 c -1.33879,0 -2.42535,1.08655 -2.42535,2.42535 0,1.33879 1.08656,2.42534 2.42535,2.42534 z"
           id="path3577"
           style="fill:#ffffff;stroke:#1e1f28;stroke-width:0.5;stroke-opacity:1" />
        <path
           fill="#a259ff"
           d="m 356.7929,422.58251 c 0,-1.33879 1.08656,-2.42535 2.42535,-2.42535 h 2.42534 v 4.8507 h -2.42534 c -1.33879,0 -2.42535,-1.08656 -2.42535,-2.42535 z"
           id="path3579"
           style="fill:#ffffff;stroke:#1e1f28;stroke-width:0.5;stroke-opacity:1" />
        <path
           fill="#f24e1e"
           d="m 356.7929,417.73182 c 0,-1.33879 1.08656,-2.42535 2.42535,-2.42535 h 2.42534 v 4.85069 h -2.42534 c -1.33879,0 -2.42535,-1.08655 -2.42535,-2.42534 z"
           id="path3581"
           style="fill:#ffffff;stroke:#1e1f28;stroke-width:0.5;stroke-opacity:1" />
        <path
           fill="#ff7262"
           d="m 361.64359,415.30647 h 2.42535 c 1.33879,0 2.42535,1.08656 2.42535,2.42535 0,1.33879 -1.08656,2.42534 -2.42535,2.42534 h -2.42535 z"
           id="path3583"
           style="fill:#ffffff;stroke:#1e1f28;stroke-width:0.5;stroke-opacity:1" />
        <path
           fill="#1abcfe"
           d="m 366.49429,422.58251 c 0,1.33879 -1.08656,2.42535 -2.42535,2.42535 -1.33879,0 -2.42535,-1.08656 -2.42535,-2.42535 0,-1.33879 1.08656,-2.42535 2.42535,-2.42535 1.33879,0 2.42535,1.08656 2.42535,2.42535 z"
           id="path3585"
           style="fill:#ffffff;stroke:#1e1f28;stroke-width:0.5;stroke-opacity:1" />
      </g>
    </g>
    <g
       id="g1391"
       transform="matrix(0.83333338,0,0,0.83333338,-63.015772,-43.27465)">
      <ellipse
         style="display:inline;fill:none;stroke:#ffffff;stroke-width:0.316207;stroke-linecap:square;stroke-linejoin:round;stroke-miterlimit:4;stroke-dasharray:0.796116, 2.38834;stroke-dashoffset:0;paint-order:fill markers stroke;stop-color:#000000"
         id="ellipse49968"
         cx="-343.99854"
         cy="-25.359928"
         rx="19.772795"
         ry="19.77253"
         transform="rotate(15)" />
      <g
         id="g3491"
         transform="matrix(0.05321421,0,0,0.05321421,-332.43948,-120.22543)"
         style="fill:#ffffff">
        <path
           fill="#0065a9"
           d="M 246.135,26.873 193.593,1.575 A 15.885,15.885 0 0 0 175.47,4.655 L 3.466,161.482 c -4.626,4.219 -4.62,11.502 0.012,15.714 l 14.05,12.772 a 10.625,10.625 0 0 0 13.569,0.604 L 238.229,33.436 c 6.949,-5.271 16.93,-0.315 16.93,8.407 v -0.61 a 15.938,15.938 0 0 0 -9.024,-14.36 z"
           mask="url(#logosVisualStudioCode2)"
           id="path3485"
           style="fill:#ffffff" />
        <path
           fill="#007acc"
           d="m 246.135,226.816 -52.542,25.298 a 15.887,15.887 0 0 1 -18.123,-3.08 L 3.466,92.207 C -1.16,87.989 -1.154,80.705 3.478,76.494 l 14.05,-12.773 a 10.625,10.625 0 0 1 13.569,-0.603 l 207.132,157.135 c 6.949,5.271 16.93,0.315 16.93,-8.408 v 0.611 a 15.939,15.939 0 0 1 -9.024,14.36 z"
           mask="url(#logosVisualStudioCode2)"
           id="path3487"
           style="fill:#ffffff" />
        <path
           fill="#1f9cf0"
           d="m 193.428,252.134 a 15.892,15.892 0 0 1 -18.125,-3.083 c 5.881,5.88 15.938,1.715 15.938,-6.603 V 11.273 c 0,-8.318 -10.057,-12.483 -15.938,-6.602 a 15.892,15.892 0 0 1 18.125,-3.084 l 52.533,25.263 a 15.937,15.937 0 0 1 9.03,14.363 V 212.51 c 0,6.125 -3.51,11.709 -9.03,14.363 l -52.533,25.262 z"
           mask="url(#logosVisualStudioCode2)"
           id="path3489"
           style="fill:#ffffff" />
      </g>
      <g
         id="g51122"
         transform="matrix(0.60374937,0,0,0.60374937,-97.992867,-123.21945)">
        <path
           fill="#dd4814"
           d="m -395.82716,-2.9365932 c 0,4.3835948 -3.55368,7.9374061 -7.93747,7.9374061 -4.3839,0 -7.93753,-3.5538113 -7.93753,-7.9374061 0,-4.3838579 3.55376,-7.9375938 7.93753,-7.9375938 4.38385,0 7.93747,3.5537359 7.93747,7.9375938 z"
           id="path3495"
           style="fill:#ffffff;stroke-width:0.0621659" />
        <path
           fill="#ffffff"
           d="m -409.16189,-3.9965242 c -0.58555,0 -1.05991,0.4743928 -1.05991,1.059931 0,0.5852375 0.47436,1.0596867 1.05991,1.0596867 0.58529,0 1.05967,-0.4744492 1.05967,-1.0596867 0,-0.5855382 -0.47438,-1.059931 -1.05967,-1.059931 z m 7.56647,4.8165219 c -0.50683,0.2927973 -0.68071,0.9405716 -0.38792,1.4471633 0.29249,0.5069113 0.94025,0.6806687 1.44716,0.3879278 0.50683,-0.2924966 0.68064,-0.9402709 0.3879,-1.4472386 -0.29247,-0.50653531 -0.94061,-0.68027385 -1.44714,-0.3878525 z m -5.26454,-3.7565909 c 0,-1.047262 0.5202,-1.972533 1.31609,-2.5327895 l -0.77477,-1.2976539 c -0.92712,0.6198047 -1.61704,1.5668424 -1.90374,2.6760774 0.33457,0.2729103 0.54867,0.6884881 0.54867,1.1543096 0,0.4655584 -0.2141,0.8811362 -0.54867,1.1541217 0.28632,1.10947936 0.97625,2.0566486 1.90374,2.6764345 l 0.77477,-1.29802975 c -0.79589,-0.55993698 -1.31609,-1.48515155 -1.31609,-2.53247005 z m 3.09533,-3.0956964 c 1.61712,0 2.94385,1.2398349 3.08309,2.8211132 l 1.51002,-0.02218 c -0.0743,-1.1673734 -0.58423,-2.2153685 -1.36778,-2.9859797 -0.40294,0.1522539 -0.86844,0.1289459 -1.27066,-0.1030063 -0.40302,-0.2325724 -0.65572,-0.6248986 -0.72478,-1.0507394 a 4.6164063,4.6164773 0 0 0 -1.22994,-0.1672913 4.5870021,4.5870726 0 0 0 -2.04021,0.4763854 l 0.73635,1.3196084 a 3.0831576,3.083205 0 0 1 1.30391,-0.2879477 z m 0,6.19114851 a 3.0834685,3.0835159 0 0 1 -1.30385,-0.28794772 l -0.73636,1.31947681 a 4.5823398,4.5824102 0 0 0 2.04029,0.4768741 4.60273,4.6028008 0 0 0 1.22987,-0.1676672 c 0.069,-0.4258408 0.32183,-0.81779106 0.72472,-1.05073943 0.40258,-0.23230928 0.86777,-0.25518495 1.27066,-0.1030063 0.7836,-0.77062997 1.29355,-1.81862507 1.36789,-2.98597967 l -1.51043,-0.02218 c -0.1389,1.5816918 -1.46561,2.82111321 -3.08279,2.82111321 z m 2.16883,-6.85266321 c 0.50691,0.2926845 1.15473,0.1193594 1.44715,-0.3875519 0.29281,-0.5068924 0.11935,-1.1547419 -0.38753,-1.4475392 -0.50691,-0.2924402 -1.15467,-0.1187956 -1.44752,0.3881721 -0.29238,0.5066481 -0.1186,1.1544224 0.3879,1.446919 z"
           id="path3497"
           style="fill:#1e1f28;fill-opacity:1;stroke:none;stroke-width:0.0621659" />
      </g>
      <g
         id="g50366"
         transform="matrix(0.60374937,0,0,0.60374937,-117.05636,-114.8566)">
        <circle
           style="fill:#1e1f28;fill-opacity:1;stroke:none;stroke-width:0.811079;stroke-miterlimit:4;stroke-dasharray:0.811079, 1.62216;stroke-dashoffset:0;paint-order:fill markers stroke;stop-color:#000000"
           id="ellipse3501"
           cx="-346.33203"
           cy="-29.24049"
           r="7.9375" />
        <path
           fill="#161614"
           d="m -346.33167,-37.17799 c -4.3834,0 -7.93786,3.643648 -7.93786,8.138466 0,3.595789 2.27443,6.646495 5.42839,7.722601 0.39671,0.07527 0.54238,-0.176673 0.54238,-0.391538 0,-0.194051 -0.007,-0.835146 -0.0106,-1.515132 -2.20833,0.49223 -2.67431,-0.960272 -2.67431,-0.960272 -0.36109,-0.940702 -0.8814,-1.19088 -0.8814,-1.19088 -0.72016,-0.505091 0.0544,-0.494673 0.0544,-0.494673 0.79706,0.05727 1.21677,0.838636 1.21677,0.838636 0.70803,1.244171 1.85702,0.884477 2.30998,0.676517 0.0713,-0.52596 0.27694,-0.885066 0.50397,-1.08827 -1.76311,-0.205756 -3.61653,-0.903621 -3.61653,-4.022018 0,-0.888556 0.31007,-1.614578 0.81784,-2.184546 -0.0824,-0.204971 -0.3541,-1.032676 0.0769,-2.153727 0,0 0.66658,-0.218738 2.18351,0.83424 0.63317,-0.180229 1.31221,-0.270731 1.98681,-0.27384 0.67458,0.0044 1.35419,0.09349 1.98854,0.27384 1.51506,-1.052913 2.18071,-0.834186 2.18071,-0.834186 0.43204,1.120931 0.16023,1.948757 0.0778,2.153673 0.50896,0.569968 0.81691,1.29599 0.81691,2.184546 0,3.125837 -1.85693,3.814113 -3.62452,4.015593 0.28471,0.252546 0.53841,0.747851 0.53841,1.507146 0,1.088891 -0.01,1.965294 -0.01,2.233353 0,0.216621 0.14283,0.470367 0.54522,0.390381 3.15224,-1.077251 5.42379,-4.1268 5.42379,-7.721368 0,-4.494894 -3.55394,-8.138542 -7.93773,-8.138542 z m -4.96483,11.59343 c -0.0183,0.04036 -0.0795,0.05247 -0.13607,0.02476 -0.0578,-0.0264 -0.0899,-0.0816 -0.0713,-0.122248 0.0166,-0.04167 0.0794,-0.05335 0.13679,-0.02542 0.0578,0.0264 0.0906,0.08215 0.0707,0.122782 z m 0.39043,0.357186 c -0.0379,0.03611 -0.11194,0.01942 -0.16207,-0.03753 -0.0518,-0.05662 -0.0616,-0.132545 -0.0232,-0.169167 0.0389,-0.03611 0.11077,-0.01909 0.1628,0.03753 0.052,0.05749 0.062,0.132666 0.0226,0.169146 z m 0.2679,0.457014 c -0.0487,0.03469 -0.12822,0.0011 -0.17743,-0.07015 -0.0487,-0.07233 -0.0487,-0.159208 0.001,-0.193909 0.0493,-0.0348 0.12757,-0.0044 0.17743,0.06829 0.0485,0.07364 0.0485,0.160331 -10e-4,0.19584 z m 0.45294,0.52932 c -0.0434,0.0492 -0.13622,0.03611 -0.20401,-0.03109 -0.0695,-0.06545 -0.0886,-0.158629 -0.0451,-0.207927 0.0439,-0.04942 0.13734,-0.03556 0.20558,0.03109 0.0688,0.06545 0.0899,0.159207 0.0434,0.207894 z m 0.58556,0.178724 c -0.0193,0.06393 -0.10856,0.09273 -0.19839,0.06578 -0.0897,-0.02793 -0.1485,-0.102437 -0.13038,-0.166899 0.0186,-0.06414 0.10842,-0.09447 0.19889,-0.06534 0.0897,0.02782 0.14851,0.101891 0.13006,0.166713 z m 0.66626,0.07593 c 10e-4,0.06709 -0.074,0.122793 -0.16827,0.123851 -0.0949,0.0011 -0.17177,-0.05225 -0.17269,-0.118244 0,-0.06774 0.0746,-0.122782 0.16957,-0.124516 0.0944,-0.0011 0.17157,0.05193 0.17157,0.118909 z m 0.65456,-0.02564 c 0.0106,0.06545 -0.0543,0.132818 -0.14796,0.150752 -0.0921,0.01702 -0.17744,-0.02324 -0.18913,-0.08804 -0.0106,-0.0672 0.0552,-0.134422 0.14739,-0.151702 0.094,-0.0168 0.17781,0.02269 0.18982,0.08924 z"
           id="path3503"
           style="fill:#ffffff;stroke-width:0.0627928" />
      </g>
      <g
         id="g3511"
         transform="matrix(0.60374937,0,0,0.60374937,-537.29913,-377.63459)">
        <g
           id="g51565"
           transform="translate(-55.148062,-127.81599)">
          <path
             sodipodi:type="star"
             style="fill:#1e1f28;fill-opacity:1;stroke:none;stroke-width:3;stroke-miterlimit:4;stroke-dasharray:3, 6;stroke-dashoffset:0;paint-order:fill markers stroke;stop-color:#000000"
             id="path3507"
             inkscape:flatsided="true"
             sodipodi:sides="6"
             sodipodi:cx="1357.6234"
             sodipodi:cy="2141.8281"
             sodipodi:r1="25.918867"
             sodipodi:r2="22.446398"
             sodipodi:arg1="0.52359878"
             sodipodi:arg2="1.0471976"
             inkscape:rounded="0"
             inkscape:randomized="0"
             transform="matrix(0.28767005,0,0,0.28072375,-17.920265,-27.010708)"
             inkscape:transform-center-x="-2.3748711e-06"
             inkscape:transform-center-y="1.5125428e-06"
             d="m 1380.0698,2154.7876 -22.4464,12.9594 -22.4464,-12.9594 0,-25.9189 22.4464,-12.9594 22.4464,12.9594 z" />
          <path
             fill="#539e43"
             d="m 372.62742,581.52683 c -0.20054,0 -0.38769,-0.0536 -0.56148,-0.14706 l -1.77809,-1.05614 c -0.26736,-0.14705 -0.13362,-0.20054 -0.0536,-0.22726 0.36095,-0.12037 0.42779,-0.14705 0.80212,-0.36101 0.0401,-0.0267 0.0937,-0.0138 0.13361,0.0138 l 1.36367,0.81553 c 0.0536,0.0267 0.12037,0.0267 0.16049,0 l 5.33422,-3.08819 c 0.0534,-0.0267 0.0802,-0.0802 0.0802,-0.14705 v -6.16311 c 0,-0.0668 -0.0267,-0.12036 -0.0802,-0.14706 l -5.33422,-3.07486 c -0.0535,-0.0267 -0.12037,-0.0267 -0.16049,0 l -5.33421,3.07492 c -0.0535,0.0267 -0.0802,0.0935 -0.0802,0.14705 v 6.16306 c 0,0.0536 0.0267,0.12036 0.0802,0.14705 l 1.45726,0.84221 c 0.78877,0.40106 1.28336,-0.0668 1.28336,-0.53474 v -6.0829 c 0,-0.0802 0.0668,-0.16048 0.16048,-0.16048 h 0.68183 c 0.0802,0 0.16049,0.0668 0.16049,0.16048 v 6.08286 c 0,1.05616 -0.57488,1.67109 -1.57757,1.67109 -0.30747,0 -0.54809,0 -1.22987,-0.33421 l -1.4038,-0.8021 c -0.34757,-0.20057 -0.56145,-0.57489 -0.56145,-0.97594 v -6.16302 c 0,-0.40103 0.21388,-0.77535 0.56145,-0.97594 l 5.33424,-3.08817 c 0.33421,-0.18716 0.78873,-0.18716 1.12294,0 l 5.33422,3.08817 c 0.34757,0.20054 0.56147,0.57485 0.56147,0.97594 v 6.16308 c 0,0.40103 -0.2139,0.77536 -0.56147,0.97588 l -5.33422,3.08829 c -0.1738,0.0802 -0.37431,0.12036 -0.56147,0.12036 z m 1.64434,-4.23798 c -2.33956,0 -2.82081,-1.06946 -2.82081,-1.97855 0,-0.0802 0.0668,-0.16049 0.16049,-0.16049 h 0.69514 c 0.0802,0 0.14706,0.0536 0.14706,0.13362 0.10693,0.70853 0.41442,1.05615 1.83152,1.05615 1.12299,0 1.60429,-0.254 1.60429,-0.85558 0,-0.34763 -0.13362,-0.60163 -1.88504,-0.77546 -1.45718,-0.14705 -2.36629,-0.46788 -2.36629,-1.63093 0,-1.08294 0.90905,-1.72463 2.43313,-1.72463 1.71122,0 2.55347,0.58822 2.66042,1.87163 0,0.0401 -0.0138,0.0802 -0.0401,0.12036 -0.0267,0.0267 -0.0668,0.0534 -0.10693,0.0534 h -0.69517 c -0.0668,0 -0.13362,-0.0534 -0.14705,-0.12037 -0.16049,-0.73526 -0.57483,-0.97589 -1.67109,-0.97589 -1.2299,0 -1.37699,0.42779 -1.37699,0.74863 0,0.38773 0.17379,0.50799 1.83151,0.72189 1.64442,0.2139 2.41977,0.52142 2.41977,1.67114 -0.0138,1.17648 -0.97589,1.84488 -2.67377,1.84488 z"
             id="path3509"
             style="fill:#ffffff;stroke-width:0.0504465" />
        </g>
      </g>
      <g
         id="g3521"
         transform="matrix(0.60374937,0,0,0.60374937,-437.51705,-379.97005)">
        <g
           id="g52017"
           transform="translate(-183.67445,-138.17467)">
          <circle
             style="fill:#1e1f28;fill-opacity:1;stroke:none;stroke-width:0.432955;stroke-miterlimit:4;stroke-dasharray:0.432955, 0.865912;stroke-dashoffset:0;paint-order:fill markers stroke;stop-color:#000000"
             id="circle3513"
             cx="382.47653"
             cy="610.9165"
             r="7.9375" />
          <g
             id="g3519"
             transform="matrix(0.03986119,0,0,0.03986119,377.3743,603.64046)"
             style="fill:#ffffff">
            <path
               d="m 182.022,9.147 c 2.982,3.702 4.502,8.697 7.543,18.687 L 256,246.074 A 276.467,276.467 0 0 0 176.574,219.183 L 133.318,73.008 a 5.63,5.63 0 0 0 -10.802,0.017 L 79.784,219.11 A 276.453,276.453 0 0 0 0,246.04 L 66.76,27.783 C 69.811,17.811 71.337,12.824 74.319,9.129 A 24.541,24.541 0 0 1 84.265,1.771 C 88.67,0 93.885,0 104.314,0 h 47.683 c 10.443,0 15.664,0 20.074,1.774 a 24.545,24.545 0 0 1 9.95,7.373 z"
               id="path3515"
               style="fill:#ffffff" />
            <path
               fill="#ff5d01"
               d="m 189.972,256.46 c -10.952,9.364 -32.812,15.751 -57.992,15.751 -30.904,0 -56.807,-9.621 -63.68,-22.56 -2.458,7.415 -3.009,15.903 -3.009,21.324 0,0 -1.619,26.623 16.898,45.14 0,-9.615 7.795,-17.41 17.41,-17.41 16.48,0 16.46,14.378 16.446,26.043 l -0.001,1.041 c 0,17.705 10.82,32.883 26.21,39.28 a 35.685,35.685 0 0 1 -3.588,-15.647 c 0,-16.886 9.913,-23.173 21.435,-30.48 9.167,-5.814 19.353,-12.274 26.372,-25.232 a 47.588,47.588 0 0 0 5.742,-22.735 c 0,-5.06 -0.786,-9.938 -2.243,-14.516 z"
               id="path3517"
               style="fill:#ffffff" />
          </g>
        </g>
      </g>
      <g
         id="g3527"
         transform="matrix(0.51116029,0,0,0.51116029,-471.88952,-379.16585)">
        <g
           id="g51383"
           transform="translate(-130.77521,-79.002413)">
          <circle
             style="display:inline;fill:#1e1f28;fill-opacity:1;stroke:none;stroke-width:0.511378;stroke-miterlimit:4;stroke-dasharray:0.511378, 1.02276;stroke-dashoffset:0;paint-order:fill markers stroke;stop-color:#000000"
             id="circle3523"
             cx="446.42343"
             cy="576.25031"
             r="9.3752604" />
          <path
             fill="#000020"
             d="m 446.04307,573.2673 c 0.11911,-0.17542 0.24926,-0.19771 0.35493,-0.19771 0.10578,0 0.28177,0.0223 0.4008,0.19771 0.93805,1.28847 2.48646,3.85508 3.62864,5.74838 0.74488,1.23466 1.31696,2.18298 1.43433,2.30366 0.44059,0.45305 1.0449,0.17069 1.39602,-0.34317 0.34568,-0.50592 0.44168,-0.86118 0.44168,-1.24016 0,-0.25807 -5.00828,-9.57251 -5.51264,-10.3478 -0.485,-0.74567 -0.64302,-0.93406 -1.47317,-0.93406 h -0.62131 c -0.82765,0 -0.9473,0.18839 -1.43236,0.93406 -0.5043,0.77535 -5.5126,10.08967 -5.5126,10.34785 0,0.37893 0.096,0.73419 0.44168,1.24011 0.35112,0.51386 0.95543,0.79622 1.39602,0.34317 0.11741,-0.12066 0.68953,-1.069 1.43435,-2.30366 1.14216,-1.8933 2.68558,-4.45997 3.62363,-5.74838 z"
             id="path3525"
             style="fill:#ffffff;stroke-width:0.0568438" />
        </g>
      </g>
      <g
         id="g52168"
         transform="matrix(0.60374937,0,0,0.60374937,-578.32061,-428.47047)">
        <circle
           style="fill:#1e1f28;fill-opacity:1;stroke:none;stroke-width:0.216137;stroke-miterlimit:4;stroke-dasharray:none;stroke-dashoffset:0;paint-order:fill markers stroke;stop-color:#000000"
           id="circle3529"
           cx="449.91122"
           cy="530.63562"
           r="7.9375" />
        <g
           id="g3537"
           transform="matrix(0.04979719,0,0,0.04979719,443.72247,526.6753)"
           style="fill:#ffffff;stroke:none">
          <path
             fill="#012f55"
             d="m 39.37,0 55.965,94.22 0.049,-42.649 32.473,50.76 -33.412,52.51 L 39.058,64.956 38.93,159.058 H 0 V 0 Z m 94.895,44.468 16.203,25.438 0.205,0.353 a 57.217,57.217 0 0 1 47.854,-25.79 c 31.247,0 56.655,26.446 57.274,57.582 l 0.01,1.052 h -0.029 v 0.396 a 7.535,7.535 0 0 1 -15.058,0.224 l -0.009,-0.277 -0.004,-0.358 c -0.125,-4.924 -2.833,-6.922 -6.39,-8.395 l -0.526,-0.213 -0.537,-0.206 -0.547,-0.202 -2.838,-1.007 -0.58,-0.213 -0.58,-0.22 -0.581,-0.229 -0.29,-0.119 -0.58,-0.246 -0.575,-0.26 c -2.295,-1.067 -4.49,-2.496 -6.235,-4.77 l -0.204,-0.273 -0.204,-0.285 -0.304,-0.447 -0.408,-0.63 -1.29,-2.064 -0.47,-0.728 -0.37,-0.553 -0.258,-0.371 -0.403,-0.558 -0.28,-0.372 -0.292,-0.372 -0.15,-0.185 -0.309,-0.368 c -3.04,-3.553 -7.799,-6.745 -17.003,-6.745 a 28.687,28.687 0 0 0 -28.696,28.696 7.475,7.475 0 0 0 0.751,3.126 l 0.149,0.289 34.244,53.89 h -37.767 l -16.72,-25.233 -16.428,25.233 H 96.284 L 132.328,102.311 95.394,44.468 Z m 121.586,66.756 a 14.422,14.422 0 0 1 -1.096,7.896 c -1.322,3.058 -3.186,3.61 -4.428,3.582 l -0.206,-0.01 -0.193,-0.02 -0.179,-0.026 -0.237,-0.048 -0.196,-0.053 -0.253,-0.087 -0.092,-0.042 -0.111,-0.063 -0.167,-0.104 -0.135,-0.093 -0.148,-0.11 -0.157,-0.13 a 4.012,4.012 0 0 1 -0.08,-0.071 l -0.161,-0.156 c -0.698,-0.716 -1.323,-1.94 -0.213,-3.645 0.82,-1.268 1.957,-1.98 3.147,-2.618 l 1.201,-0.635 c 1.439,-0.776 2.827,-1.683 3.704,-3.567 z M 134.363,0 v 40.437 l -0.088,0.45 H 95.394 L 95.384,40.437 95.433,0 Z"
             id="path3531"
             style="fill:#ffffff;stroke:none" />
          <path
             fill="#96d8e9"
             d="m 194.368,84.984 a 21.994,21.994 0 0 0 -21.006,14.255 20.947,20.947 0 0 1 24.988,-7.886 c 4.227,1.722 9.784,4.5 14.187,3.013 a 22.356,22.356 0 0 0 -18.169,-9.382 z"
             id="path3533"
             style="fill:#ffffff;stroke:none" />
          <path
             fill="#48c4e5"
             d="m 238.484,104.121 c 0,-4.765 -2.592,-5.87 -7.974,-7.827 -3.992,-1.39 -8.522,-2.955 -11.819,-7.26 -0.645,-0.851 -1.242,-1.81 -1.878,-2.827 a 22.718,22.718 0 0 0 -5.685,-6.85 c -3.14,-2.308 -7.26,-3.433 -12.601,-3.433 a 26.475,26.475 0 0 0 -24.46,16.388 24.822,24.822 0 0 1 42.687,4.138 7.974,7.974 0 0 0 8.913,3.562 c 5.254,-1.125 4.892,3.845 12.827,5.528 z"
             id="path3535"
             style="fill:#ffffff;stroke:none" />
        </g>
      </g>
      <g
         id="g51852"
         transform="matrix(0.60098504,0,0,0.60098504,-248.74418,-209.18529)">
        <path
           fill="url(#logosVitejs0)"
           d="m -136.10321,185.82648 -6.73161,12.03727 c -0.13899,0.24853 -0.49607,0.24999 -0.63714,0.003 l -6.86506,-12.03882 c -0.15378,-0.26949 0.0768,-0.59595 0.38216,-0.5413 l 6.73883,1.20446 a 0.36592415,0.36592415 0 0 0 0.12999,-2.2e-4 l 6.59789,-1.20258 c 0.3044,-0.0554 0.53593,0.26849 0.38496,0.53852 z"
           id="path3545"
           style="fill:#ffffff;stroke-width:0.0559773" />
        <path
           fill="url(#logosVitejs1)"
           d="m -140.00602,183.70635 -4.98153,0.97613 a 0.18293408,0.18293408 0 0 0 -0.14749,0.16872 l -0.30643,5.17544 a 0.18293408,0.18293408 0 0 0 0.22375,0.1891 l 1.38695,-0.32008 c 0.12982,-0.0299 0.24703,0.0844 0.22033,0.21484 l -0.41206,2.01781 c -0.0277,0.13577 0.0997,0.2519 0.23236,0.2116 l 0.85668,-0.26023 c 0.1327,-0.0403 0.26041,0.0761 0.23231,0.21204 l -0.65482,3.16949 c -0.0409,0.19827 0.22274,0.30637 0.33268,0.13644 l 0.0736,-0.1135 4.05927,-8.10105 c 0.068,-0.13559 -0.0493,-0.2903 -0.19818,-0.26154 l -1.4277,0.27552 c -0.13406,0.0258 -0.24826,-0.0991 -0.21042,-0.23028 l 0.9318,-3.23017 c 0.0379,-0.13151 -0.0766,-0.25655 -0.21097,-0.23023 z"
           id="path3547"
           style="fill:#ffffff;stroke:#1e1f28;stroke-width:0.529167;stroke-opacity:1" />
      </g>
    </g>
  </g>
</svg>
