<svg xmlns="http://www.w3.org/2000/svg" width="450.001" height="141.612" viewBox="0 0 119.063 37.468"><g transform="translate(-79.466 20.053)"><g style="display:inline"><path fill="#6c31e3" d="M379.313 389.344c-.09.656-.732 1.168-1.375.993-.908-.251-1.96-.643-2.911-.715l-1.454-.11a.959.959 0 0 1-.62-.289l-2.508-2.578a.959.959 0 0 1-.186-1.065s1.55-3.403 1.609-3.582c.058-.175.268-1.718.392-2.55a.962.962 0 0 1 .309-.57l2.963-2.665a.962.962 0 0 1 1.395.12l2.492 3.163a1.02 1.02 0 0 1 .213.629c0 .598.052 1.829.382 2.623a10.415 10.415 0 0 0 1.224 2.01.481.481 0 0 1 .037.54c-.22.371-.65 1.08-1.261 1.99a4.926 4.926 0 0 0-.701 2.056z" style="fill:#fff;stroke:#1e1f28;stroke-width:.250093;stroke-opacity:1" transform="matrix(.90234 0 0 .90234 -198.885 -338.292)"/><path fill="url(#logosObsidianIcon1)" d="M376.391 384.624a3.763 3.763 0 0 1 .921.21c.956.357 1.825 1.162 2.544 2.712.051-.09.103-.175.158-.258a42.002 42.002 0 0 0 1.261-1.99.481.481 0 0 0-.034-.54 10.415 10.415 0 0 1-1.227-2.01c-.33-.791-.378-2.025-.382-2.623 0-.227-.072-.45-.213-.629l-2.492-3.162-.041-.052c.182.602.172 1.083.058 1.52-.103.405-.295.773-.498 1.161-.069.13-.138.265-.203.402a4.812 4.812 0 0 0-.543 1.994c-.034.832.134 1.873.688 3.265h.003z" style="fill:#fff;stroke:#1e1f28;stroke-width:.264583;stroke-opacity:1" transform="matrix(.90234 0 0 .90234 -198.885 -338.292)"/><path fill="url(#logosObsidianIcon2)" d="M376.388 384.624c-.554-1.392-.722-2.433-.688-3.265.035-.825.275-1.444.543-1.994l.207-.402c.199-.388.388-.756.494-1.162a2.698 2.698 0 0 0-.058-1.519.962.962 0 0 0-1.354-.069l-2.963 2.664a.962.962 0 0 0-.31.57l-.36 2.393c0 .024-.007.045-.01.069.666.433 1.512 1.134 1.969 2.244.09.22.165.45.22.702a6.874 6.874 0 0 1 2.31-.234v.003z" style="fill:#fff;stroke:#1e1f28;stroke-width:.264583;stroke-opacity:1" transform="matrix(.90234 0 0 .90234 -198.885 -338.292)"/><path fill="url(#logosObsidianIcon6)" d="M373.226 389.402c.763-1.58 1.161-3.142.852-4.547" style="fill:#fff;stroke:#1e1f28;stroke-width:.264583;stroke-opacity:1" transform="matrix(.90234 0 0 .90234 -198.885 -338.292)"/></g><path d="M-206.005-150.498a2.147 2.147 0 0 0-2.146-2.145h-8.138a2.147 2.147 0 0 0-2.146 2.145v8.14c0 1.183.962 2.145 2.146 2.145h8.138a2.147 2.147 0 0 0 2.146-2.146z" style="clip-rule:evenodd;fill:#fff;fill-rule:evenodd;stroke-width:.025359;stroke-linejoin:round;stroke-miterlimit:2" transform="matrix(.95787 0 0 .95787 358.463 147.712)"/><path d="M-208.102-149.824a4.199 4.199 0 0 0-4.118 2.76 4.199 4.199 0 0 0-4.118-2.76 4.201 4.201 0 0 0 1.827 3.643c.613.42.98 1.119.977 1.862v1.29h2.628v-1.29a2.254 2.254 0 0 1 .977-1.862 4.199 4.199 0 0 0 1.827-3.643z" style="clip-rule:evenodd;fill:#1e1f28;fill-opacity:1;fill-rule:nonzero;stroke-width:.025359;stroke-linejoin:round;stroke-miterlimit:2" transform="matrix(.95787 0 0 .95787 358.463 147.712)"/><g transform="matrix(.9091 0 0 .9091 119.14 -99.599)"><rect width="13.904" height="8.327" x="68.366" y="113.594" rx=".873" ry=".873" style="fill:#1e1f28;fill-opacity:1;stroke:#fff;stroke-width:.648347;stroke-miterlimit:4;stroke-dasharray:none;stroke-opacity:1;paint-order:fill markers stroke;stop-color:#000"/><path d="M69.894 120.153v-4.792h1.394l1.394 1.743 1.394-1.743h1.395v4.792h-1.395v-2.744l-1.394 1.742-1.394-1.742v2.744zm8.757 0-2.091-2.309h1.394v-2.483h1.394v2.44h1.395l-2.092 2.352z" style="fill:#fff;stroke-width:.056844"/></g><g style="display:inline"><path d="m-1660.22-171.144-134.34 137.47c-45.39 56.21 30.89 49.67 63.59 65.86 11.73 11.99-44.96 20.84-33.23 32.84 11.73 11.99 70.93 23.1 82.68 35.09 11.73 11.99-24.01 24.71-12.28 36.7 11.73 11.99 38.86.63 43.94 28.31 3.62 19.78 48.89 8.5 71.03-7.7 11.73-12-22.44-10.87-10.71-22.86 29.17-29.83 56.33-10.84 66.31-40.73 4.93-14.77-42.94-22.77-31.19-34.76 33.75-19.71 150.4-32.54 95.05-87.89l-139.25-142.33c-17.03-16.35-45.45-16.53-61.6 0zm154.31 264.98c0 6.82 50.25 11.29 50.25-1.61-7.16-20.72-44.31-19.32-50.25 1.61zm-226.36 36.24c11.9 10.29 30.28-2.56 35.79-16.92-11.53-15.32-54.69.55-35.79 16.92zm220.06-22.23c-15.34 13.76 1.72 27.72 16.84 18.83 3.37-3.42-.09-15.41-16.84-18.83z" style="fill:#fff" transform="matrix(.03315 0 0 .03315 224.996 7.583)"/><path fill="#fff" d="M-1692.37 39.626c3.59 2.23 57.89 13.26 71.16 15.46 4.6.97 1.34 5.71-5 8.91-14.3 3.8-83.66-24.37-66.16-24.37zM-1606.74-161.504l53.15 53.98c5.04 5.15 4.97 15.13 2.15 18l-26.39-21.11-5.19 31.26-22.05-11.64-35.31 22.31-11.69-47.03-18.97 32.82h-29c-11.82 0-13.21-15-2.47-25.74 18.76-20.25 40.29-40.89 51.99-52.85 11.76-12.02 32.25-11.68 43.78 0z" style="fill:#1e1f28;fill-opacity:1" transform="matrix(.03315 0 0 .03315 224.996 7.583)"/></g><g style="display:inline;stroke:#1e1f28;stroke-width:.5;stroke-opacity:1"><path fill="#0acf83" d="M359.218 429.859a2.426 2.426 0 0 0 2.426-2.426v-2.425h-2.426a2.426 2.426 0 0 0 0 4.85z" style="fill:#fff;stroke:#1e1f28;stroke-width:.5;stroke-opacity:1" transform="matrix(.791 0 0 .791 -158.97 -326.811)"/><path fill="#a259ff" d="M356.793 422.583a2.426 2.426 0 0 1 2.425-2.426h2.426v4.85h-2.426a2.426 2.426 0 0 1-2.425-2.424z" style="fill:#fff;stroke:#1e1f28;stroke-width:.5;stroke-opacity:1" transform="matrix(.791 0 0 .791 -158.97 -326.811)"/><path fill="#f24e1e" d="M356.793 417.732a2.426 2.426 0 0 1 2.425-2.426h2.426v4.851h-2.426a2.426 2.426 0 0 1-2.425-2.425z" style="fill:#fff;stroke:#1e1f28;stroke-width:.5;stroke-opacity:1" transform="matrix(.791 0 0 .791 -158.97 -326.811)"/><path fill="#ff7262" d="M361.644 415.306h2.425a2.426 2.426 0 0 1 0 4.851h-2.425z" style="fill:#fff;stroke:#1e1f28;stroke-width:.5;stroke-opacity:1" transform="matrix(.791 0 0 .791 -158.97 -326.811)"/><path fill="#1abcfe" d="M366.494 422.583a2.426 2.426 0 0 1-4.85 0 2.426 2.426 0 0 1 4.85 0z" style="fill:#fff;stroke:#1e1f28;stroke-width:.5;stroke-opacity:1" transform="matrix(.791 0 0 .791 -158.97 -326.811)"/></g><rect width="79.486" height="19.526" x="118.843" y="-2.31" rx="3.969" ry="3.969" style="fill:none;stroke:#fff;stroke-width:.39795;stroke-linecap:round;stroke-miterlimit:4;stroke-dasharray:.7959,2.3877;stroke-dashoffset:0;paint-order:fill markers stroke;stop-color:#000"/><path d="M89.566-19.854c0 14.294 11.337 27.84 29.267 27.84" style="fill:none;stroke:#fff;stroke-width:.396875;stroke-linecap:round;stroke-linejoin:miter;stroke-miterlimit:4;stroke-dasharray:.79375,2.38125;stroke-dashoffset:0;stroke-opacity:1"/><path d="M79.665-19.847h22.107" style="fill:none;stroke:#fff;stroke-width:.396875;stroke-linecap:round;stroke-linejoin:miter;stroke-miterlimit:4;stroke-dasharray:.79375,2.38125;stroke-dashoffset:0;stroke-opacity:1;paint-order:stroke fill markers"/></g></svg>