<svg xmlns="http://www.w3.org/2000/svg" width="161.668" height="116.747" viewBox="0 0 42.775 30.889"><defs><clipPath id="b" clipPathUnits="userSpaceOnUse"><path d="M-139.833-6.445c-13.777 1.77-34.96.01-45.597 5.691-3.295-2.03-5.468-4.671-6.096-8.004-3.993-21.164 31.672-16.281 51.693-18.853 7.97-1.15 18.771-3.625 29.442-4.775l.154 21.151c-10.614 1.125-21.549 3.629-29.596 4.79z" style="fill:#fff;stroke:none;stroke-width:2;stroke-linecap:butt;stroke-linejoin:round;stroke-miterlimit:4;stroke-dasharray:none;stroke-opacity:1"/></clipPath><clipPath id="d" clipPathUnits="userSpaceOnUse"><path d="M-116.575 79.567c-12.425.997-63.86 4.984-67.855-15.658-4.282-22.125 25.985-16.582 47.46-19.271 5.338-.751 11.404-1.947 17.605-2.96l6.084 4.684c-7.78.81-15.654 2.55-21.464 3.36-14.595 1.809-40.594-1.626-37.684 13.262 2.716 13.89 44.924 10.728 53.368 10.056 1.094-.087 1.813-.144 4.47-.564l7.054 5.336c-3.78.98-7.009 1.592-9.038 1.755z" style="fill:#fff;stroke:none;stroke-width:2;stroke-linecap:round;stroke-linejoin:round;stroke-miterlimit:4;stroke-dasharray:none;stroke-opacity:1"/></clipPath><clipPath id="f" clipPathUnits="userSpaceOnUse"><path d="M-139.833-6.445c-13.777 1.77-34.96.01-45.597 5.691-3.295-2.03-5.468-4.671-6.096-8.004-3.993-21.164 31.672-16.281 51.693-18.853 7.97-1.15 18.771-3.625 29.442-4.775l.154 21.151c-10.614 1.125-21.549 3.629-29.596 4.79z" style="fill:#fff;stroke:none;stroke-width:2;stroke-linecap:butt;stroke-linejoin:round;stroke-miterlimit:4;stroke-dasharray:none;stroke-opacity:1"/></clipPath><clipPath id="h" clipPathUnits="userSpaceOnUse"><path d="M316.564 101.67c.004.674.088 1.688.236 2.482 2.196 11.76 30.473 9.488 37.304 8.92 1.116-.093 2.89-.44 4.924-.988l-.044 8.495c-2.04.545-3.78.885-4.88.976-6.83.569-35.108 2.84-37.304-8.92a13.522 13.522 0 0 1-.236-2.482z" style="fill:#fff;stroke:none;stroke-width:.278969;stroke-linecap:butt;stroke-linejoin:round;stroke-miterlimit:4;stroke-dasharray:none;stroke-opacity:1"/></clipPath><filter id="i" width="1" height="1" x="0" y="0" style="color-interpolation-filters:sRGB"><feTurbulence baseFrequency=".142" numOctaves="6" seed="453"/><feGaussianBlur result="result91"/><feDisplacementMap in="SourceGraphic" in2="result91" result="result1" scale="20" xChannelSelector="R" yChannelSelector="G"/><feComposite in="result1" in2="SourceGraphic" operator="atop" result="fbSourceGraphic"/><feColorMatrix in="fbSourceGraphic" result="fbSourceGraphicAlpha" values="0 0 0 -1 0 0 0 0 -1 0 0 0 0 -1 0 0 0 0 1 0"/><feTurbulence baseFrequency=".08" numOctaves="5" type="fractalNoise"/><feGaussianBlur result="result91" stdDeviation=".5"/><feDisplacementMap in="fbSourceGraphic" in2="result91" result="result1" scale="20" xChannelSelector="R" yChannelSelector="G"/><feComposite in="result1" in2="fbSourceGraphic" operator="atop" result="fbSourceGraphic"/><feColorMatrix in="fbSourceGraphic" result="fbSourceGraphicAlpha" values="0 0 0 -1 0 0 0 0 -1 0 0 0 0 -1 0 0 0 0 1 0"/><feTurbulence baseFrequency="10 5.02626" numOctaves="4" result="turbulence" seed="39" type="fractalNoise"/><feDisplacementMap in="fbSourceGraphic" in2="turbulence" scale="15.503" xChannelSelector="R" yChannelSelector="G"/></filter><filter id="c" width="1.118" height="1.303" x="-.059" y="-.152" style="color-interpolation-filters:sRGB"><feTurbulence baseFrequency=".08" numOctaves="5" type="fractalNoise"/><feGaussianBlur result="result91" stdDeviation="1.226"/><feDisplacementMap in="SourceGraphic" in2="result91" result="result1" scale="20" xChannelSelector="R" yChannelSelector="G"/><feComposite in="result1" in2="SourceGraphic" operator="atop" result="fbSourceGraphic"/><feColorMatrix in="fbSourceGraphic" result="fbSourceGraphicAlpha" values="0 0 0 -1 0 0 0 0 -1 0 0 0 0 -1 0 0 0 0 1 0"/><feTurbulence baseFrequency=".08" numOctaves="5" type="fractalNoise"/><feGaussianBlur result="result91" stdDeviation=".5"/><feDisplacementMap in="fbSourceGraphic" in2="result91" result="result1" scale="20" xChannelSelector="R" yChannelSelector="G"/><feComposite in="result1" in2="fbSourceGraphic" operator="atop" result="fbSourceGraphic"/><feColorMatrix in="fbSourceGraphic" result="fbSourceGraphicAlpha" values="0 0 0 -1 0 0 0 0 -1 0 0 0 0 -1 0 0 0 0 1 0"/><feTurbulence baseFrequency="10 5.02626" numOctaves="4" result="turbulence" seed="39" type="fractalNoise"/><feDisplacementMap in="fbSourceGraphic" in2="turbulence" scale="15.503" xChannelSelector="R" yChannelSelector="G"/></filter><filter id="e" width="1.06" height="1.197" x="-.054" y="-.098" style="color-interpolation-filters:sRGB"><feTurbulence baseFrequency="4.75928 5.3412" numOctaves="3" result="turbulence" seed="226"/><feDisplacementMap in="SourceGraphic" in2="turbulence" scale="24.369" xChannelSelector="R" yChannelSelector="G"/><feGaussianBlur stdDeviation=".002"/></filter><filter id="g" width="1.124" height="1.321" x="-.062" y="-.16" style="color-interpolation-filters:sRGB"><feTurbulence baseFrequency=".08" numOctaves="5" type="fractalNoise"/><feGaussianBlur result="result91" stdDeviation="1.226"/><feDisplacementMap in="SourceGraphic" in2="result91" result="result1" scale="20" xChannelSelector="R" yChannelSelector="G"/><feComposite in="result1" in2="SourceGraphic" operator="atop" result="fbSourceGraphic"/><feColorMatrix in="fbSourceGraphic" result="fbSourceGraphicAlpha" values="0 0 0 -1 0 0 0 0 -1 0 0 0 0 -1 0 0 0 0 1 0"/><feTurbulence baseFrequency=".08" numOctaves="5" type="fractalNoise"/><feGaussianBlur result="result91" stdDeviation=".5"/><feDisplacementMap in="fbSourceGraphic" in2="result91" result="result1" scale="20" xChannelSelector="R" yChannelSelector="G"/><feComposite in="result1" in2="fbSourceGraphic" operator="atop" result="fbSourceGraphic"/><feColorMatrix in="fbSourceGraphic" result="fbSourceGraphicAlpha" values="0 0 0 -1 0 0 0 0 -1 0 0 0 0 -1 0 0 0 0 1 0"/><feTurbulence baseFrequency="10 5.02626" numOctaves="4" result="turbulence" seed="39" type="fractalNoise"/><feDisplacementMap in="fbSourceGraphic" in2="turbulence" scale="15.503" xChannelSelector="R" yChannelSelector="G"/></filter><linearGradient id="a"><stop offset="0" style="stop-color:#000;stop-opacity:1"/><stop offset="1" style="stop-color:#000;stop-opacity:0"/></linearGradient></defs><path d="M-139.833-6.445c-13.777 1.77-34.96.01-45.597 5.691-3.295-2.03-5.468-4.671-6.096-8.004-3.993-21.164 37.074-18.558 57.095-21.13 7.97-1.151 18.772-3.625 29.443-4.775l-5.25 23.428c-10.613 1.125-21.548 3.629-29.595 4.79z" clip-path="url(#b)" style="fill:#fff;stroke:#000;stroke-width:1.99649;stroke-linecap:butt;stroke-linejoin:round;stroke-miterlimit:4;stroke-dasharray:none;stroke-opacity:1;filter:url(#c)" transform="matrix(.40182 0 0 .39759 83.912 15.785)"/><path d="M-94.681 25.282c-10.518 1.135-24.778 5.3-32.748 6.45-.835.108-11.136 2.22-12.027 2.29-20.45 1.574-53.697-2.784-54.128 17.85-.891 42.674 91.22 23.282 95.89 21.55" clip-path="url(#d)" style="fill:none;stroke:#000;stroke-width:10.6697;stroke-linecap:butt;stroke-linejoin:miter;stroke-miterlimit:4;stroke-dasharray:none;stroke-opacity:1;filter:url(#e)" transform="matrix(.54976 0 0 .5697 101.756 -23.605)"/><path d="M-139.833-6.445c-13.777 1.77-34.96.01-45.597 5.691-3.295-2.03-5.468-4.671-6.096-8.004-3.993-21.164 31.672-16.281 51.693-18.853 7.97-1.15 18.771-3.625 29.442-4.775l.154 21.151c-10.614 1.125-21.549 3.629-29.596 4.79z" clip-path="url(#f)" style="fill:none;stroke:#000;stroke-width:1.8624;stroke-linecap:butt;stroke-linejoin:round;stroke-miterlimit:4;stroke-dasharray:none;stroke-opacity:1;filter:url(#g)" transform="translate(83.72 15.787) scale(.40077)"/><path d="M37.667 21.724c-6.83.57-35.108 2.84-37.304-8.92C-1.992.2 14.648 3.357 26.455 1.825 29.39 1.397 32.725.716 36.133.14l3.344 2.67c-4.276.46-8.605 1.451-11.8 1.912C19.654 5.752 5.36 3.795 6.96 12.277c1.493 7.914 24.698 6.112 29.34 5.73.601-.05.997-.083 2.458-.322l3.877 3.04c-2.078.56-3.853.906-4.968 1z" style="fill:none;stroke:#000;stroke-width:.278969;stroke-linecap:round;stroke-linejoin:round;stroke-miterlimit:4;stroke-dasharray:none;stroke-opacity:1"/><path d="M27.678 13.204c-5.522.71-14.012.004-18.274 2.281-1.32-.813-2.192-1.872-2.444-3.208-1.6-8.482 12.694-6.525 20.718-7.556 3.194-.46 7.523-1.452 11.8-1.913l.06 8.477c-4.253.45-8.635 1.454-11.86 1.92z" style="fill:none;fill-opacity:1;fill-rule:nonzero;stroke:#000;stroke-width:.278969;stroke-linecap:butt;stroke-linejoin:round;stroke-miterlimit:4;stroke-dasharray:none;stroke-opacity:1"/><path d="M.171 10.311c.004.674.088 1.687.236 2.481 2.197 11.76 30.473 9.49 37.304 8.92 1.116-.092 2.89-.44 4.924-.987l-.044 8.495c-2.04.545-3.78.884-4.88.975-6.83.57-35.107 2.84-37.304-8.92a13.522 13.522 0 0 1-.236-2.48z" style="fill:#fff;stroke:#000;stroke-width:.278969;stroke-linecap:butt;stroke-linejoin:round;stroke-miterlimit:4;stroke-dasharray:none;stroke-opacity:1"/><path d="M316.564 101.67c.004.674.088 1.688.236 2.482 6.528 2.165-8.805 19.206 42.184 16.427-2.04.545-8.106 1.79-9.119 1.351-20.354-8.8-30.869 2.465-33.065-9.295a13.522 13.522 0 0 1-.236-2.482z" clip-path="url(#h)" style="opacity:1;fill:#000;fill-opacity:.998139;stroke:none;stroke-width:.278969;stroke-linecap:butt;stroke-linejoin:round;stroke-miterlimit:4;stroke-dasharray:none;stroke-opacity:1;filter:url(#i)" transform="translate(-316.393 -91.359)"/></svg>