<svg xmlns="http://www.w3.org/2000/svg" width="126.124" height="28.089" viewBox="0 0 33.37 7.432"><defs><linearGradient id="a"><stop offset="0" style="stop-color:#000;stop-opacity:1"/><stop offset="1" style="stop-color:#000;stop-opacity:0"/></linearGradient></defs><path d="M0 .397C2.379.295 3.184.226 5.584.151 18.38-.252 30.628-.04 33.274 3.22c1.592 1.961-16.922 3.657-26.836 4.21L.984 6.429c6.37-.273 25.061-1.685 23.883-3.122-1.757-2.144-10.089-2.261-19.74-1.957Z" style="opacity:1;mix-blend-mode:normal;fill:#000;stroke:none;stroke-width:.855744;stroke-linecap:butt;stroke-linejoin:round;stroke-miterlimit:4;stroke-dasharray:none;stroke-opacity:1"/><path d="M-2.663 8.88C-7.504 7.51-14.306 3.894-18.662 4.285c-.807-1.152-1.152-2.35-.884-3.56C-17.848-6.953-6.67-.222.364 1.77c2.82.751 6.77 1.462 10.488 2.598l-2.975 7.128C4.182 10.358.183 9.639-2.663 8.88Z" style="fill:none;fill-opacity:1;fill-rule:nonzero;stroke:none;stroke-width:.37205;stroke-linecap:butt;stroke-linejoin:round;stroke-miterlimit:4;stroke-dasharray:none;stroke-opacity:1"/><path d="M-2.663 8.88C-7.504 7.51-14.306 3.894-18.662 4.285c-.807-1.152-1.152-2.35-.884-3.56C-17.848-6.953-6.67-.222.364 1.77c2.82.751 6.77 1.462 10.488 2.598l-2.975 7.128C4.182 10.358.183 9.639-2.663 8.88Z" style="fill:none;fill-opacity:1;fill-rule:nonzero;stroke:none;stroke-width:.37205;stroke-linecap:butt;stroke-linejoin:round;stroke-miterlimit:4;stroke-dasharray:none;stroke-opacity:1"/></svg>