<svg xmlns="http://www.w3.org/2000/svg" width="168.451" height="41.617" viewBox="0 0 44.569 11.011"><defs><linearGradient id="a"><stop offset="0" style="stop-color:#000;stop-opacity:1"/><stop offset="1" style="stop-color:#000;stop-opacity:0"/></linearGradient></defs><path d="M37.1 0c-3.351.232-6.564.5-9.28.662-5.302.28-12.155.109-17.875.537-2.864.215-5.61.581-7.62 1.455C.312 3.527-.433 4.861.241 6.336c.73 1.601 3.72 2.708 7.154 3.365 3.434.656 7.505.977 11.647 1.148 8.284.344 16.916.05 20.231-.062 1.408-.048 3.182-.198 5.295-.43L43.134 8.17c-1.908.21-3.567.335-4.317.36-3.293.113-11.64.381-19.216.067-3.788-.157-7.367-.47-9.865-.948-2.5-.477-3.726-1.003-4.057-1.73-.466-1.018-.053-1.4.67-1.714.724-.314 2.289-.608 4.592-.78 4.606-.346 11.5-.196 17.615-.521l.043-.003c2.957-.176 6.187-.447 9.424-.67z" style="stroke-width:.247987;stroke-linejoin:bevel"/></svg>