<svg xmlns="http://www.w3.org/2000/svg" width="106.842" height="134.693" viewBox="0 0 28.269 35.637"><defs><clipPath id="b" clipPathUnits="userSpaceOnUse"><path d="m-157.736-154.108-.061-20.357c17.53-2.258 32.66-1.39 35.852 14.519.73 3.633-2.604 7.15-8.13 10.003-6.936-4.82-17.098-5.213-27.66-4.165z" style="fill:#fff;stroke:none;stroke-width:2;stroke-linecap:round;stroke-linejoin:round;stroke-miterlimit:4;stroke-dasharray:none;stroke-opacity:1"/></clipPath><clipPath id="d" clipPathUnits="userSpaceOnUse"><path d="M-151.4-110.21c14.078-2.783 39.738-11.006 40.29-20.454l-.008 15.257c-.949 9.42-33.247 19.331-40.228 20.527z" style="fill:#fff;stroke:none;stroke-width:2;stroke-linecap:butt;stroke-linejoin:round;stroke-miterlimit:4;stroke-dasharray:none;stroke-opacity:1"/></clipPath><clipPath id="f" clipPathUnits="userSpaceOnUse"><path d="M-125.415-240.68c4.32-.76 5.783-1.272 10.141-1.831 23.24-2.985 45.485-1.418 50.291 22.782 2.892 14.557-30.735 27.14-48.741 31.25l-9.904-7.448c11.57-2.027 45.516-12.506 43.376-23.173-3.191-15.91-18.323-16.776-35.852-14.518z" style="fill:#fff;stroke:none;stroke-width:2;stroke-linecap:butt;stroke-linejoin:round;stroke-miterlimit:4;stroke-dasharray:none;stroke-opacity:1"/></clipPath><clipPath id="g" clipPathUnits="userSpaceOnUse"><path d="m-169.167-116.656-.03 20.121 9.419 7.298-.062-20.357z" style="fill:#fff;stroke:none;stroke-width:.863418;stroke-linecap:round;stroke-linejoin:round;stroke-opacity:1"/></clipPath><clipPath id="i" clipPathUnits="userSpaceOnUse"><path d="m-169.456-117.406-.032 21.222 10 7.696-.065-21.47z" style="fill:#fff;stroke:none;stroke-width:2;stroke-linecap:round;stroke-linejoin:round;stroke-opacity:1"/></clipPath><filter id="c" width="1.052" height="1.073" x="-.026" y="-.037" style="color-interpolation-filters:sRGB"><feTurbulence baseFrequency=".08" numOctaves="5" type="fractalNoise"/><feGaussianBlur result="result91"/><feDisplacementMap in="SourceGraphic" in2="result91" result="result1" scale="20" xChannelSelector="R" yChannelSelector="G"/><feComposite in="result1" in2="SourceGraphic" operator="atop" result="fbSourceGraphic"/><feColorMatrix in="fbSourceGraphic" result="fbSourceGraphicAlpha" values="0 0 0 -1 0 0 0 0 -1 0 0 0 0 -1 0 0 0 0 1 0"/><feTurbulence baseFrequency="5.5236 6.19703" result="turbulence" seed="88" type="fractalNoise"/><feDisplacementMap in="fbSourceGraphic" in2="turbulence" scale="18.08" xChannelSelector="R" yChannelSelector="G"/></filter><filter id="e" width="1.031" height="1.034" x="-.015" y="-.017" style="color-interpolation-filters:sRGB"><feTurbulence baseFrequency="1.3551 2.40718" result="turbulence" seed="97" type="fractalNoise"/><feDisplacementMap in="SourceGraphic" in2="turbulence" scale="21.5" xChannelSelector="R" yChannelSelector="G"/></filter><filter id="h" width="1.186" height="1.064" x="-.093" y="-.032" style="color-interpolation-filters:sRGB"><feTurbulence baseFrequency="1 0.87560216677143199" result="turbulence" seed="841"/><feDisplacementMap in="SourceGraphic" in2="turbulence" scale="21.5" xChannelSelector="R" yChannelSelector="G"/></filter><filter id="j" width="1.188" height="1.065" x="-.094" y="-.032" style="color-interpolation-filters:sRGB"><feTurbulence baseFrequency="1" numOctaves="5" result="result0" type="fractalNoise"/><feConvolveMatrix kernelMatrix="-2 0 -2 0 -10 0 -2 0 -2" order="3 3" result="result5"/><feColorMatrix in="result5" result="result4" type="saturate" values="0"/><feComposite in="SourceGraphic" in2="result4" k1="1.5" k2=".5" k3=".5" operator="arithmetic" result="result2"/><feBlend in2="result4" result="result6"/><feComposite in="result6" in2="SourceGraphic" operator="in" result="fbSourceGraphic"/><feColorMatrix in="fbSourceGraphic" result="fbSourceGraphicAlpha" values="0 0 0 -1 0 0 0 0 -1 0 0 0 0 -1 0 0 0 0 1 0"/><feTurbulence baseFrequency="2.37125 0.953517" numOctaves="2" result="turbulence" seed="146" type="fractalNoise"/><feDisplacementMap in="fbSourceGraphic" in2="turbulence" scale="13.335" xChannelSelector="R" yChannelSelector="G"/><feGaussianBlur stdDeviation=".003"/></filter><linearGradient id="a"><stop offset="0" style="stop-color:#000;stop-opacity:1"/><stop offset="1" style="stop-color:#000;stop-opacity:0"/></linearGradient></defs><g style="stroke-width:.933534"><path d="m-157.736-154.108-.061-20.357c17.53-2.258 32.66-1.39 35.852 14.519.73 3.633-2.604 7.15-8.13 10.003-6.936-4.82-17.098-5.213-27.66-4.165z" clip-path="url(#b)" style="fill:none;stroke:#000;stroke-width:1.86378;stroke-linecap:round;stroke-linejoin:round;stroke-miterlimit:4;stroke-dasharray:none;stroke-opacity:1;filter:url(#c)" transform="translate(77.277 85.27) scale(.46147)"/><path d="M-160.964-113.197c17.075-3.897 48.196-15.414 48.865-28.647l-.01 21.368c-1.15 13.193-40.323 27.074-48.79 28.75z" clip-path="url(#d)" style="fill:none;stroke:#000;stroke-width:1.43005;stroke-linecap:butt;stroke-linejoin:round;stroke-miterlimit:4;stroke-dasharray:none;stroke-opacity:1;filter:url(#e)" transform="matrix(.55969 0 0 .6463 90.294 96.82)"/><path d="M-125.415-240.68c4.32-.76 5.783-1.272 10.141-1.831 23.24-2.985 45.485-1.418 50.291 22.782 2.892 14.557-30.735 27.14-48.741 31.25l-9.904-7.448c11.57-2.027 45.516-12.506 43.376-23.173-3.191-15.91-18.323-16.776-35.852-14.518z" clip-path="url(#f)" style="fill:none;stroke:#000;stroke-width:1.86378;stroke-linecap:butt;stroke-linejoin:round;stroke-miterlimit:4;stroke-dasharray:none;stroke-opacity:1;filter:url(#e)" transform="translate(58.037 112.567) scale(.46147)"/><path d="m-169.456-117.406-.032 21.222 10 7.696-.065-21.47z" clip-path="url(#g)" style="mix-blend-mode:normal;fill:none;stroke:#000;stroke-width:1.86378;stroke-linecap:round;stroke-linejoin:round;stroke-opacity:1;filter:url(#h)" transform="translate(78.219 55.334) scale(.46147)"/><path d="m-169.456-117.406-.032 21.222 10 7.696-.065-21.47z" clip-path="url(#i)" style="mix-blend-mode:normal;fill:none;stroke:#000;stroke-width:1.86378;stroke-linecap:round;stroke-linejoin:round;stroke-opacity:1;filter:url(#j)" transform="translate(79.185 76.332) scale(.46147)"/></g><g style="stroke-width:.370497;stroke-miterlimit:4;stroke-dasharray:none"><path d="m331.823 74.298-.038-12.476c10.743-1.384 20.017-.853 21.973 8.898.447 2.227-1.596 4.383-4.982 6.13-4.252-2.953-10.48-3.194-16.953-2.552z" style="fill:none;stroke:#000;stroke-width:.370497;stroke-linecap:round;stroke-linejoin:round;stroke-miterlimit:4;stroke-dasharray:none;stroke-opacity:1" transform="translate(-245.363 -41.79) scale(.75296)"/><path d="M333.244 89.486c10.465-2.388 29.538-9.447 29.948-17.557l-.006 13.096c-.705 8.086-24.714 16.593-29.902 17.62z" style="fill:none;stroke:#000;stroke-width:.370497;stroke-linecap:butt;stroke-linejoin:round;stroke-miterlimit:4;stroke-dasharray:none;stroke-opacity:1" transform="translate(-245.363 -41.79) scale(.75296)"/><path d="M326.079 57.494c2.647-.466 3.544-.78 6.215-1.123 14.243-1.828 27.876-.868 30.822 13.963 1.772 8.922-18.836 16.633-29.872 19.152l-6.07-4.564c7.09-1.242 27.896-7.665 26.584-14.202-1.956-9.75-11.23-10.282-21.973-8.898z" style="fill:none;stroke:#000;stroke-width:.370497;stroke-linecap:butt;stroke-linejoin:round;stroke-miterlimit:4;stroke-dasharray:none;stroke-opacity:1" transform="translate(-245.363 -41.79) scale(.75296)"/><path d="m327.174 84.922-.02 13.006 6.13 4.717-.04-13.159zm-1.105-27.428-.019 12.331 5.773 4.473-.038-12.476z" style="fill:none;stroke:#000;stroke-width:.370497;stroke-linecap:round;stroke-linejoin:round;stroke-miterlimit:4;stroke-dasharray:none;stroke-opacity:1" transform="translate(-245.363 -41.79) scale(.75296)"/></g></svg>