<svg xmlns="http://www.w3.org/2000/svg" width="461.087" height="400.679" viewBox="0 0 121.996 106.013"><path d="m0 0 18.804 106.013L121.996 82.82Z" style="fill:currentColor;stroke:none;stroke-width:0px;stroke-linecap:butt;stroke-linejoin:miter;stroke-opacity:1"/><path d="M20.086 65.775c-4.841-1.372-11.643-4.986-15.998-4.596-.807-1.152-1.152-2.35-.885-3.56 1.699-7.68 12.876-.948 19.91 1.046 2.82.75 6.77 1.46 10.488 2.598l-2.974 7.127c-3.695-1.137-7.695-1.857-10.541-2.615z" style="fill:none;fill-opacity:1;fill-rule:nonzero;stroke:none;stroke-width:.37205;stroke-linecap:butt;stroke-linejoin:round;stroke-miterlimit:4;stroke-dasharray:none;stroke-opacity:1"/><path d="M20.086 65.775c-4.841-1.372-11.643-4.986-15.998-4.596-.807-1.152-1.152-2.35-.885-3.56 1.699-7.68 12.876-.948 19.91 1.046 2.82.75 6.77 1.46 10.488 2.598l-2.974 7.127c-3.695-1.137-7.695-1.857-10.541-2.615z" style="fill:none;fill-opacity:1;fill-rule:nonzero;stroke:none;stroke-width:.37205;stroke-linecap:butt;stroke-linejoin:round;stroke-miterlimit:4;stroke-dasharray:none;stroke-opacity:1"/></svg>
