<?xml version="1.0" encoding="UTF-8" standalone="no"?>
<!-- Generated by IcoMoon.io -->

<svg
   version="1.1"
   width="119.83997"
   height="138"
   viewBox="0 0 119.83997 138"
   id="svg6"
   sodipodi:docname="Github2.svg"
   inkscape:version="1.1.2 (0a00cf5339, 2022-02-04)"
   xmlns:inkscape="http://www.inkscape.org/namespaces/inkscape"
   xmlns:sodipodi="http://sodipodi.sourceforge.net/DTD/sodipodi-0.dtd"
   xmlns="http://www.w3.org/2000/svg"
   xmlns:svg="http://www.w3.org/2000/svg"
   xmlns:rdf="http://www.w3.org/1999/02/22-rdf-syntax-ns#"
   xmlns:cc="http://creativecommons.org/ns#"
   xmlns:dc="http://purl.org/dc/elements/1.1/">
  <defs
     id="defs10" />
  <sodipodi:namedview
     id="namedview8"
     pagecolor="#ffffff"
     bordercolor="#666666"
     borderopacity="1.0"
     inkscape:pageshadow="2"
     inkscape:pageopacity="0.0"
     inkscape:pagecheckerboard="0"
     showgrid="false"
     inkscape:zoom="6.2387442"
     inkscape:cx="60.508972"
     inkscape:cy="46.082992"
     inkscape:window-width="1920"
     inkscape:window-height="1029"
     inkscape:window-x="0"
     inkscape:window-y="27"
     inkscape:window-maximized="1"
     inkscape:current-layer="svg6"
     fit-margin-top="5"
     fit-margin-left="5"
     fit-margin-bottom="5"
     fit-margin-right="5" />
  <title
     id="title2">github-circle</title>
  <path
     d="m 84.79954,132.99999 c 0,0 -1.543972,-1.41887 -1.58066,-2.9005 v -26.20731 c 0,-6.838978 -1.833561,-11.844402 -5.500689,-15.016253 4.078098,-0.410971 7.768935,-1.082749 11.341223,-2.015339 l -0.505811,0.11066 c 3.785677,-1.05904 7.089251,-2.465827 10.147824,-4.236165 l -0.205472,0.110661 c 3.358895,-1.849371 6.196185,-4.196647 8.535555,-6.986509 l 0.0395,-0.04743 c 2.29196,-2.787228 4.15976,-6.488601 5.60343,-11.104123 1.44368,-4.615521 2.16551,-9.921261 2.16551,-15.917227 0,-8.530282 -2.78459,-15.793406 -8.35378,-21.78937 2.60808,-6.417472 2.3262,-13.609466 -0.84565,-21.5759831 -1.97583,-0.637535 -4.83155,-0.2502744 -8.567171,1.1617838 -3.754063,1.3909791 -6.954896,2.9558307 -9.981855,4.7972973 l 0.252906,-0.14226 -4.022773,2.536956 C 77.236112,12.032252 70.2417,11.028534 63.010189,11.028534 c -7.231511,0 -14.218019,1.003718 -20.84888,2.876798 l 0.537427,-0.126457 C 38.035794,4.8718669 26.212471,4.3028299 20.2771,5.4250968 16.325455,11.724019 16.799652,21.658456 19.53419,27.00108 c -5.569185,5.995964 -8.353778,13.259088 -8.353778,21.78937 0,5.995966 0.721832,11.283267 2.165502,15.861906 1.443668,4.578636 3.295672,8.280015 5.556013,11.104123 2.339374,2.868893 5.160849,5.23988 8.369585,7.010218 l 0.150163,0.07114 c 2.853063,1.659671 6.156638,3.07436 9.634086,4.054367 l 0.300325,0.07114 c 3.07438,0.829845 6.765217,1.493719 10.535086,1.880981 l 0.308229,0.02367 c -2.818843,2.539588 -4.547026,6.172471 -5.184559,10.898636 -1.367269,0.663879 -2.955831,1.209209 -4.623425,1.564849 l -0.134355,0.0237 c -1.691304,0.33985 -3.635514,0.52953 -5.61924,0.52953 h -0.426778 0.0237 c -2.328836,0 -4.639231,-0.75872 -6.931186,-2.276151 -2.291951,-1.51744 -4.249333,-3.722456 -5.872142,-6.61506 -1.311946,-2.220826 -3.02696,-4.05439 -5.073912,-5.461174 l -0.05532,-0.03952 c -2.0812,-1.412056 -3.825193,-2.257708 -5.2319788,-2.536956 L 8.1139051,84.742447 c -0.1580665,-0.03952 -0.3477448,-0.06323 -0.5374238,-0.06323 -0.9483947,0 -1.770337,0.537423 -2.1734048,1.319849 l -0.00791,0.01588 -0.1264533,0.244996 C 5.09484,86.583977 5,86.971239 5,87.382209 c 0,0.987912 0.5769403,1.833564 1.4146889,2.220826 l 0.015821,0.0078 c 1.5490449,0.706002 3.0822835,2.046952 4.5997151,4.022776 1.256623,1.564851 2.370987,3.335188 3.264059,5.231979 l 0.07113,0.158066 1.059041,2.434214 c 0.893072,2.6555 2.513246,4.87633 4.623425,6.4807 l 0.03161,0.0237 c 1.975822,1.54904 4.37052,2.66341 6.986509,3.15341 l 0.102743,0.0159 c 2.181308,0.42678 4.718264,0.69549 7.310544,0.74291 h 0.03952 c 0.292422,0.008 0.640167,0.0159 0.987911,0.0159 1.722918,0 3.414222,-0.14225 5.058107,-0.41097 l -0.181776,0.0237 2.434214,-0.41888 c 0,2.67659 0.01841,5.81419 0.05532,9.41282 0.01557,1.43326 0.03114,6.37754 0.03999,9.60249 0.0046,1.68318 -1.573229,2.90051 -1.573229,2.90051 z"
     id="path4"
     sodipodi:nodetypes="ccscccccccssccccccsccccssccccccccccsccscccccscccsccccccccccccsccccscc"
     style="stroke-width:1" />
  <metadata
     id="metadata827">
    <rdf:RDF>
      <cc:Work
         rdf:about="">
        <dc:title>github-circle</dc:title>
      </cc:Work>
    </rdf:RDF>
  </metadata>
</svg>
