<svg xmlns="http://www.w3.org/2000/svg" xmlns:xlink="http://www.w3.org/1999/xlink" width="600" height="541.75" viewBox="0 0 158.75 143.338"><defs><clipPath id="f" clipPathUnits="userSpaceOnUse"><path d="m-152.588-155.062-.099-15.983c11.342-1.706 24.69-1.377 26.754 10.644.472 2.746-1.684 5.404-5.26 7.559-4.488-3.642-14.56-3.012-21.395-2.22z" style="fill:#fff;stroke:none;stroke-width:1.66469;stroke-linecap:round;stroke-linejoin:round;stroke-miterlimit:4;stroke-dasharray:none;stroke-opacity:1"/></clipPath><clipPath id="g" clipPathUnits="userSpaceOnUse"><path d="m-157.736-154.108-.118-18.991c13.476-2.028 29.337-1.637 31.79 12.647.56 3.262-2.002 6.42-6.25 8.981-5.333-4.327-17.301-3.578-25.422-2.637z" style="fill:#fff;stroke:none;stroke-width:1.978;stroke-linecap:round;stroke-linejoin:round;stroke-miterlimit:4;stroke-dasharray:none;stroke-opacity:1"/></clipPath><clipPath id="i" clipPathUnits="userSpaceOnUse"><path d="M-139.833-6.445c-13.777 1.77-34.96.01-45.597 5.691-3.295-2.03-5.468-4.671-6.096-8.004-3.993-21.164 31.672-16.281 51.693-18.853 7.97-1.15 18.771-3.625 29.442-4.775l.154 21.151c-10.614 1.125-21.549 3.629-29.596 4.79z" style="fill:#fff;stroke:none;stroke-width:2;stroke-linecap:butt;stroke-linejoin:round;stroke-miterlimit:4;stroke-dasharray:none;stroke-opacity:1"/></clipPath><clipPath id="k" clipPathUnits="userSpaceOnUse"><path d="M-123.83-240.31c3.898-.748 9.31-2.074 13.242-2.625 20.969-2.938 41.04-1.395 45.377 22.428 2.609 14.33-27.732 26.718-43.98 30.764l-8.729-7.467c10.44-1.995 40.862-12.176 38.932-22.677-2.88-15.663-21.495-16.09-37.312-13.868z" style="fill:#fff;stroke:none;stroke-width:.482052;stroke-linecap:butt;stroke-linejoin:round;stroke-miterlimit:4;stroke-dasharray:1.9282,.964105;stroke-dashoffset:0;stroke-opacity:1"/></clipPath><clipPath id="l" clipPathUnits="userSpaceOnUse"><path d="M-144.815-111.06c11.777-2.327 33.242-9.206 33.703-17.11l-.006 12.763c-.793 7.88-27.812 16.17-33.651 17.172z" style="fill:#fff;stroke:none;stroke-width:2.00001;stroke-linecap:butt;stroke-linejoin:round;stroke-miterlimit:4;stroke-dasharray:none;stroke-opacity:1"/></clipPath><clipPath id="n" clipPathUnits="userSpaceOnUse"><path d="M-307.293 87.449c.009 1.682.219 4.21.589 6.192 5.48 29.343 76.037 23.676 93.08 22.257 2.784-.231 7.212-1.1 12.287-2.464l-.11 21.197c-5.09 1.359-9.433 2.206-12.177 2.434-17.043 1.418-87.6 7.086-93.08-22.257a33.742 33.742 0 0 1-.59-6.193z" style="fill:#fff;stroke:none;stroke-width:2;stroke-linecap:butt;stroke-linejoin:round;stroke-opacity:1"/></clipPath><clipPath id="o" clipPathUnits="userSpaceOnUse"><path d="M-151.4-110.21c14.078-2.783 39.738-11.006 40.29-20.454l-.008 15.257c-.949 9.42-33.247 19.331-40.228 20.527z" style="fill:#fff;stroke:none;stroke-width:2;stroke-linecap:butt;stroke-linejoin:round;stroke-miterlimit:4;stroke-dasharray:none;stroke-opacity:1"/></clipPath><clipPath id="q" clipPathUnits="userSpaceOnUse"><path d="M-116.575 79.567c-12.425.997-63.86 4.984-67.855-15.658-4.282-22.125 25.985-16.582 47.46-19.271 5.338-.751 11.404-1.947 17.605-2.96l6.084 4.684c-7.78.81-15.654 2.55-21.464 3.36-14.595 1.809-40.594-1.626-37.684 13.262 2.716 13.89 44.924 10.728 53.368 10.056 1.094-.087 1.813-.144 4.47-.564l7.054 5.336c-3.78.98-7.009 1.592-9.038 1.755z" style="fill:#fff;stroke:none;stroke-width:2;stroke-linecap:round;stroke-linejoin:round;stroke-miterlimit:4;stroke-dasharray:none;stroke-opacity:1"/></clipPath><clipPath id="s" clipPathUnits="userSpaceOnUse"><path d="m-157.736-154.108-.061-20.357c17.53-2.258 32.66-1.39 35.852 14.519.73 3.633-2.604 7.15-8.13 10.003-6.936-4.82-17.098-5.213-27.66-4.165z" style="fill:#fff;stroke:none;stroke-width:2;stroke-linecap:round;stroke-linejoin:round;stroke-miterlimit:4;stroke-dasharray:none;stroke-opacity:1"/></clipPath><clipPath id="u" clipPathUnits="userSpaceOnUse"><path d="M-151.4-110.21c14.078-2.783 39.738-11.006 40.29-20.454l-.008 15.257c-.949 9.42-33.247 19.331-40.228 20.527z" style="fill:#fff;stroke:none;stroke-width:2;stroke-linecap:butt;stroke-linejoin:round;stroke-miterlimit:4;stroke-dasharray:none;stroke-opacity:1"/></clipPath><clipPath id="v" clipPathUnits="userSpaceOnUse"><path d="M-125.415-240.68c4.32-.76 5.783-1.272 10.141-1.831 23.24-2.985 45.485-1.418 50.291 22.782 2.892 14.557-30.735 27.14-48.741 31.25l-9.904-7.448c11.57-2.027 45.516-12.506 43.376-23.173-3.191-15.91-18.323-16.776-35.852-14.518z" style="fill:#fff;stroke:none;stroke-width:2;stroke-linecap:butt;stroke-linejoin:round;stroke-miterlimit:4;stroke-dasharray:none;stroke-opacity:1"/></clipPath><clipPath id="x" clipPathUnits="userSpaceOnUse"><path d="m-169.167-116.656-.03 20.121 9.419 7.298-.062-20.357z" style="fill:#fff;stroke:none;stroke-width:.863418;stroke-linecap:round;stroke-linejoin:round;stroke-opacity:1"/></clipPath><clipPath id="z" clipPathUnits="userSpaceOnUse"><path d="m-169.456-117.406-.032 21.222 10 7.696-.065-21.47z" style="fill:#fff;stroke:none;stroke-width:2;stroke-linecap:round;stroke-linejoin:round;stroke-opacity:1"/></clipPath><clipPath id="B" clipPathUnits="userSpaceOnUse"><path d="M-139.833-6.445c-13.777 1.77-34.96.01-45.597 5.691-3.295-2.03-5.468-4.671-6.096-8.004-3.993-21.164 31.672-16.281 51.693-18.853 7.97-1.15 18.771-3.625 29.442-4.775l.154 21.151c-10.614 1.125-21.549 3.629-29.596 4.79z" style="fill:#fff;stroke:none;stroke-width:2;stroke-linecap:butt;stroke-linejoin:round;stroke-miterlimit:4;stroke-dasharray:none;stroke-opacity:1"/></clipPath><clipPath id="D" clipPathUnits="userSpaceOnUse"><path d="M-116.575 79.567c-12.425.997-63.86 4.984-67.855-15.658-4.282-22.125 25.985-16.582 47.46-19.271 5.338-.751 11.404-1.947 17.605-2.96l6.084 4.684c-7.78.81-15.654 2.55-21.464 3.36-14.595 1.809-40.594-1.626-37.684 13.262 2.716 13.89 44.924 10.728 53.368 10.056 1.094-.087 1.813-.144 4.47-.564l7.054 5.336c-3.78.98-7.009 1.592-9.038 1.755z" style="fill:#fff;stroke:none;stroke-width:2;stroke-linecap:round;stroke-linejoin:round;stroke-miterlimit:4;stroke-dasharray:none;stroke-opacity:1"/></clipPath><clipPath id="F" clipPathUnits="userSpaceOnUse"><path d="M-307.293 87.449c.009 1.682.219 4.21.589 6.192 5.48 29.343 76.037 23.676 93.08 22.257 2.784-.231 7.212-1.1 12.287-2.464l-.11 21.197c-5.09 1.359-9.433 2.206-12.177 2.434-17.043 1.418-87.6 7.086-93.08-22.257a33.742 33.742 0 0 1-.59-6.193z" style="fill:#fff;stroke:none;stroke-width:2;stroke-linecap:butt;stroke-linejoin:round;stroke-opacity:1"/></clipPath><clipPath id="H" clipPathUnits="userSpaceOnUse"><path d="M-139.833-6.445c-13.777 1.77-34.96.01-45.597 5.691-3.295-2.03-5.468-4.671-6.096-8.004-3.993-21.164 31.672-16.281 51.693-18.853 7.97-1.15 18.771-3.625 29.442-4.775l.154 21.151c-10.614 1.125-21.549 3.629-29.596 4.79z" style="fill:#fff;stroke:none;stroke-width:2;stroke-linecap:butt;stroke-linejoin:round;stroke-miterlimit:4;stroke-dasharray:none;stroke-opacity:1"/></clipPath><filter id="e" width="1.061" height="1.087" x="-.031" y="-.044" style="color-interpolation-filters:sRGB"><feTurbulence baseFrequency=".08" numOctaves="5" type="fractalNoise"/><feGaussianBlur result="result91"/><feDisplacementMap in="SourceGraphic" in2="result91" result="result1" scale="20" xChannelSelector="R" yChannelSelector="G"/><feComposite in="result1" in2="SourceGraphic" operator="atop" result="fbSourceGraphic"/><feColorMatrix in="fbSourceGraphic" result="fbSourceGraphicAlpha" values="0 0 0 -1 0 0 0 0 -1 0 0 0 0 -1 0 0 0 0 1 0"/><feTurbulence baseFrequency="5.5236 6.19703" result="turbulence" seed="88" type="fractalNoise"/><feDisplacementMap in="fbSourceGraphic" in2="turbulence" scale="18.08" xChannelSelector="R" yChannelSelector="G"/></filter><filter id="h" width="1.046" height="1.119" x="-.023" y="-.059" style="color-interpolation-filters:sRGB"><feTurbulence baseFrequency=".08" numOctaves="5" type="fractalNoise"/><feGaussianBlur result="result91" stdDeviation=".177"/><feDisplacementMap in="SourceGraphic" in2="result91" result="result1" scale="20" xChannelSelector="R" yChannelSelector="G"/><feComposite in="result1" in2="SourceGraphic" operator="atop" result="fbSourceGraphic"/><feColorMatrix in="fbSourceGraphic" result="fbSourceGraphicAlpha" values="0 0 0 -1 0 0 0 0 -1 0 0 0 0 -1 0 0 0 0 1 0"/><feTurbulence baseFrequency=".08" numOctaves="5" type="fractalNoise"/><feGaussianBlur result="result91" stdDeviation=".5"/><feDisplacementMap in="fbSourceGraphic" in2="result91" result="result1" scale="20" xChannelSelector="R" yChannelSelector="G"/><feComposite in="result1" in2="fbSourceGraphic" operator="atop" result="fbSourceGraphic"/><feColorMatrix in="fbSourceGraphic" result="fbSourceGraphicAlpha" values="0 0 0 -1 0 0 0 0 -1 0 0 0 0 -1 0 0 0 0 1 0"/><feTurbulence baseFrequency="10 5.02626" numOctaves="4" result="turbulence" seed="39" type="fractalNoise"/><feDisplacementMap in="fbSourceGraphic" in2="turbulence" scale="15.503" xChannelSelector="R" yChannelSelector="G"/></filter><filter id="j" width="1.038" height="1.041" x="-.019" y="-.02" style="color-interpolation-filters:sRGB"><feTurbulence baseFrequency="1.3551 2.40718" result="turbulence" seed="97" type="fractalNoise"/><feDisplacementMap in="SourceGraphic" in2="turbulence" scale="21.5" xChannelSelector="R" yChannelSelector="G"/></filter><filter id="p" width="1.003" height="1.007" x="-.002" y="-.003" style="color-interpolation-filters:sRGB"><feTurbulence baseFrequency="4.75928 5.3412" numOctaves="3" result="turbulence" seed="226"/><feDisplacementMap in="SourceGraphic" in2="turbulence" scale="24.369" xChannelSelector="R" yChannelSelector="G"/><feGaussianBlur stdDeviation=".002"/></filter><filter id="r" width="1.052" height="1.073" x="-.026" y="-.037" style="color-interpolation-filters:sRGB"><feTurbulence baseFrequency=".08" numOctaves="5" type="fractalNoise"/><feGaussianBlur result="result91"/><feDisplacementMap in="SourceGraphic" in2="result91" result="result1" scale="20" xChannelSelector="R" yChannelSelector="G"/><feComposite in="result1" in2="SourceGraphic" operator="atop" result="fbSourceGraphic"/><feColorMatrix in="fbSourceGraphic" result="fbSourceGraphicAlpha" values="0 0 0 -1 0 0 0 0 -1 0 0 0 0 -1 0 0 0 0 1 0"/><feTurbulence baseFrequency="5.5236 6.19703" result="turbulence" seed="88" type="fractalNoise"/><feDisplacementMap in="fbSourceGraphic" in2="turbulence" scale="18.08" xChannelSelector="R" yChannelSelector="G"/></filter><filter id="t" width="1.031" height="1.034" x="-.015" y="-.017" style="color-interpolation-filters:sRGB"><feTurbulence baseFrequency="1.3551 2.40718" result="turbulence" seed="97" type="fractalNoise"/><feDisplacementMap in="SourceGraphic" in2="turbulence" scale="21.5" xChannelSelector="R" yChannelSelector="G"/></filter><filter id="w" width="1.186" height="1.064" x="-.093" y="-.032" style="color-interpolation-filters:sRGB"><feTurbulence baseFrequency="1 0.87560216677143199" result="turbulence" seed="841"/><feDisplacementMap in="SourceGraphic" in2="turbulence" scale="21.5" xChannelSelector="R" yChannelSelector="G"/></filter><filter id="y" width="1.188" height="1.065" x="-.094" y="-.032" style="color-interpolation-filters:sRGB"><feTurbulence baseFrequency="1" numOctaves="5" result="result0" type="fractalNoise"/><feConvolveMatrix kernelMatrix="-2 0 -2 0 -10 0 -2 0 -2" order="3 3" result="result5"/><feColorMatrix in="result5" result="result4" type="saturate" values="0"/><feComposite in="SourceGraphic" in2="result4" k1="1.5" k2=".5" k3=".5" operator="arithmetic" result="result2"/><feBlend in2="result4" result="result6"/><feComposite in="result6" in2="SourceGraphic" operator="in" result="fbSourceGraphic"/><feColorMatrix in="fbSourceGraphic" result="fbSourceGraphicAlpha" values="0 0 0 -1 0 0 0 0 -1 0 0 0 0 -1 0 0 0 0 1 0"/><feTurbulence baseFrequency="2.37125 0.953517" numOctaves="2" result="turbulence" seed="146" type="fractalNoise"/><feDisplacementMap in="fbSourceGraphic" in2="turbulence" scale="13.335" xChannelSelector="R" yChannelSelector="G"/><feGaussianBlur stdDeviation=".003"/></filter><filter id="b" width="1.191" height="1.219" x="-.095" y="-.11" style="color-interpolation-filters:sRGB"><feGaussianBlur stdDeviation="11.319"/></filter><filter id="A" width="1.118" height="1.303" x="-.059" y="-.152" style="color-interpolation-filters:sRGB"><feTurbulence baseFrequency=".08" numOctaves="5" type="fractalNoise"/><feGaussianBlur result="result91" stdDeviation="1.226"/><feDisplacementMap in="SourceGraphic" in2="result91" result="result1" scale="20" xChannelSelector="R" yChannelSelector="G"/><feComposite in="result1" in2="SourceGraphic" operator="atop" result="fbSourceGraphic"/><feColorMatrix in="fbSourceGraphic" result="fbSourceGraphicAlpha" values="0 0 0 -1 0 0 0 0 -1 0 0 0 0 -1 0 0 0 0 1 0"/><feTurbulence baseFrequency=".08" numOctaves="5" type="fractalNoise"/><feGaussianBlur result="result91" stdDeviation=".5"/><feDisplacementMap in="fbSourceGraphic" in2="result91" result="result1" scale="20" xChannelSelector="R" yChannelSelector="G"/><feComposite in="result1" in2="fbSourceGraphic" operator="atop" result="fbSourceGraphic"/><feColorMatrix in="fbSourceGraphic" result="fbSourceGraphicAlpha" values="0 0 0 -1 0 0 0 0 -1 0 0 0 0 -1 0 0 0 0 1 0"/><feTurbulence baseFrequency="10 5.02626" numOctaves="4" result="turbulence" seed="39" type="fractalNoise"/><feDisplacementMap in="fbSourceGraphic" in2="turbulence" scale="15.503" xChannelSelector="R" yChannelSelector="G"/></filter><filter id="C" width="1.141" height="1.222" x="-.07" y="-.11" style="color-interpolation-filters:sRGB"><feTurbulence baseFrequency="4.75928 5.3412" numOctaves="3" result="turbulence" seed="226"/><feDisplacementMap in="SourceGraphic" in2="turbulence" scale="24.369" xChannelSelector="R" yChannelSelector="G"/><feGaussianBlur stdDeviation=".002"/></filter><filter id="G" width="1.124" height="1.321" x="-.062" y="-.16" style="color-interpolation-filters:sRGB"><feTurbulence baseFrequency=".08" numOctaves="5" type="fractalNoise"/><feGaussianBlur result="result91" stdDeviation="1.226"/><feDisplacementMap in="SourceGraphic" in2="result91" result="result1" scale="20" xChannelSelector="R" yChannelSelector="G"/><feComposite in="result1" in2="SourceGraphic" operator="atop" result="fbSourceGraphic"/><feColorMatrix in="fbSourceGraphic" result="fbSourceGraphicAlpha" values="0 0 0 -1 0 0 0 0 -1 0 0 0 0 -1 0 0 0 0 1 0"/><feTurbulence baseFrequency=".08" numOctaves="5" type="fractalNoise"/><feGaussianBlur result="result91" stdDeviation=".5"/><feDisplacementMap in="fbSourceGraphic" in2="result91" result="result1" scale="20" xChannelSelector="R" yChannelSelector="G"/><feComposite in="result1" in2="fbSourceGraphic" operator="atop" result="fbSourceGraphic"/><feColorMatrix in="fbSourceGraphic" result="fbSourceGraphicAlpha" values="0 0 0 -1 0 0 0 0 -1 0 0 0 0 -1 0 0 0 0 1 0"/><feTurbulence baseFrequency="10 5.02626" numOctaves="4" result="turbulence" seed="39" type="fractalNoise"/><feDisplacementMap in="fbSourceGraphic" in2="turbulence" scale="15.503" xChannelSelector="R" yChannelSelector="G"/></filter><filter id="I" width="1.677" height="2.759" x="-.338" y="-.88" style="color-interpolation-filters:sRGB"><feGaussianBlur stdDeviation="17.224"/></filter><filter id="c" width="1.763" height="2.559" x="-.406" y="-.779" style="color-interpolation-filters:sRGB"><feGaussianBlur stdDeviation="14.992"/></filter><filter id="d" width="1.886" height="1.974" x="-.443" y="-.487" style="color-interpolation-filters:sRGB"><feGaussianBlur stdDeviation="10.53"/></filter><linearGradient id="a"><stop offset="0" style="stop-color:#000;stop-opacity:1"/><stop offset="1" style="stop-color:#000;stop-opacity:0"/></linearGradient><linearGradient xlink:href="#a" id="m" x1="-420.662" x2="-419.498" y1="97.794" y2="98.634" gradientTransform="translate(104.205 6.427)" gradientUnits="userSpaceOnUse"/><linearGradient xlink:href="#a" id="E" x1="-420.662" x2="-419.498" y1="97.794" y2="98.634" gradientTransform="translate(104.205 6.427)" gradientUnits="userSpaceOnUse"/></defs><path d="m323.343 68.539 43.928 247.653 241.062-54.181z" style="fill:#fff;stroke:none;stroke-width:.264583px;stroke-linecap:butt;stroke-linejoin:miter;stroke-opacity:1;filter:url(#b)" transform="matrix(.42807 0 0 .42807 -113.287 -3.643)"/><path d="M408.114 457.65c-8.506 1.439-16.826 3.139-24.148 4.206-29.46 3.823-70.98-4.057-65.105 27.395 5.481 29.343 76.037 23.676 93.08 22.257 2.784-.231 7.212-1.1 12.398-2.493" style="opacity:.650737;mix-blend-mode:normal;fill:none;stroke:#000;stroke-width:14.2657;stroke-linecap:butt;stroke-linejoin:miter;stroke-miterlimit:4;stroke-dasharray:none;stroke-opacity:1;filter:url(#c)" transform="matrix(.3134 0 0 .12824 -59.405 24.7)"/><path d="M578.42 471.894c4.32-.76 5.783-1.272 10.142-1.831 23.24-2.984 45.484-1.417 50.29 22.783 2.892 14.556-30.734 27.139-48.74 31.249l-9.904-7.448c11.569-2.026 45.515-12.505 43.375-23.172-3.191-15.91-18.323-16.777-35.852-14.519z" style="opacity:.795063;mix-blend-mode:normal;fill:none;stroke:#000;stroke-width:3.14156;stroke-linecap:butt;stroke-linejoin:round;stroke-miterlimit:4;stroke-dasharray:none;stroke-opacity:1;filter:url(#d)" transform="matrix(.61022 0 0 .14935 -291.286 20.345)"/><path d="m-157.206-152.881-.591-21.584c17.53-2.258 32.66-1.39 35.852 14.519.73 3.633-2.604 7.15-8.13 10.003-6.936-4.82-16.568-3.986-27.13-2.938z" clip-path="url(#f)" style="fill:#fff;stroke:#000;stroke-width:2.20304;stroke-linecap:round;stroke-linejoin:round;stroke-miterlimit:4;stroke-dasharray:none;stroke-opacity:1;filter:url(#e)" transform="matrix(.51469 .22059 -.18934 .44456 97.043 201.388)"/><path d="M237.936 45.012c-6.887-1.951-16.564-7.093-22.76-6.538-1.148-1.639-1.639-3.343-1.258-5.063 2.416-10.925 18.318-1.35 28.326 1.486 4.01 1.068 9.63 2.079 14.92 3.696l-4.232 10.14c-5.257-1.618-10.947-2.642-14.996-3.72z" style="fill:none;fill-opacity:1;fill-rule:nonzero;stroke:none;stroke-width:.5293;stroke-linecap:butt;stroke-linejoin:round;stroke-miterlimit:4;stroke-dasharray:none;stroke-opacity:1" transform="matrix(.70291 0 0 .70291 -122.036 59.832)"/><path d="m-157.206-152.881-.591-21.584c17.53-2.258 32.66-1.39 35.852 14.519.73 3.633-2.604 7.15-8.13 10.003-6.936-4.82-16.568-3.986-27.13-2.938z" clip-path="url(#g)" style="fill:none;stroke:#000;stroke-width:2.20304;stroke-linecap:round;stroke-linejoin:round;stroke-miterlimit:4;stroke-dasharray:none;stroke-opacity:1;filter:url(#e)" transform="matrix(.43316 .18565 -.15935 .37414 91.635 185.737)"/><path d="M240.579 68.257c8.882 1.604 25.97 2.42 28.98-3.769l-4.353 10.21c-3.23 6.071-24.614 4.751-28.966 3.833z" style="fill:#fff;stroke:none;stroke-width:.26465;stroke-linecap:butt;stroke-linejoin:round;stroke-miterlimit:4;stroke-dasharray:none;stroke-opacity:1" transform="matrix(.70291 0 0 .70291 -122.036 59.832)"/><path d="M-139.833-6.445c-13.777 1.77-34.96.01-45.597 5.691-3.295-2.03-5.468-4.671-6.096-8.004-3.993-21.164 31.672-16.281 51.693-18.853 7.97-1.15 18.771-3.625 29.442-4.775l.154 21.151c-10.614 1.125-21.549 3.629-29.596 4.79z" clip-path="url(#i)" style="mix-blend-mode:normal;fill:#fff;stroke:#000;stroke-width:.511473;stroke-linecap:butt;stroke-linejoin:round;stroke-miterlimit:4;stroke-dasharray:none;stroke-opacity:1;filter:url(#h)" transform="matrix(.333 .14272 -.14307 .33592 82.969 118.302)"/><path d="M-125.415-240.68c4.32-.76 14.22-2.495 18.579-3.054 23.24-2.984 37.047-.195 41.853 24.005 2.892 14.557-26.652 27.14-44.659 31.25l-8.868-7.585c11.57-2.027 40.398-12.369 38.258-23.036-3.191-15.91-18.323-16.776-35.852-14.518z" clip-path="url(#k)" style="fill:#fff;stroke:#000;stroke-width:2.27933;stroke-linecap:butt;stroke-linejoin:round;stroke-miterlimit:4;stroke-dasharray:none;stroke-opacity:1;filter:url(#j)" transform="matrix(.36906 .15865 -.14533 .34226 59.792 190.075)"/><path d="M-160.964-113.197c17.075-3.897 48.196-15.414 48.865-28.647l-.01 21.368c-1.15 13.193-40.323 27.074-48.79 28.75z" clip-path="url(#l)" style="fill:none;stroke:#000;stroke-width:1.52811;stroke-linecap:butt;stroke-linejoin:round;stroke-miterlimit:4;stroke-dasharray:none;stroke-opacity:1;filter:url(#j)" transform="matrix(.4828 .20693 -.23954 .56242 90.385 200.238)"/><path d="M234.198 66.932c-8.363-2.783-42.942-14.4-39.566-29.536 3.619-16.224 21.685-4.028 36.419.127 3.686.976 7.974 1.853 12.296 2.893l2.599 4.876c-5.29-1.617-10.91-2.628-14.92-3.696-10.009-2.836-25.91-12.411-28.327-1.486-2.255 10.193 26.09 19.8 31.771 21.696.737.245 1.22.406 3.07.862l3.039 5.59c-2.74-.387-5.015-.872-6.381-1.326z" style="fill:#f5ffe1;fill-opacity:1;stroke:#000;stroke-width:.26465;stroke-linecap:round;stroke-linejoin:round;stroke-miterlimit:4;stroke-dasharray:none;stroke-opacity:1" transform="matrix(.70291 0 0 .70291 -122.036 59.832)"/><path d="M195.672 34.325a20.397 20.397 0 0 0-.982 3.08c-3.376 15.135 31.203 26.752 39.566 29.535 1.366.455 3.64.939 6.323 1.317l-4.367 10.108c-2.688-.384-4.917-.861-6.264-1.31-8.363-2.782-42.942-14.4-39.566-29.535a17.66 17.66 0 0 1 .981-3.08z" style="fill:#f5ffe1;fill-opacity:1;stroke:#000;stroke-width:.26465;stroke-linecap:butt;stroke-linejoin:round;stroke-opacity:1" transform="matrix(.70291 0 0 .70291 -122.036 59.832)"/><path d="M-307.293 71.574c.009 1.682.219 4.21.589 6.192 5.48 29.343 76.037 23.676 93.08 22.257 2.784-.231 7.212-1.1 12.287-2.464l-.11 37.072c-5.09 1.359-9.433 2.206-12.177 2.434-17.043 1.418-87.6 7.086-93.08-22.257a33.742 33.742 0 0 1-.59-6.193z" clip-path="url(#n)" style="fill:url(#m);fill-opacity:1;stroke:#000;stroke-width:.255736;stroke-linecap:butt;stroke-linejoin:round;stroke-opacity:1;filter:url(#filter56873-3-0)" transform="matrix(.333 .14272 -.14307 .33592 130.345 98.44)"/><path d="M237.936 45.012c-6.887-1.951-16.564-7.093-22.76-6.538-1.148-1.639-1.639-3.343-1.258-5.063 2.416-10.925 18.318-1.35 28.326 1.486 4.01 1.068 9.63 2.079 14.92 3.696l-4.232 10.14c-5.257-1.618-10.947-2.642-14.996-3.72z" style="fill:none;fill-opacity:1;fill-rule:nonzero;stroke:none;stroke-width:.5293;stroke-linecap:butt;stroke-linejoin:round;stroke-miterlimit:4;stroke-dasharray:none;stroke-opacity:1" transform="matrix(.70291 0 0 .70291 -122.036 59.832)"/><path d="M-160.964-113.197c17.075-3.897 48.196-15.414 48.865-28.647l-.01 21.368c-1.15 13.193-40.323 27.074-48.79 28.75z" clip-path="url(#o)" style="fill:none;stroke:#000;stroke-width:1.82674;stroke-linecap:butt;stroke-linejoin:round;stroke-miterlimit:4;stroke-dasharray:none;stroke-opacity:1;filter:url(#j)" transform="matrix(.40388 .1731 -.20038 .47047 86.134 185.868)"/><path d="M226.717 51.711c-6.887-1.95-16.564-7.093-22.76-6.538-1.148-1.639-1.639-3.343-1.258-5.063 2.416-10.925 18.318-1.35 28.327 1.486 4.01 1.068 9.63 2.08 14.92 3.696l-4.233 10.14c-5.257-1.618-10.947-2.642-14.996-3.72Z" style="fill:none;fill-opacity:1;fill-rule:nonzero;stroke:#000;stroke-width:.26465;stroke-linecap:butt;stroke-linejoin:round;stroke-miterlimit:4;stroke-dasharray:none;stroke-opacity:1" transform="matrix(.70291 0 0 .70291 -122.036 59.832)"/><path d="M-94.681 25.282c-10.518 1.135-24.778 5.3-32.748 6.45-.835.108-11.136 2.22-12.027 2.29-20.45 1.574-53.697-2.784-54.128 17.85-.891 42.674 91.22 23.282 95.89 21.55" clip-path="url(#q)" style="fill:none;stroke:#000;stroke-width:.366275;stroke-linecap:butt;stroke-linejoin:miter;stroke-miterlimit:4;stroke-dasharray:none;stroke-opacity:1;filter:url(#p)" transform="matrix(.4568 .19578 -.20338 .47752 112.018 91.707)"/><g style="stroke-width:.933534"><path d="m-157.736-154.108-.061-20.357c17.53-2.258 32.66-1.39 35.852 14.519.73 3.633-2.604 7.15-8.13 10.003-6.936-4.82-17.098-5.213-27.66-4.165z" clip-path="url(#s)" style="fill:none;stroke:#000;stroke-width:1.86378;stroke-linecap:round;stroke-linejoin:round;stroke-miterlimit:4;stroke-dasharray:none;stroke-opacity:1;filter:url(#r)" transform="matrix(.46147 0 0 .46147 119.292 85.27)"/><path d="M-160.964-113.197c17.075-3.897 48.196-15.414 48.865-28.647l-.01 21.368c-1.15 13.193-40.323 27.074-48.79 28.75z" clip-path="url(#u)" style="fill:none;stroke:#000;stroke-width:1.43005;stroke-linecap:butt;stroke-linejoin:round;stroke-miterlimit:4;stroke-dasharray:none;stroke-opacity:1;filter:url(#t)" transform="matrix(.55969 0 0 .6463 132.309 96.819)"/><path d="M-125.415-240.68c4.32-.76 5.783-1.272 10.141-1.831 23.24-2.985 45.485-1.418 50.291 22.782 2.892 14.557-30.735 27.14-48.741 31.25l-9.904-7.448c11.57-2.027 45.516-12.506 43.376-23.173-3.191-15.91-18.323-16.776-35.852-14.518z" clip-path="url(#v)" style="fill:none;stroke:#000;stroke-width:1.86378;stroke-linecap:butt;stroke-linejoin:round;stroke-miterlimit:4;stroke-dasharray:none;stroke-opacity:1;filter:url(#t)" transform="matrix(.46147 0 0 .46147 100.052 112.567)"/><path d="m-169.456-117.406-.032 21.222 10 7.696-.065-21.47z" clip-path="url(#x)" style="mix-blend-mode:normal;fill:none;stroke:#000;stroke-width:1.86378;stroke-linecap:round;stroke-linejoin:round;stroke-opacity:1;filter:url(#w)" transform="matrix(.46147 0 0 .46147 120.234 55.334)"/><path d="m-169.456-117.406-.032 21.222 10 7.696-.065-21.47z" clip-path="url(#z)" style="mix-blend-mode:normal;fill:none;stroke:#000;stroke-width:1.86378;stroke-linecap:round;stroke-linejoin:round;stroke-opacity:1;filter:url(#y)" transform="matrix(.46147 0 0 .46147 121.2 76.332)"/></g><g style="stroke-width:.370497;stroke-miterlimit:4;stroke-dasharray:none"><path d="m331.823 74.298-.038-12.476c10.743-1.384 20.017-.853 21.973 8.898.447 2.227-1.596 4.383-4.982 6.13-4.252-2.953-10.48-3.194-16.953-2.552z" style="fill:none;stroke:#000;stroke-width:.370497;stroke-linecap:round;stroke-linejoin:round;stroke-miterlimit:4;stroke-dasharray:none;stroke-opacity:1" transform="matrix(.75296 0 0 .75296 -203.348 -41.79)"/><path d="M333.244 89.486c10.465-2.388 29.538-9.447 29.948-17.557l-.006 13.096c-.705 8.086-24.714 16.593-29.902 17.62z" style="fill:none;stroke:#000;stroke-width:.370497;stroke-linecap:butt;stroke-linejoin:round;stroke-miterlimit:4;stroke-dasharray:none;stroke-opacity:1" transform="matrix(.75296 0 0 .75296 -203.348 -41.79)"/><path d="M326.079 57.494c2.647-.466 3.544-.78 6.215-1.123 14.243-1.828 27.876-.868 30.822 13.963 1.772 8.922-18.836 16.633-29.872 19.152l-6.07-4.564c7.09-1.242 27.896-7.665 26.584-14.202-1.956-9.75-11.23-10.282-21.973-8.898z" style="fill:none;stroke:#000;stroke-width:.370497;stroke-linecap:butt;stroke-linejoin:round;stroke-miterlimit:4;stroke-dasharray:none;stroke-opacity:1" transform="matrix(.75296 0 0 .75296 -203.348 -41.79)"/><path d="m327.174 84.922-.02 13.006 6.13 4.717-.04-13.159zM326.069 57.494l-.019 12.331 5.773 4.473-.038-12.476z" style="fill:none;stroke:#000;stroke-width:.370497;stroke-linecap:round;stroke-linejoin:round;stroke-miterlimit:4;stroke-dasharray:none;stroke-opacity:1" transform="matrix(.75296 0 0 .75296 -203.348 -41.79)"/></g><path d="M-139.833-6.445c-13.777 1.77-34.96.01-45.597 5.691-3.295-2.03-5.468-4.671-6.096-8.004-3.993-21.164 37.074-18.558 57.095-21.13 7.97-1.151 18.772-3.625 29.443-4.775l-5.25 23.428c-10.613 1.125-21.548 3.629-29.595 4.79z" clip-path="url(#B)" style="fill:#fff;stroke:#000;stroke-width:1.99649;stroke-linecap:butt;stroke-linejoin:round;stroke-miterlimit:4;stroke-dasharray:none;stroke-opacity:1;filter:url(#A)" transform="matrix(.40182 0 0 .39759 142.696 56.294)"/><g style="stroke-width:.93284"><path d="M-94.681 25.282c-10.518 1.135-24.778 5.3-32.748 6.45-.835.108-11.136 2.22-12.027 2.29-20.45 1.574-53.697-2.784-54.128 17.85-.891 42.674 91.22 23.282 95.89 21.55" clip-path="url(#D)" style="fill:none;stroke:#000;stroke-width:10.6697;stroke-linecap:butt;stroke-linejoin:miter;stroke-miterlimit:4;stroke-dasharray:none;stroke-opacity:1;filter:url(#C)" transform="matrix(.54976 0 0 .5697 160.54 16.904)"/><path d="M-307.293 71.574c.009 1.682.219 4.21.589 6.192 5.48 29.343 76.037 23.676 93.08 22.257 2.784-.231 7.212-1.1 12.287-2.464l-.11 37.072c-5.09 1.359-9.433 2.206-12.177 2.434-17.043 1.418-87.6 7.086-93.08-22.257a33.742 33.742 0 0 1-.59-6.193z" clip-path="url(#F)" style="fill:url(#E);fill-opacity:1;stroke:#000;stroke-width:14.8992;stroke-linecap:butt;stroke-linejoin:round;stroke-opacity:1;filter:url(#filter56873-3-2-3)" transform="matrix(.40077 0 0 .40077 182.11 15.773)"/><path d="M-139.833-6.445c-13.777 1.77-34.96.01-45.597 5.691-3.295-2.03-5.468-4.671-6.096-8.004-3.993-21.164 31.672-16.281 51.693-18.853 7.97-1.15 18.771-3.625 29.442-4.775l.154 21.151c-10.614 1.125-21.549 3.629-29.596 4.79z" clip-path="url(#H)" style="fill:none;stroke:#000;stroke-width:1.8624;stroke-linecap:butt;stroke-linejoin:round;stroke-miterlimit:4;stroke-dasharray:none;stroke-opacity:1;filter:url(#G)" transform="matrix(.40077 0 0 .40077 142.503 56.296)"/></g><g style="stroke:#000;stroke-width:.370221;stroke-miterlimit:4;stroke-dasharray:none;stroke-opacity:1"><path d="M302.304 92.768c-9.065.754-46.59 3.769-49.506-11.838-3.125-16.728 18.958-12.537 34.627-14.57 3.894-.568 8.32-1.472 12.844-2.237l4.438 3.54c-5.675.613-11.42 1.928-15.66 2.54-10.648 1.368-29.616-1.229-27.493 10.028 1.981 10.502 32.776 8.11 38.936 7.603.799-.066 1.323-.11 3.262-.427l5.146 4.035c-2.758.741-5.113 1.203-6.594 1.326z" style="fill:none;stroke:#000;stroke-width:.370221;stroke-linecap:round;stroke-linejoin:round;stroke-miterlimit:4;stroke-dasharray:none;stroke-opacity:1" transform="translate(-131.342 -7.67) scale(.75352)"/><path d="M252.543 77.62c.005.896.117 2.24.314 3.294 2.915 15.607 40.441 12.593 49.506 11.838 1.48-.123 3.836-.585 6.535-1.31l-.059 11.273c-2.707.723-5.016 1.174-6.476 1.295-9.065.755-46.591 3.769-49.506-11.838a17.947 17.947 0 0 1-.314-3.293z" style="fill:none;stroke:#000;stroke-width:.370221;stroke-linecap:butt;stroke-linejoin:round;stroke-miterlimit:4;stroke-dasharray:none;stroke-opacity:1" transform="translate(-131.342 -7.67) scale(.75352)"/><path d="M289.048 81.461c-7.327.942-18.595.005-24.252 3.027-1.752-1.08-2.908-2.485-3.242-4.257-2.123-11.257 16.845-8.66 27.494-10.028 4.239-.612 9.984-1.927 15.66-2.54l.08 11.25c-5.644.599-11.46 1.93-15.74 2.548z" style="fill:none;fill-opacity:1;fill-rule:nonzero;stroke:#000;stroke-width:.370221;stroke-linecap:butt;stroke-linejoin:round;stroke-miterlimit:4;stroke-dasharray:none;stroke-opacity:1" transform="translate(-131.342 -7.67) scale(.75352)"/></g><path d="M-348.282-943.748c5.48 29.343 76.037 23.675 93.08 22.257 12.748-1.06 59.96-15.463 56.556-32.6-7.265-36.578-54.369-21.45-84.532-17.052-29.459 3.822-70.979-4.057-65.104 27.395z" style="opacity:.479558;mix-blend-mode:normal;fill:none;fill-opacity:1;stroke:#000;stroke-width:19.141;stroke-linecap:butt;stroke-linejoin:miter;stroke-miterlimit:4;stroke-dasharray:none;stroke-opacity:1;filter:url(#I)" transform="matrix(.31004 .00537 -.009 .06738 116.1 193.994)"/></svg>