<?xml version="1.0" encoding="UTF-8"?>
<svg width="128" height="128" version="1.1" viewBox="0 0 33.867 33.867" xmlns="http://www.w3.org/2000/svg" xmlns:xlink="http://www.w3.org/1999/xlink">
 <defs>
  <clipPath id="e">
   <path d="M-307.293 87.449c.009 1.682.219 4.21.589 6.192 5.48 29.343 76.037 23.676 93.08 22.257 2.784-.231 7.212-1.1 12.287-2.464l-.11 21.197c-5.09 1.359-9.433 2.206-12.177 2.434-17.043 1.418-87.6 7.086-93.08-22.257a33.742 33.742 0 0 1-.59-6.193z" fill="#fff"/>
  </clipPath>
 </defs>
 <g transform="matrix(.99811 0 0 .99811 .0067121 .031927)" fill="#fff" stroke="#000" stroke-linejoin="round">
  <path transform="matrix(.31842 .019955 .0043826 .44719 97.48 -23.319)" d="m-307.29 71.574c9e-3 1.682 0.219 4.21 0.589 6.192 5.48 29.343 76.037 23.676 93.08 22.257 2.784-0.231 7.212-1.1 12.287-2.464l-0.11 37.072c-5.09 1.359-9.433 2.206-12.177 2.434-17.043 1.418-87.6 7.086-93.08-22.257a33.742 33.742 0 0 1-0.59-6.193z" clip-path="url(#e)" filter="url(#filter56873-3-2)" stroke-width="7.4851"/>
  <path d="m29.43 24.19c-5.2101 0.28617-26.778 1.3838-28.58-11.502-1.9306-13.812 10.809-9.573 19.809-10.665 2.2361-0.32282 4.7757-0.90131 7.3728-1.3624l2.5817 3.0608c-3.2606 0.29464-6.5559 1.1614-8.9908 1.5076-6.1161 0.73109-17.051-2.0885-15.74 7.2067 1.2231 8.6717 18.924 7.8383 22.464 7.6483 0.45922-0.02487 0.76039-0.04171 1.8736-0.23045l2.993 3.492c-1.5811 0.50599-2.9325 0.79823-3.7837 0.84484z" stroke-linecap="round" stroke-width="1.321"/>
  <path d="m21.712 14.447c-4.2085 0.50361-10.7-0.67528-13.931 1.5924-1.0167-0.94835-1.693-2.141-1.8992-3.6042-1.3107-9.2951 9.6241-6.4756 15.741-7.2066 2.4343-0.34623 5.7296-1.2131 8.9908-1.5076l0.13513 9.2148c-3.2428 0.28435-6.5789 1.1616-9.0367 1.5113z" stroke-width="1.321"/>
 </g>
</svg>
