<?xml version="1.0" encoding="UTF-8" standalone="no"?>
<svg
   width="128"
   height="128"
   version="1.1"
   viewBox="0 0 33.867 33.867"
   id="svg4"
   sodipodi:docname="favicon.svg"
   inkscape:version="1.4 (1:1.4+202410161351+e7c3feb100)"
   inkscape:export-filename="favicon.png"
   inkscape:export-xdpi="96"
   inkscape:export-ydpi="96"
   xmlns:inkscape="http://www.inkscape.org/namespaces/inkscape"
   xmlns:sodipodi="http://sodipodi.sourceforge.net/DTD/sodipodi-0.dtd"
   xmlns="http://www.w3.org/2000/svg"
   xmlns:svg="http://www.w3.org/2000/svg">
  <sodipodi:namedview
     id="namedview4"
     pagecolor="#ffffff"
     bordercolor="#000000"
     borderopacity="0.25"
     inkscape:showpageshadow="2"
     inkscape:pageopacity="0.0"
     inkscape:pagecheckerboard="0"
     inkscape:deskcolor="#d1d1d1"
     inkscape:zoom="4.5651171"
     inkscape:cx="66.920518"
     inkscape:cy="55.091686"
     inkscape:window-width="1920"
     inkscape:window-height="1071"
     inkscape:window-x="0"
     inkscape:window-y="32"
     inkscape:window-maximized="1"
     inkscape:current-layer="g4"
     inkscape:export-bgcolor="#ffffff00" />
  <defs
     id="defs1">
    <clipPath
       id="e">
      <path
         d="M-307.293 87.449c.009 1.682.219 4.21.589 6.192 5.48 29.343 76.037 23.676 93.08 22.257 2.784-.231 7.212-1.1 12.287-2.464l-.11 21.197c-5.09 1.359-9.433 2.206-12.177 2.434-17.043 1.418-87.6 7.086-93.08-22.257a33.742 33.742 0 0 1-.59-6.193z"
         fill="#fff"
         id="path1" />
    </clipPath>
  </defs>
  <g
     transform="matrix(0.99811,0,0,0.88909362,0.14345524,1.6550555)"
     fill="#fff"
     stroke="#000"
     stroke-linejoin="round"
     id="g4"
     style="fill:#1a1a1a;stroke:#ffffff;stroke-width:1.05954">
    <rect
       style="fill:#f5ffe1;stroke:none;stroke-width:0.297592;fill-opacity:1"
       id="rect1"
       width="32.16964"
       height="36.244503"
       x="0.73701823"
       y="-0.93795937"
       rx="2.6508696" />
    <g
       id="g1"
       transform="matrix(1,0,0,0.92059363,0.73004912,0.83725597)"
       style="stroke-width:1.10429">
      <path
         d="M 20.161243,12.357199 C 16.57021,12.93238 11.544422,11.64949 8.7874706,14.239451 7.3885737,12.597086 6.8295807,11.730632 6.6536347,10.05948 5.5352391,-0.5566319 14.865696,2.6635725 20.085129,1.8286836 22.162271,1.4332473 24.974087,0.4431794 27.756806,0.1068251 l 0.115305,10.5244029 c -2.767019,0.324762 -5.613649,1.326684 -7.710844,1.726083 z"
         stroke-width="1.45877"
         id="path4"
         style="fill:#1a1a1a;stroke:none"
         sodipodi:nodetypes="cccccccc" />
      <path
         transform="matrix(0.27170168,0.02485924,0.00373959,0.5570937,84.750515,-35.83324)"
         d="M -199.25127,112.65431 -201.444,134.631 c -5.09,1.359 -9.433,2.206 -12.177,2.434 -17.043,1.418 -87.6,7.086 -93.08,-22.257 -0.38695,-2.04176 -0.58446,-4.1149 -0.59,-6.193 l 0.185,-14.009032 c 1.86187,-0.901099 90.12882,22.812512 107.85473,18.048342 z"
         clip-path="url(#e)"
         filter="url(#filter56873-3-2)"
         stroke-width="8.01706"
         id="path2"
         style="fill:#1a1a1a;stroke:none"
         sodipodi:nodetypes="ccccccc" />
    </g>
  </g>
</svg>
