<svg xmlns="http://www.w3.org/2000/svg" xmlns:xlink="http://www.w3.org/1999/xlink" width="128" height="128" viewBox="0 0 33.867 33.867"><defs><clipPath id="g" clipPathUnits="userSpaceOnUse"><path d="M-139.833-6.445c-13.777 1.77-34.96.01-45.597 5.691-3.295-2.03-5.468-4.671-6.096-8.004-3.993-21.164 31.672-16.281 51.693-18.853 7.97-1.15 18.771-3.625 29.442-4.775l.154 21.151c-10.614 1.125-21.549 3.629-29.596 4.79z" style="fill:#fff;stroke:none;stroke-width:2;stroke-linecap:butt;stroke-linejoin:round;stroke-miterlimit:4;stroke-dasharray:none;stroke-opacity:1"/></clipPath><clipPath id="e" clipPathUnits="userSpaceOnUse"><path d="M-307.293 87.449c.009 1.682.219 4.21.589 6.192 5.48 29.343 76.037 23.676 93.08 22.257 2.784-.231 7.212-1.1 12.287-2.464l-.11 21.197c-5.09 1.359-9.433 2.206-12.177 2.434-17.043 1.418-87.6 7.086-93.08-22.257a33.742 33.742 0 0 1-.59-6.193z" style="fill:#fff;stroke:none;stroke-width:2;stroke-linecap:butt;stroke-linejoin:round;stroke-opacity:1"/></clipPath><clipPath id="c" clipPathUnits="userSpaceOnUse"><path d="M-116.575 79.567c-12.425.997-63.86 4.984-67.855-15.658-4.282-22.125 25.985-16.582 47.46-19.271 5.338-.751 11.404-1.947 17.605-2.96l6.084 4.684c-7.78.81-15.654 2.55-21.464 3.36-14.595 1.809-40.594-1.626-37.684 13.262 2.716 13.89 44.924 10.728 53.368 10.056 1.094-.087 1.813-.144 4.47-.564l7.054 5.336c-3.78.98-7.009 1.592-9.038 1.755z" style="fill:#fff;stroke:none;stroke-width:2;stroke-linecap:round;stroke-linejoin:round;stroke-miterlimit:4;stroke-dasharray:none;stroke-opacity:1"/></clipPath><linearGradient xlink:href="#a" id="d" x1="-420.662" x2="-419.498" y1="97.794" y2="98.634" gradientTransform="translate(104.205 6.427)" gradientUnits="userSpaceOnUse"/><linearGradient id="a"><stop offset="0" style="stop-color:#000;stop-opacity:1"/><stop offset="1" style="stop-color:#000;stop-opacity:0"/></linearGradient><filter id="f" width="1.124" height="1.321" x="-.062" y="-.16" style="color-interpolation-filters:sRGB"><feTurbulence baseFrequency=".08" numOctaves="5" type="fractalNoise"/><feGaussianBlur result="result91" stdDeviation="1.226"/><feDisplacementMap in="SourceGraphic" in2="result91" result="result1" scale="20" xChannelSelector="R" yChannelSelector="G"/><feComposite in="result1" in2="SourceGraphic" operator="atop" result="fbSourceGraphic"/><feColorMatrix in="fbSourceGraphic" result="fbSourceGraphicAlpha" values="0 0 0 -1 0 0 0 0 -1 0 0 0 0 -1 0 0 0 0 1 0"/><feTurbulence baseFrequency=".08" numOctaves="5" type="fractalNoise"/><feGaussianBlur result="result91" stdDeviation=".5"/><feDisplacementMap in="fbSourceGraphic" in2="result91" result="result1" scale="20" xChannelSelector="R" yChannelSelector="G"/><feComposite in="result1" in2="fbSourceGraphic" operator="atop" result="fbSourceGraphic"/><feColorMatrix in="fbSourceGraphic" result="fbSourceGraphicAlpha" values="0 0 0 -1 0 0 0 0 -1 0 0 0 0 -1 0 0 0 0 1 0"/><feTurbulence baseFrequency="10 5.02626" numOctaves="4" result="turbulence" seed="39" type="fractalNoise"/><feDisplacementMap in="fbSourceGraphic" in2="turbulence" scale="15.503" xChannelSelector="R" yChannelSelector="G"/></filter><filter id="b" width="1.141" height="1.222" x="-.07" y="-.11" style="color-interpolation-filters:sRGB"><feTurbulence baseFrequency="4.75928 5.3412" numOctaves="3" result="turbulence" seed="226"/><feDisplacementMap in="SourceGraphic" in2="turbulence" scale="24.369" xChannelSelector="R" yChannelSelector="G"/><feGaussianBlur stdDeviation=".002"/></filter></defs><g style="display:inline" transform="translate(.265 .265)"><circle cx="16.669" cy="16.669" r="16.404" style="fill:#f5ffe1;fill-opacity:1;stroke:none;stroke-width:.129167;stroke-linecap:round;stroke-linejoin:bevel;paint-order:fill markers stroke;stop-color:#000"/></g><g style="stroke-width:.2"><path d="M-94.681 25.282c-10.518 1.135-24.778 5.3-32.748 6.45-.835.108-11.136 2.22-12.027 2.29-20.45 1.574-53.697-2.784-54.128 17.85-.891 42.674 91.22 23.282 95.89 21.55" clip-path="url(#c)" style="fill:none;stroke:#000;stroke-width:10.6877;stroke-linecap:butt;stroke-linejoin:miter;stroke-miterlimit:4;stroke-dasharray:none;stroke-opacity:1;filter:url(#b)" transform="matrix(.3204 0 0 .33202 63.772 -5.825)"/><path d="M-307.293 71.574c.009 1.682.219 4.21.589 6.192 5.48 29.343 76.037 23.676 93.08 22.257 2.784-.231 7.212-1.1 12.287-2.464l-.11 37.072c-5.09 1.359-9.433 2.206-12.177 2.434-17.043 1.418-87.6 7.086-93.08-22.257a33.742 33.742 0 0 1-.59-6.193z" clip-path="url(#e)" style="fill:url(#d);fill-opacity:1;stroke:#000;stroke-width:2;stroke-linecap:butt;stroke-linejoin:round;stroke-opacity:1;filter:url(#filter56873-3-2)" transform="matrix(.23357 0 0 .23357 76.343 -6.484)"/><path d="M-139.833-6.445c-13.777 1.77-34.96.01-45.597 5.691-3.295-2.03-5.468-4.671-6.096-8.004-3.993-21.164 31.672-16.281 51.693-18.853 7.97-1.15 18.771-3.625 29.442-4.775l.154 21.151c-10.614 1.125-21.549 3.629-29.596 4.79z" clip-path="url(#g)" style="fill:none;stroke:#000;stroke-width:1.86554;stroke-linecap:butt;stroke-linejoin:round;stroke-miterlimit:4;stroke-dasharray:none;stroke-opacity:1;filter:url(#f)" transform="matrix(.23357 0 0 .23357 53.26 17.133)"/></g><g style="stroke:#000;stroke-width:.370845;stroke-miterlimit:4;stroke-dasharray:none;stroke-opacity:1"><path d="M302.304 92.768c-9.065.754-46.59 3.769-49.506-11.838-3.125-16.728 18.958-12.537 34.627-14.57 3.894-.568 8.32-1.472 12.844-2.237l4.438 3.54c-5.675.613-11.42 1.928-15.66 2.54-10.648 1.368-29.616-1.229-27.493 10.028 1.981 10.502 32.776 8.11 38.936 7.603.799-.066 1.323-.11 3.262-.427l5.146 4.035c-2.758.741-5.113 1.203-6.594 1.326z" style="fill:none;stroke:#000;stroke-width:.370845;stroke-linecap:round;stroke-linejoin:round;stroke-miterlimit:4;stroke-dasharray:none;stroke-opacity:1" transform="matrix(.43915 0 0 .43915 -106.336 -20.146)"/><path d="M252.543 77.62c.005.896.117 2.24.314 3.294 2.915 15.607 40.441 12.593 49.506 11.838 1.48-.123 3.836-.585 6.535-1.31l-.059 11.273c-2.707.723-5.016 1.174-6.476 1.295-9.065.755-46.591 3.769-49.506-11.838a17.947 17.947 0 0 1-.314-3.293z" style="fill:none;stroke:#000;stroke-width:.370845;stroke-linecap:butt;stroke-linejoin:round;stroke-miterlimit:4;stroke-dasharray:none;stroke-opacity:1" transform="matrix(.43915 0 0 .43915 -106.336 -20.146)"/><path d="M289.048 81.461c-7.327.942-18.595.005-24.252 3.027-1.752-1.08-2.908-2.485-3.242-4.257-2.123-11.257 16.845-8.66 27.494-10.028 4.239-.612 9.984-1.927 15.66-2.54l.08 11.25c-5.644.599-11.46 1.93-15.74 2.548z" style="fill:none;fill-opacity:1;fill-rule:nonzero;stroke:#000;stroke-width:.370845;stroke-linecap:butt;stroke-linejoin:round;stroke-miterlimit:4;stroke-dasharray:none;stroke-opacity:1" transform="matrix(.43915 0 0 .43915 -106.336 -20.146)"/></g></svg>