<?xml version="1.0" standalone="no"?>
<!DOCTYPE svg PUBLIC "-//W3C//DTD SVG 20010904//EN"
 "http://www.w3.org/TR/2001/REC-SVG-20010904/DTD/svg10.dtd">
<svg version="1.0" xmlns="http://www.w3.org/2000/svg"
 width="700.000000pt" height="700.000000pt" viewBox="0 0 700.000000 700.000000"
 preserveAspectRatio="xMidYMid meet">
<metadata>
Created by potrace 1.14, written by Peter Selinger 2001-2017
</metadata>
<g transform="translate(0.000000,700.000000) scale(0.100000,-0.100000)"
fill="#000000" stroke="none">
<path d="M3279 6996 c-2 -2 -40 -6 -84 -10 -44 -3 -96 -8 -115 -11 -99 -12
-137 -18 -155 -21 -11 -2 -45 -8 -75 -14 -75 -14 -81 -15 -199 -44 -114 -28
-411 -126 -474 -156 -23 -11 -44 -20 -49 -20 -15 0 -306 -147 -403 -204 -88
-52 -252 -159 -295 -193 -8 -6 -51 -40 -95 -74 -649 -505 -1123 -1283 -1271
-2084 -9 -49 -17 -97 -19 -105 -4 -23 -18 -123 -21 -145 -1 -11 -5 -56 -10
-100 -11 -98 -12 -513 -2 -615 20 -203 21 -211 49 -353 166 -859 642 -1623
1333 -2142 110 -82 309 -215 322 -215 4 0 15 -6 23 -14 29 -26 334 -174 461
-224 341 -134 665 -211 1010 -239 182 -15 588 -8 712 12 13 2 43 6 68 9 25 3
55 8 66 10 12 2 37 7 55 10 209 34 510 121 714 207 17 7 32 13 35 14 116 39
463 230 636 350 773 537 1296 1361 1454 2295 10 63 22 140 26 170 3 30 8 66
10 80 3 14 6 138 8 275 4 254 -1 336 -29 555 -5 35 -23 140 -30 170 -3 14 -8
39 -11 55 -11 65 -65 265 -94 355 -246 745 -732 1391 -1371 1821 -396 267
-937 485 -1349 545 -19 3 -60 9 -90 15 -30 5 -82 12 -115 15 -33 3 -71 8 -85
11 -28 6 -535 14 -541 9z"/>
</g>
</svg>
