<?xml version="1.0" encoding="UTF-8"?>
<!-- Created with Inkscape (http://www.inkscape.org/) -->
<svg width="600" height="350" version="1.1" viewBox="0 0 158.75 92.604" xmlns="http://www.w3.org/2000/svg" xmlns:xlink="http://www.w3.org/1999/xlink">
 <defs>
  <clipPath id="clipPath14478-9-3">
   <path d="m-157.74-154.11-0.0614-20.357c17.529-2.258 32.661-1.391 35.852 14.519 0.72881 3.6332-2.6041 7.1509-8.1298 10.003-6.9366-4.8197-17.098-5.213-27.661-4.165z" fill="#fff"/>
  </clipPath>
  <filter id="filter13462-0-8" x="-.025921" y="-.036857" width="1.0518" height="1.0735" color-interpolation-filters="sRGB">
   <feTurbulence baseFrequency="0.08" numOctaves="5" type="fractalNoise"/>
   <feGaussianBlur result="result91" stdDeviation="6.0187161e-06"/>
   <feDisplacementMap in="SourceGraphic" in2="result91" result="result1" scale="20" xChannelSelector="R" yChannelSelector="G"/>
   <feComposite in="result1" in2="SourceGraphic" operator="atop" result="fbSourceGraphic"/>
   <feColorMatrix in="fbSourceGraphic" result="fbSourceGraphicAlpha" values="0 0 0 -1 0 0 0 0 -1 0 0 0 0 -1 0 0 0 0 1 0"/>
   <feTurbulence baseFrequency="5.5236 6.19703" result="turbulence" seed="88" type="fractalNoise"/>
   <feDisplacementMap in="fbSourceGraphic" in2="turbulence" scale="18.0798" xChannelSelector="R" yChannelSelector="G"/>
  </filter>
  <clipPath id="clipPath14928-5-6-3">
   <path d="m-151.4-110.21c14.079-2.783 39.738-11.006 40.29-20.455l-7e-3 15.257c-0.94896 9.4197-33.248 19.331-40.228 20.527z" fill="#fff"/>
  </clipPath>
  <filter id="filter14814-9-9" x="-.015374" y="-.016995" width="1.0307" height="1.0339" color-interpolation-filters="sRGB">
   <feTurbulence baseFrequency="1.3551 2.40718" result="turbulence" seed="97" type="fractalNoise"/>
   <feDisplacementMap in="SourceGraphic" in2="turbulence" scale="21.5002" xChannelSelector="R" yChannelSelector="G"/>
  </filter>
  <clipPath id="clipPath1339-9-0">
   <path d="m-125.41-240.68c4.3197-0.76044 5.7829-1.2719 10.141-1.8315 23.24-2.984 45.484-1.417 50.291 22.783 2.8911 14.556-30.735 27.139-48.741 31.249l-9.9035-7.4481c11.569-2.0264 45.515-12.505 43.376-23.172-3.1915-15.91-18.323-16.777-35.852-14.519z" fill="#fff"/>
  </clipPath>
  <clipPath id="clipPath10742-1">
   <path d="m-169.17-116.66-0.0303 20.121 9.4187 7.2974-0.0614-20.357z" fill="#fff"/>
  </clipPath>
  <filter id="filter16056-0" x="-.093181" y="-.032222" width="1.1864" height="1.0644" color-interpolation-filters="sRGB">
   <feTurbulence baseFrequency="1 0.87560216677143199" result="turbulence" seed="841"/>
   <feDisplacementMap in="SourceGraphic" in2="turbulence" scale="21.5002" xChannelSelector="R" yChannelSelector="G"/>
  </filter>
  <clipPath id="clipPath3775-5-4">
   <path d="m-169.46-117.41-0.0318 21.222 10.001 7.6966-0.0656-21.47z" fill="#fff"/>
  </clipPath>
  <filter id="filter1403-7-2" x="-.093903" y="-.032472" width="1.1878" height="1.0649" color-interpolation-filters="sRGB">
   <feTurbulence baseFrequency="1" numOctaves="5" result="result0" type="fractalNoise"/>
   <feConvolveMatrix kernelMatrix="-2 0 -2 0 -10 0 -2 0 -2 " order="3 3" result="result5"/>
   <feColorMatrix in="result5" result="result4" type="saturate" values="0"/>
   <feComposite in="SourceGraphic" in2="result4" k1="1.5" k2="0.5" k3="0.5" operator="arithmetic" result="result2"/>
   <feBlend in2="result4" result="result6"/>
   <feComposite in="result6" in2="SourceGraphic" operator="in" result="fbSourceGraphic"/>
   <feColorMatrix in="fbSourceGraphic" result="fbSourceGraphicAlpha" values="0 0 0 -1 0 0 0 0 -1 0 0 0 0 -1 0 0 0 0 1 0"/>
   <feTurbulence baseFrequency="2.37125 0.953517" numOctaves="2" result="turbulence" seed="146" type="fractalNoise"/>
   <feDisplacementMap in="fbSourceGraphic" in2="turbulence" scale="13.3355" xChannelSelector="R" yChannelSelector="G"/>
   <feGaussianBlur stdDeviation="0.0030099854"/>
  </filter>
  <clipPath id="clipPath61963-0-9-8">
   <path d="m-139.83-6.4447c-13.777 1.7701-34.961 0.01-45.597 5.6911-3.2954-2.0296-5.4675-4.6717-6.0962-8.0045-3.9925-21.164 31.672-16.281 51.693-18.853 7.9697-1.1503 18.771-3.6242 29.442-4.7746l0.15341 21.151c-10.614 1.1244-21.549 3.6284-29.596 4.7899z" fill="#fff"/>
  </clipPath>
  <filter id="filter61048-6-22-3" x="-.0591" y="-.15161" width="1.1183" height="1.3032" color-interpolation-filters="sRGB">
   <feTurbulence baseFrequency="0.08" numOctaves="5" type="fractalNoise"/>
   <feGaussianBlur result="result91" stdDeviation="1.2262497"/>
   <feDisplacementMap in="SourceGraphic" in2="result91" result="result1" scale="20" xChannelSelector="R" yChannelSelector="G"/>
   <feComposite in="result1" in2="SourceGraphic" operator="atop" result="fbSourceGraphic"/>
   <feColorMatrix in="fbSourceGraphic" result="fbSourceGraphicAlpha" values="0 0 0 -1 0 0 0 0 -1 0 0 0 0 -1 0 0 0 0 1 0"/>
   <feTurbulence baseFrequency="0.08" numOctaves="5" type="fractalNoise"/>
   <feGaussianBlur result="result91" stdDeviation="0.5"/>
   <feDisplacementMap in="fbSourceGraphic" in2="result91" result="result1" scale="20" xChannelSelector="R" yChannelSelector="G"/>
   <feComposite in="result1" in2="fbSourceGraphic" operator="atop" result="fbSourceGraphic"/>
   <feColorMatrix in="fbSourceGraphic" result="fbSourceGraphicAlpha" values="0 0 0 -1 0 0 0 0 -1 0 0 0 0 -1 0 0 0 0 1 0"/>
   <feTurbulence baseFrequency="10 5.02626" numOctaves="4" result="turbulence" seed="39" type="fractalNoise"/>
   <feDisplacementMap in="fbSourceGraphic" in2="turbulence" scale="15.5029" xChannelSelector="R" yChannelSelector="G"/>
  </filter>
  <clipPath id="clipPath59899-9-3-0">
   <path d="m-116.58 79.567c-12.425 0.99783-63.859 4.9847-67.855-15.657-4.2826-22.125 25.985-16.582 47.461-19.272 5.3377-0.75086 11.403-1.9466 17.604-2.9589l6.0836 4.6838c-7.7792 0.80927-15.653 2.5496-21.463 3.3588-14.595 1.8096-40.594-1.6257-37.684 13.263 2.7154 13.89 44.923 10.728 53.367 10.056 1.0942-0.08701 1.8134-0.14473 4.4712-0.56386l7.0528 5.3359c-3.7802 0.98059-7.0082 1.5912-9.0378 1.7542z" fill="#fff"/>
  </clipPath>
  <filter id="filter56873-3-2-3" x="-.070342" y="-.11016" width="1.1407" height="1.2217" color-interpolation-filters="sRGB">
   <feTurbulence baseFrequency="4.75928 5.3412" numOctaves="3" result="turbulence" seed="226"/>
   <feDisplacementMap in="SourceGraphic" in2="turbulence" scale="24.3689" xChannelSelector="R" yChannelSelector="G"/>
   <feGaussianBlur stdDeviation="0.0015112463"/>
  </filter>
  <linearGradient id="linearGradient6669" x1="-420.66" x2="-419.5" y1="97.794" y2="98.634" gradientTransform="translate(104.21 6.4273)" gradientUnits="userSpaceOnUse">
   <stop offset="0"/>
   <stop stop-opacity="0" offset="1"/>
  </linearGradient>
  <clipPath id="clipPath59086-4-6-5">
   <path d="m-307.29 87.449c9e-3 1.6821 0.21924 4.2106 0.58936 6.1922 5.4808 29.343 76.037 23.676 93.08 22.257 2.7841-0.23171 7.212-1.0998 12.287-2.464l-0.11065 21.196c-5.0901 1.3593-9.4319 2.206-12.176 2.4344-17.043 1.4184-87.599 7.0858-93.08-22.257-0.43563-2.3322-0.57655-4.2717-0.58936-6.1922z" fill="#fff"/>
  </clipPath>
  <clipPath id="clipPath61963-0-4-6">
   <path d="m-139.83-6.4447c-13.777 1.7701-34.961 0.01-45.597 5.6911-3.2954-2.0296-5.4675-4.6717-6.0962-8.0045-3.9925-21.164 31.672-16.281 51.693-18.853 7.9697-1.1503 18.771-3.6242 29.442-4.7746l0.15341 21.151c-10.614 1.1244-21.549 3.6284-29.596 4.7899z" fill="#fff"/>
  </clipPath>
  <filter id="filter61048-6-2-8" x="-.06205" y="-.16041" width="1.1242" height="1.3208" color-interpolation-filters="sRGB">
   <feTurbulence baseFrequency="0.08" numOctaves="5" type="fractalNoise"/>
   <feGaussianBlur result="result91" stdDeviation="1.2262497"/>
   <feDisplacementMap in="SourceGraphic" in2="result91" result="result1" scale="20" xChannelSelector="R" yChannelSelector="G"/>
   <feComposite in="result1" in2="SourceGraphic" operator="atop" result="fbSourceGraphic"/>
   <feColorMatrix in="fbSourceGraphic" result="fbSourceGraphicAlpha" values="0 0 0 -1 0 0 0 0 -1 0 0 0 0 -1 0 0 0 0 1 0"/>
   <feTurbulence baseFrequency="0.08" numOctaves="5" type="fractalNoise"/>
   <feGaussianBlur result="result91" stdDeviation="0.5"/>
   <feDisplacementMap in="fbSourceGraphic" in2="result91" result="result1" scale="20" xChannelSelector="R" yChannelSelector="G"/>
   <feComposite in="result1" in2="fbSourceGraphic" operator="atop" result="fbSourceGraphic"/>
   <feColorMatrix in="fbSourceGraphic" result="fbSourceGraphicAlpha" values="0 0 0 -1 0 0 0 0 -1 0 0 0 0 -1 0 0 0 0 1 0"/>
   <feTurbulence baseFrequency="10 5.02626" numOctaves="4" result="turbulence" seed="39" type="fractalNoise"/>
   <feDisplacementMap in="fbSourceGraphic" in2="turbulence" scale="15.5029" xChannelSelector="R" yChannelSelector="G"/>
  </filter>
  <filter id="filter93621-7" x="-.30141" y="-.57784" width="1.5536" height="2.1576" color-interpolation-filters="sRGB">
   <feGaussianBlur stdDeviation="10.369498"/>
  </filter>
  <filter id="filter93625-9" x="-.56737" y="-.62369" width="2.1347" height="2.2472" color-interpolation-filters="sRGB">
   <feGaussianBlur stdDeviation="13.673411"/>
  </filter>
  <filter id="filter7522-4" x="0" y="0" width="1" height="1" color-interpolation-filters="sRGB">
   <feTurbulence baseFrequency="7.30039 7.35151" numOctaves="2" result="turbulence" seed="238" type="fractalNoise"/>
   <feDisplacementMap in="SourceGraphic" in2="turbulence" scale="29.1085" xChannelSelector="R" yChannelSelector="G"/>
  </filter>
 </defs>
 <g transform="translate(-203.92 -58.486)">
  <g transform="translate(-2.2988 12.201)">
   <path transform="matrix(.30176 0 0 .12348 176.43 67.35)" d="m408.11 457.65c-8.5064 1.439-16.827 3.1388-24.149 4.2061-29.459 3.8227-70.979-4.0569-65.104 27.395 5.4808 29.343 76.037 23.676 93.08 22.257 2.7841-0.23171 7.212-1.0998 12.398-2.4937" fill="none" filter="url(#filter93621-7)" opacity=".39734" stroke="#000" stroke-width="14.266" style="mix-blend-mode:normal"/>
   <path transform="matrix(3.5337 0 0 .67847 -671.13 -742.59)" d="m278.7 1277.6c26.57 41.329 8.0217-5.9081-0.1769-0.3533-0.046 0-29.544 3.9651-29.577 3.9981-0.033 0.033 9.1016 32.756 31.934-23.844" filter="url(#filter7522-4)"/>
   <text x="205.64799" y="129.00552" fill="#000000" font-family="sans-serif" font-size="88.927px" stroke-width=".61755" style="line-height:1.25" xml:space="preserve"><tspan x="205.64799" y="129.00552" fill="#000000" font-family="'IBM Plex Sans'" font-size="88.927px" font-weight="bold" stroke-width=".61755">404</tspan></text>
   <g transform="matrix(1.712 0 0 1.712 -291.7 -112.93)" fill="none" stroke="#fff" stroke-width=".1291">
    <g>
     <path d="m320.27 125.75c1.2371 6.6231 17.162 5.3439 21.009 5.0238 2.8773-0.23947 13.534-3.4902 12.765-7.3583-1.6398-8.256-12.272-4.8413-19.08-3.8488-6.6493 0.86282-16.021-0.9157-14.695 6.1834z"/>
     <path d="m320.27 130.53c1.2371 6.6231 17.162 5.3439 21.009 5.0238 2.8773-0.23947 13.534-3.4902 12.765-7.3583-1.6398-8.256-12.272-4.8413-19.08-3.8488-6.6493 0.86282-16.021-0.9157-14.695 6.1834z"/>
     <path d="m320.14 124.56v4.7776"/>
     <path d="m343.52 130.28v4.7776"/>
     <path d="m340.41 118.69v4.7776"/>
     <path d="m354.07 124.09v4.7776"/>
     <path d="m323.99 125.45c0.84074 4.4568 13.909 3.442 16.524 3.2266 1.9555-0.16114 10.264-2.6255 9.7418-5.2284-1.1144-5.5556-9.9707-2.9215-14.598-2.2536-4.519 0.5806-12.569-0.52161-11.668 4.2554z"/>
    </g>
    <path d="m323.99 130.23c0.84074 4.4568 13.909 3.442 16.524 3.2266 1.9555-0.16114 10.264-2.6255 9.7418-5.2284-1.1144-5.5556-9.9707-2.9215-14.598-2.2536-4.519 0.5806-12.569-0.52161-11.668 4.2554z" stroke-dasharray="0.129095, 0.387284"/>
    <g>
     <path d="m342.36 120.14v4.7776"/>
     <path d="m341.59 128.69v4.7776"/>
     <path d="m340.41 118.69 1.9548 1.4487"/>
     <path d="m341.56 128.83 1.9548 1.4487"/>
    </g>
   </g>
   <g transform="matrix(1.712 0 0 1.712 -291.7 -121.09)" fill="none" stroke="#fff" stroke-width=".1291">
    <g>
     <path d="m320.27 125.75c1.2371 6.6231 17.162 5.3439 21.009 5.0238 2.8773-0.23947 13.534-3.4902 12.765-7.3583-1.6398-8.256-12.272-4.8413-19.08-3.8488-6.6493 0.86282-16.021-0.9157-14.695 6.1834z"/>
     <path d="m320.27 130.53c1.2371 6.6231 17.162 5.3439 21.009 5.0238 2.8773-0.23947 13.534-3.4902 12.765-7.3583-1.6398-8.256-12.272-4.8413-19.08-3.8488-6.6493 0.86282-16.021-0.9157-14.695 6.1834z"/>
     <path d="m320.14 124.56v4.7776"/>
     <path d="m343.52 130.28v4.7776"/>
     <path d="m340.41 118.69v4.7776"/>
     <path d="m354.07 124.09v4.7776"/>
     <path d="m323.99 125.45c0.84074 4.4568 13.909 3.442 16.524 3.2266 1.9555-0.16114 10.264-2.6255 9.7418-5.2284-1.1144-5.5556-9.9707-2.9215-14.598-2.2536-4.519 0.5806-12.569-0.52161-11.668 4.2554z"/>
    </g>
    <path d="m323.99 130.23c0.84074 4.4568 13.909 3.442 16.524 3.2266 1.9555-0.16114 10.264-2.6255 9.7418-5.2284-1.1144-5.5556-9.9707-2.9215-14.598-2.2536-4.519 0.5806-12.569-0.52161-11.668 4.2554z" stroke-dasharray="0.129095, 0.387284"/>
    <g>
     <path d="m342.36 120.14v4.7776"/>
     <path d="m341.59 128.69v4.7776"/>
     <path d="m340.41 118.69 1.9548 1.4487"/>
     <path d="m341.56 128.83 1.9548 1.4487"/>
    </g>
   </g>
   <path transform="matrix(.22168 0 0 .054256 173.66 101.77)" d="m578.42 471.89c4.3197-0.76044 5.7829-1.2719 10.141-1.8315 23.24-2.984 45.484-1.417 50.291 22.783 2.8911 14.556-30.735 27.139-48.741 31.249l-9.9035-7.4481c11.569-2.0264 45.515-12.505 43.376-23.172-3.1915-15.91-18.323-16.777-35.852-14.519z" filter="url(#filter93625-9)" opacity=".22746" stroke="#000" stroke-linejoin="round" stroke-width="3.1416" style="mix-blend-mode:normal"/>
   <g transform="matrix(.85322 .35993 -.35993 .85322 39.585 -123.77)" stroke="#000" stroke-linejoin="round">
    <g transform="matrix(.40723 0 0 .40723 192.03 42.526)" fill="#fff" stroke-width=".3705">
     <path d="m331.82 74.273-0.0376-12.476c10.743-1.3839 20.017-0.8525 21.973 8.8982 0.44667 2.2267-1.4613 4.5933-4.8479 6.3412-4.2513-2.9538-10.614-3.4056-17.088-2.7633z" stroke-linecap="round"/>
     <path d="m333.24 89.486c10.465-2.3888 29.538-9.4471 29.948-17.557l-6e-3 13.096c-0.70538 8.0854-24.714 16.593-29.902 17.62z"/>
     <path d="m326.08 57.494c2.6474-0.46605 3.5442-0.7795 6.2152-1.1225 14.243-1.8288 27.876-0.86845 30.822 13.963 1.7719 8.921-18.837 16.633-29.872 19.152l-6.0696-4.5647c7.0905-1.2419 27.895-7.6642 26.584-14.202-1.956-9.7506-11.23-10.282-21.973-8.8982z"/>
     <path d="m327.17 84.922-0.0195 13.006 6.1293 4.7171-0.0402-13.158z" stroke-linecap="round"/>
     <path d="m326.07 57.494-0.0186 12.332 5.7725 4.4724-0.0376-12.476z" stroke-linecap="round"/>
    </g>
    <g fill="none">
     <g>
      <path transform="matrix(.24958 0 0 .24958 366.52 111.24)" d="m-157.74-154.11-0.0614-20.357c17.529-2.258 32.661-1.391 35.852 14.519 0.72881 3.6332-2.6041 7.1509-8.1298 10.003-6.9366-4.8197-17.098-5.213-27.661-4.165z" clip-path="url(#clipPath14478-9-3)" filter="url(#filter13462-0-8)" stroke-linecap="round" stroke-width="1.8638"/>
      <path transform="matrix(.3027 0 0 .34954 373.56 117.49)" d="m-160.96-113.2c17.075-3.8977 48.197-15.414 48.865-28.647l-9e-3 21.368c-1.1509 13.193-40.324 27.074-48.791 28.749z" clip-path="url(#clipPath14928-5-6-3)" filter="url(#filter14814-9-9)" stroke-width="1.43"/>
      <path transform="matrix(.24958 0 0 .24958 356.12 126.01)" d="m-125.41-240.68c4.3197-0.76044 5.7829-1.2719 10.141-1.8315 23.24-2.984 45.484-1.417 50.291 22.783 2.8911 14.556-30.735 27.139-48.741 31.249l-9.9035-7.4481c11.569-2.0264 45.515-12.505 43.376-23.172-3.1915-15.91-18.323-16.777-35.852-14.519z" clip-path="url(#clipPath1339-9-0)" filter="url(#filter14814-9-9)" stroke-width="1.8638"/>
     </g>
     <path transform="matrix(.24958 0 0 .24958 367.03 95.054)" d="m-169.46-117.41-0.0318 21.222 10.001 7.6966-0.0656-21.47z" clip-path="url(#clipPath10742-1)" filter="url(#filter16056-0)" stroke-linecap="round" stroke-width="1.8638" style="mix-blend-mode:normal"/>
     <path transform="matrix(.24958 0 0 .24958 367.55 106.41)" d="m-169.46-117.41-0.0318 21.222 10.001 7.6966-0.0656-21.47z" clip-path="url(#clipPath3775-5-4)" filter="url(#filter1403-7-2)" stroke-linecap="round" stroke-width="1.8638" style="mix-blend-mode:normal"/>
    </g>
   </g>
   <g transform="rotate(-30.214 143.05 74.168)" stroke="#000">
    <g transform="matrix(.3558 -.20542 .20542 .3558 139.13 172.03)" fill="#fff" stroke-linejoin="round" stroke-width=".37022">
     <path d="m302.3 92.768c-9.0649 0.75442-46.591 3.7687-49.506-11.838-3.1245-16.728 18.958-12.537 34.627-14.57 3.8944-0.5677 8.3196-1.4717 12.844-2.2371l4.4385 3.5412c-5.6756 0.61186-11.421 1.9277-15.659 2.5395-10.649 1.3681-29.617-1.2291-27.494 10.027 1.9811 10.502 32.776 8.1108 38.936 7.6031 0.79836-0.0658 1.323-0.10942 3.2622-0.42631l5.1457 4.0343c-2.758 0.74139-5.1131 1.2031-6.5939 1.3263z" stroke-linecap="round"/>
     <path d="m252.54 77.621c5e-3 0.89465 0.11661 2.2395 0.31346 3.2934 2.915 15.607 40.441 12.592 49.506 11.838 1.4808-0.12324 3.8358-0.58493 6.535-1.3106l-0.0589 11.274c-2.7073 0.72295-5.0165 1.1733-6.4762 1.2948-9.0649 0.75442-46.591 3.7687-49.506-11.838-0.23169-1.2404-0.30665-2.272-0.31346-3.2934z"/>
     <path d="m289.05 81.461c-7.3274 0.94144-18.594 5e-3 -24.252 3.0269-1.7527-1.0794-2.908-2.4847-3.2424-4.2573-2.1235-11.257 16.845-8.6593 27.494-10.027 4.2388-0.61182 9.9838-1.9276 15.659-2.5395l0.0816 11.25c-5.6452 0.59805-11.461 1.9298-15.741 2.5476z"/>
    </g>
    <path transform="matrix(.18973 -.10954 .10839 .18774 285.96 127.53)" d="m-139.83-6.4447c-13.777 1.7701-34.961 0.01-45.597 5.6911-3.2954-2.0296-5.4675-4.6717-6.0962-8.0045-3.9925-21.164 37.075-18.558 57.096-21.131 7.9697-1.1503 18.771-3.6242 29.442-4.7746l-5.2491 23.429c-10.614 1.1244-21.549 3.6284-29.596 4.7899z" clip-path="url(#clipPath61963-0-9-8)" fill="#fff" filter="url(#filter61048-6-22-3)" stroke-linejoin="round" stroke-width="1.9965"/>
    <g transform="matrix(.3558 -.20542 .20542 .3558 176.14 179.72)">
     <path transform="matrix(.72959 0 0 .75606 318.69 -28.641)" d="m-94.681 25.282c-10.518 1.1351-24.777 5.3003-32.747 6.4506-0.83595 0.1074-11.136 2.2201-12.027 2.2887-20.45 1.5745-53.697-2.7832-54.128 17.851-0.89132 42.674 91.221 23.283 95.89 21.549" clip-path="url(#clipPath59899-9-3-0)" fill="none" filter="url(#filter56873-3-2-3)" stroke-width="10.67"/>
     <path transform="matrix(.53187 0 0 .53187 347.32 -30.142)" d="m-307.29 71.574c9e-3 1.6821 0.21923 4.2106 0.58935 6.1922 5.4808 29.343 76.037 23.676 93.08 22.257 2.7841-0.23171 7.212-1.0998 12.287-2.464l-0.11065 37.071c-5.0901 1.3593-9.4319 2.206-12.176 2.4344-17.043 1.4184-87.599 7.0858-93.08-22.257-0.43562-2.3322-0.57655-4.2717-0.58935-6.1922z" clip-path="url(#clipPath59086-4-6-5)" fill="url(#linearGradient6669)" filter="url(#filter56873-3-2-3)" stroke-linejoin="round" stroke-width="14.899"/>
     <path transform="matrix(.53187 0 0 .53187 294.75 23.637)" d="m-139.83-6.4447c-13.777 1.7701-34.961 0.01-45.597 5.6911-3.2954-2.0296-5.4675-4.6717-6.0962-8.0045-3.9925-21.164 31.672-16.281 51.693-18.853 7.9697-1.1503 18.771-3.6242 29.442-4.7746l0.15341 21.151c-10.614 1.1244-21.549 3.6284-29.596 4.7899z" clip-path="url(#clipPath61963-0-4-6)" fill="none" filter="url(#filter61048-6-2-8)" stroke-linejoin="round" stroke-width="1.8624"/>
    </g>
   </g>
   <g transform="matrix(1.712 0 0 1.712 -291.7 -104.76)" fill="none" stroke="#fff" stroke-width=".1291">
    <g>
     <path d="m320.27 125.75c1.2371 6.6231 17.162 5.3439 21.009 5.0238 2.8773-0.23947 13.534-3.4902 12.765-7.3583-1.6398-8.256-12.272-4.8413-19.08-3.8488-6.6493 0.86282-16.021-0.9157-14.695 6.1834z"/>
     <path d="m320.27 130.53c1.2371 6.6231 17.162 5.3439 21.009 5.0238 2.8773-0.23947 13.534-3.4902 12.765-7.3583-1.6398-8.256-12.272-4.8413-19.08-3.8488-6.6493 0.86282-16.021-0.9157-14.695 6.1834z"/>
     <path d="m320.14 124.56v4.7776"/>
     <path d="m343.52 130.28v4.7776"/>
     <path d="m340.41 118.69v4.7776"/>
     <path d="m354.07 124.09v4.7776"/>
     <path d="m323.99 125.45c0.84074 4.4568 13.909 3.442 16.524 3.2266 1.9555-0.16114 10.264-2.6255 9.7418-5.2284-1.1144-5.5556-9.9707-2.9215-14.598-2.2536-4.519 0.5806-12.569-0.52161-11.668 4.2554z"/>
    </g>
    <path d="m323.99 130.23c0.84074 4.4568 13.909 3.442 16.524 3.2266 1.9555-0.16114 10.264-2.6255 9.7418-5.2284-1.1144-5.5556-9.9707-2.9215-14.598-2.2536-4.519 0.5806-12.569-0.52161-11.668 4.2554z" stroke-dasharray="0.129095, 0.387284"/>
    <g>
     <path d="m342.36 120.14v4.7776"/>
     <path d="m341.59 128.69v4.7776"/>
     <path d="m340.41 118.69 1.9548 1.4487"/>
     <path d="m341.56 128.83 1.9548 1.4487"/>
    </g>
   </g>
  </g>
 </g>
</svg>
