<?xml version="1.0" encoding="UTF-8"?>
<svg width="400" height="400" version="1.1" viewBox="0 0 105.83 105.83" xmlns="http://www.w3.org/2000/svg">
 <defs>
  <clipPath id="b">
   <path d="M-1065.008-680.534c.087-24.37 7.175-72.83 7.175-72.83-3.249 8.264-21.735 10.388-32.85 10.739-10.822.341-30.14-.713-30.333-10.339v-.28s9.028 48.484 9.097 72.95c.072 25.633-9.1 76.474-9.1 76.474.192 9.626 19.34 12.279 30.488 12.215 11.979-.069 32.857-3.56 32.572-13.502 0 0-7.144-49.852-7.053-75.427z" fill="#fff" stroke="#000" stroke-width="2"/>
  </clipPath>
  <clipPath id="d">
   <path d="M-1044.176-754.5c.192 10.826 19.51 12.012 30.332 11.628 12.355-.439 33.82-3.338 33.602-15.7-.173-9.837-17.325-11.546-27.164-11.547-13.317-.003-37.007 2.304-36.77 15.619z" fill="#fff" stroke="#000" stroke-width="2"/>
  </clipPath>
  <filter id="a" x="-.020525" y="-.00089783" width="1.041" height="1.0019" color-interpolation-filters="sRGB">
   <feTurbulence baseFrequency="0.90928506057936687 0.82519305611714422" numOctaves="5" result="turbulence" seed="406"/>
   <feDisplacementMap in="SourceGraphic" in2="turbulence" scale="10.777" xChannelSelector="R" yChannelSelector="G"/>
  </filter>
  <filter id="c" x="-.022162" y="-.051894" width="1.0443" height="1.1038" color-interpolation-filters="sRGB">
   <feTurbulence baseFrequency="1 1" numOctaves="6" result="turbulence" seed="405" type="fractalNoise"/>
   <feDisplacementMap in="SourceGraphic" in2="turbulence" scale="14.222" xChannelSelector="R" yChannelSelector="G"/>
   <feGaussianBlur/>
  </filter>
 </defs>
 <g stroke="#000">
  <path transform="rotate(41.031 -479.84 274.18) scale(.20112)" d="M-1306.795-1197.103c.087-27.41 7.175-81.918 7.175-81.918-3.249 9.296-21.735 11.684-32.85 12.079-10.822.384-30.14-.802-30.333-11.629v-.316s9.028 54.535 9.097 82.053c.072 28.832-9.101 86.018-9.101 86.018.193 10.826 19.342 13.81 30.489 13.738 11.979-.077 32.857-4.004 32.571-15.186 0 0-7.143-56.072-7.052-84.84z" fill="#fff" stroke-width="2.8341"/>
  <path transform="matrix(.15172 .13203 -.1485 .17065 82.425 284.93)" d="m-1061-753.21s-6.636 61.543-6.001 79.738c0.634 18.195 10.398 87.107 10.398 87.107m-13.865-166.84s-4.345 61.634-3.922 79.829 7.03 87.25 7.03 87.25m-12.576-167.08s-2.054 61.726-1.842 79.92c0.211 18.196 3.66 87.394 3.66 87.394m-11.286-167.31s0.237 61.815 0.237 80.01c0 18.196 0.292 87.536 0.292 87.536m-9.998-167.55s2.53 61.906 2.318 80.102c-0.212 18.195-3.077 87.678-3.077 87.678m-8.709-167.78s4.82 61.997 4.398 80.193c-0.424 18.195-6.446 87.82-6.446 87.82m-7.42-168.01s7.112 62.088 6.477 80.284c-0.635 18.195-9.814 87.963-9.814 87.963" clip-path="url(#b)" fill="none" filter="url(#a)" stroke-width="2.6723"/>
  <g stroke-width="2.8341">
   <path transform="rotate(41.031 -479.84 274.18) scale(.20112)" d="M-1362.8-1278.887c.194 10.827 19.511 12.013 30.333 11.628 12.355-.438 33.82-3.338 33.602-15.699-.173-9.837-17.325-11.546-27.164-11.548-13.317 0-37.007 2.305-36.77 15.62z" fill="#fff"/>
   <path transform="rotate(41.031 -306.87 241.28) scale(.20112)" d="M-1044.176-754.5c.192 10.826 19.51 12.012 30.332 11.628 12.355-.439 33.82-3.338 33.602-15.7-.173-9.837-17.325-11.546-27.164-11.547-13.317-.002-37.007 2.304-36.77 15.619z" clip-path="url(#d)" fill="none" filter="url(#c)" style="mix-blend-mode:normal"/>
   <path transform="rotate(41.031 -468.27 305.1) scale(.20112)" d="M-1306.795-1197.103c.087-27.41 7.175-81.918 7.175-81.918-3.249 9.296-21.735 11.684-32.85 12.079-10.822.384-30.14-.802-30.333-11.629v-.316s9.028 54.535 9.097 82.053c.072 28.832-9.101 86.018-9.101 86.018.193 10.826 19.342 13.81 30.489 13.738 11.979-.077 32.857-4.004 32.571-15.186 0 0-7.143-56.072-7.052-84.84z" fill="#fff"/>
  </g>
  <path transform="matrix(.15172 .13203 -.1485 .17065 105.56 284.93)" d="m-1061-753.21s-6.636 61.543-6.001 79.738c0.634 18.195 10.398 87.107 10.398 87.107m-13.865-166.84s-4.345 61.634-3.922 79.829 7.03 87.25 7.03 87.25m-12.576-167.08s-2.054 61.726-1.842 79.92c0.211 18.196 3.66 87.394 3.66 87.394m-11.286-167.31s0.237 61.815 0.237 80.01c0 18.196 0.292 87.536 0.292 87.536m-9.998-167.55s2.53 61.906 2.318 80.102c-0.212 18.195-3.077 87.678-3.077 87.678m-8.709-167.78s4.82 61.997 4.398 80.193c-0.424 18.195-6.446 87.82-6.446 87.82m-7.42-168.01s7.112 62.088 6.477 80.284c-0.635 18.195-9.814 87.963-9.814 87.963" clip-path="url(#b)" fill="none" filter="url(#a)" stroke-width="2.6723"/>
  <g stroke-width="2.8341">
   <path transform="rotate(41.031 -468.27 305.1) scale(.20112)" d="M-1362.8-1278.887c.194 10.827 19.511 12.013 30.333 11.628 12.355-.438 33.82-3.338 33.602-15.699-.173-9.837-17.325-11.546-27.164-11.548-13.317 0-37.007 2.305-36.77 15.62z" fill="#fff"/>
   <path transform="rotate(41.031 -295.3 272.2) scale(.20112)" d="M-1044.176-754.5c.192 10.826 19.51 12.012 30.332 11.628 12.355-.439 33.82-3.338 33.602-15.7-.173-9.837-17.325-11.546-27.164-11.547-13.317-.002-37.007 2.304-36.77 15.619z" clip-path="url(#d)" fill="none" filter="url(#c)" style="mix-blend-mode:normal"/>
   <path transform="rotate(41.031 -456.7 336.02) scale(.20112)" d="M-1306.795-1197.103c.087-27.41 7.175-81.918 7.175-81.918-3.249 9.296-21.735 11.684-32.85 12.079-10.822.384-30.14-.802-30.333-11.629v-.316s9.028 54.535 9.097 82.053c.072 28.832-9.101 86.018-9.101 86.018.193 10.826 19.342 13.81 30.489 13.738 11.979-.077 32.857-4.004 32.571-15.186 0 0-7.143-56.072-7.052-84.84z" fill="#fff"/>
  </g>
  <path transform="matrix(.15172 .13203 -.1485 .17065 128.7 284.93)" d="m-1061-753.21s-6.636 61.543-6.001 79.738c0.634 18.195 10.398 87.107 10.398 87.107m-13.865-166.84s-4.345 61.634-3.922 79.829 7.03 87.25 7.03 87.25m-12.576-167.08s-2.054 61.726-1.842 79.92c0.211 18.196 3.66 87.394 3.66 87.394m-11.286-167.31s0.237 61.815 0.237 80.01c0 18.196 0.292 87.536 0.292 87.536m-9.998-167.55s2.53 61.906 2.318 80.102c-0.212 18.195-3.077 87.678-3.077 87.678m-8.709-167.78s4.82 61.997 4.398 80.193c-0.424 18.195-6.446 87.82-6.446 87.82m-7.42-168.01s7.112 62.088 6.477 80.284c-0.635 18.195-9.814 87.963-9.814 87.963" clip-path="url(#b)" fill="none" filter="url(#a)" stroke-width="2.6723"/>
  <g stroke-width="2.8341">
   <path transform="rotate(41.031 -456.7 336.02) scale(.20112)" d="M-1362.8-1278.887c.194 10.827 19.511 12.013 30.333 11.628 12.355-.438 33.82-3.338 33.602-15.699-.173-9.837-17.325-11.546-27.164-11.548-13.317 0-37.007 2.305-36.77 15.62z" fill="#fff"/>
   <path transform="rotate(41.031 -283.73 303.12) scale(.20112)" d="M-1044.176-754.5c.192 10.826 19.51 12.012 30.332 11.628 12.355-.439 33.82-3.338 33.602-15.7-.173-9.837-17.325-11.546-27.164-11.547-13.317-.002-37.007 2.304-36.77 15.619z" clip-path="url(#d)" fill="none" filter="url(#c)" style="mix-blend-mode:normal"/>
   <path transform="rotate(41.031 -445.12 366.94) scale(.20112)" d="M-1306.795-1197.103c.087-27.41 7.175-81.918 7.175-81.918-3.249 9.296-21.735 11.684-32.85 12.079-10.822.384-30.14-.802-30.333-11.629v-.316s9.028 54.535 9.097 82.053c.072 28.832-9.101 86.018-9.101 86.018.193 10.826 19.342 13.81 30.489 13.738 11.979-.077 32.857-4.004 32.571-15.186 0 0-7.143-56.072-7.052-84.84z" fill="#fff"/>
  </g>
  <path transform="matrix(.15172 .13203 -.1485 .17065 151.84 284.93)" d="m-1061-753.21s-6.636 61.543-6.001 79.738c0.634 18.195 10.398 87.107 10.398 87.107m-13.865-166.84s-4.345 61.634-3.922 79.829 7.03 87.25 7.03 87.25m-12.576-167.08s-2.054 61.726-1.842 79.92c0.211 18.196 3.66 87.394 3.66 87.394m-11.286-167.31s0.237 61.815 0.237 80.01c0 18.196 0.292 87.536 0.292 87.536m-9.998-167.55s2.53 61.906 2.318 80.102c-0.212 18.195-3.077 87.678-3.077 87.678m-8.709-167.78s4.82 61.997 4.398 80.193c-0.424 18.195-6.446 87.82-6.446 87.82m-7.42-168.01s7.112 62.088 6.477 80.284c-0.635 18.195-9.814 87.963-9.814 87.963" clip-path="url(#b)" fill="none" filter="url(#a)" stroke-width="2.6723"/>
  <g stroke-width="2.8341">
   <path transform="rotate(41.031 -445.12 366.94) scale(.20112)" d="M-1362.8-1278.887c.194 10.827 19.511 12.013 30.333 11.628 12.355-.438 33.82-3.338 33.602-15.699-.173-9.837-17.325-11.546-27.164-11.548-13.317 0-37.007 2.305-36.77 15.62z" fill="#fff"/>
   <path transform="rotate(41.031 -272.16 334.04) scale(.20112)" d="M-1044.176-754.5c.192 10.826 19.51 12.012 30.332 11.628 12.355-.439 33.82-3.338 33.602-15.7-.173-9.837-17.325-11.546-27.164-11.547-13.317-.002-37.007 2.304-36.77 15.619z" clip-path="url(#d)" fill="none" filter="url(#c)" style="mix-blend-mode:normal"/>
   <path transform="rotate(41.031 -498.39 281.12) scale(.20112)" d="M-1306.795-1197.103c.087-27.41 7.175-81.918 7.175-81.918-3.249 9.296-21.735 11.684-32.85 12.079-10.822.384-30.14-.802-30.333-11.629v-.316s9.028 54.535 9.097 82.053c.072 28.832-9.101 86.018-9.101 86.018.193 10.826 19.342 13.81 30.489 13.738 11.979-.077 32.857-4.004 32.571-15.186 0 0-7.143-56.072-7.052-84.84z" fill="#fff"/>
  </g>
  <path transform="matrix(.15172 .13203 -.1485 .17065 82.425 298.82)" d="m-1061-753.21s-6.636 61.543-6.001 79.738c0.634 18.195 10.398 87.107 10.398 87.107m-13.865-166.84s-4.345 61.634-3.922 79.829 7.03 87.25 7.03 87.25m-12.576-167.08s-2.054 61.726-1.842 79.92c0.211 18.196 3.66 87.394 3.66 87.394m-11.286-167.31s0.237 61.815 0.237 80.01c0 18.196 0.292 87.536 0.292 87.536m-9.998-167.55s2.53 61.906 2.318 80.102c-0.212 18.195-3.077 87.678-3.077 87.678m-8.709-167.78s4.82 61.997 4.398 80.193c-0.424 18.195-6.446 87.82-6.446 87.82m-7.42-168.01s7.112 62.088 6.477 80.284c-0.635 18.195-9.814 87.963-9.814 87.963" clip-path="url(#b)" fill="none" filter="url(#a)" stroke-width="2.6723"/>
  <g stroke-width="2.8341">
   <path transform="rotate(41.031 -498.39 281.12) scale(.20112)" d="M-1362.8-1278.887c.194 10.827 19.511 12.013 30.333 11.628 12.355-.438 33.82-3.338 33.602-15.699-.173-9.837-17.325-11.546-27.164-11.548-13.317 0-37.007 2.305-36.77 15.62z" fill="#fff"/>
   <path transform="rotate(41.031 -325.42 248.22) scale(.20112)" d="M-1044.176-754.5c.192 10.826 19.51 12.012 30.332 11.628 12.355-.439 33.82-3.338 33.602-15.7-.173-9.837-17.325-11.546-27.164-11.547-13.317-.002-37.007 2.304-36.77 15.619z" clip-path="url(#d)" fill="none" filter="url(#c)" style="mix-blend-mode:normal"/>
   <path transform="rotate(41.031 -486.82 312.04) scale(.20112)" d="M-1306.795-1197.103c.087-27.41 7.175-81.918 7.175-81.918-3.249 9.296-21.735 11.684-32.85 12.079-10.822.384-30.14-.802-30.333-11.629v-.316s9.028 54.535 9.097 82.053c.072 28.832-9.101 86.018-9.101 86.018.193 10.826 19.342 13.81 30.489 13.738 11.979-.077 32.857-4.004 32.571-15.186 0 0-7.143-56.072-7.052-84.84z" fill="#fff"/>
  </g>
  <path transform="matrix(.15172 .13203 -.1485 .17065 105.56 298.82)" d="m-1061-753.21s-6.636 61.543-6.001 79.738c0.634 18.195 10.398 87.107 10.398 87.107m-13.865-166.84s-4.345 61.634-3.922 79.829 7.03 87.25 7.03 87.25m-12.576-167.08s-2.054 61.726-1.842 79.92c0.211 18.196 3.66 87.394 3.66 87.394m-11.286-167.31s0.237 61.815 0.237 80.01c0 18.196 0.292 87.536 0.292 87.536m-9.998-167.55s2.53 61.906 2.318 80.102c-0.212 18.195-3.077 87.678-3.077 87.678m-8.709-167.78s4.82 61.997 4.398 80.193c-0.424 18.195-6.446 87.82-6.446 87.82m-7.42-168.01s7.112 62.088 6.477 80.284c-0.635 18.195-9.814 87.963-9.814 87.963" clip-path="url(#b)" fill="none" filter="url(#a)" stroke-width="2.6723"/>
  <g stroke-width="2.8341">
   <path transform="rotate(41.031 -486.82 312.04) scale(.20112)" d="M-1362.8-1278.887c.194 10.827 19.511 12.013 30.333 11.628 12.355-.438 33.82-3.338 33.602-15.699-.173-9.837-17.325-11.546-27.164-11.548-13.317 0-37.007 2.305-36.77 15.62z" fill="#fff"/>
   <path transform="rotate(41.031 -313.85 279.14) scale(.20112)" d="M-1044.176-754.5c.192 10.826 19.51 12.012 30.332 11.628 12.355-.439 33.82-3.338 33.602-15.7-.173-9.837-17.325-11.546-27.164-11.547-13.317-.002-37.007 2.304-36.77 15.619z" clip-path="url(#d)" fill="none" filter="url(#c)" style="mix-blend-mode:normal"/>
   <path transform="rotate(41.031 -475.25 342.96) scale(.20112)" d="M-1306.795-1197.103c.087-27.41 7.175-81.918 7.175-81.918-3.249 9.296-21.735 11.684-32.85 12.079-10.822.384-30.14-.802-30.333-11.629v-.316s9.028 54.535 9.097 82.053c.072 28.832-9.101 86.018-9.101 86.018.193 10.826 19.342 13.81 30.489 13.738 11.979-.077 32.857-4.004 32.571-15.186 0 0-7.143-56.072-7.052-84.84z" fill="#fff"/>
  </g>
  <path transform="matrix(.15172 .13203 -.1485 .17065 128.7 298.82)" d="m-1061-753.21s-6.636 61.543-6.001 79.738c0.634 18.195 10.398 87.107 10.398 87.107m-13.865-166.84s-4.345 61.634-3.922 79.829 7.03 87.25 7.03 87.25m-12.576-167.08s-2.054 61.726-1.842 79.92c0.211 18.196 3.66 87.394 3.66 87.394m-11.286-167.31s0.237 61.815 0.237 80.01c0 18.196 0.292 87.536 0.292 87.536m-9.998-167.55s2.53 61.906 2.318 80.102c-0.212 18.195-3.077 87.678-3.077 87.678m-8.709-167.78s4.82 61.997 4.398 80.193c-0.424 18.195-6.446 87.82-6.446 87.82m-7.42-168.01s7.112 62.088 6.477 80.284c-0.635 18.195-9.814 87.963-9.814 87.963" clip-path="url(#b)" fill="none" filter="url(#a)" stroke-width="2.6723"/>
  <g stroke-width="2.8341">
   <path transform="rotate(41.031 -475.25 342.96) scale(.20112)" d="M-1362.8-1278.887c.194 10.827 19.511 12.013 30.333 11.628 12.355-.438 33.82-3.338 33.602-15.699-.173-9.837-17.325-11.546-27.164-11.548-13.317 0-37.007 2.305-36.77 15.62z" fill="#fff"/>
   <path transform="rotate(41.031 -302.28 310.06) scale(.20112)" d="M-1044.176-754.5c.192 10.826 19.51 12.012 30.332 11.628 12.355-.439 33.82-3.338 33.602-15.7-.173-9.837-17.325-11.546-27.164-11.547-13.317-.002-37.007 2.304-36.77 15.619z" clip-path="url(#d)" fill="none" filter="url(#c)" style="mix-blend-mode:normal"/>
   <path transform="rotate(41.031 -463.68 373.88) scale(.20112)" d="M-1306.795-1197.103c.087-27.41 7.175-81.918 7.175-81.918-3.249 9.296-21.735 11.684-32.85 12.079-10.822.384-30.14-.802-30.333-11.629v-.316s9.028 54.535 9.097 82.053c.072 28.832-9.101 86.018-9.101 86.018.193 10.826 19.342 13.81 30.489 13.738 11.979-.077 32.857-4.004 32.571-15.186 0 0-7.143-56.072-7.052-84.84z" fill="#fff"/>
  </g>
  <path transform="matrix(.15172 .13203 -.1485 .17065 151.84 298.82)" d="m-1061-753.21s-6.636 61.543-6.001 79.738c0.634 18.195 10.398 87.107 10.398 87.107m-13.865-166.84s-4.345 61.634-3.922 79.829 7.03 87.25 7.03 87.25m-12.576-167.08s-2.054 61.726-1.842 79.92c0.211 18.196 3.66 87.394 3.66 87.394m-11.286-167.31s0.237 61.815 0.237 80.01c0 18.196 0.292 87.536 0.292 87.536m-9.998-167.55s2.53 61.906 2.318 80.102c-0.212 18.195-3.077 87.678-3.077 87.678m-8.709-167.78s4.82 61.997 4.398 80.193c-0.424 18.195-6.446 87.82-6.446 87.82m-7.42-168.01s7.112 62.088 6.477 80.284c-0.635 18.195-9.814 87.963-9.814 87.963" clip-path="url(#b)" fill="none" filter="url(#a)" stroke-width="2.6723"/>
  <g stroke-width="2.8341">
   <path transform="rotate(41.031 -463.68 373.88) scale(.20112)" d="M-1362.8-1278.887c.194 10.827 19.511 12.013 30.333 11.628 12.355-.438 33.82-3.338 33.602-15.699-.173-9.837-17.325-11.546-27.164-11.548-13.317 0-37.007 2.305-36.77 15.62z" fill="#fff"/>
   <path transform="rotate(41.031 -290.71 340.98) scale(.20112)" d="M-1044.176-754.5c.192 10.826 19.51 12.012 30.332 11.628 12.355-.439 33.82-3.338 33.602-15.7-.173-9.837-17.325-11.546-27.164-11.547-13.317-.002-37.007 2.304-36.77 15.619z" clip-path="url(#d)" fill="none" filter="url(#c)" style="mix-blend-mode:normal"/>
   <path transform="rotate(41.031 -516.94 288.06) scale(.20112)" d="M-1306.795-1197.103c.087-27.41 7.175-81.918 7.175-81.918-3.249 9.296-21.735 11.684-32.85 12.079-10.822.384-30.14-.802-30.333-11.629v-.316s9.028 54.535 9.097 82.053c.072 28.832-9.101 86.018-9.101 86.018.193 10.826 19.342 13.81 30.489 13.738 11.979-.077 32.857-4.004 32.571-15.186 0 0-7.143-56.072-7.052-84.84z" fill="#fff"/>
  </g>
  <path transform="matrix(.15172 .13203 -.1485 .17065 82.425 312.7)" d="m-1061-753.21s-6.636 61.543-6.001 79.738c0.634 18.195 10.398 87.107 10.398 87.107m-13.865-166.84s-4.345 61.634-3.922 79.829 7.03 87.25 7.03 87.25m-12.576-167.08s-2.054 61.726-1.842 79.92c0.211 18.196 3.66 87.394 3.66 87.394m-11.286-167.31s0.237 61.815 0.237 80.01c0 18.196 0.292 87.536 0.292 87.536m-9.998-167.55s2.53 61.906 2.318 80.102c-0.212 18.195-3.077 87.678-3.077 87.678m-8.709-167.78s4.82 61.997 4.398 80.193c-0.424 18.195-6.446 87.82-6.446 87.82m-7.42-168.01s7.112 62.088 6.477 80.284c-0.635 18.195-9.814 87.963-9.814 87.963" clip-path="url(#b)" fill="none" filter="url(#a)" stroke-width="2.6723"/>
  <g stroke-width="2.8341">
   <path transform="rotate(41.031 -516.94 288.06) scale(.20112)" d="M-1362.8-1278.887c.194 10.827 19.511 12.013 30.333 11.628 12.355-.438 33.82-3.338 33.602-15.699-.173-9.837-17.325-11.546-27.164-11.548-13.317 0-37.007 2.305-36.77 15.62z" fill="#fff"/>
   <path transform="rotate(41.031 -343.98 255.16) scale(.20112)" d="M-1044.176-754.5c.192 10.826 19.51 12.012 30.332 11.628 12.355-.439 33.82-3.338 33.602-15.7-.173-9.837-17.325-11.546-27.164-11.547-13.317-.002-37.007 2.304-36.77 15.619z" clip-path="url(#d)" fill="none" filter="url(#c)" style="mix-blend-mode:normal"/>
   <path transform="rotate(41.031 -505.37 318.98) scale(.20112)" d="M-1306.795-1197.103c.087-27.41 7.175-81.918 7.175-81.918-3.249 9.296-21.735 11.684-32.85 12.079-10.822.384-30.14-.802-30.333-11.629v-.316s9.028 54.535 9.097 82.053c.072 28.832-9.101 86.018-9.101 86.018.193 10.826 19.342 13.81 30.489 13.738 11.979-.077 32.857-4.004 32.571-15.186 0 0-7.143-56.072-7.052-84.84z" fill="#fff"/>
  </g>
  <path transform="matrix(.15172 .13203 -.1485 .17065 105.56 312.7)" d="m-1061-753.21s-6.636 61.543-6.001 79.738c0.634 18.195 10.398 87.107 10.398 87.107m-13.865-166.84s-4.345 61.634-3.922 79.829 7.03 87.25 7.03 87.25m-12.576-167.08s-2.054 61.726-1.842 79.92c0.211 18.196 3.66 87.394 3.66 87.394m-11.286-167.31s0.237 61.815 0.237 80.01c0 18.196 0.292 87.536 0.292 87.536m-9.998-167.55s2.53 61.906 2.318 80.102c-0.212 18.195-3.077 87.678-3.077 87.678m-8.709-167.78s4.82 61.997 4.398 80.193c-0.424 18.195-6.446 87.82-6.446 87.82m-7.42-168.01s7.112 62.088 6.477 80.284c-0.635 18.195-9.814 87.963-9.814 87.963" clip-path="url(#b)" fill="none" filter="url(#a)" stroke-width="2.6723"/>
  <g stroke-width="2.8341">
   <path transform="rotate(41.031 -505.37 318.98) scale(.20112)" d="M-1362.8-1278.887c.194 10.827 19.511 12.013 30.333 11.628 12.355-.438 33.82-3.338 33.602-15.699-.173-9.837-17.325-11.546-27.164-11.548-13.317 0-37.007 2.305-36.77 15.62z" fill="#fff"/>
   <path transform="rotate(41.031 -332.4 286.08) scale(.20112)" d="M-1044.176-754.5c.192 10.826 19.51 12.012 30.332 11.628 12.355-.439 33.82-3.338 33.602-15.7-.173-9.837-17.325-11.546-27.164-11.547-13.317-.002-37.007 2.304-36.77 15.619z" clip-path="url(#d)" fill="none" filter="url(#c)" style="mix-blend-mode:normal"/>
   <path transform="rotate(41.031 -493.8 349.9) scale(.20112)" d="M-1306.795-1197.103c.087-27.41 7.175-81.918 7.175-81.918-3.249 9.296-21.735 11.684-32.85 12.079-10.822.384-30.14-.802-30.333-11.629v-.316s9.028 54.535 9.097 82.053c.072 28.832-9.101 86.018-9.101 86.018.193 10.826 19.342 13.81 30.489 13.738 11.979-.077 32.857-4.004 32.571-15.186 0 0-7.143-56.072-7.052-84.84z" fill="#fff"/>
  </g>
  <path transform="matrix(.15172 .13203 -.1485 .17065 128.7 312.7)" d="m-1061-753.21s-6.636 61.543-6.001 79.738c0.634 18.195 10.398 87.107 10.398 87.107m-13.865-166.84s-4.345 61.634-3.922 79.829 7.03 87.25 7.03 87.25m-12.576-167.08s-2.054 61.726-1.842 79.92c0.211 18.196 3.66 87.394 3.66 87.394m-11.286-167.31s0.237 61.815 0.237 80.01c0 18.196 0.292 87.536 0.292 87.536m-9.998-167.55s2.53 61.906 2.318 80.102c-0.212 18.195-3.077 87.678-3.077 87.678m-8.709-167.78s4.82 61.997 4.398 80.193c-0.424 18.195-6.446 87.82-6.446 87.82m-7.42-168.01s7.112 62.088 6.477 80.284c-0.635 18.195-9.814 87.963-9.814 87.963" clip-path="url(#b)" fill="none" filter="url(#a)" stroke-width="2.6723"/>
  <g stroke-width="2.8341">
   <path transform="rotate(41.031 -493.8 349.9) scale(.20112)" d="M-1362.8-1278.887c.194 10.827 19.511 12.013 30.333 11.628 12.355-.438 33.82-3.338 33.602-15.699-.173-9.837-17.325-11.546-27.164-11.548-13.317 0-37.007 2.305-36.77 15.62z" fill="#fff"/>
   <path transform="rotate(41.031 -320.84 317) scale(.20112)" d="M-1044.176-754.5c.192 10.826 19.51 12.012 30.332 11.628 12.355-.439 33.82-3.338 33.602-15.7-.173-9.837-17.325-11.546-27.164-11.547-13.317-.002-37.007 2.304-36.77 15.619z" clip-path="url(#d)" fill="none" filter="url(#c)" style="mix-blend-mode:normal"/>
   <path transform="rotate(41.031 -482.23 380.82) scale(.20112)" d="M-1306.795-1197.103c.087-27.41 7.175-81.918 7.175-81.918-3.249 9.296-21.735 11.684-32.85 12.079-10.822.384-30.14-.802-30.333-11.629v-.316s9.028 54.535 9.097 82.053c.072 28.832-9.101 86.018-9.101 86.018.193 10.826 19.342 13.81 30.489 13.738 11.979-.077 32.857-4.004 32.571-15.186 0 0-7.143-56.072-7.052-84.84z" fill="#fff"/>
  </g>
  <path transform="matrix(.15172 .13203 -.1485 .17065 151.84 312.7)" d="m-1061-753.21s-6.636 61.543-6.001 79.738c0.634 18.195 10.398 87.107 10.398 87.107m-13.865-166.84s-4.345 61.634-3.922 79.829 7.03 87.25 7.03 87.25m-12.576-167.08s-2.054 61.726-1.842 79.92c0.211 18.196 3.66 87.394 3.66 87.394m-11.286-167.31s0.237 61.815 0.237 80.01c0 18.196 0.292 87.536 0.292 87.536m-9.998-167.55s2.53 61.906 2.318 80.102c-0.212 18.195-3.077 87.678-3.077 87.678m-8.709-167.78s4.82 61.997 4.398 80.193c-0.424 18.195-6.446 87.82-6.446 87.82m-7.42-168.01s7.112 62.088 6.477 80.284c-0.635 18.195-9.814 87.963-9.814 87.963" clip-path="url(#b)" fill="none" filter="url(#a)" stroke-width="2.6723"/>
  <g stroke-width="2.8341">
   <path transform="rotate(41.031 -482.23 380.82) scale(.20112)" d="M-1362.8-1278.887c.194 10.827 19.511 12.013 30.333 11.628 12.355-.438 33.82-3.338 33.602-15.699-.173-9.837-17.325-11.546-27.164-11.548-13.317 0-37.007 2.305-36.77 15.62z" fill="#fff"/>
   <path transform="rotate(41.031 -309.26 347.92) scale(.20112)" d="M-1044.176-754.5c.192 10.826 19.51 12.012 30.332 11.628 12.355-.439 33.82-3.338 33.602-15.7-.173-9.837-17.325-11.546-27.164-11.547-13.317-.002-37.007 2.304-36.77 15.619z" clip-path="url(#d)" fill="none" filter="url(#c)" style="mix-blend-mode:normal"/>
   <path transform="rotate(41.031 -535.49 295) scale(.20112)" d="M-1306.795-1197.103c.087-27.41 7.175-81.918 7.175-81.918-3.249 9.296-21.735 11.684-32.85 12.079-10.822.384-30.14-.802-30.333-11.629v-.316s9.028 54.535 9.097 82.053c.072 28.832-9.101 86.018-9.101 86.018.193 10.826 19.342 13.81 30.489 13.738 11.979-.077 32.857-4.004 32.571-15.186 0 0-7.143-56.072-7.052-84.84z" fill="#fff"/>
  </g>
  <path transform="matrix(.15172 .13203 -.1485 .17065 82.425 326.58)" d="m-1061-753.21s-6.636 61.543-6.001 79.738c0.634 18.195 10.398 87.107 10.398 87.107m-13.865-166.84s-4.345 61.634-3.922 79.829 7.03 87.25 7.03 87.25m-12.576-167.08s-2.054 61.726-1.842 79.92c0.211 18.196 3.66 87.394 3.66 87.394m-11.286-167.31s0.237 61.815 0.237 80.01c0 18.196 0.292 87.536 0.292 87.536m-9.998-167.55s2.53 61.906 2.318 80.102c-0.212 18.195-3.077 87.678-3.077 87.678m-8.709-167.78s4.82 61.997 4.398 80.193c-0.424 18.195-6.446 87.82-6.446 87.82m-7.42-168.01s7.112 62.088 6.477 80.284c-0.635 18.195-9.814 87.963-9.814 87.963" clip-path="url(#b)" fill="none" filter="url(#a)" stroke-width="2.6723"/>
  <g stroke-width="2.8341">
   <path transform="rotate(41.031 -535.49 295) scale(.20112)" d="M-1362.8-1278.887c.194 10.827 19.511 12.013 30.333 11.628 12.355-.438 33.82-3.338 33.602-15.699-.173-9.837-17.325-11.546-27.164-11.548-13.317 0-37.007 2.305-36.77 15.62z" fill="#fff"/>
   <path transform="rotate(41.031 -362.53 262.11) scale(.20112)" d="M-1044.176-754.5c.192 10.826 19.51 12.012 30.332 11.628 12.355-.439 33.82-3.338 33.602-15.7-.173-9.837-17.325-11.546-27.164-11.547-13.317-.002-37.007 2.304-36.77 15.619z" clip-path="url(#d)" fill="none" filter="url(#c)" style="mix-blend-mode:normal"/>
   <path transform="rotate(41.031 -523.92 325.92) scale(.20112)" d="M-1306.795-1197.103c.087-27.41 7.175-81.918 7.175-81.918-3.249 9.296-21.735 11.684-32.85 12.079-10.822.384-30.14-.802-30.333-11.629v-.316s9.028 54.535 9.097 82.053c.072 28.832-9.101 86.018-9.101 86.018.193 10.826 19.342 13.81 30.489 13.738 11.979-.077 32.857-4.004 32.571-15.186 0 0-7.143-56.072-7.052-84.84z" fill="#fff"/>
  </g>
  <path transform="matrix(.15172 .13203 -.1485 .17065 105.56 326.58)" d="m-1061-753.21s-6.636 61.543-6.001 79.738c0.634 18.195 10.398 87.107 10.398 87.107m-13.865-166.84s-4.345 61.634-3.922 79.829 7.03 87.25 7.03 87.25m-12.576-167.08s-2.054 61.726-1.842 79.92c0.211 18.196 3.66 87.394 3.66 87.394m-11.286-167.31s0.237 61.815 0.237 80.01c0 18.196 0.292 87.536 0.292 87.536m-9.998-167.55s2.53 61.906 2.318 80.102c-0.212 18.195-3.077 87.678-3.077 87.678m-8.709-167.78s4.82 61.997 4.398 80.193c-0.424 18.195-6.446 87.82-6.446 87.82m-7.42-168.01s7.112 62.088 6.477 80.284c-0.635 18.195-9.814 87.963-9.814 87.963" clip-path="url(#b)" fill="none" filter="url(#a)" stroke-width="2.6723"/>
  <g stroke-width="2.8341">
   <path transform="rotate(41.031 -523.92 325.92) scale(.20112)" d="M-1362.8-1278.887c.194 10.827 19.511 12.013 30.333 11.628 12.355-.438 33.82-3.338 33.602-15.699-.173-9.837-17.325-11.546-27.164-11.548-13.317 0-37.007 2.305-36.77 15.62z" fill="#fff"/>
   <path transform="rotate(41.031 -350.96 293.03) scale(.20112)" d="M-1044.176-754.5c.192 10.826 19.51 12.012 30.332 11.628 12.355-.439 33.82-3.338 33.602-15.7-.173-9.837-17.325-11.546-27.164-11.547-13.317-.002-37.007 2.304-36.77 15.619z" clip-path="url(#d)" fill="none" filter="url(#c)" style="mix-blend-mode:normal"/>
   <path transform="rotate(41.031 -512.35 356.84) scale(.20112)" d="M-1306.795-1197.103c.087-27.41 7.175-81.918 7.175-81.918-3.249 9.296-21.735 11.684-32.85 12.079-10.822.384-30.14-.802-30.333-11.629v-.316s9.028 54.535 9.097 82.053c.072 28.832-9.101 86.018-9.101 86.018.193 10.826 19.342 13.81 30.489 13.738 11.979-.077 32.857-4.004 32.571-15.186 0 0-7.143-56.072-7.052-84.84z" fill="#fff"/>
  </g>
  <path transform="matrix(.15172 .13203 -.1485 .17065 128.7 326.58)" d="m-1061-753.21s-6.636 61.543-6.001 79.738c0.634 18.195 10.398 87.107 10.398 87.107m-13.865-166.84s-4.345 61.634-3.922 79.829 7.03 87.25 7.03 87.25m-12.576-167.08s-2.054 61.726-1.842 79.92c0.211 18.196 3.66 87.394 3.66 87.394m-11.286-167.31s0.237 61.815 0.237 80.01c0 18.196 0.292 87.536 0.292 87.536m-9.998-167.55s2.53 61.906 2.318 80.102c-0.212 18.195-3.077 87.678-3.077 87.678m-8.709-167.78s4.82 61.997 4.398 80.193c-0.424 18.195-6.446 87.82-6.446 87.82m-7.42-168.01s7.112 62.088 6.477 80.284c-0.635 18.195-9.814 87.963-9.814 87.963" clip-path="url(#b)" fill="none" filter="url(#a)" stroke-width="2.6723"/>
  <g stroke-width="2.8341">
   <path transform="rotate(41.031 -512.35 356.84) scale(.20112)" d="M-1362.8-1278.887c.194 10.827 19.511 12.013 30.333 11.628 12.355-.438 33.82-3.338 33.602-15.699-.173-9.837-17.325-11.546-27.164-11.548-13.317 0-37.007 2.305-36.77 15.62z" fill="#fff"/>
   <path transform="rotate(41.031 -339.39 323.95) scale(.20112)" d="M-1044.176-754.5c.192 10.826 19.51 12.012 30.332 11.628 12.355-.439 33.82-3.338 33.602-15.7-.173-9.837-17.325-11.546-27.164-11.547-13.317-.002-37.007 2.304-36.77 15.619z" clip-path="url(#d)" fill="none" filter="url(#c)" style="mix-blend-mode:normal"/>
   <path transform="rotate(41.031 -500.78 387.76) scale(.20112)" d="M-1306.795-1197.103c.087-27.41 7.175-81.918 7.175-81.918-3.249 9.296-21.735 11.684-32.85 12.079-10.822.384-30.14-.802-30.333-11.629v-.316s9.028 54.535 9.097 82.053c.072 28.832-9.101 86.018-9.101 86.018.193 10.826 19.342 13.81 30.489 13.738 11.979-.077 32.857-4.004 32.571-15.186 0 0-7.143-56.072-7.052-84.84z" fill="#fff"/>
  </g>
  <path transform="matrix(.15172 .13203 -.1485 .17065 151.84 326.58)" d="m-1061-753.21s-6.636 61.543-6.001 79.738c0.634 18.195 10.398 87.107 10.398 87.107m-13.865-166.84s-4.345 61.634-3.922 79.829 7.03 87.25 7.03 87.25m-12.576-167.08s-2.054 61.726-1.842 79.92c0.211 18.196 3.66 87.394 3.66 87.394m-11.286-167.31s0.237 61.815 0.237 80.01c0 18.196 0.292 87.536 0.292 87.536m-9.998-167.55s2.53 61.906 2.318 80.102c-0.212 18.195-3.077 87.678-3.077 87.678m-8.709-167.78s4.82 61.997 4.398 80.193c-0.424 18.195-6.446 87.82-6.446 87.82m-7.42-168.01s7.112 62.088 6.477 80.284c-0.635 18.195-9.814 87.963-9.814 87.963" clip-path="url(#b)" fill="none" filter="url(#a)" stroke-width="2.6723"/>
  <g stroke-width="2.8341">
   <path transform="rotate(41.031 -500.78 387.76) scale(.20112)" d="M-1362.8-1278.887c.194 10.827 19.511 12.013 30.333 11.628 12.355-.438 33.82-3.338 33.602-15.699-.173-9.837-17.325-11.546-27.164-11.548-13.317 0-37.007 2.305-36.77 15.62z" fill="#fff"/>
   <path transform="rotate(41.031 -327.82 354.87) scale(.20112)" d="M-1044.176-754.5c.192 10.826 19.51 12.012 30.332 11.628 12.355-.439 33.82-3.338 33.602-15.7-.173-9.837-17.325-11.546-27.164-11.547-13.317-.002-37.007 2.304-36.77 15.619z" clip-path="url(#d)" fill="none" filter="url(#c)" style="mix-blend-mode:normal"/>
   <path transform="rotate(41.031 -554.04 301.94) scale(.20112)" d="M-1306.795-1197.103c.087-27.41 7.175-81.918 7.175-81.918-3.249 9.296-21.735 11.684-32.85 12.079-10.822.384-30.14-.802-30.333-11.629v-.316s9.028 54.535 9.097 82.053c.072 28.832-9.101 86.018-9.101 86.018.193 10.826 19.342 13.81 30.489 13.738 11.979-.077 32.857-4.004 32.571-15.186 0 0-7.143-56.072-7.052-84.84z" fill="#fff"/>
  </g>
  <path transform="matrix(.15172 .13203 -.1485 .17065 82.425 340.47)" d="m-1061-753.21s-6.636 61.543-6.001 79.738c0.634 18.195 10.398 87.107 10.398 87.107m-13.865-166.84s-4.345 61.634-3.922 79.829 7.03 87.25 7.03 87.25m-12.576-167.08s-2.054 61.726-1.842 79.92c0.211 18.196 3.66 87.394 3.66 87.394m-11.286-167.31s0.237 61.815 0.237 80.01c0 18.196 0.292 87.536 0.292 87.536m-9.998-167.55s2.53 61.906 2.318 80.102c-0.212 18.195-3.077 87.678-3.077 87.678m-8.709-167.78s4.82 61.997 4.398 80.193c-0.424 18.195-6.446 87.82-6.446 87.82m-7.42-168.01s7.112 62.088 6.477 80.284c-0.635 18.195-9.814 87.963-9.814 87.963" clip-path="url(#b)" fill="none" filter="url(#a)" stroke-width="2.6723"/>
  <g stroke-width="2.8341">
   <path transform="rotate(41.031 -554.04 301.94) scale(.20112)" d="M-1362.8-1278.887c.194 10.827 19.511 12.013 30.333 11.628 12.355-.438 33.82-3.338 33.602-15.699-.173-9.837-17.325-11.546-27.164-11.548-13.317 0-37.007 2.305-36.77 15.62z" fill="#fff"/>
   <path transform="rotate(41.031 -381.08 269.05) scale(.20112)" d="M-1044.176-754.5c.192 10.826 19.51 12.012 30.332 11.628 12.355-.439 33.82-3.338 33.602-15.7-.173-9.837-17.325-11.546-27.164-11.547-13.317-.002-37.007 2.304-36.77 15.619z" clip-path="url(#d)" fill="none" filter="url(#c)" style="mix-blend-mode:normal"/>
   <path transform="rotate(41.031 -542.47 332.86) scale(.20112)" d="M-1306.795-1197.103c.087-27.41 7.175-81.918 7.175-81.918-3.249 9.296-21.735 11.684-32.85 12.079-10.822.384-30.14-.802-30.333-11.629v-.316s9.028 54.535 9.097 82.053c.072 28.832-9.101 86.018-9.101 86.018.193 10.826 19.342 13.81 30.489 13.738 11.979-.077 32.857-4.004 32.571-15.186 0 0-7.143-56.072-7.052-84.84z" fill="#fff"/>
  </g>
  <path transform="matrix(.15172 .13203 -.1485 .17065 105.56 340.47)" d="m-1061-753.21s-6.636 61.543-6.001 79.738c0.634 18.195 10.398 87.107 10.398 87.107m-13.865-166.84s-4.345 61.634-3.922 79.829 7.03 87.25 7.03 87.25m-12.576-167.08s-2.054 61.726-1.842 79.92c0.211 18.196 3.66 87.394 3.66 87.394m-11.286-167.31s0.237 61.815 0.237 80.01c0 18.196 0.292 87.536 0.292 87.536m-9.998-167.55s2.53 61.906 2.318 80.102c-0.212 18.195-3.077 87.678-3.077 87.678m-8.709-167.78s4.82 61.997 4.398 80.193c-0.424 18.195-6.446 87.82-6.446 87.82m-7.42-168.01s7.112 62.088 6.477 80.284c-0.635 18.195-9.814 87.963-9.814 87.963" clip-path="url(#b)" fill="none" filter="url(#a)" stroke-width="2.6723"/>
  <g stroke-width="2.8341">
   <path transform="rotate(41.031 -542.47 332.86) scale(.20112)" d="M-1362.8-1278.887c.194 10.827 19.511 12.013 30.333 11.628 12.355-.438 33.82-3.338 33.602-15.699-.173-9.837-17.325-11.546-27.164-11.548-13.317 0-37.007 2.305-36.77 15.62z" fill="#fff"/>
   <path transform="rotate(41.031 -369.51 299.97) scale(.20112)" d="M-1044.176-754.5c.192 10.826 19.51 12.012 30.332 11.628 12.355-.439 33.82-3.338 33.602-15.7-.173-9.837-17.325-11.546-27.164-11.547-13.317-.002-37.007 2.304-36.77 15.619z" clip-path="url(#d)" fill="none" filter="url(#c)" style="mix-blend-mode:normal"/>
   <path transform="rotate(41.031 -530.9 363.78) scale(.20112)" d="M-1306.795-1197.103c.087-27.41 7.175-81.918 7.175-81.918-3.249 9.296-21.735 11.684-32.85 12.079-10.822.384-30.14-.802-30.333-11.629v-.316s9.028 54.535 9.097 82.053c.072 28.832-9.101 86.018-9.101 86.018.193 10.826 19.342 13.81 30.489 13.738 11.979-.077 32.857-4.004 32.571-15.186 0 0-7.143-56.072-7.052-84.84z" fill="#fff"/>
  </g>
  <path transform="matrix(.15172 .13203 -.1485 .17065 128.7 340.47)" d="m-1061-753.21s-6.636 61.543-6.001 79.738c0.634 18.195 10.398 87.107 10.398 87.107m-13.865-166.84s-4.345 61.634-3.922 79.829 7.03 87.25 7.03 87.25m-12.576-167.08s-2.054 61.726-1.842 79.92c0.211 18.196 3.66 87.394 3.66 87.394m-11.286-167.31s0.237 61.815 0.237 80.01c0 18.196 0.292 87.536 0.292 87.536m-9.998-167.55s2.53 61.906 2.318 80.102c-0.212 18.195-3.077 87.678-3.077 87.678m-8.709-167.78s4.82 61.997 4.398 80.193c-0.424 18.195-6.446 87.82-6.446 87.82m-7.42-168.01s7.112 62.088 6.477 80.284c-0.635 18.195-9.814 87.963-9.814 87.963" clip-path="url(#b)" fill="none" filter="url(#a)" stroke-width="2.6723"/>
  <g stroke-width="2.8341">
   <path transform="rotate(41.031 -530.9 363.78) scale(.20112)" d="M-1362.8-1278.887c.194 10.827 19.511 12.013 30.333 11.628 12.355-.438 33.82-3.338 33.602-15.699-.173-9.837-17.325-11.546-27.164-11.548-13.317 0-37.007 2.305-36.77 15.62z" fill="#fff"/>
   <path transform="rotate(41.031 -357.94 330.89) scale(.20112)" d="M-1044.176-754.5c.192 10.826 19.51 12.012 30.332 11.628 12.355-.439 33.82-3.338 33.602-15.7-.173-9.837-17.325-11.546-27.164-11.547-13.317-.002-37.007 2.304-36.77 15.619z" clip-path="url(#d)" fill="none" filter="url(#c)" style="mix-blend-mode:normal"/>
   <path transform="rotate(41.031 -519.33 394.7) scale(.20112)" d="M-1306.795-1197.103c.087-27.41 7.175-81.918 7.175-81.918-3.249 9.296-21.735 11.684-32.85 12.079-10.822.384-30.14-.802-30.333-11.629v-.316s9.028 54.535 9.097 82.053c.072 28.832-9.101 86.018-9.101 86.018.193 10.826 19.342 13.81 30.489 13.738 11.979-.077 32.857-4.004 32.571-15.186 0 0-7.143-56.072-7.052-84.84z" fill="#fff"/>
  </g>
  <path transform="matrix(.15172 .13203 -.1485 .17065 151.84 340.47)" d="m-1061-753.21s-6.636 61.543-6.001 79.738c0.634 18.195 10.398 87.107 10.398 87.107m-13.865-166.84s-4.345 61.634-3.922 79.829 7.03 87.25 7.03 87.25m-12.576-167.08s-2.054 61.726-1.842 79.92c0.211 18.196 3.66 87.394 3.66 87.394m-11.286-167.31s0.237 61.815 0.237 80.01c0 18.196 0.292 87.536 0.292 87.536m-9.998-167.55s2.53 61.906 2.318 80.102c-0.212 18.195-3.077 87.678-3.077 87.678m-8.709-167.78s4.82 61.997 4.398 80.193c-0.424 18.195-6.446 87.82-6.446 87.82m-7.42-168.01s7.112 62.088 6.477 80.284c-0.635 18.195-9.814 87.963-9.814 87.963" clip-path="url(#b)" fill="none" filter="url(#a)" stroke-width="2.6723"/>
  <path transform="rotate(41.031 -519.33 394.7) scale(.20112)" d="M-1362.8-1278.887c.194 10.827 19.511 12.013 30.333 11.628 12.355-.438 33.82-3.338 33.602-15.699-.173-9.837-17.325-11.546-27.164-11.548-13.317 0-37.007 2.305-36.77 15.62z" fill="#fff" stroke-width="2.8341"/>
  <path transform="rotate(41.031 -346.37 361.81) scale(.20112)" d="M-1044.176-754.5c.192 10.826 19.51 12.012 30.332 11.628 12.355-.439 33.82-3.338 33.602-15.7-.173-9.837-17.325-11.546-27.164-11.547-13.317-.002-37.007 2.304-36.77 15.619z" clip-path="url(#d)" fill="none" filter="url(#c)" stroke-width="2.8341" style="mix-blend-mode:normal"/>
 </g>
</svg>
