<svg xmlns="http://www.w3.org/2000/svg" width="399.778" height="167.157" viewBox="0 0 105.774 44.227"><defs><filter id="a" width="1.052" height="1.065" x="-.022" y="-.028" filterUnits="objectBoundingBox"><feOffset dx="1" dy="1" in="SourceAlpha" result="shadowOffsetOuter1"/><feGaussianBlur in="shadowOffsetOuter1" result="shadowBlurOuter1" stdDeviation="2"/><feColorMatrix in="shadowBlurOuter1" values="0 0 0 0 0 0 0 0 0 0 0 0 0 0 0 0 0 0 0.36 0"/></filter></defs><g transform="translate(-147.902 -91.612)"><g transform="translate(683.657 209.816)"><path d="M-354.76-69.643a1.372 1.372 0 0 0-.165.008 1.99 1.99 0 0 0-.442.091 2.81 2.81 0 0 0-.378.146 3.806 3.806 0 0 0-.497.27 5.511 5.511 0 0 0-.617.441 7.497 7.497 0 0 0-.53.47 7.908 7.908 0 0 0-.65-.557 6.538 6.538 0 0 0-.432-.301 5.143 5.143 0 0 0-.523-.288 3.81 3.81 0 0 0-.399-.158 2.723 2.723 0 0 0-.376-.089 2.016 2.016 0 0 0-.264-.02 1.435 1.435 0 0 0-.397.058 1.078 1.078 0 0 0-.33.174 1.076 1.076 0 0 0-.208.215 1.383 1.383 0 0 0-.163.278 1.78 1.78 0 0 0-.093.247 2.276 2.276 0 0 0-.048.182l-.02.096a2.89 2.89 0 0 0-.031.2c-.004.035-.01.07-.012.105a4.02 4.02 0 0 0-.014.564 6.142 6.142 0 0 0 .122 1.024c.029.144.06.286.096.428a9.289 9.289 0 0 0-.478.15 7.268 7.268 0 0 0-.714.295 5.291 5.291 0 0 0-.411.223 4.12 4.12 0 0 0-.433.305 2.997 2.997 0 0 0-.213.195l-.062.066a2.183 2.183 0 0 0-.163.203 1.672 1.672 0 0 0-.154.28c-.01.024-.02.047-.028.07-.008.024-.014.049-.021.073a.932.932 0 0 0-.039.216.874.874 0 0 0 0 .147.804.804 0 0 0 .04.225 1.056 1.056 0 0 0 .053.148 1.465 1.465 0 0 0 .165.293 1.918 1.918 0 0 0 .24.284 2.658 2.658 0 0 0 .225.204 3.353 3.353 0 0 0 .357.26 4.595 4.595 0 0 0 .531.295 6.098 6.098 0 0 0 .485.21 7.21 7.21 0 0 0 .61.204 8.425 8.425 0 0 0-.146.724 5.957 5.957 0 0 0-.067.97 5.225 5.225 0 0 0 .032.428l.015.1c.005.033.012.065.018.096l.02.094.024.09.026.088a1.887 1.887 0 0 0 .215.453 1.363 1.363 0 0 0 .197.228 1.06 1.06 0 0 0 .613.269 1.515 1.515 0 0 0 .425-.006 2.248 2.248 0 0 0 .372-.083 2.974 2.974 0 0 0 .394-.148 3.842 3.842 0 0 0 .307-.153 4.952 4.952 0 0 0 .418-.257 6.085 6.085 0 0 0 .637-.495 7.27 7.27 0 0 0 .27-.248 8.482 8.482 0 0 0 .554.489 6.568 6.568 0 0 0 .608.429 4.722 4.722 0 0 0 .49.259 3.575 3.575 0 0 0 .373.139 2.49 2.49 0 0 0 .437.084 1.462 1.462 0 0 0 .538-.055 1.115 1.115 0 0 0 .263-.13 1.075 1.075 0 0 0 .276-.267 1.46 1.46 0 0 0 .17-.29 1.9 1.9 0 0 0 .07-.167l.03-.09c.01-.03.017-.06.026-.092.01-.031.017-.064.025-.096.008-.033.014-.066.021-.1l.019-.102.016-.105.012-.109.01-.11a4.104 4.104 0 0 0 .01-.472 5.59 5.59 0 0 0-.037-.509 6.655 6.655 0 0 0-.163-.885 7.674 7.674 0 0 0 1.015-.381 5.812 5.812 0 0 0 .55-.296 4.362 4.362 0 0 0 .37-.258 3.159 3.159 0 0 0 .301-.274 2.246 2.246 0 0 0 .228-.287 1.587 1.587 0 0 0 .15-.295 1.073 1.073 0 0 0 .066-.45l-.008-.073a1.996 1.996 0 0 0-.031-.145 1.923 1.923 0 0 0-.023-.072c-.009-.024-.017-.047-.028-.071a1.35 1.35 0 0 0-.112-.211 1.632 1.632 0 0 0-.154-.207 2.28 2.28 0 0 0-.343-.33 3.3 3.3 0 0 0-.444-.306 4.908 4.908 0 0 0-.42-.225 6.204 6.204 0 0 0-.73-.297 8.643 8.643 0 0 0-.416-.131 7.921 7.921 0 0 0 .158-.841 7.57 7.57 0 0 0 .045-.524 5.18 5.18 0 0 0-.022-.708c-.004-.037-.01-.072-.015-.108a3.255 3.255 0 0 0-.017-.105l-.02-.1c-.007-.034-.016-.067-.024-.099l-.026-.094a2.01 2.01 0 0 0-.218-.488 1.39 1.39 0 0 0-.15-.19 1.181 1.181 0 0 0-.175-.148 1.013 1.013 0 0 0-.41-.166 1.199 1.199 0 0 0-.233-.021z" style="fill:#1e1f28;fill-opacity:1;stroke-width:.396875;stroke-linecap:round;stroke-dasharray:.79375,2.38125;paint-order:fill markers stroke;stop-color:#000" transform="translate(-97.67 -35.165)"/><path fill="#00d8ff" d="M-353.236-65.92a8.648 8.648 0 0 0-.415-.131c.023-.096.045-.19.064-.284.315-1.527.109-2.757-.593-3.162-.674-.388-1.775.017-2.888.985a8.635 8.635 0 0 0-.321.295 7.86 7.86 0 0 0-.214-.198c-1.166-1.035-2.334-1.471-3.036-1.065-.673.39-.872 1.546-.589 2.993a8.622 8.622 0 0 0 .096.428 8.647 8.647 0 0 0-.478.15c-1.367.477-2.24 1.223-2.24 1.998 0 .8.937 1.602 2.36 2.09a7.338 7.338 0 0 0 .35.108 8.445 8.445 0 0 0-.101.461c-.27 1.422-.06 2.551.611 2.938.694.4 1.857-.01 2.99-1a7.34 7.34 0 0 0 .269-.25 8.475 8.475 0 0 0 .349.32c1.097.943 2.18 1.325 2.851.936.692-.4.918-1.613.625-3.09a7.313 7.313 0 0 0-.077-.344c.082-.024.162-.05.24-.075 1.48-.49 2.443-1.283 2.443-2.094 0-.778-.901-1.53-2.295-2.01zm-.32 3.58c-.071.023-.144.045-.217.067a12.934 12.934 0 0 0-.654-1.635c.257-.555.47-1.098.628-1.612.132.038.26.079.384.121 1.195.411 1.923 1.02 1.923 1.488 0 .499-.787 1.147-2.065 1.57zm-.53 1.05c.128.652.147 1.242.061 1.704-.076.414-.231.69-.422.801-.407.236-1.277-.07-2.216-.878a7.903 7.903 0 0 1-.324-.296c.364-.398.727-.86 1.082-1.374a12.885 12.885 0 0 0 1.748-.27 6.766 6.766 0 0 1 .07.313zm-5.363 2.464c-.397.14-.714.145-.905.035-.407-.235-.577-1.142-.346-2.358a7.913 7.913 0 0 1 .095-.429c.528.117 1.114.201 1.74.252.356.503.73.965 1.107 1.37a6.791 6.791 0 0 1-.245.226c-.501.438-1.003.748-1.446.904zm-1.862-3.518c-.63-.215-1.15-.495-1.506-.8-.32-.274-.481-.546-.481-.767 0-.47.7-1.07 1.87-1.477.141-.05.29-.096.444-.14.161.525.373 1.075.629 1.63a13.437 13.437 0 0 0-.637 1.654 6.794 6.794 0 0 1-.319-.1zm.624-4.249c-.242-1.24-.081-2.175.324-2.41.432-.25 1.387.107 2.394 1a7.278 7.278 0 0 1 .194.18c-.376.402-.746.86-1.1 1.36-.607.056-1.189.147-1.723.268a8.086 8.086 0 0 1-.089-.398zm5.569 1.375a17.539 17.539 0 0 0-.393-.645c.412.052.807.12 1.178.205-.112.357-.25.73-.414 1.112a19.22 19.22 0 0 0-.371-.672zm-2.27-2.212c.253.276.508.584.759.917a16.24 16.24 0 0 0-1.526 0c.25-.33.508-.638.766-.917zm-2.286 2.216a16.297 16.297 0 0 0-.365.668c-.16-.381-.298-.756-.41-1.118.368-.082.761-.15 1.17-.2a16.214 16.214 0 0 0-.395.65zm.407 3.296a11.758 11.758 0 0 1-1.19-.192c.114-.368.255-.75.419-1.14a16.197 16.197 0 0 0 .366.669c.13.226.266.447.405.663zm1.893 1.564a12.368 12.368 0 0 1-.776-.93 19.67 19.67 0 0 0 1.534-.002c-.251.342-.505.654-.758.932zm2.633-2.915c.172.393.318.774.433 1.135-.374.086-.778.155-1.204.206a19.285 19.285 0 0 0 .396-.657 17.519 17.519 0 0 0 .375-.684zm-.853.408a18.081 18.081 0 0 1-.619 1 16.611 16.611 0 0 1-1.182.041c-.402 0-.793-.012-1.169-.037a15.643 15.643 0 0 1-.63-1 15.502 15.502 0 0 1-.552-1.04 15.647 15.647 0 0 1 .55-1.042 15.497 15.497 0 0 1 .625-.996 15.556 15.556 0 0 1 2.353 0 16.609 16.609 0 0 1 .623.994 18.078 18.078 0 0 1 .556 1.035 16.615 16.615 0 0 1-.555 1.045zm1.138-6.158c.432.25.6 1.254.329 2.573-.017.084-.037.17-.058.257a13.214 13.214 0 0 0-1.726-.273 12.951 12.951 0 0 0-1.091-1.362 8.108 8.108 0 0 1 .296-.272c.954-.83 1.844-1.157 2.25-.923zm-2.94 3.955a1.153 1.153 0 1 1 0 2.306 1.153 1.153 0 0 1 0-2.306z" style="fill:#fff;stroke-width:.050428" transform="translate(-97.67 -35.165)"/><path fill="#18253f" d="M-380.21-20h8.438l2.473 2.582-6.996 7.836-6.506-7.836z" style="fill:#fff;stroke-width:.0619166" transform="translate(-123.818 -71.325) scale(.88084)"/><path fill="#274d82" d="M-374.6-11.433h-3.306l-1.494-1.829h4.233v-.26h2.42z" style="fill:#ccc;stroke-width:.0619166" transform="translate(-123.818 -71.325) scale(.88084)"/><path fill="#274d82" d="m-370.01-18.154-9.125 5.268-1.19-1.489 7.065-4.079-.13-.225 1.882-1.086zm-4.888-1.843-6.852 3.956-1.066-1.33 4.588-2.649z" style="fill:#ccc;stroke-width:.0619166" transform="translate(-123.818 -71.325) scale(.88084)"/><use width="100%" height="100%" filter="url(#logosZod0)" href="#logosZod1" style="filter:url(#a)" transform="translate(-466.298 -99.065) scale(.03162)"/><path fill="#99425b" d="M-349.51 75.862c0-.78-.615-1.411-1.375-1.411-.05 0-.098.002-.145.007l1.89-5.718h-8.033l1.888 5.713a1.379 1.414 0 0 0-.084-.004c-.76 0-1.376.631-1.376 1.411 0 .63.402 1.164.958 1.345a6.144 6.144 0 0 1-1.082 1.397c-.57.552-1.223.97-1.929 1.228-.84-.443-1.237-1.428-.88-2.29.041-.099.083-.197.122-.296a1.405 1.405 0 0 0 1.063-1.374c0-.78-.617-1.411-1.377-1.411s-1.376.632-1.376 1.411c0 .478.232.9.586 1.156-.34.795-.841 1.628-.997 2.592-.187 1.157 0 2.384.974 3.077 2.272 1.615 4.737-1 7.336-1.658.942-.238 1.976-.2 2.806-.693a2.41 2.41 0 0 0 1.15-1.672 2.561 2.561 0 0 0-.438-1.907 1.37 1.405 0 0 0 .32-.905" style="fill:#1e1f28;fill-opacity:1;stroke:none;stroke-width:.0530564" transform="translate(-150.736 -161.26) scale(.81818)"/><path fill="#fff" d="M-349.58 78.546a1.986 1.986 0 0 1-.972 1.376c-.483.28-1.062.363-1.675.451-.328.048-.668.097-1 .178-.877.217-1.726.639-2.548 1.047-1.644.817-3.064 1.522-4.403.594-.981-.68-.936-1.937-.821-2.627.106-.638.392-1.226.669-1.795a41.074 41.074 0 0 0 .14-.29 1.673 1.673 0 0 0 .435.109c-.282.93.162 1.941 1.092 2.42l.127.065.135-.048a5.732 5.732 0 0 0 2.014-1.25 6.28 6.28 0 0 0 .997-1.205 1.691 1.691 0 0 0 .252.019c.854 0 1.561-.638 1.67-1.463.35-.012.721-.012 1.073 0 .109.825.816 1.463 1.67 1.463.357 0 .688-.112.96-.302.19.388.26.824.185 1.258zm-9.987-3.655c.565 0 1.024.459 1.024 1.023a1.017 1.017 0 0 1-.162.551 1.024 1.024 0 0 1-1.22.409 1.03 1.03 0 0 1-.53-.453 1.017 1.017 0 0 1-.135-.506c0-.565.459-1.024 1.023-1.024zm3.406 1.014a1.025 1.025 0 0 1 1.831-.629 1.025 1.025 0 0 1 .12.195 1.017 1.017 0 0 1 .096.433 1.026 1.026 0 0 1-1.024 1.024 1.017 1.017 0 0 1-.554-.165 1.024 1.024 0 0 1-.47-.86zm4.272-1.218a1.687 1.687 0 0 0-.463.78 15.715 15.715 0 0 0-1.158 0 1.69 1.69 0 0 0-.508-.82l1.06-2.142 1.07 2.182zm-4.563-5.286h6.984l-1.65 4.865a1.675 1.675 0 0 0-.209.065l-1.629-3.324-1.634 3.304a1.676 1.676 0 0 0-.218-.059zm6.75 6.504c0 .102-.015.201-.043.295a1.028 1.028 0 0 1-.394.544 1.018 1.018 0 0 1-.586.184c-.473 0-.871-.322-.989-.758a1.021 1.021 0 0 1-.035-.265c0-.14.029-.274.08-.395a1.023 1.023 0 0 1 .096-.178 1.023 1.023 0 0 1 1.872.573zm.662 0c0-.823-.593-1.51-1.373-1.656l1.867-5.51h-8.828l1.87 5.52a1.685 1.685 0 0 0-.522 3.076c-.23.343-.503.665-.815.96a5.11 5.11 0 0 1-1.642 1.055c-.6-.376-.853-1.086-.59-1.705l.021-.048.039-.091a1.688 1.688 0 0 0 1.132-1.592c0-.929-.756-1.685-1.686-1.685-.929 0-1.685.756-1.685 1.685 0 .47.193.894.503 1.2a28.499 28.499 0 0 1-.176.367c-.284.582-.605 1.243-.727 1.976-.242 1.457.148 2.621 1.097 3.279.576.399 1.16.556 1.75.556 1.107 0 2.228-.557 3.324-1.102.79-.392 1.606-.797 2.413-.996.3-.074.609-.119.936-.166.648-.093 1.318-.19 1.912-.534a2.646 2.646 0 0 0 1.292-1.834 2.731 2.731 0 0 0-.358-1.878 1.675 1.675 0 0 0 .246-.877z" style="fill:#fff;stroke:none;stroke-width:.0515603" transform="translate(-150.736 -161.26) scale(.81818)"/><path d="M322.777 651.524h12.4l-2.197 10.969-6.62 2.197-5.735-2.197z" style="fill:#1e1f28;fill-opacity:1;stroke:none;stroke-width:.264583px;stroke-linecap:butt;stroke-linejoin:miter;stroke-opacity:1" transform="translate(-738.353 -637.515) scale(.81818)"/><path fill="#444" d="m326.36 664.69 6.62-2.197 2.197-10.97h-12.4l-.472 2.448h9.937l-.309 1.563h-9.952l-.487 2.447h9.938l-.546 2.802-4.01 1.312-3.465-1.312.236-1.224H321.2l-.575 2.934 5.735 2.197" style="fill:#fff;stroke-width:.0568441" transform="translate(-738.353 -637.515) scale(.81818)"/><g transform="matrix(.75 0 0 .75 -68.17 -9.292)"><circle cx="-449.692" cy="308.139" r="7.938" style="fill:#1e1f28;fill-opacity:1;stroke:none;stroke-width:.0634999;stroke-linecap:square;stroke-linejoin:round;stroke-miterlimit:4;stroke-dasharray:.126999,.381;stroke-dashoffset:0;stroke-opacity:1;paint-order:fill markers stroke;stop-color:#000" transform="rotate(45)"/><path fill="url(#logosTailwindcssIcon0)" d="M-535.867-104.46c-1.94 0-3.153.971-3.638 2.911.727-.97 1.576-1.334 2.546-1.091.554.138.95.54 1.387.984.714.725 1.54 1.563 3.343 1.563 1.94 0 3.153-.97 3.638-2.91-.728.97-1.577 1.333-2.547 1.09-.553-.138-.95-.54-1.387-.984-.713-.724-1.539-1.562-3.342-1.562zm-3.638 4.367c-1.94 0-3.153.97-3.638 2.91.727-.97 1.576-1.334 2.546-1.091.554.138.95.54 1.387.984.714.724 1.54 1.562 3.343 1.562 1.94 0 3.153-.97 3.638-2.91-.728.97-1.577 1.334-2.547 1.091-.553-.138-.95-.54-1.387-.984-.713-.724-1.539-1.562-3.342-1.562z" style="fill:#fff;stroke-width:.0568441"/></g><g transform="matrix(.75 0 0 .75 -223.746 -229.338)"><circle cx="-290.071" cy="193.301" r="7.938" style="display:inline;fill:#1e1f28;fill-opacity:1;stroke:none;stroke-width:.348736;stroke-miterlimit:4;stroke-dasharray:none;stroke-dashoffset:0;paint-order:fill markers stroke;stop-color:#000"/><g style="fill:#fff"><path fill="url(#logosCypressIcon0)" d="m141.651 223.943-4.335 10.526c-.861 2.084-2.83 3.495-5.046 3.59-1.464.056-2.94.097-4.431.097-51.024-.027-96.169-36.113-107.355-85.836l-17.369 3.933c6.277 27.89 22.032 53.204 44.365 71.295 22.592 18.296 51.052 28.397 80.167 28.452h.26c1.71 0 3.406-.041 5.101-.11 9.136-.383 17.3-6.126 20.788-14.637l5.661-13.76z" style="fill:#fff" transform="translate(-298.008 185.364) scale(.06201)"/><path fill="url(#logosCypressIcon1)" d="M4.54 161.914A128.496 128.496 0 0 1 0 128.007C0 75.516 32.863 27.52 81.782 8.593l6.414 16.652c-42.108 16.295-70.39 57.59-70.39 102.762a110.66 110.66 0 0 0 3.898 29.178z" style="fill:#fff" transform="translate(-298.008 185.364) scale(.06201)"/><path fill="url(#logosCypressIcon2)" d="M225.693 77.298c-19.037-36.662-56.509-59.44-97.769-59.44-14.62 0-28.828 2.823-42.204 8.374L78.897 9.744C94.446 3.29 110.939 0 127.924 0c47.934 0 91.45 26.451 113.564 69.047l-15.795 8.25z" style="fill:#fff" transform="translate(-298.008 185.364) scale(.06201)"/><path fill="#09293f" d="M89.727 101.597c10.326 0 18.737 5.523 23.058 15.158l.342.754 17.34-5.907-.369-.891c-6.715-16.405-22.182-26.602-40.37-26.602-12.787 0-23.181 4.112-31.77 12.554-8.533 8.388-12.855 18.94-12.855 31.371 0 12.321 4.322 22.82 12.855 31.207 8.589 8.443 18.983 12.554 31.77 12.554 18.188 0 33.655-10.197 40.37-26.588l.37-.89-17.368-5.922-.329.782c-3.87 9.47-12.486 15.13-23.044 15.13-7.193 0-13.265-2.521-18.08-7.483-4.867-5.03-7.329-11.348-7.329-18.776 0-7.483 2.407-13.678 7.33-18.94 4.8-4.99 10.886-7.511 18.08-7.511z" style="fill:#fff" transform="translate(-298.008 185.364) scale(.06201)"/><path fill="#09293f" d="m198.341 85.726-24.712 62.729-24.877-62.729h-20.35l34.888 85.617-24.822 60.385 17.792 3.55 61.309-149.552z" style="fill:#fff" transform="translate(-298.008 185.364) scale(.06201)"/><path fill="url(#logosCypressIcon3)" d="M241.488 69.047C250.491 86.585 256 107.185 256 128.27c0 49.2-27.671 91.916-68.253 113.343l-8.768-15.548c35.19-18.352 59.227-55.258 59.227-97.795 0-18.46-4.513-35.691-12.513-50.973l15.795-8.251z" style="fill:#fff" transform="translate(-298.008 185.364) scale(.06201)"/></g></g><g transform="translate(-235.355 -191.581) scale(.81818)"><rect width="14.552" height="14.552" x="-312.732" y="105.8" rx="1.617" ry="1.617" style="fill:#fff;fill-opacity:1;stroke:none;stroke-width:.799034;stroke-linecap:square;stroke-linejoin:round;stroke-miterlimit:4;stroke-dasharray:1.99757,5.99273;stroke-dashoffset:0;stroke-opacity:1;paint-order:fill markers stroke;stop-color:#000"/><path d="m-308.906 117.96 1.113-.674c.215.381.41.704.88.704.449 0 .732-.176.732-.86v-4.65h1.368v4.67c0 1.416-.83 2.06-2.042 2.06-1.094 0-1.729-.566-2.051-1.25m4.836-.146 1.113-.645c.293.479.674.83 1.348.83.567 0 .928-.283.928-.674 0-.468-.371-.635-.996-.908l-.342-.147c-.987-.42-1.641-.947-1.641-2.06 0-1.026.781-1.808 2.002-1.808.87 0 1.495.303 1.944 1.094l-1.065.684c-.234-.42-.488-.586-.879-.586-.4 0-.654.254-.654.586 0 .41.254.577.84.83l.342.147c1.162.498 1.817 1.006 1.817 2.149 0 1.23-.967 1.905-2.267 1.905-1.27 0-2.09-.606-2.49-1.397" style="fill:#1e1f28;fill-opacity:1;stroke-width:.0568441"/></g><g transform="translate(-207.443 -135.325) scale(.81818)"><rect width="14.552" height="14.552" x="-346.847" y="55.012" rx="1.617" ry="1.617" style="fill:#fff;fill-opacity:1;stroke:none;stroke-width:.799034;stroke-linecap:square;stroke-linejoin:round;stroke-miterlimit:4;stroke-dasharray:1.99757,5.99273;stroke-dashoffset:0;stroke-opacity:1;paint-order:fill markers stroke;stop-color:#000"/><path fill="#fff" d="M-337.839 66.528v1.474c.232.123.505.215.821.277.316.061.649.092.999.092.34 0 .664-.034.971-.102.307-.067.576-.179.808-.334a1.68 1.68 0 0 0 .549-.608c.135-.25.202-.56.202-.928 0-.267-.038-.502-.115-.703a1.583 1.641 0 0 0-.334-.537 2.457 2.457 0 0 0-.523-.421 5.522 5.522 0 0 0-.687-.353 8.517 8.517 0 0 1-.502-.232 2.531 2.531 0 0 1-.378-.23.987.987 0 0 1-.24-.25.537.537 0 0 1-.085-.297.51.51 0 0 1 .076-.274.664.664 0 0 1 .213-.21c.092-.058.205-.103.338-.135.133-.032.282-.049.445-.049a2.875 2.875 0 0 1 .774.113 2.763 2.865 0 0 1 .389.145 2.147 2.226 0 0 1 .35.203v-1.377a3.377 3.377 0 0 0-.71-.192 5.577 5.577 0 0 0-.883-.062 3.97 3.97 0 0 0-.96.113 2.398 2.398 0 0 0-.8.352 1.74 1.74 0 0 0-.544.61c-.134.248-.2.544-.2.888 0 .439.122.814.367 1.124.244.31.616.573 1.114.788a15.007 15.558 0 0 1 .547.244c.169.08.315.163.438.249s.22.18.291.28a.587.587 0 0 1 .107.346.51.529 0 0 1-.067.265.604.604 0 0 1-.202.212c-.09.06-.203.107-.338.14-.135.035-.293.051-.474.051-.308 0-.614-.056-.916-.168a2.713 2.713 0 0 1-.84-.504zm-2.37-3.67h1.829v-1.213h-5.098v1.214h1.82v5.405h1.45z" style="fill:#000;stroke-width:.0524254"/></g></g><rect width="66.201" height="35.063" x="187.271" y="100.571" rx="3.969" ry="3.969" style="fill:none;stroke:#fff;stroke-width:.41007;stroke-linecap:round;stroke-miterlimit:4;stroke-dasharray:.820139,2.46042;stroke-dashoffset:0;paint-order:fill markers stroke;stop-color:#000"/><path d="M158.001 91.905c0 14.295 11.338 27.841 29.268 27.841" style="fill:none;stroke:#fff;stroke-width:.396875;stroke-linecap:round;stroke-linejoin:miter;stroke-miterlimit:4;stroke-dasharray:.79375,2.38125;stroke-dashoffset:0;stroke-opacity:1"/><path d="M148.1 91.81h22.108" style="fill:none;stroke:#fff;stroke-width:.396875;stroke-linecap:round;stroke-linejoin:miter;stroke-miterlimit:4;stroke-dasharray:.79375,2.38125;stroke-dashoffset:0;stroke-opacity:1;paint-order:stroke fill markers"/></g></svg>