<svg xmlns="http://www.w3.org/2000/svg" width="412.979" height="171.82" viewBox="0 0 109.267 45.461"><g transform="translate(-90.86 -36.757)"><path d="M214.861 365.93v19.484l-12.84-9.765z" style="fill:#1e1f28;fill-opacity:1;stroke-width:1.5;stroke-linecap:round;stroke-dasharray:3,9;paint-order:fill markers stroke;stop-color:#000" transform="matrix(.2784 0 0 .2784 116.717 -47.825)"/><g style="fill:#fff"><path fill="#0065a9" d="M246.135 26.873 193.593 1.575a15.885 15.885 0 0 0-18.123 3.08L3.466 161.482c-4.626 4.219-4.62 11.502.012 15.714l14.05 12.772a10.625 10.625 0 0 0 13.569.604L238.229 33.436c6.949-5.271 16.93-.315 16.93 8.407v-.61a15.938 15.938 0 0 0-9.024-14.36z" mask="url(#logosVisualStudioCode2)" style="fill:#fff" transform="translate(167.612 50.84) scale(.04666)"/><path fill="#007acc" d="m246.135 226.816-52.542 25.298a15.887 15.887 0 0 1-18.123-3.08L3.466 92.207c-4.626-4.218-4.62-11.502.012-15.713l14.05-12.773a10.625 10.625 0 0 1 13.569-.603l207.132 157.135c6.949 5.271 16.93.315 16.93-8.408v.611a15.939 15.939 0 0 1-9.024 14.36z" mask="url(#logosVisualStudioCode2)" style="fill:#fff" transform="translate(167.612 50.84) scale(.04666)"/><path fill="#1f9cf0" d="M193.428 252.134a15.892 15.892 0 0 1-18.125-3.083c5.881 5.88 15.938 1.715 15.938-6.603V11.273c0-8.318-10.057-12.483-15.938-6.602a15.892 15.892 0 0 1 18.125-3.084l52.533 25.263a15.937 15.937 0 0 1 9.03 14.363V212.51c0 6.125-3.51 11.709-9.03 14.363l-52.533 25.262z" mask="url(#logosVisualStudioCode2)" style="fill:#fff" transform="translate(167.612 50.84) scale(.04666)"/></g><path fill="#dd4814" d="M-395.827-2.937a7.937 7.937 0 1 1-15.875 0 7.937 7.937 0 0 1 15.875 0z" style="fill:#fff;stroke-width:.0621659" transform="matrix(.75 0 0 .75 443.803 58.962)"/><path fill="#fff" d="M-409.162-3.997a1.06 1.06 0 1 0 0 2.12 1.06 1.06 0 0 0 0-2.12zm7.567 4.817a1.06 1.06 0 1 0 1.058 1.835A1.06 1.06 0 0 0-401.595.82zm-5.265-3.757c0-1.047.52-1.972 1.316-2.532l-.775-1.298a4.614 4.614 0 0 0-1.903 2.676 1.486 1.486 0 0 1 0 2.308A4.61 4.61 0 0 0-406.32.894l.775-1.298a3.09 3.09 0 0 1-1.316-2.533zm3.095-3.095a3.096 3.096 0 0 1 3.083 2.82l1.51-.021a4.59 4.59 0 0 0-1.367-2.986 1.486 1.486 0 0 1-1.996-1.154 4.616 4.616 0 0 0-1.23-.167 4.587 4.587 0 0 0-2.04.476l.736 1.32a3.083 3.083 0 0 1 1.304-.288zm0 6.19a3.083 3.084 0 0 1-1.303-.287l-.737 1.32a4.582 4.582 0 0 0 2.04.476 4.603 4.603 0 0 0 1.23-.167 1.485 1.485 0 0 1 1.996-1.154 4.59 4.59 0 0 0 1.368-2.986l-1.51-.022a3.095 3.095 0 0 1-3.084 2.82zm2.17-6.852a1.059 1.059 0 1 0 1.06-1.833 1.059 1.059 0 0 0-1.06 1.833z" style="fill:#1e1f28;fill-opacity:1;stroke:none;stroke-width:.0621659" transform="matrix(.75 0 0 .75 443.803 58.962)"/><g transform="matrix(.75 0 0 .75 417.021 78.69)"><circle cx="-346.332" cy="-29.24" r="7.938" style="fill:#1e1f28;fill-opacity:1;stroke:none;stroke-width:.811079;stroke-miterlimit:4;stroke-dasharray:.811079,1.62216;stroke-dashoffset:0;paint-order:fill markers stroke;stop-color:#000"/><path fill="#161614" d="M-346.332-37.178c-4.383 0-7.938 3.644-7.938 8.138 0 3.596 2.275 6.647 5.429 7.723.397.075.542-.177.542-.391 0-.195-.007-.836-.01-1.516-2.209.493-2.675-.96-2.675-.96-.36-.94-.881-1.19-.881-1.19-.72-.506.054-.495.054-.495.797.057 1.217.838 1.217.838.708 1.244 1.857.885 2.31.677.071-.526.277-.885.504-1.089-1.763-.205-3.616-.903-3.616-4.022 0-.888.31-1.614.817-2.184-.082-.205-.354-1.033.077-2.154 0 0 .667-.219 2.184.834a7.437 7.437 0 0 1 1.987-.273 7.504 7.504 0 0 1 1.988.273c1.515-1.052 2.18-.834 2.18-.834.433 1.121.161 1.949.079 2.154.509.57.817 1.296.817 2.184 0 3.126-1.857 3.815-3.625 4.016.285.253.538.748.538 1.507 0 1.09-.01 1.965-.01 2.234 0 .216.143.47.546.39 3.152-1.077 5.423-4.127 5.423-7.721 0-4.495-3.554-8.139-7.937-8.139zm-4.964 11.593c-.019.04-.08.053-.137.025-.057-.026-.09-.081-.07-.122.016-.042.079-.053.136-.025.058.026.09.082.07.122zm.39.358c-.038.036-.112.019-.162-.038-.052-.057-.062-.132-.023-.17.039-.035.11-.018.162.038.052.058.062.133.023.17zm.268.457c-.049.034-.128 0-.178-.07-.048-.073-.048-.16.001-.194.05-.035.128-.005.178.068.048.074.048.16-.001.196zm.453.529c-.044.05-.136.036-.204-.031-.07-.066-.089-.159-.045-.208.044-.05.137-.036.205.031.069.065.09.16.044.208zm.585.179c-.019.064-.108.092-.198.065-.09-.027-.149-.102-.13-.166.018-.065.108-.095.198-.066.09.028.149.102.13.167zm.667.076c0 .067-.074.122-.169.123-.095.002-.171-.052-.172-.118 0-.068.074-.123.17-.124.094-.001.17.052.17.119zm.654-.026c.01.065-.054.133-.148.15-.092.018-.177-.023-.189-.087-.01-.068.055-.135.147-.152.094-.017.178.023.19.09z" style="fill:#fff;stroke-width:.0627928"/></g><path d="m1380.07 2154.788-22.447 12.959-22.446-12.96v-25.918l22.446-12.96 22.447 12.96z" style="fill:#1e1f28;fill-opacity:1;stroke:none;stroke-width:3;stroke-miterlimit:4;stroke-dasharray:3,6;stroke-dashoffset:0;paint-order:fill markers stroke;stop-color:#000" transform="matrix(.23537 0 0 .22968 -130.351 -435.182)"/><path fill="#539e43" d="M372.627 581.527c-.2 0-.387-.054-.561-.147l-1.778-1.056c-.268-.147-.134-.2-.054-.228.361-.12.428-.147.802-.36.04-.027.094-.014.134.013l1.364.816c.053.026.12.026.16 0l5.334-3.089c.054-.026.08-.08.08-.147v-6.163c0-.066-.026-.12-.08-.147l-5.334-3.075c-.053-.026-.12-.026-.16 0l-5.335 3.075c-.053.027-.08.094-.08.147v6.163c0 .054.027.12.08.148l1.458.842c.788.4 1.283-.067 1.283-.535v-6.083c0-.08.067-.16.16-.16h.682c.08 0 .16.066.16.16v6.083c0 1.056-.574 1.671-1.577 1.671-.307 0-.548 0-1.23-.334l-1.403-.802a1.128 1.128 0 0 1-.562-.976v-6.163c0-.401.214-.776.562-.976l5.334-3.088a1.193 1.193 0 0 1 1.123 0l5.334 3.088c.348.2.561.575.561.976v6.163c0 .4-.213.775-.561.976l-5.334 3.088c-.174.08-.375.12-.562.12zm1.645-4.238c-2.34 0-2.821-1.07-2.821-1.979 0-.08.067-.16.16-.16h.696c.08 0 .147.053.147.133.107.709.414 1.057 1.831 1.057 1.123 0 1.604-.254 1.604-.856 0-.348-.133-.602-1.885-.775-1.457-.148-2.366-.468-2.366-1.631 0-1.083.91-1.725 2.433-1.725 1.711 0 2.554.588 2.66 1.872a.22.22 0 0 1-.04.12c-.026.027-.066.053-.106.053h-.696a.157.157 0 0 1-.147-.12c-.16-.735-.574-.976-1.67-.976-1.23 0-1.378.428-1.378.749 0 .387.174.508 1.832.722 1.644.214 2.42.521 2.42 1.67-.014 1.177-.976 1.846-2.674 1.846z" style="fill:#fff;stroke-width:.0504465" transform="translate(-115.689 -413.082) scale(.81818)"/><g transform="matrix(.75 0 0 .75 -129.809 -386.071)"><circle cx="382.477" cy="610.917" r="7.938" style="fill:#1e1f28;fill-opacity:1;stroke:none;stroke-width:.432955;stroke-miterlimit:4;stroke-dasharray:.432955,.865912;stroke-dashoffset:0;paint-order:fill markers stroke;stop-color:#000"/><g style="fill:#fff"><path d="M182.022 9.147c2.982 3.702 4.502 8.697 7.543 18.687L256 246.074a276.467 276.467 0 0 0-79.426-26.891L133.318 73.008a5.63 5.63 0 0 0-10.802.017L79.784 219.11A276.453 276.453 0 0 0 0 246.04L66.76 27.783c3.051-9.972 4.577-14.959 7.559-18.654a24.541 24.541 0 0 1 9.946-7.358C88.67 0 93.885 0 104.314 0h47.683c10.443 0 15.664 0 20.074 1.774a24.545 24.545 0 0 1 9.95 7.373z" style="fill:#fff" transform="translate(377.374 603.64) scale(.03986)"/><path fill="#ff5d01" d="M189.972 256.46c-10.952 9.364-32.812 15.751-57.992 15.751-30.904 0-56.807-9.621-63.68-22.56-2.458 7.415-3.009 15.903-3.009 21.324 0 0-1.619 26.623 16.898 45.14 0-9.615 7.795-17.41 17.41-17.41 16.48 0 16.46 14.378 16.446 26.043l-.001 1.041c0 17.705 10.82 32.883 26.21 39.28a35.685 35.685 0 0 1-3.588-15.647c0-16.886 9.913-23.173 21.435-30.48 9.167-5.814 19.353-12.274 26.372-25.232a47.588 47.588 0 0 0 5.742-22.735c0-5.06-.786-9.938-2.243-14.516z" style="fill:#fff" transform="translate(377.374 603.64) scale(.03986)"/></g></g><g transform="translate(-94.283 -293.793) scale(.63498)"><circle cx="446.423" cy="576.25" r="9.375" style="display:inline;fill:#1e1f28;fill-opacity:1;stroke:none;stroke-width:.511378;stroke-miterlimit:4;stroke-dasharray:.511378,1.02276;stroke-dashoffset:0;paint-order:fill markers stroke;stop-color:#000"/><path fill="#000020" d="M446.043 573.267c.12-.175.25-.197.355-.197a.46.46 0 0 1 .4.197c.939 1.289 2.487 3.855 3.63 5.749.744 1.234 1.316 2.183 1.434 2.303.44.453 1.045.171 1.396-.343.345-.506.441-.861.441-1.24 0-.258-5.008-9.572-5.512-10.348-.485-.745-.643-.934-1.473-.934h-.622c-.827 0-.947.189-1.432.934-.504.776-5.513 10.09-5.513 10.348 0 .379.096.734.442 1.24.351.514.956.796 1.396.343.118-.12.69-1.069 1.434-2.303 1.143-1.894 2.686-4.46 3.624-5.749z" style="fill:#fff;stroke-width:.0568438"/></g><g transform="matrix(.75 0 0 .75 -164.315 -325.86)"><circle cx="449.911" cy="530.636" r="7.938" style="fill:#1e1f28;fill-opacity:1;stroke:none;stroke-width:.216137;stroke-miterlimit:4;stroke-dasharray:none;stroke-dashoffset:0;paint-order:fill markers stroke;stop-color:#000"/><g style="fill:#fff;stroke:none"><path fill="#012f55" d="m39.37 0 55.965 94.22.049-42.649 32.473 50.76-33.412 52.51-55.387-89.885-.128 94.102H0V0Zm94.895 44.468 16.203 25.438.205.353a57.217 57.217 0 0 1 47.854-25.79c31.247 0 56.655 26.446 57.274 57.582l.01 1.052h-.029v.396a7.535 7.535 0 0 1-15.058.224l-.009-.277-.004-.358c-.125-4.924-2.833-6.922-6.39-8.395l-.526-.213-.537-.206-.547-.202-2.838-1.007-.58-.213-.58-.22-.581-.229-.29-.119-.58-.246-.575-.26c-2.295-1.067-4.49-2.496-6.235-4.77l-.204-.273-.204-.285-.304-.447-.408-.63-1.29-2.064-.47-.728-.37-.553-.258-.371-.403-.558-.28-.372-.292-.372-.15-.185-.309-.368c-3.04-3.553-7.799-6.745-17.003-6.745a28.687 28.687 0 0 0-28.696 28.696 7.475 7.475 0 0 0 .751 3.126l.149.289 34.244 53.89h-37.767l-16.72-25.233-16.428 25.233H96.284l36.044-56.747-36.934-57.843Zm121.586 66.756a14.422 14.422 0 0 1-1.096 7.896c-1.322 3.058-3.186 3.61-4.428 3.582l-.206-.01-.193-.02-.179-.026-.237-.048-.196-.053-.253-.087-.092-.042-.111-.063-.167-.104-.135-.093-.148-.11-.157-.13a4.012 4.012 0 0 1-.08-.071l-.161-.156c-.698-.716-1.323-1.94-.213-3.645.82-1.268 1.957-1.98 3.147-2.618l1.201-.635c1.439-.776 2.827-1.683 3.704-3.567zM134.363 0v40.437l-.088.45H95.394l-.01-.45L95.433 0Z" style="fill:#fff;stroke:none" transform="matrix(.0498 0 0 .0498 443.722 526.675)"/><path fill="#96d8e9" d="M194.368 84.984a21.994 21.994 0 0 0-21.006 14.255 20.947 20.947 0 0 1 24.988-7.886c4.227 1.722 9.784 4.5 14.187 3.013a22.356 22.356 0 0 0-18.169-9.382z" style="fill:#fff;stroke:none" transform="matrix(.0498 0 0 .0498 443.722 526.675)"/><path fill="#48c4e5" d="M238.484 104.121c0-4.765-2.592-5.87-7.974-7.827-3.992-1.39-8.522-2.955-11.819-7.26-.645-.851-1.242-1.81-1.878-2.827a22.718 22.718 0 0 0-5.685-6.85c-3.14-2.308-7.26-3.433-12.601-3.433a26.475 26.475 0 0 0-24.46 16.388 24.822 24.822 0 0 1 42.687 4.138 7.974 7.974 0 0 0 8.913 3.562c5.254-1.125 4.892 3.845 12.827 5.528z" style="fill:#fff;stroke:none" transform="matrix(.0498 0 0 .0498 443.722 526.675)"/></g></g><path fill="url(#logosVitejs0)" d="m-136.103 185.826-6.732 12.038a.366.366 0 0 1-.637.003l-6.865-12.04a.366.366 0 0 1 .382-.54l6.739 1.204a.366.366 0 0 0 .13 0l6.598-1.203a.366.366 0 0 1 .385.539z" style="fill:#fff;stroke-width:.0559773" transform="matrix(.83085 0 0 .83085 259.974 -86.361)"/><path fill="url(#logosVitejs1)" d="m-140.006 183.706-4.982.976a.183.183 0 0 0-.147.17l-.306 5.175a.183.183 0 0 0 .223.189l1.387-.32c.13-.03.247.084.22.215l-.412 2.017c-.027.136.1.252.233.212l.857-.26c.132-.04.26.076.232.212l-.655 3.17c-.04.197.223.306.333.136l.073-.114 4.06-8.1a.183.183 0 0 0-.199-.262l-1.427.275a.183.183 0 0 1-.21-.23l.931-3.23a.183.183 0 0 0-.21-.23z" style="fill:#fff;stroke:#1e1f28;stroke-width:.529167;stroke-opacity:1" transform="matrix(.83085 0 0 .83085 259.974 -86.361)"/><rect width="69.688" height="35.041" x="130.239" y="46.977" rx="3.969" ry="3.969" style="fill:none;stroke:#fff;stroke-width:.399533;stroke-linecap:round;stroke-dasharray:.799066,2.3972;paint-order:fill markers stroke;stop-color:#000"/><path d="M100.96 36.956c0 14.294 11.337 27.84 29.267 27.84" style="fill:none;stroke:#fff;stroke-width:.396875;stroke-linecap:round;stroke-linejoin:miter;stroke-miterlimit:4;stroke-dasharray:.79375,2.38125;stroke-dashoffset:0;stroke-opacity:1"/><path d="M91.059 36.963h22.107" style="fill:none;stroke:#fff;stroke-width:.396875;stroke-linecap:round;stroke-linejoin:miter;stroke-miterlimit:4;stroke-dasharray:.79375,2.38125;stroke-dashoffset:0;stroke-opacity:1;paint-order:stroke fill markers"/></g></svg>