<?xml version="1.0" encoding="UTF-8"?>
<!-- Created with Inkscape (http://www.inkscape.org/) -->
<svg width="400" height="400" version="1.1" viewBox="0 0 105.83 105.83" xmlns="http://www.w3.org/2000/svg" xmlns:xlink="http://www.w3.org/1999/xlink">
 <defs>
  <filter id="filter75351-7" x="-.17924" y="-.46636" width="1.3587" height="1.9328" color-interpolation-filters="sRGB">
   <feGaussianBlur result="fbSourceGraphic" stdDeviation="9.1633181"/>
   <feColorMatrix in="fbSourceGraphic" result="fbSourceGraphicAlpha" values="0 0 0 -1 0 0 0 0 -1 0 0 0 0 -1 0 0 0 0 1 0"/>
   <feTurbulence baseFrequency="5.21605 5.36769" numOctaves="3" result="turbulence" seed="51" type="fractalNoise"/>
   <feDisplacementMap in="fbSourceGraphic" in2="turbulence" scale="45.7585" xChannelSelector="R" yChannelSelector="G"/>
  </filter>
  <linearGradient id="linearGradient17522" x1="-331.18" x2="-306.77" y1="-479.77" y2="-475.7" gradientTransform="translate(959.82 191.21)" gradientUnits="userSpaceOnUse" xlink:href="#linearGradient7723"/>
  <linearGradient id="linearGradient7723">
   <stop stop-color="#fff" offset="0"/>
   <stop stop-color="#fff" stop-opacity="0" offset="1"/>
  </linearGradient>
  <filter id="filter7337-8-2" x="-.12858" y="-.11571" width="1.2572" height="1.2315" color-interpolation-filters="sRGB">
   <feComposite in="SourceGraphic" in2="SourceGraphic" k1="6.44983" k2="1" operator="arithmetic" result="composite1"/>
   <feConvolveMatrix in="composite1" kernelMatrix="0 250 0 250 -1001 250 0 250 0 " order="3 3" result="convolve1"/>
   <feBlend in="convolve1" in2="composite1" mode="lighten" result="blend1"/>
   <feGaussianBlur in="blend1" result="blur1" stdDeviation="0.42861418"/>
   <feTurbulence baseFrequency="1 1" result="turbulence1" type="fractalNoise"/>
   <feColorMatrix result="colormatrix1" values="1 0 0 0 0 0 1 0 0 0 0 0 1 0 0 0 0 0 1 -0 "/>
   <feColorMatrix result="colormatrix2" type="saturate" values="1"/>
   <feBlend in="colormatrix2" in2="blur1" result="blend2"/>
   <feColorMatrix in="blend2" result="colormatrix3" type="saturate" values="1"/>
   <feComponentTransfer in="colormatrix3" result="component1">
    <feFuncR tableValues="0 1 1 0" type="discrete"/>
    <feFuncG tableValues="0 1 1 0" type="discrete"/>
    <feFuncB tableValues="0 1 1 0" type="discrete"/>
   </feComponentTransfer>
   <feColorMatrix result="colormatrix4" values="1 0 0 0 0 0 1 0 0 0 0 0 1 0 0 -0.2125 -0.7154 -0.0721 1 0 "/>
   <feColorMatrix in="colormatrix4" result="colormatrix5" values="1 0 0 0 0 0 1 0 0 0 0 0 1 0 0 0 0 0 15 0 "/>
   <feComposite in2="SourceGraphic" operator="in" result="composite2"/>
  </filter>
  <linearGradient id="linearGradient17524" x1="334.46" x2="392.86" y1="-308.68" y2="-307.73" gradientTransform="matrix(1.0531 0 0 1.0537 152.13 52.33)" gradientUnits="userSpaceOnUse" xlink:href="#linearGradient7723"/>
  <filter id="filter31718-3-5" x="-.053987" y="-.091715" width="1.1081" height="1.1835" color-interpolation-filters="sRGB">
   <feGaussianBlur stdDeviation="1.5655155"/>
  </filter>
  <radialGradient id="radialGradient75315-4" cx="466.93" cy="-325.11" r="16.7" gradientTransform="matrix(.89334 .47709 -.3418 .64001 111.94 -304.99)" gradientUnits="userSpaceOnUse" xlink:href="#linearGradient7723"/>
  <filter id="filter33811-5-9" x="-.032466" y="-.23635" width="1.1944" height="1.3161" color-interpolation-filters="sRGB">
   <feGaussianBlur stdDeviation="0.38052685"/>
  </filter>
  <linearGradient id="linearGradient17526" x1="463.68" x2="475.04" y1="-239.06" y2="-239.06" gradientTransform="translate(173.26 36.247)" gradientUnits="userSpaceOnUse" xlink:href="#linearGradient58172-8-6"/>
  <linearGradient id="linearGradient58172-8-6">
   <stop offset="0"/>
   <stop stop-opacity="0" offset="1"/>
  </linearGradient>
  <clipPath id="clipPath38805-6-0">
   <path d="m401.91-354.27v186c2.1418 1.213 4.9525-2.2516 8-0.84787v-185.15z" color="#000000" fill="#fff" style="-inkscape-stroke:none"/>
  </clipPath>
  <filter id="filter38448-8-2" x="-.00076504" y="-3.2507e-5" width="1.0015" height="1.0001" color-interpolation-filters="sRGB">
   <feComposite in="SourceGraphic" in2="SourceGraphic" k1="6.44983" k2="1" operator="arithmetic" result="composite1"/>
   <feConvolveMatrix in="composite1" kernelMatrix="0 250 0 250 -1001 250 0 250 0 " order="3 3" result="convolve1"/>
   <feBlend in="convolve1" in2="composite1" mode="lighten" result="blend1"/>
   <feGaussianBlur in="blend1" result="blur1" stdDeviation="0.0025501435"/>
   <feTurbulence baseFrequency="1 1" result="turbulence1" type="fractalNoise"/>
   <feColorMatrix result="colormatrix1" values="1 0 0 0 0 0 1 0 0 0 0 0 1 0 0 0 0 0 1 -0 "/>
   <feColorMatrix result="colormatrix2" type="saturate" values="1"/>
   <feBlend in="colormatrix2" in2="blur1" result="blend2"/>
   <feColorMatrix in="blend2" result="colormatrix3" type="saturate" values="1"/>
   <feComponentTransfer in="colormatrix3" result="component1">
    <feFuncR tableValues="0 1 1 0" type="discrete"/>
    <feFuncG tableValues="0 1 1 0" type="discrete"/>
    <feFuncB tableValues="0 1 1 0" type="discrete"/>
   </feComponentTransfer>
   <feColorMatrix result="colormatrix4" values="1 0 0 0 0 0 1 0 0 0 0 0 1 0 0 -0.2125 -0.7154 -0.0721 1 0 "/>
   <feColorMatrix in="colormatrix4" result="colormatrix5" values="1 0 0 0 0 0 1 0 0 0 0 0 1 0 0 0 0 0 15 0 "/>
   <feComposite in2="SourceGraphic" operator="in" result="composite2"/>
  </filter>
  <radialGradient id="radialGradient75319-2" cx="-437.76" cy="-350.56" r="4" gradientTransform="matrix(.23977 .00035603 -.0092717 6.244 80.95 2301.1)" gradientUnits="userSpaceOnUse" xlink:href="#linearGradient7723"/>
  <linearGradient id="linearGradient17528" x1="514.07" x2="756.67" y1="-275.6" y2="-276.73" gradientUnits="userSpaceOnUse" xlink:href="#linearGradient58172-8-6"/>
  <filter id="filter38845-2-8" x="-.037383" y="-.097934" width="1.0751" height="1.196" color-interpolation-filters="sRGB">
   <feComposite in="SourceGraphic" in2="SourceGraphic" k1="6.44983" k2="1" operator="arithmetic" result="composite1"/>
   <feConvolveMatrix in="composite1" kernelMatrix="0 250 0 250 -1001 250 0 250 0 " order="3 3" result="convolve1"/>
   <feBlend in="convolve1" in2="composite1" mode="lighten" result="blend1"/>
   <feGaussianBlur in="blend1" result="blur1" stdDeviation="1.4168829e-06"/>
   <feTurbulence baseFrequency="1 1" result="turbulence1" type="fractalNoise"/>
   <feColorMatrix result="colormatrix1" values="1 0 0 0 0 0 1 0 0 0 0 0 1 0 0 0 0 0 1 -0 "/>
   <feColorMatrix result="colormatrix2" type="saturate" values="1"/>
   <feBlend in="colormatrix2" in2="blur1" result="blend2"/>
   <feColorMatrix in="blend2" result="colormatrix3" type="saturate" values="1"/>
   <feComponentTransfer in="colormatrix3" result="component1">
    <feFuncR tableValues="0 1 1 0" type="discrete"/>
    <feFuncG tableValues="0 1 1 0" type="discrete"/>
    <feFuncB tableValues="0 1 1 0" type="discrete"/>
   </feComponentTransfer>
   <feColorMatrix result="colormatrix4" values="1 0 0 0 0 0 1 0 0 0 0 0 1 0 0 -0.2125 -0.7154 -0.0721 1 0 "/>
   <feColorMatrix in="colormatrix4" result="colormatrix5" values="1 0 0 0 0 0 1 0 0 0 0 0 1 0 0 0 0 0 15 0 "/>
   <feComposite in2="SourceGraphic" operator="in" result="composite2"/>
  </filter>
  <linearGradient id="linearGradient17530" x1="501.15" x2="601.57" y1="-269.21" y2="-269.21" gradientUnits="userSpaceOnUse" xlink:href="#linearGradient7723"/>
  <filter id="filter3748-3-8" x="-.065696" y="-.11173" width="1.1316" height="1.2235" color-interpolation-filters="sRGB">
   <feGaussianBlur stdDeviation="1.4455722"/>
  </filter>
  <radialGradient id="radialGradient75327-6" cx="-437.76" cy="-350.56" r="4" gradientTransform="matrix(.23977 .00035603 -.0092717 6.244 110.15 2296.1)" gradientUnits="userSpaceOnUse" xlink:href="#linearGradient7723"/>
 </defs>
 <g transform="translate(62.894 -44.75)">
  <path transform="matrix(.22938 0 0 .18887 56.631 307.09)" d="m-348.28-943.75c5.4808 29.343 76.037 23.676 93.08 22.257 12.748-1.0609 59.96-15.463 56.556-32.6-7.2651-36.578-54.369-21.449-84.532-17.052-29.459 3.8227-70.979-4.0569-65.104 27.395z" fill="none" filter="url(#filter75351-7)" opacity=".41969" stroke="#000" stroke-width="10.004" style="mix-blend-mode:normal"/>
  <g fill="none" stroke="#000" stroke-width=".37493">
   <g transform="matrix(.62884 0 0 .62884 58.01 501.88)">
    <path d="m-182.72-690.4c5.4808 29.343 76.037 23.676 93.08 22.257 12.748-1.0609 59.96-15.463 56.556-32.6-7.2651-36.578-54.369-21.449-84.532-17.052-29.459 3.8227-70.979-4.0569-65.104 27.395z"/>
    <path d="m-182.72-669.23c5.4808 29.343 76.037 23.676 93.08 22.257 12.748-1.0609 59.96-15.463 56.556-32.6-7.2651-36.578-54.369-21.449-84.532-17.052-29.459 3.8227-70.979-4.0569-65.104 27.395z"/>
    <path d="m-183.33-695.69v21.167"/>
    <path d="m-79.733-670.33v21.167"/>
    <path d="m-93.513-721.7v21.167"/>
    <path d="m-32.996-697.78v21.167"/>
    <path d="m-166.25-691.72c3.7248 19.745 61.624 15.25 73.207 14.295 8.6636-0.71391 45.474-11.632 43.16-23.164-4.9375-24.614-44.175-12.943-64.674-9.9846-20.021 2.5723-55.686-2.3109-51.693 18.853z"/>
    <path d="m-166.25-670.55c3.7248 19.745 61.624 15.25 73.207 14.295 8.6636-0.71391 45.474-11.632 43.16-23.164-4.9375-24.614-44.175-12.943-64.674-9.9846-20.021 2.5723-55.686-2.3109-51.693 18.853z"/>
    <path d="m-84.852-715.28v21.167"/>
    <path d="m-88.261-677.4v21.167"/>
    <path d="m-93.513-721.7 8.6607 6.4183"/>
    <path d="m-88.394-676.75 8.6607 6.4183"/>
   </g>
   <g transform="matrix(.62884 0 0 .62884 58.01 515.19)">
    <path d="m-182.72-690.4c5.4808 29.343 76.037 23.676 93.08 22.257 12.748-1.0609 59.96-15.463 56.556-32.6-7.2651-36.578-54.369-21.449-84.532-17.052-29.459 3.8227-70.979-4.0569-65.104 27.395z"/>
    <path d="m-182.72-669.23c5.4808 29.343 76.037 23.676 93.08 22.257 12.748-1.0609 59.96-15.463 56.556-32.6-7.2651-36.578-54.369-21.449-84.532-17.052-29.459 3.8227-70.979-4.0569-65.104 27.395z"/>
    <path d="m-183.33-695.69v21.167"/>
    <path d="m-79.733-670.33v21.167"/>
    <path d="m-93.513-721.7v21.167"/>
    <path d="m-32.996-697.78v21.167"/>
    <path d="m-166.25-691.72c3.7248 19.745 61.624 15.25 73.207 14.295 8.6636-0.71391 45.474-11.632 43.16-23.164-4.9375-24.614-44.175-12.943-64.674-9.9846-20.021 2.5723-55.686-2.3109-51.693 18.853z"/>
    <path d="m-166.25-670.55c3.7248 19.745 61.624 15.25 73.207 14.295 8.6636-0.71391 45.474-11.632 43.16-23.164-4.9375-24.614-44.175-12.943-64.674-9.9846-20.021 2.5723-55.686-2.3109-51.693 18.853z"/>
    <path d="m-84.852-715.28v21.167"/>
    <path d="m-88.261-677.4v21.167"/>
    <path d="m-93.513-721.7 8.6607 6.4183"/>
    <path d="m-88.394-676.75 8.6607 6.4183"/>
   </g>
   <g transform="matrix(.62884 0 0 .62884 58.01 528.5)">
    <path d="m-182.72-690.4c5.4808 29.343 76.037 23.676 93.08 22.257 12.748-1.0609 59.96-15.463 56.556-32.6-7.2651-36.578-54.369-21.449-84.532-17.052-29.459 3.8227-70.979-4.0569-65.104 27.395z"/>
    <path d="m-182.72-669.23c5.4808 29.343 76.037 23.676 93.08 22.257 12.748-1.0609 59.96-15.463 56.556-32.6-7.2651-36.578-54.369-21.449-84.532-17.052-29.459 3.8227-70.979-4.0569-65.104 27.395z"/>
    <path d="m-183.33-695.69v21.167"/>
    <path d="m-79.733-670.33v21.167"/>
    <path d="m-93.513-721.7v21.167"/>
    <path d="m-32.996-697.78v21.167"/>
    <path d="m-166.25-691.72c3.7248 19.745 61.624 15.25 73.207 14.295 8.6636-0.71391 45.474-11.632 43.16-23.164-4.9375-24.614-44.175-12.943-64.674-9.9846-20.021 2.5723-55.686-2.3109-51.693 18.853z"/>
    <path d="m-166.25-670.55c3.7248 19.745 61.624 15.25 73.207 14.295 8.6636-0.71391 45.474-11.632 43.16-23.164-4.9375-24.614-44.175-12.943-64.674-9.9846-20.021 2.5723-55.686-2.3109-51.693 18.853z"/>
    <path d="m-84.852-715.28v21.167"/>
    <path d="m-88.261-677.4v21.167"/>
    <path d="m-93.513-721.7 8.6607 6.4183"/>
    <path d="m-88.394-676.75 8.6607 6.4183"/>
   </g>
   <g transform="matrix(.62884 0 0 .62884 58.01 541.81)">
    <path d="m-182.72-690.4c5.4808 29.343 76.037 23.676 93.08 22.257 12.748-1.0609 59.96-15.463 56.556-32.6-7.2651-36.578-54.369-21.449-84.532-17.052-29.459 3.8227-70.979-4.0569-65.104 27.395z"/>
    <path d="m-182.72-669.23c5.4808 29.343 76.037 23.676 93.08 22.257 12.748-1.0609 59.96-15.463 56.556-32.6-7.2651-36.578-54.369-21.449-84.532-17.052-29.459 3.8227-70.979-4.0569-65.104 27.395z"/>
    <path d="m-183.33-695.69v21.167"/>
    <path d="m-79.733-670.33v21.167"/>
    <path d="m-93.513-721.7v21.167"/>
    <path d="m-32.996-697.78v21.167"/>
    <path d="m-166.25-691.72c3.7248 19.745 61.624 15.25 73.207 14.295 8.6636-0.71391 45.474-11.632 43.16-23.164-4.9375-24.614-44.175-12.943-64.674-9.9846-20.021 2.5723-55.686-2.3109-51.693 18.853z"/>
    <path d="m-166.25-670.55c3.7248 19.745 61.624 15.25 73.207 14.295 8.6636-0.71391 45.474-11.632 43.16-23.164-4.9375-24.614-44.175-12.943-64.674-9.9846-20.021 2.5723-55.686-2.3109-51.693 18.853z"/>
    <path d="m-84.852-715.28v21.167"/>
    <path d="m-88.261-677.4v21.167"/>
    <path d="m-93.513-721.7 8.6607 6.4183"/>
    <path d="m-88.394-676.75 8.6607 6.4183"/>
   </g>
   <g transform="matrix(.62884 0 0 .62884 58.01 555.12)">
    <path d="m-182.72-690.4c5.4808 29.343 76.037 23.676 93.08 22.257 12.748-1.0609 59.96-15.463 56.556-32.6-7.2651-36.578-54.369-21.449-84.532-17.052-29.459 3.8227-70.979-4.0569-65.104 27.395z"/>
    <path d="m-182.72-669.23c5.4808 29.343 76.037 23.676 93.08 22.257 12.748-1.0609 59.96-15.463 56.556-32.6-7.2651-36.578-54.369-21.449-84.532-17.052-29.459 3.8227-70.979-4.0569-65.104 27.395z"/>
    <path d="m-183.33-695.69v21.167"/>
    <path d="m-79.733-670.33v21.167"/>
    <path d="m-93.513-721.7v21.167"/>
    <path d="m-32.996-697.78v21.167"/>
    <path d="m-166.25-691.72c3.7248 19.745 61.624 15.25 73.207 14.295 8.6636-0.71391 45.474-11.632 43.16-23.164-4.9375-24.614-44.175-12.943-64.674-9.9846-20.021 2.5723-55.686-2.3109-51.693 18.853z"/>
    <path d="m-166.25-670.55c3.7248 19.745 61.624 15.25 73.207 14.295 8.6636-0.71391 45.474-11.632 43.16-23.164-4.9375-24.614-44.175-12.943-64.674-9.9846-20.021 2.5723-55.686-2.3109-51.693 18.853z"/>
    <path d="m-84.852-715.28v21.167"/>
    <path d="m-88.261-677.4v21.167"/>
    <path d="m-93.513-721.7 8.6607 6.4183"/>
    <path d="m-88.394-676.75 8.6607 6.4183"/>
   </g>
  </g>
  <g fill="none">
   <path d="m-23.789 128.84c1.3037 7.0375 18.223 5.7038 22.31 5.3697 3.0569-0.24984 14.382-3.6862 13.572-7.7964-1.7289-8.7727-13.028-5.1621-20.262-4.1186-7.0647 0.90607-17.017-0.99798-15.62 6.5452z" stroke="#000" stroke-width="2.7181"/>
   <path transform="matrix(.23977 .00035603 -.00035603 .23977 -145.39 192.83)" d="m506.78-267.66c5.4808 29.343 76.037 23.676 93.08 22.257 12.748-1.0609 59.96-15.463 56.556-32.6-7.2651-36.578-54.369-21.449-84.532-17.052-29.459 3.8227-70.979-4.0569-65.104 27.395z" filter="url(#filter7337-8-2)" stroke="url(#linearGradient17522)" stroke-width="11.336"/>
   <path transform="matrix(.23977 .00035603 -.00035603 .23977 -145.39 192.83)" d="m570.48-297.55c-31.846 2.7678-72.343-3.1515-66.156 29.989 5.7721 30.919 77.093 26.895 95.042 25.4" filter="url(#filter31718-3-5)" stroke="url(#linearGradient17524)" stroke-linecap="round" stroke-linejoin="round" stroke-width="2.8341" style="mix-blend-mode:normal"/>
   <path transform="matrix(.23977 .00035603 -.00035603 .23977 -145.39 192.83)" d="m654.93-278.56c-3.5741-17.994-15.292-21.444-31.389-21.845" filter="url(#filter33811-5-9)" stroke="url(#radialGradient75315-4)" stroke-width="8.5024"/>
  </g>
  <path d="m7.8968 77.07-0.025242 43.217c0.035999 0.0226 0.00728 1.6204 0.23163 1.7003 0.5522 0.19666 0.69065-1.1299 1.6463-0.84914l0.065432-44.065z" color="#000000" style="-inkscape-stroke:none"/>
  <path transform="matrix(.23977 .00035603 -.00035603 .23977 -145.33 148.04)" d="m638.61-296.96 0.15637 180.2c0.30481 1.4943-0.77171 6.5632 0.4482 7.1508 2.9868 1.2619 4.2792-4.3429 7.3954-3.5716v-183.78z" color="#000000" fill="url(#linearGradient17526)" filter="url(#filter7337-8-2)" stroke-width="1.4171" style="-inkscape-stroke:none"/>
  <path d="m-21.359 87.616-0.06622 44.596c0.51311 0.2916 1.1882-0.5381 1.9184-0.20044l0.06592-44.393z" color="#000000" stroke-width=".33976" style="-inkscape-stroke:none"/>
  <path transform="matrix(.23977 .00035603 -.00035603 .23977 -117.85 172.42)" d="m401.91-355.28v188.28h8v-188.28z" clip-path="url(#clipPath38805-6-0)" color="#000000" fill="#fff" filter="url(#filter38448-8-2)" stroke-width="1.4171" style="-inkscape-stroke:none"/>
  <g fill="none">
   <path d="m-20.724 87.07-0.07417 49.952" opacity=".92071" stroke="url(#radialGradient75319-2)" stroke-width="2.7181"/>
   <g>
    <path d="m-23.723 84.048c1.3037 7.0375 18.223 5.7037 22.31 5.3697 3.0569-0.24984 14.382-3.6862 13.572-7.7964-1.7289-8.7727-13.028-5.1621-20.262-4.1186-7.0647 0.90607-17.017-0.99798-15.62 6.5452z" stroke="#000" stroke-width="2.7181"/>
    <path transform="matrix(.23977 .00035603 -.00035603 .23977 -145.33 148.04)" d="m506.78-267.66c5.4808 29.343 76.037 23.676 93.08 22.257 12.748-1.0609 59.96-15.463 56.556-32.6-7.2651-36.578-54.369-21.449-84.532-17.052-29.459 3.8227-70.979-4.0569-65.104 27.395z" filter="url(#filter38845-2-8)" stroke="url(#linearGradient17528)" stroke-linecap="round" stroke-linejoin="round" stroke-width="11.336"/>
    <path transform="matrix(.23977 .00035603 -.00035603 .23977 -145.33 148.04)" d="m570.31-297.42c-31.846 2.7678-72.343-3.1515-66.156 29.989 5.7721 30.919 77.093 26.895 95.042 25.4" filter="url(#filter3748-3-8)" opacity=".76707" stroke="url(#linearGradient17530)" stroke-linecap="round" stroke-linejoin="round" stroke-width="5.6683" style="mix-blend-mode:normal"/>
    <path transform="matrix(.23977 .00035603 -.00035603 .23977 -145.33 148.04)" d="m654.93-278.56c-3.5741-17.994-15.292-21.444-31.389-21.845" filter="url(#filter33811-5-9)" stroke="url(#radialGradient75315-4)" stroke-width="8.5024"/>
   </g>
   <path d="m8.4734 82.095-0.074174 49.952" opacity=".78407" stroke="url(#radialGradient75327-6)" stroke-width="2.7181"/>
  </g>
 </g>
</svg>
