<?xml version="1.0" encoding="UTF-8"?>
<svg width="400" height="400" version="1.1" viewBox="0 0 105.83 105.83" xmlns="http://www.w3.org/2000/svg">
 <defs>
  <filter id="a" x="0" y="0" width="1" height="1" color-interpolation-filters="sRGB">
   <feTurbulence baseFrequency="7.30039 7.35151" numOctaves="2" result="turbulence" seed="238" type="fractalNoise"/>
   <feDisplacementMap in="SourceGraphic" in2="turbulence" scale="29.108" xChannelSelector="R" yChannelSelector="G"/>
  </filter>
  <filter id="b" x="-.030581" y="-2.2712" width="1.0612" height="5.5424" color-interpolation-filters="sRGB">
   <feGaussianBlur stdDeviation="1.252"/>
  </filter>
  <filter id="c" x="0" y="0" width="1" height="1" color-interpolation-filters="sRGB">
   <feTurbulence baseFrequency="2.92971 3.53067" numOctaves="2" result="turbulence" seed="249" type="fractalNoise"/>
   <feDisplacementMap in="SourceGraphic" in2="turbulence" scale="14.517" xChannelSelector="R" yChannelSelector="G"/>
  </filter>
  <clipPath id="d">
   <path d="M319.791 68.133a7.123 7.123 0 0 0-7.093 6.483 5.776 5.776 0 0 0-.892-.072 5.854 5.854 0 0 0-5.796 5.046 3.338 3.338 0 0 0 .223 6.668h26.56a3.34 3.34 0 0 0 2.191-5.857c.109-.504.17-1.026.17-1.563a7.42 7.42 0 0 0-9.225-7.196 7.12 7.12 0 0 0-6.138-3.51z" fill="#fff" style="paint-order:fill markers stroke"/>
  </clipPath>
 </defs>
 <g fill="#1d2a30">
  <path transform="translate(17.08 -25.511)" d="M65.287 85.436v-.165h-6.752a1.492 1.492 0 0 1-1.496-1.496 1.492 1.492 0 0 1 1.496-1.496h6.752c.414 0 .787.167 1.058.438s.438.644.438 1.058c0 .413-.167.786-.438 1.057a1.49 1.49 0 0 1-1.058.439v.331a1.827 1.827 0 1 0 0-3.655h-6.752a1.828 1.828 0 0 0 0 3.655h6.752v-.166"/>
  <path transform="translate(17.08 -25.511)" d="M76.822 120.22v-.166h-86.834v-60.89h86.668v61.055h.166v-.165.165h.166V59a.166.166 0 0 0-.166-.165h-87a.166.166 0 0 0-.167.165v61.22c0 .044.017.086.05.118.03.03.073.048.116.048h87a.166.166 0 0 0 .167-.166h-.166"/>
  <path transform="translate(17.08 -25.511)" d="M50.968 60.847v.33a.166.166 0 0 0 .332 0v-.33a.166.166 0 0 0-.332 0zm0 1.322v.33a.166.166 0 0 0 .332 0v-.33a.166.166 0 0 0-.332 0zm0 1.323v.33a.166.166 0 0 0 .332 0v-.33a.166.166 0 0 0-.332 0zm0 1.322v.331a.166.166 0 0 0 .332 0v-.33a.166.166 0 0 0-.332 0zm0 1.323v.33a.166.166 0 0 0 .332 0v-.33a.166.166 0 0 0-.332 0zm0 1.323v.33a.166.166 0 0 0 .332 0v-.33a.166.166 0 0 0-.332 0zm0 1.322v.33a.166.166 0 0 0 .332 0v-.33a.166.166 0 0 0-.332 0zm0 1.323v.33a.166.166 0 0 0 .332 0v-.33a.166.166 0 0 0-.332 0zm0 1.322v.331a.166.166 0 0 0 .332 0v-.33a.166.166 0 0 0-.332 0zm0 1.323v.33a.166.166 0 0 0 .332 0v-.33a.166.166 0 0 0-.332 0zm0 1.323v.33a.166.166 0 0 0 .332 0v-.33a.166.166 0 0 0-.332 0zm0 1.322v.33a.166.166 0 0 0 .332 0v-.33a.166.166 0 0 0-.332 0zm0 1.323v.33a.166.166 0 0 0 .332 0v-.33a.166.166 0 0 0-.332 0zm0 1.322v.331a.166.166 0 0 0 .332 0v-.33a.166.166 0 0 0-.332 0zm0 1.323v.33a.166.166 0 0 0 .332 0v-.33a.166.166 0 0 0-.332 0zm0 1.323v.33a.166.166 0 0 0 .332 0v-.33a.166.166 0 0 0-.332 0zm0 1.322v.33a.166.166 0 0 0 .332 0v-.33a.166.166 0 0 0-.332 0zm0 1.322v.331a.166.166 0 0 0 .332 0v-.33a.166.166 0 0 0-.332 0zm0 1.323v.331a.166.166 0 0 0 .332 0v-.33a.166.166 0 0 0-.332 0zm0 1.323v.33a.166.166 0 0 0 .332 0v-.33a.166.166 0 0 0-.332 0zm0 1.322v.33a.166.166 0 0 0 .332 0v-.33a.166.166 0 0 0-.332 0zm0 1.323v.33a.166.166 0 0 0 .332 0v-.33a.166.166 0 0 0-.332 0zm0 1.322v.331a.166.166 0 0 0 .332 0v-.33a.166.166 0 0 0-.332 0zm0 1.323v.33a.166.166 0 0 0 .332 0v-.33a.166.166 0 0 0-.332 0zm0 1.323v.33a.166.166 0 0 0 .332 0v-.33a.166.166 0 0 0-.332 0zm0 1.322v.33a.166.166 0 0 0 .332 0v-.33a.166.166 0 0 0-.332 0zm0 1.323v.33a.166.166 0 0 0 .332 0v-.33a.166.166 0 0 0-.332 0zm0 1.322v.331a.166.166 0 0 0 .332 0v-.33a.166.166 0 0 0-.332 0zm0 1.323v.33a.166.166 0 0 0 .332 0v-.33a.166.166 0 0 0-.332 0zm0 1.323v.33a.166.166 0 0 0 .332 0v-.33a.166.166 0 0 0-.332 0zm0 1.322v.33a.166.166 0 0 0 .332 0v-.33a.166.166 0 0 0-.332 0zm0 1.323v.33a.166.166 0 0 0 .332 0v-.33a.166.166 0 0 0-.332 0zm0 1.322v.331a.166.166 0 0 0 .332 0v-.33a.166.166 0 0 0-.332 0zm0 1.323v.33a.166.166 0 0 0 .332 0v-.33a.166.166 0 0 0-.332 0zm0 1.323v.33a.166.166 0 0 0 .332 0v-.33a.166.166 0 0 0-.332 0zm0 1.322v.33a.166.166 0 0 0 .332 0v-.33a.166.166 0 0 0-.332 0zm0 1.323v.33a.166.166 0 0 0 .332 0v-.33a.166.166 0 0 0-.332 0zm0 1.322v.331a.166.166 0 0 0 .332 0v-.33a.166.166 0 0 0-.332 0zm0 1.323v.33a.166.166 0 0 0 .332 0v-.33a.166.166 0 0 0-.332 0zm0 1.323v.33a.166.166 0 0 0 .332 0v-.33a.166.166 0 0 0-.332 0zm0 1.322v.33a.166.166 0 0 0 .332 0v-.33a.166.166 0 0 0-.332 0zm0 1.323v.33a.166.166 0 0 0 .332 0v-.33a.166.166 0 0 0-.332 0zm0 1.322v.331a.166.166 0 0 0 .332 0v-.33a.166.166 0 0 0-.332 0zm0 1.323v.33a.166.166 0 0 0 .332 0v-.33a.166.166 0 0 0-.332 0M-7.973 106.656h.331a.166.166 0 0 0 0-.331h-.33a.166.166 0 0 0 0 .331zm1.323 0h.33a.165.165 0 1 0 0-.331h-.33a.165.165 0 1 0 0 .33zm1.322 0h.33a.166.166 0 0 0 0-.331h-.33a.166.166 0 0 0 0 .331zm1.322 0h.33a.165.165 0 1 0 0-.331h-.33a.165.165 0 1 0 0 .33zm1.322 0h.33a.165.165 0 1 0 0-.331h-.33a.166.166 0 0 0 0 .331zm1.322 0h.33a.166.166 0 0 0 0-.331h-.33a.166.166 0 0 0 0 .331zm1.322 0h.33a.166.166 0 0 0 0-.331h-.33a.166.166 0 0 0 0 .331zm1.323 0h.33a.165.165 0 1 0 0-.331h-.33a.166.166 0 0 0 0 .331zm1.322 0h.33a.166.166 0 0 0 0-.331h-.33a.166.166 0 0 0 0 .331zm1.322 0h.33a.166.166 0 0 0 0-.331h-.33a.166.166 0 0 0 0 .331zm1.322 0h.33a.166.166 0 0 0 0-.331h-.33a.166.166 0 0 0 0 .331zm1.322 0h.33a.165.165 0 1 0 0-.331h-.33a.165.165 0 1 0 0 .33zm1.322 0h.331a.166.166 0 0 0 0-.331h-.33a.166.166 0 0 0 0 .331zm1.323 0h.33a.165.165 0 1 0 0-.331h-.33a.165.165 0 1 0 0 .33zm1.322 0h.33a.166.166 0 0 0 0-.331h-.33a.165.165 0 1 0 0 .33zm1.322 0h.33a.166.166 0 0 0 0-.331h-.33a.166.166 0 0 0 0 .331zm1.322 0h.33a.166.166 0 0 0 0-.331h-.33a.165.165 0 1 0 0 .33zm1.322 0h.33a.165.165 0 1 0 0-.331h-.33a.166.166 0 0 0 0 .331zm1.322 0h.331a.166.166 0 0 0 0-.331h-.33a.166.166 0 0 0 0 .331zm1.323 0h.33a.166.166 0 0 0 0-.331h-.33a.165.165 0 1 0 0 .33zm1.322 0h.33a.166.166 0 0 0 0-.331h-.33a.165.165 0 1 0 0 .33zm1.322 0h.33a.166.166 0 0 0 0-.331h-.33a.166.166 0 0 0 0 .331zm1.322 0h.33a.166.166 0 0 0 0-.331h-.33a.165.165 0 1 0 0 .33zm1.322 0h.33a.166.166 0 0 0 0-.331h-.33a.166.166 0 0 0 0 .331zm1.323 0h.33a.166.166 0 0 0 0-.331h-.33a.166.166 0 0 0 0 .331zm1.322 0h.33a.166.166 0 0 0 0-.331h-.33a.166.166 0 0 0 0 .331zm1.322 0h.33a.166.166 0 0 0 0-.331h-.33a.165.165 0 1 0 0 .33zm1.322 0h.33a.165.165 0 1 0 0-.331h-.33a.166.166 0 0 0 0 .331zm1.322 0h.33a.166.166 0 0 0 0-.331h-.33a.166.166 0 0 0 0 .331zm1.322 0h.331a.165.165 0 1 0 0-.331h-.33a.166.166 0 0 0 0 .331zm1.322 0h.331a.165.165 0 1 0 0-.331h-.33a.166.166 0 0 0 0 .331zm1.323 0h.33a.166.166 0 0 0 0-.331h-.33a.166.166 0 0 0 0 .331zm1.322 0h.33a.166.166 0 0 0 0-.331h-.33a.165.165 0 1 0 0 .33zm1.322 0h.33a.166.166 0 0 0 0-.331h-.33a.165.165 0 1 0 0 .33zm1.322 0h.33a.166.166 0 0 0 0-.331h-.33a.166.166 0 0 0 0 .331zm1.322 0h.331a.166.166 0 0 0 0-.331h-.33a.165.165 0 1 0 0 .33zm1.322 0h.331a.165.165 0 1 0 0-.331h-.33a.166.166 0 0 0 0 .331zm1.323 0h.33a.166.166 0 0 0 0-.331h-.33a.166.166 0 0 0 0 .331zm1.322 0h.33a.166.166 0 0 0 0-.331h-.33a.166.166 0 0 0 0 .331zm1.322 0h.33a.166.166 0 0 0 0-.331h-.33a.165.165 0 1 0 0 .33zm1.322 0h.33a.165.165 0 1 0 0-.331h-.33a.165.165 0 1 0 0 .33zm1.322 0h.331a.166.166 0 0 0 0-.331h-.33a.166.166 0 0 0 0 .331zm1.322 0h.331a.165.165 0 1 0 0-.331h-.33a.166.166 0 0 0 0 .331zm1.323 0h.33a.165.165 0 1 0 0-.331h-.33a.165.165 0 1 0 0 .33zm1.322 0h.33a.166.166 0 0 0 0-.331h-.33a.166.166 0 0 0 0 .331zm1.322 0h.33a.166.166 0 0 0 0-.331h-.33a.165.165 0 1 0 0 .33zm1.322 0h.331a.166.166 0 0 0 0-.331h-.33a.165.165 0 1 0 0 .33zm1.322 0h.33a.166.166 0 1 0 0-.331h-.33a.166.166 0 0 0 0 .331zm1.323 0h.33a.165.165 0 1 0 0-.331h-.33a.165.165 0 1 0 0 .33zm1.322 0h.33a.165.165 0 1 0 0-.331h-.33a.165.165 0 1 0 0 .33zm1.322 0h.33a.166.166 0 0 0 0-.331h-.33a.166.166 0 0 0 0 .331zm1.322 0h.33a.166.166 0 0 0 0-.331h-.33a.165.165 0 1 0 0 .33zm1.322 0h.33a.166.166 0 1 0 0-.331h-.33a.165.165 0 1 0 0 .33zm1.322 0h.33a.165.165 0 1 0 0-.331h-.33a.166.166 0 0 0 0 .331zm1.323 0h.33a.166.166 0 0 0 0-.331h-.33a.166.166 0 0 0 0 .331zm1.322 0h.33a.165.165 0 1 0 0-.331h-.33a.165.165 0 1 0 0 .33zm1.322 0h.33a.166.166 0 0 0 0-.331h-.33a.166.166 0 0 0 0 .331zm1.322 0h.33a.166.166 0 0 0 0-.331h-.33a.166.166 0 0 0 0 .331zm1.322 0h.33a.166.166 0 0 0 0-.331h-.33a.165.165 0 1 0 0 .33zm1.322 0h.331a.166.166 0 0 0 0-.331h-.33a.166.166 0 0 0 0 .331zm1.323 0h.33a.166.166 0 0 0 0-.331h-.33a.166.166 0 0 0 0 .331zm1.322 0h.33a.165.165 0 1 0 0-.331h-.33a.165.165 0 1 0 0 .33zm1.322 0h.33a.166.166 0 0 0 0-.331h-.33a.166.166 0 0 0 0 .331"/>
  <path transform="translate(17.08 -25.511)" d="M51.705 107.061v-.166h-.976v-.81h.81v.976h.166v-.166.166h.165v-1.141a.166.166 0 0 0-.166-.166h-1.141a.168.168 0 0 0-.167.166v1.141c0 .043.018.086.05.117.03.03.073.049.117.049h1.141a.168.168 0 0 0 .166-.166h-.165"/>
  <path transform="translate(17.08 -25.511)" d="M81.79 125.187v-.166H-5.046v-60.89h86.669v61.056h.165v-.166.166h.166v-61.22a.165.165 0 0 0-.166-.165h-87a.168.168 0 0 0-.117.047.168.168 0 0 0-.05.117v61.22c0 .045.018.087.05.118.03.03.073.048.117.048h87a.166.166 0 0 0 .166-.165h-.166"/>
  <path transform="translate(-2431.5 -488) scale(.93872)" d="M2695.504 626.044v-.177H2603v-64.864h92.326v65.04h.177v-.176.177h.176v-65.217a.178.178 0 0 0-.177-.177h-92.679a.178.178 0 0 0-.177.177v65.217a.178.178 0 0 0 .177.176h92.68a.177.177 0 0 0 .176-.176h-.176" filter="url(#a)"/>
  <path transform="translate(17.08 -25.511)" d="M57.181 73.19h12.824a.331.331 0 1 0 0-.662H57.181a.33.33 0 1 0 0 .663M57.181 75.247h12.824a.331.331 0 1 0 0-.663H57.181a.33.33 0 1 0 0 .663M57.181 77.342h7.31a.331.331 0 0 0 0-.662h-7.31a.331.331 0 1 0 0 .662"/>
 </g>
 <path transform="matrix(.93872 0 0 -1.1175 -323.64 305.29)" d="m352.01 182.68h98.258v1.323h-98.258z" filter="url(#b)" opacity=".36652" style="mix-blend-mode:normal;paint-order:fill markers stroke"/>
 <g stroke-width="1.4171">
  <path transform="translate(-299.39 -62.2) scale(.93872)" d="M363.49 67.857a7.123 7.123 0 0 0-7.093 6.484 5.776 5.776 0 0 0-.892-.073 5.855 5.855 0 0 0-5.796 5.046 3.338 3.338 0 0 0 .224 6.668h26.56a3.34 3.34 0 0 0 2.19-5.857c.109-.504.17-1.026.17-1.563a7.42 7.42 0 0 0-9.225-7.195 7.12 7.12 0 0 0-6.138-3.51z" fill="none" stroke="#000" stroke-dasharray=".749864,.749864" stroke-linecap="round" stroke-linejoin="round" stroke-width=".37493" style="paint-order:fill markers stroke"/>
  <path transform="translate(-258.6 -62.427) scale(.93872)" d="m334.876 80.264.172.04a7.42 7.42 0 0 0-9.165-8.832l.046.17.154-.086a7.124 7.124 0 0 0-13.317 3.052l.176.01.033-.173a5.904 5.904 0 0 0-1.084-.104 5.856 5.856 0 0 0-5.817 5.195l.176.02-.004-.176a3.338 3.338 0 0 0 .073 6.674h26.559a3.34 3.34 0 0 0 2.11-5.927l-.112.137.172.04-.172-.04-.111.137c.671.548 1.1 1.38 1.1 2.314 0 .825-.334 1.57-.875 2.112-.541.54-1.287.874-2.112.874h-26.56c-.824 0-1.57-.334-2.11-.874a2.985 2.985 0 0 1 2.046-5.095.176.176 0 0 0 .171-.157 5.503 5.503 0 0 1 5.466-4.881c.347 0 .687.036 1.019.098.05.01.1-.003.14-.035a.176.176 0 0 0 .068-.128 6.772 6.772 0 0 1 12.658-2.9c.04.07.122.105.2.084a7.07 7.07 0 0 1 6.84 1.825 7.045 7.045 0 0 1 1.888 6.587.176.176 0 0 0 .06.176l.112-.137" clip-path="url(#d)" fill="#1d2a30" filter="url(#c)"/>
 </g>
</svg>
