<svg xmlns="http://www.w3.org/2000/svg" width="213.688" height="135.548" viewBox="0 0 56.538 35.864"><defs><clipPath id="b" clipPathUnits="userSpaceOnUse"><path d="m-152.588-155.062-.099-15.983c11.342-1.706 24.69-1.377 26.754 10.644.472 2.746-1.684 5.404-5.26 7.559-4.488-3.642-14.56-3.012-21.395-2.22z" style="fill:#fff;stroke:none;stroke-width:1.66469;stroke-linecap:round;stroke-linejoin:round;stroke-miterlimit:4;stroke-dasharray:none;stroke-opacity:1"/></clipPath><clipPath id="d" clipPathUnits="userSpaceOnUse"><path d="m-157.736-154.108-.118-18.991c13.476-2.028 29.337-1.637 31.79 12.647.56 3.262-2.002 6.42-6.25 8.981-5.333-4.327-17.301-3.578-25.422-2.637z" style="fill:#fff;stroke:none;stroke-width:1.978;stroke-linecap:round;stroke-linejoin:round;stroke-miterlimit:4;stroke-dasharray:none;stroke-opacity:1"/></clipPath><clipPath id="e" clipPathUnits="userSpaceOnUse"><path d="M-139.833-6.445c-13.777 1.77-34.96.01-45.597 5.691-3.295-2.03-5.468-4.671-6.096-8.004-3.993-21.164 31.672-16.281 51.693-18.853 7.97-1.15 18.771-3.625 29.442-4.775l.154 21.151c-10.614 1.125-21.549 3.629-29.596 4.79z" style="fill:#fff;stroke:none;stroke-width:2;stroke-linecap:butt;stroke-linejoin:round;stroke-miterlimit:4;stroke-dasharray:none;stroke-opacity:1"/></clipPath><clipPath id="g" clipPathUnits="userSpaceOnUse"><path d="M-123.83-240.31c3.898-.748 9.31-2.074 13.242-2.625 20.969-2.938 41.04-1.395 45.377 22.428 2.609 14.33-27.732 26.718-43.98 30.764l-8.729-7.467c10.44-1.995 40.862-12.176 38.932-22.677-2.88-15.663-21.495-16.09-37.312-13.868z" style="fill:#fff;stroke:none;stroke-width:.482052;stroke-linecap:butt;stroke-linejoin:round;stroke-miterlimit:4;stroke-dasharray:1.9282,.964105;stroke-dashoffset:0;stroke-opacity:1"/></clipPath><clipPath id="i" clipPathUnits="userSpaceOnUse"><path d="M-144.815-111.06c11.777-2.327 33.242-9.206 33.703-17.11l-.006 12.763c-.793 7.88-27.812 16.17-33.651 17.172z" style="fill:#fff;stroke:none;stroke-width:2.00001;stroke-linecap:butt;stroke-linejoin:round;stroke-miterlimit:4;stroke-dasharray:none;stroke-opacity:1"/></clipPath><clipPath id="j" clipPathUnits="userSpaceOnUse"><path d="M-307.293 87.449c.009 1.682.219 4.21.589 6.192 5.48 29.343 76.037 23.676 93.08 22.257 2.784-.231 7.212-1.1 12.287-2.464l-.11 21.197c-5.09 1.359-9.433 2.206-12.177 2.434-17.043 1.418-87.6 7.086-93.08-22.257a33.742 33.742 0 0 1-.59-6.193z" style="fill:#fff;stroke:none;stroke-width:2;stroke-linecap:butt;stroke-linejoin:round;stroke-opacity:1"/></clipPath><clipPath id="k" clipPathUnits="userSpaceOnUse"><path d="M-151.4-110.21c14.078-2.783 39.738-11.006 40.29-20.454l-.008 15.257c-.949 9.42-33.247 19.331-40.228 20.527z" style="fill:#fff;stroke:none;stroke-width:2;stroke-linecap:butt;stroke-linejoin:round;stroke-miterlimit:4;stroke-dasharray:none;stroke-opacity:1"/></clipPath><clipPath id="l" clipPathUnits="userSpaceOnUse"><path d="M-116.575 79.567c-12.425.997-63.86 4.984-67.855-15.658-4.282-22.125 25.985-16.582 47.46-19.271 5.338-.751 11.404-1.947 17.605-2.96l6.084 4.684c-7.78.81-15.654 2.55-21.464 3.36-14.595 1.809-40.594-1.626-37.684 13.262 2.716 13.89 44.924 10.728 53.368 10.056 1.094-.087 1.813-.144 4.47-.564l7.054 5.336c-3.78.98-7.009 1.592-9.038 1.755z" style="fill:#fff;stroke:none;stroke-width:2;stroke-linecap:round;stroke-linejoin:round;stroke-miterlimit:4;stroke-dasharray:none;stroke-opacity:1"/></clipPath><filter id="c" width="1.061" height="1.087" x="-.031" y="-.044" style="color-interpolation-filters:sRGB"><feTurbulence baseFrequency=".08" numOctaves="5" type="fractalNoise"/><feGaussianBlur result="result91"/><feDisplacementMap in="SourceGraphic" in2="result91" result="result1" scale="20" xChannelSelector="R" yChannelSelector="G"/><feComposite in="result1" in2="SourceGraphic" operator="atop" result="fbSourceGraphic"/><feColorMatrix in="fbSourceGraphic" result="fbSourceGraphicAlpha" values="0 0 0 -1 0 0 0 0 -1 0 0 0 0 -1 0 0 0 0 1 0"/><feTurbulence baseFrequency="5.5236 6.19703" result="turbulence" seed="88" type="fractalNoise"/><feDisplacementMap in="fbSourceGraphic" in2="turbulence" scale="18.08" xChannelSelector="R" yChannelSelector="G"/></filter><filter id="f" width="1.046" height="1.119" x="-.023" y="-.059" style="color-interpolation-filters:sRGB"><feTurbulence baseFrequency=".08" numOctaves="5" type="fractalNoise"/><feGaussianBlur result="result91" stdDeviation=".177"/><feDisplacementMap in="SourceGraphic" in2="result91" result="result1" scale="20" xChannelSelector="R" yChannelSelector="G"/><feComposite in="result1" in2="SourceGraphic" operator="atop" result="fbSourceGraphic"/><feColorMatrix in="fbSourceGraphic" result="fbSourceGraphicAlpha" values="0 0 0 -1 0 0 0 0 -1 0 0 0 0 -1 0 0 0 0 1 0"/><feTurbulence baseFrequency=".08" numOctaves="5" type="fractalNoise"/><feGaussianBlur result="result91" stdDeviation=".5"/><feDisplacementMap in="fbSourceGraphic" in2="result91" result="result1" scale="20" xChannelSelector="R" yChannelSelector="G"/><feComposite in="result1" in2="fbSourceGraphic" operator="atop" result="fbSourceGraphic"/><feColorMatrix in="fbSourceGraphic" result="fbSourceGraphicAlpha" values="0 0 0 -1 0 0 0 0 -1 0 0 0 0 -1 0 0 0 0 1 0"/><feTurbulence baseFrequency="10 5.02626" numOctaves="4" result="turbulence" seed="39" type="fractalNoise"/><feDisplacementMap in="fbSourceGraphic" in2="turbulence" scale="15.503" xChannelSelector="R" yChannelSelector="G"/></filter><filter id="h" width="1.038" height="1.041" x="-.019" y="-.02" style="color-interpolation-filters:sRGB"><feTurbulence baseFrequency="1.3551 2.40718" result="turbulence" seed="97" type="fractalNoise"/><feDisplacementMap in="SourceGraphic" in2="turbulence" scale="21.5" xChannelSelector="R" yChannelSelector="G"/></filter><filter id="m" width="1.002" height="1.007" x="-.002" y="-.003" style="color-interpolation-filters:sRGB"><feTurbulence baseFrequency="4.75928 5.3412" numOctaves="3" result="turbulence" seed="226"/><feDisplacementMap in="SourceGraphic" in2="turbulence" scale="24.369" xChannelSelector="R" yChannelSelector="G"/><feGaussianBlur stdDeviation=".002"/></filter><linearGradient id="a"><stop offset="0" style="stop-color:#000;stop-opacity:1"/><stop offset="1" style="stop-color:#000;stop-opacity:0"/></linearGradient></defs><path d="m-157.206-152.881-.591-21.584c17.53-2.258 32.66-1.39 35.852 14.519.73 3.633-2.604 7.15-8.13 10.003-6.936-4.82-16.568-3.986-27.13-2.938z" clip-path="url(#b)" style="fill:#fff;stroke:#000;stroke-width:2.20304;stroke-linecap:round;stroke-linejoin:round;stroke-miterlimit:4;stroke-dasharray:none;stroke-opacity:1;filter:url(#c)" transform="matrix(.51469 .22059 -.18934 .44456 85.513 121.66)"/><path d="M33.681 11.743c-4.84-1.37-11.643-4.985-15.998-4.595-.807-1.152-1.152-2.35-.884-3.559 1.698-7.68 12.876-.949 19.91 1.045 2.82.75 6.77 1.46 10.488 2.597l-2.975 7.128c-3.695-1.137-7.694-1.857-10.54-2.615Z" style="fill:none;fill-opacity:1;fill-rule:nonzero;stroke:none;stroke-width:.37205;stroke-linecap:butt;stroke-linejoin:round;stroke-miterlimit:4;stroke-dasharray:none;stroke-opacity:1"/><path d="m-157.206-152.881-.591-21.584c17.53-2.258 32.66-1.39 35.852 14.519.73 3.633-2.604 7.15-8.13 10.003-6.936-4.82-16.568-3.986-27.13-2.938z" clip-path="url(#d)" style="fill:none;stroke:#000;stroke-width:2.20304;stroke-linecap:round;stroke-linejoin:round;stroke-miterlimit:4;stroke-dasharray:none;stroke-opacity:1;filter:url(#c)" transform="matrix(.43316 .18565 -.15935 .37414 80.105 106.01)"/><path d="M35.54 28.083c6.242 1.127 18.254 1.7 20.37-2.65l-3.06 7.177c-2.27 4.267-17.302 3.34-20.36 2.694z" style="fill:#fff;stroke:none;stroke-width:.186025;stroke-linecap:butt;stroke-linejoin:round;stroke-miterlimit:4;stroke-dasharray:none;stroke-opacity:1"/><path d="M-139.833-6.445c-13.777 1.77-34.96.01-45.597 5.691-3.295-2.03-5.468-4.671-6.096-8.004-3.993-21.164 31.672-16.281 51.693-18.853 7.97-1.15 18.771-3.625 29.442-4.775l.154 21.151c-10.614 1.125-21.549 3.629-29.596 4.79z" clip-path="url(#e)" style="mix-blend-mode:normal;fill:#fff;stroke:#000;stroke-width:.511473;stroke-linecap:butt;stroke-linejoin:round;stroke-miterlimit:4;stroke-dasharray:none;stroke-opacity:1;filter:url(#f)" transform="matrix(.333 .14272 -.14307 .33592 71.439 38.574)"/><path d="M-125.415-240.68c4.32-.76 14.22-2.495 18.579-3.054 23.24-2.984 37.047-.195 41.853 24.005 2.892 14.557-26.652 27.14-44.659 31.25l-8.868-7.585c11.57-2.027 40.398-12.369 38.258-23.036-3.191-15.91-18.323-16.776-35.852-14.518z" clip-path="url(#g)" style="fill:#fff;stroke:#000;stroke-width:2.27933;stroke-linecap:butt;stroke-linejoin:round;stroke-miterlimit:4;stroke-dasharray:none;stroke-opacity:1;filter:url(#h)" transform="matrix(.36906 .15865 -.14533 .34226 48.262 110.347)"/><path d="M-160.964-113.197c17.075-3.897 48.196-15.414 48.865-28.647l-.01 21.368c-1.15 13.193-40.323 27.074-48.79 28.75z" clip-path="url(#i)" style="fill:none;stroke:#000;stroke-width:1.52811;stroke-linecap:butt;stroke-linejoin:round;stroke-miterlimit:4;stroke-dasharray:none;stroke-opacity:1;filter:url(#h)" transform="matrix(.4828 .20693 -.23954 .56242 78.855 120.51)"/><path d="M31.054 27.151C25.176 25.195.87 17.03 3.243 6.391c2.543-11.405 15.242-2.832 25.599.088 2.59.686 5.605 1.303 8.643 2.034l1.827 3.427c-3.719-1.136-7.669-1.847-10.488-2.598C21.79 7.35 10.612.618 8.913 8.298c-1.585 7.165 18.339 13.917 22.332 15.25.518.172.858.286 2.158.606l2.136 3.93c-1.926-.273-3.525-.614-4.485-.933z" style="fill:#fff;fill-opacity:1;stroke:#000;stroke-width:.186025;stroke-linecap:round;stroke-linejoin:round;stroke-miterlimit:4;stroke-dasharray:none;stroke-opacity:1"/><path d="M3.974 4.231a14.337 14.337 0 0 0-.69 2.165C.91 17.035 25.215 25.201 31.093 27.156c.96.32 2.56.66 4.445.927l-3.07 7.105c-1.889-.27-3.456-.606-4.402-.921C22.188 32.31-2.118 24.145.255 13.507a12.413 12.413 0 0 1 .69-2.166z" style="fill:#f5ffe1;fill-opacity:1;stroke:#000;stroke-width:.186025;stroke-linecap:butt;stroke-linejoin:round;stroke-opacity:1"/><path d="M-307.293 71.574c.009 1.682.219 4.21.589 6.192 5.48 29.343 76.037 23.676 93.08 22.257 2.784-.231 7.212-1.1 12.287-2.464l-.11 37.072c-5.09 1.359-9.433 2.206-12.177 2.434-17.043 1.418-87.6 7.086-93.08-22.257a33.742 33.742 0 0 1-.59-6.193z" clip-path="url(#j)" style="fill:#fff;fill-opacity:1;stroke:#000;stroke-width:.255736;stroke-linecap:butt;stroke-linejoin:round;stroke-opacity:1;filter:url(#filter56873-3-0)" transform="matrix(.333 .14272 -.14307 .33592 118.815 18.712)"/><path d="M33.681 11.743c-4.84-1.37-11.643-4.985-15.998-4.595-.807-1.152-1.152-2.35-.884-3.559 1.698-7.68 12.876-.949 19.91 1.045 2.82.75 6.77 1.46 10.488 2.597l-2.975 7.128c-3.695-1.137-7.694-1.857-10.54-2.615Z" style="fill:none;fill-opacity:1;fill-rule:nonzero;stroke:none;stroke-width:.37205;stroke-linecap:butt;stroke-linejoin:round;stroke-miterlimit:4;stroke-dasharray:none;stroke-opacity:1"/><path d="M-160.964-113.197c17.075-3.897 48.196-15.414 48.865-28.647l-.01 21.368c-1.15 13.193-40.323 27.074-48.79 28.75z" clip-path="url(#k)" style="fill:none;stroke:#000;stroke-width:1.82674;stroke-linecap:butt;stroke-linejoin:round;stroke-miterlimit:4;stroke-dasharray:none;stroke-opacity:1;filter:url(#h)" transform="matrix(.40388 .1731 -.20038 .47047 74.604 106.14)"/><path d="M25.795 16.452c-4.84-1.37-11.643-4.985-15.998-4.595-.807-1.152-1.152-2.35-.884-3.56C10.611.619 21.789 7.35 28.824 9.343c2.819.751 6.77 1.462 10.488 2.598l-2.976 7.128c-3.695-1.138-7.694-1.857-10.54-2.615Z" style="fill:none;fill-opacity:1;fill-rule:nonzero;stroke:#000;stroke-width:.186025;stroke-linecap:butt;stroke-linejoin:round;stroke-miterlimit:4;stroke-dasharray:none;stroke-opacity:1"/><path d="M-94.681 25.282c-10.518 1.135-24.778 5.3-32.748 6.45-.835.108-11.136 2.22-12.027 2.29-20.45 1.574-53.697-2.784-54.128 17.85-.891 42.674 91.22 23.282 95.89 21.55" clip-path="url(#l)" style="fill:none;stroke:#000;stroke-width:.366275;stroke-linecap:butt;stroke-linejoin:miter;stroke-miterlimit:4;stroke-dasharray:none;stroke-opacity:1;filter:url(#m)" transform="matrix(.4568 .19578 -.20338 .47752 100.488 11.98)"/></svg>