<svg xmlns="http://www.w3.org/2000/svg" width="198.685" height="18.924" viewBox="0 0 52.569 5.007"><defs><linearGradient id="a"><stop offset="0" style="stop-color:#000;stop-opacity:1"/><stop offset="1" style="stop-color:#000;stop-opacity:0"/></linearGradient></defs><path d="M39.465.032c-5.709-.117-11.84.122-16.27.186C19.05.262 13.581.093 8.827.199 6.447.252 4.068.372 2.23.753.39 1.133-.335 1.758.144 2.428c.54.754 3.102 1.313 5.937 1.654 2.835.341 6.14.536 9.491.668 6.702.265 13.662.258 16.323.256 2.787-.002 7.307-.192 11.723-.546 2.208-.176 4.313-.39 6.03-.692 1.717-.302 3.298-.782 2.841-1.377C51.9 1.624 50.091 1 47.635.62c-2.455-.38-5.31-.53-8.17-.588Zm-.259 1.288c2.24.046 4.017.166 5.16.342 1.143.177 1.897.395 2.27.88-.007-.008.066.041-.857.203-.922.163-2.587.349-4.453.498-3.733.299-8.577.469-9.751.47h-.001c-2.637.002-9.288-.001-15.232-.236-2.972-.117-5.749-.298-7.594-.52-1.845-.222-2.562-.416-2.74-.665-.29-.406.008-.494.423-.58.415-.086 1.52-.186 3.295-.226 3.55-.08 9.058.078 14.078.024h.046c4.96-.072 10.877-.282 15.356-.19Z" style="opacity:1;fill:#000;stroke-width:.144703"/></svg>